<svg xmlns="http://www.w3.org/2000/svg" viewBox="0 0 1306.088 588.005" height="588.005" width="1306.088"><g stroke-width=".75"><path d="M572.546 586.828c-29.81-3.112-66.048-13.871-95.148-28.248-58.176-28.743-104.83-75.125-132.844-132.069-12.77-25.956-19.977-46.95-26.514-77.23-3.183-14.744-3.273-16.26-3.273-55.186 0-38.95.087-40.434 3.279-55.187 6.944-32.111 15.74-57.261 28.423-81.264 45.038-85.24 126.219-142.31 221.77-155.906 14.415-2.05 60.226-2.366 74.203-.51 74.14 9.843 138.2 44.07 187.496 100.18 61.769 70.31 85.477 164.241 65.138 258.078C877.31 441.455 818.181 517.5 742.29 555.98c-33.531 17.002-67.689 27.384-101.978 30.995-13.659 1.439-53.408 1.353-67.766-.147zm66.648-21.773c36.088-3.41 78.201-17.576 108.21-36.4 47.522-29.81 81.342-66.985 105.255-115.697 18.777-38.25 27.004-74.466 27.004-118.863 0-44-7.803-78.88-26.321-117.65C813.653 93.35 736.686 36.79 645.258 23.53c-17.893-2.596-66.123-1.854-83.017 1.277-72.857 13.498-131.89 49.706-174.064 106.76-49.336 66.743-65.784 149.91-45.49 230.016 27.402 108.162 120.417 189.886 231.617 203.5 6.004.734 12.827 1.544 15.161 1.798 5.995.653 34.618-.398 49.729-1.826zM348.343 336.91c-1.074-1.074-1.456-12.026-1.456-41.746 0-22.16.331-41.153.736-42.209.622-1.621 3.335-1.918 17.527-1.918 18.885 0 27.36 1.353 34.629 5.529 6.214 3.569 8.7 7.297 10.352 15.525 1.905 9.485-.346 19.026-5.954 25.233-6.477 7.17-12.498 9.47-29.697 11.346l-6.974.76v13.012c0 8.503-.504 13.517-1.455 14.468-.814.814-4.717 1.455-8.854 1.455-4.138 0-8.04-.641-8.854-1.455zm31.43-45.844c7.971-1.474 11.991-5.388 11.991-11.673 0-2.342-.59-5.36-1.31-6.706-1.872-3.497-8.456-5.882-16.238-5.882h-6.71v12.735c0 14.554-.674 13.92 12.267 11.526zm65.734 44.938c-7.44-3.378-15.616-11.489-19.452-19.298-3.153-6.42-3.36-7.82-3.348-22.611.016-14.079.318-16.384 2.857-21.517 1.563-3.162 5.994-8.667 9.847-12.234 8.653-8.01 14.304-9.826 28.2-9.06 16.43.905 25.446 6.92 32.352 21.585 2.857 6.066 3.142 8.045 3.142 21.832 0 14.1-.234 15.638-3.35 21.983-4.535 9.235-13.376 17.333-21.585 19.77-8.954 2.66-22.275 2.45-28.663-.45zm23.876-16.744c2.605-1.303 5.407-4.224 7.27-7.578 2.636-4.746 3.033-6.963 3.039-16.981 0-9.695-.434-12.348-2.771-16.725-3.472-6.5-8.936-9.948-15.78-9.954-7.23-.007-11.706 2.674-15.62 9.353-2.98 5.086-3.344 6.896-3.35 16.67 0 8.933.485 11.893 2.637 15.968 5.674 10.74 14.758 14.159 24.575 9.247zm53.946 15.05c-13.091-6.276-14.021-8.82-6.052-16.544l4.207-4.077 6.232 3.392c8.786 4.782 19.784 5.62 24.52 1.867 2.468-1.956 3.3-3.574 3.032-5.891-.32-2.763-2.574-4.342-16.676-11.685-19.345-10.073-23.218-13.942-24.055-24.034-.906-10.928 6.722-21.59 17.828-24.917 8.149-2.441 21.737-1.734 28.597 1.488 10.851 5.097 12.239 8.656 6.091 15.625-3.312 3.755-5.561 4.131-9.469 1.583-4.357-2.84-12.607-4.224-17.362-2.911-4.515 1.246-7.426 5.481-6.116 8.896.414 1.079 7.104 4.946 14.866 8.593 7.763 3.647 15.695 7.758 17.628 9.134 7.07 5.035 10.363 17.298 7.027 26.173-.705 1.878-3.566 5.752-6.355 8.61-6.2 6.348-13.419 8.753-26.273 8.753-7.953 0-10.372-.555-17.67-4.054zm66.379 2.6c-1.074-1.074-1.455-12.026-1.455-41.746 0-22.16.33-41.153.736-42.209 1.072-2.794 18.074-2.794 19.147 0 .404 1.056.736 20.05.736 42.21 0 29.719-.382 40.671-1.456 41.745-.814.814-4.716 1.455-8.854 1.455-4.137 0-8.04-.641-8.854-1.455zm55.793 0c-1.063-1.064-1.455-10.7-1.455-35.78v-34.325h-9.617c-11.029 0-13.428-1.407-13.428-7.872 0-8.34-1.908-7.896 33.96-7.896 35.869 0 33.962-.444 33.962 7.896 0 6.465-2.4 7.872-13.429 7.872h-9.616v34.324c0 25.08-.392 34.717-1.456 35.78-.838.839-4.851 1.456-9.46 1.456-4.61 0-8.623-.617-9.461-1.455zm56.806-.89c-1.453-2.717-1.57-17.283-.453-56.783l.798-28.2h8.773c6.881 0 8.932.414 9.51 1.918.404 1.056.736 20.05.736 42.21 0 29.719-.382 40.671-1.456 41.745-.822.822-4.761 1.455-9.054 1.455-6.271 0-7.818-.41-8.854-2.346zm54.003.648c-2.574-2.003-26.767-81.058-25.676-83.9.817-2.13 17.11-2.486 18.399-.401.452.73 4.489 15.058 8.971 31.838s8.648 30.409 9.256 30.286c.609-.122 4.666-13.767 9.017-30.322 4.35-16.555 8.34-30.782 8.865-31.616 1.313-2.084 17.316-2.082 18.115.003.684 1.781-23.538 81.651-25.243 83.24-1.818 1.695-19.723 2.415-21.704.873zm57.783.242c-1.074-1.074-1.456-12.026-1.456-41.746 0-22.16.332-41.153.737-42.209.64-1.668 4.182-1.918 27.138-1.918h26.402l.759 3.79c2.21 11.052.775 11.978-18.57 11.978H833.59l-.657 8.186c-.362 4.502-.404 8.596-.094 9.097.31.5 4.76.941 9.89.98 5.131.038 11.507.456 14.168.928 4.716.837 4.861 1.011 5.698 6.857.526 3.678.368 6.589-.409 7.525-.852 1.026-5.891 1.637-15.4 1.866l-14.134.34v18.195l16.9.34c9.93.198 17.557.885 18.496 1.664 2.006 1.665 2.111 12.158.142 14.128-1.04 1.04-8.76 1.455-27.047 1.455-18.288 0-26.008-.415-27.048-1.455zm-811.364.12c-2.264-2.352-2.184-82.725.084-84.997 2.001-2.004 40.632-.864 46.309 1.367 14.6 5.737 18.297 23.15 7.439 35.037l-2.587 2.832 4.599 3.694c5.951 4.78 8.416 9.697 8.416 16.79 0 11.529-4.352 18.219-14.835 22.806-7.093 3.105-46.9 5.094-49.425 2.47zm41.42-17.273c3.67-2.405 5.153-7.152 3.618-11.581-1.62-4.678-8.102-7.406-17.596-7.409-8.03-.001-8.036.001-8.794 3.789-1.047 5.239-.952 16.225.152 17.359 1.653 1.698 19.306.013 22.62-2.158zm-2.185-37.75c1.809-2.473 2.254-8.86.772-11.079-1.813-2.715-6.38-4.123-13.371-4.123h-7.182l-.752 8.048c-.413 4.427-.425 8.577-.027 9.222.405.655 4.726.971 9.792.715 7.196-.363 9.418-.937 10.767-2.782zm58.1 53.579c-7.223-3.475-15.583-12.2-19.212-20.053-2.26-4.892-2.62-7.837-2.62-21.438 0-14.821.204-16.184 3.403-22.698 4.174-8.502 12.319-15.907 20.478-18.617 9.636-3.2 25.189-2.039 33.528 2.505 12.718 6.93 18.635 17.917 19.393 36.014.668 15.939-2.293 26.005-10.253 34.858-8.148 9.063-13.208 11.275-27.13 11.861-10.262.432-12.187.166-17.587-2.432zm24.003-15.836c2.692-1.125 5.046-3.68 7.542-8.187 3.278-5.92 3.628-7.606 3.62-17.468 0-9.03-.488-11.816-2.778-16.119-3.51-6.595-8.91-9.95-16.013-9.95-7.104 0-12.503 3.355-16.014 9.95-4.065 7.638-4.01 24.55.109 32.914 4.704 9.557 13.733 12.955 23.535 8.86zm48.467 17.279c-1.152-1.197-1.512-11.34-1.498-42.267.017-22.381.49-41.436 1.066-42.345.833-1.316 4.712-1.536 19.084-1.083 21.234.67 26.721 2.238 35.523 10.151 8.792 7.905 11.318 14.028 11.986 29.06.784 17.614-2.228 27.406-11.183 36.361-8.206 8.206-13.431 9.781-36.032 10.863-13.575.65-17.765.486-18.946-.74zm36.096-18.373c6.412-4.365 8.615-8.345 9.986-18.04 1.705-12.06-.207-21.343-5.567-27.026-4.079-4.325-11.828-7.217-17.563-6.554l-3.243.375-.963 25.365c-.53 13.951-.684 26.095-.341 26.987 1.084 2.825 13.01 2.079 17.69-1.107zm59.662 18.254c-.972-.972-1.456-6.333-1.456-16.125v-14.67l-12.186-25.91c-6.702-14.25-11.895-26.666-11.54-27.592.488-1.27 2.81-1.595 9.45-1.326 10.285.416 9.3-.813 18.04 22.527 2.817 7.524 5.715 13.49 6.44 13.258.725-.232 4.32-7.753 7.99-16.713 3.669-8.96 7.112-16.972 7.652-17.806.63-.973 3.997-1.516 9.4-1.516 7.7 0 8.418.214 8.418 2.507 0 1.378-5.116 13.262-11.37 26.408l-11.37 23.902-.503 16.116c-.386 12.408-.91 16.374-2.274 17.237-2.578 1.63-14.985 1.41-16.691-.297zm705.015.302c-2.02-.819-3.505-5.116-8.246-23.877-8.967-35.48-10.71-41.679-11.715-41.679-.513 0-4.353 13.782-8.533 30.626s-8.085 31.58-8.679 32.748c-.809 1.59-2.585 2.122-7.078 2.122-5.225 0-6.08-.352-6.632-2.729-.349-1.5-4.446-20.467-9.106-42.148-7.812-36.348-8.314-39.537-6.435-40.935 2.653-1.974 5.84-1.927 7.885.118.898.898 4.552 16.727 8.12 35.174 3.566 18.447 6.897 33.54 7.402 33.54.505 0 4.606-14.773 9.115-32.828 4.508-18.056 8.98-33.611 9.936-34.568 2.789-2.788 8.692-2.208 10.079.99 1.014 2.34 16.958 64.234 16.958 65.833 0 .315.47.573 1.044.573.574 0 3.97-15.092 7.548-33.539 3.577-18.446 7.24-34.274 8.14-35.173 2.068-2.07 4.04-2.072 6.861-.008 2.132 1.559 1.962 2.883-4.093 31.838-9.977 47.714-10.884 51.212-13.807 53.259-2.862 2.004-5.049 2.17-8.764.664zm60.48-1.847c-7.529-3.822-15.436-12.083-18.981-19.832-2.23-4.872-2.594-7.892-2.585-21.438.016-18.69 1.632-23.457 11.538-33.931 7.324-7.743 13.699-10.345 25.305-10.328 10.194.015 18.206 3.622 25.363 11.417 8.768 9.55 10.475 14.695 10.49 31.629.017 17.822-1.977 24.522-9.94 33.379-7.704 8.568-13.332 11.2-25.22 11.797-8.619.433-10.402.132-15.97-2.693zm25.94-9.093c5.028-3.066 10.885-11.176 12.643-17.506 2.385-8.588 1.673-26.23-1.332-33.026-4.999-11.305-11.831-16.213-22.57-16.213-14.574 0-23.33 9.917-25.45 28.819-.91 8.103 1.1 20.716 4.287 26.908 2.29 4.452 7.296 9.656 11.537 11.996 4.144 2.286 16.48 1.709 20.886-.978zm45.46 10.638c-1.075-1.075-1.455-12.264-1.455-42.815 0-30.552.38-41.74 1.455-42.815 2.908-2.908 37.664-.725 45.171 2.837 2.455 1.165 5.794 4.077 7.421 6.472 2.546 3.746 2.958 5.75 2.958 14.377 0 9.848-.079 10.112-4.465 14.968-2.456 2.718-6.56 6.011-9.12 7.317-5.413 2.762-6.054.6 6.483 21.866 4.573 7.758 8.315 14.99 8.315 16.07 0 2.675-8.776 2.724-10.986.062-.868-1.047-5.711-9.098-10.76-17.89l-9.182-15.987-7.581-.361-7.58-.361v17.402c0 18.673-.49 20.313-6.065 20.313-1.734 0-3.809-.655-4.609-1.455zm32.16-47.215c8.763-1.68 12.474-6.123 12.474-14.936 0-11.373-5.293-14.67-24.864-15.485l-8.49-.353-.342 15.094c-.189 8.301-.104 15.719.19 16.483.599 1.56 10.714 1.174 21.031-.803zm41.826 47.215c-1.075-1.075-1.455-12.264-1.455-42.815 0-44.19.016-44.27 6.064-44.27 5.664 0 6.065 1.497 6.065 22.642 0 15.316.34 19.59 1.516 19.097.834-.35 8.884-9.61 17.89-20.577 9.006-10.967 17.563-20.265 19.016-20.661 3.338-.911 7.668.415 7.668 2.349 0 .81-5.458 8.206-12.13 16.435-6.67 8.229-12.128 15.108-12.128 15.288 0 .18 5.714 9.935 12.698 21.678 14 23.539 16.411 27.918 16.411 29.803 0 2.177-9.146 1.481-11.169-.85-1.013-1.167-6.883-10.718-13.046-21.225-6.162-10.507-11.855-19.103-12.65-19.103-.796 0-4.289 3.4-7.762 7.558l-6.314 7.557v12.82c0 13.823-.735 15.73-6.065 15.73-1.734 0-3.808-.656-4.609-1.456zm80.19-2.185c-8.98-4.487-12.308-7.828-10.559-10.601 2.728-4.325 4.637-4.354 11.429-.175 5.393 3.319 8.098 4.144 14.824 4.524 13.151.744 20.311-3.893 20.311-13.153 0-6.787-3.27-9.824-18.68-17.348-16.75-8.177-22.968-13.355-24.806-20.654-2.463-9.782 3.395-20.523 13.76-25.232 10.039-4.56 26.478-2.017 34.275 5.302 3.335 3.13 3.425 4.772.412 7.499-2.21 1.999-2.554 1.94-7.419-1.28-9.32-6.168-25.278-5.114-29.04 1.918-1.948 3.638-1.475 9.156 1.06 12.379 1.27 1.615 9.048 6.29 17.284 10.39 8.886 4.424 16.684 9.225 19.18 11.81 3.826 3.961 4.243 5.096 4.597 12.515.323 6.768-.087 8.98-2.406 12.975-5.171 8.908-13.706 12.753-28.339 12.764-7.137.007-9.838-.612-15.884-3.633z" fill="#fadc55"/><path d="M572.546 586.828c-29.17-3.046-65.47-13.709-93.72-27.53-23.228-11.365-51.437-29.509-49.855-32.067.422-.683.248-.921-.387-.529-1.502.928-4.678-1.047-4.678-2.908 0-.794-1.027-1.595-2.281-1.78-2.674-.392-4.974-2.443-5.052-4.505-.03-.8-.73-1.313-1.555-1.139-2.056.434-27.41-24.576-26.464-26.106.417-.674-.192-1.97-1.352-2.879-1.948-1.527-1.973-1.468-.326.772 1.316 1.792.92 1.657-1.516-.514-3.431-3.059-4.669-5.165-1.48-2.518 1.522 1.263 1.82 1.082 1.82-1.107 0-1.44.778-3.826 1.73-5.303 2.78-4.314 4.432-15.67 2.598-17.848-.844-1-1.93-2.638-2.414-3.638-.485-1.001.387-.183 1.938 1.817 6.45 8.322 17.704 20.866 27.523 30.678 5.758 5.754 9.105 9.393 7.437 8.086l-3.032-2.375 2.285 2.7c1.256 1.485 2.677 2.458 3.156 2.161 1.187-.733 5.475 2.508 5.475 4.138 0 .72.546 1.364 1.213 1.43 2.41.237 5.427 2.407 5.143 3.697-.16.726.527 1.465 1.528 1.644 1 .179 7.004 3.868 13.342 8.2 54.564 37.289 117.383 52.855 184.966 45.833 37.661-3.913 78.763-17.731 108.817-36.583 47.52-29.81 81.341-66.985 105.254-115.697 18.777-38.25 27.004-74.466 27.004-118.863 0-44-7.803-78.88-26.321-117.65C813.653 93.35 736.686 36.79 645.258 23.53c-11.21-1.626-19.66-1.897-43.057-1.381-30.188.666-38.528 1.685-62.17 7.592-6.842 1.71-13.066 2.721-13.832 2.248-.919-.568-1.057-.32-.408.731.733 1.186.316 1.417-1.634.907-1.44-.376-2.347-.248-2.017.286.796 1.288-5.185 2.748-6.904 1.685-.87-.538-.998-.27-.361.76.733 1.186.316 1.418-1.634.908-1.44-.377-2.335-.23-1.991.328.846 1.369-3.88 2.778-5.65 1.684-.845-.522-1.086-.345-.6.441.982 1.59-3.482 3.21-5.465 1.985-.943-.583-1.082-.339-.418.734.727 1.176.435 1.393-1.089.808-1.403-.538-1.798-.34-1.213.606.6.972.163 1.135-1.416.529-1.257-.482-1.865-.458-1.353.055 1.217 1.217-11.191 6.693-12.848 5.67-.697-.431-.927-.233-.512.44.416.672-.626 1.852-2.316 2.622-2.11.961-2.815.985-2.254.077.45-.728-.88-.445-2.955.628-2.074 1.073-3.772 2.229-3.772 2.569 0 .34 1.228-.021 2.73-.802 5.277-2.746 1.071.325-7.755 5.663-4.93 2.98-7.295 4.016-5.284 2.313 2-1.695 2.683-2.733 1.516-2.306-2.14.782-2.898-.728-1.213-2.418.5-.502 1.031-2.64 1.18-4.75.804-11.398 1.274-13.481 3.314-14.689 2.717-1.607 7.867-5.98 5.815-4.938-.833.424-1.516.476-1.516.117 0-1.361 9.848-5.608 11.145-4.806.778.48 1.023.296.573-.432-.957-1.55 8.505-5.556 10.382-4.396.758.469.974.257.509-.497-.983-1.59 3.48-3.21 5.464-1.985.943.583 1.082.34.419-.734-.727-1.176-.436-1.393 1.088-.808 1.145.44 1.81.358 1.477-.18-.844-1.365 7.426-4.192 9.149-3.127.935.578 1.077.335.424-.722-.733-1.185-.316-1.416 1.634-.907 1.677.439 2.33.221 1.819-.606-.511-.827.142-1.045 1.82-.607 1.676.439 2.33.221 1.819-.606-.512-.827.142-1.045 1.819-.606 1.44.376 2.361.27 2.048-.236-1.107-1.792 27.177-8.576 48.475-11.627 14.402-2.063 60.17-2.385 74.202-.522 74.14 9.843 138.2 44.07 187.496 100.18 61.769 70.31 85.477 164.241 65.138 258.079-17.766 81.968-76.895 158.012-152.786 196.493-33.531 17.002-67.689 27.384-101.978 30.995-13.659 1.439-53.408 1.353-67.766-.146zM406.32 507.825c0-.19-3.139-3.328-6.974-6.974l-6.975-6.63 6.63 6.975c6.16 6.479 7.319 7.53 7.319 6.63zm-1.213-29.133c0-.203-2.047-2.25-4.548-4.548l-4.549-4.18 4.18 4.548c3.89 4.234 4.917 5.106 4.917 4.18zm-8.49-9.753c0-.23-1.171-1.458-2.603-2.729-2.588-2.298-2.594-2.296-1.17.418 1.183 2.253 3.773 3.84 3.773 2.311zm-19.561 9.212c-1.51-1.924-1.466-1.967.458-.458 1.167.916 2.122 1.87 2.122 2.123 0 .998-.996.355-2.58-1.665zM2.729 337.029c-2.264-2.351-2.184-82.724.084-84.996 2.001-2.004 40.632-.864 46.309 1.367 14.6 5.737 18.297 23.15 7.439 35.037l-2.587 2.832 4.599 3.694c5.951 4.78 8.416 9.696 8.416 16.79 0 11.529-4.352 18.219-14.835 22.806-7.093 3.104-46.9 5.094-49.425 2.47zm41.42-17.273c3.67-2.404 5.153-7.151 3.618-11.58-1.62-4.678-8.102-7.406-17.596-7.409-8.03-.001-8.036.001-8.794 3.789-1.047 5.239-.952 16.225.152 17.359 1.653 1.698 19.306.013 22.62-2.159zm-2.185-37.749c1.809-2.473 2.254-8.86.772-11.079-1.813-2.715-6.38-4.123-13.371-4.123h-7.182l-.752 8.048c-.413 4.427-.425 8.577-.027 9.222.405.655 4.726.971 9.792.715 7.196-.363 9.418-.938 10.767-2.783zm58.1 53.579c-7.223-3.475-15.583-12.201-19.212-20.053-2.26-4.892-2.62-7.837-2.62-21.438 0-14.821.204-16.184 3.403-22.698 4.174-8.503 12.319-15.907 20.478-18.617 9.636-3.2 25.189-2.039 33.528 2.505 12.718 6.93 18.635 17.917 19.393 36.014.668 15.939-2.293 26.005-10.253 34.858-8.148 9.063-13.208 11.275-27.13 11.861-10.262.432-12.187.166-17.587-2.432zm24.003-15.836c2.692-1.125 5.046-3.68 7.542-8.187 3.278-5.92 3.628-7.606 3.62-17.468 0-9.03-.488-11.816-2.778-16.119-3.51-6.595-8.91-9.95-16.013-9.95-7.104 0-12.503 3.355-16.014 9.95-4.065 7.638-4.01 24.55.109 32.914 4.704 9.557 13.733 12.955 23.535 8.86zm48.467 17.279c-1.152-1.197-1.512-11.34-1.498-42.267.017-22.381.49-41.436 1.066-42.345.833-1.316 4.712-1.536 19.084-1.083 21.234.67 26.721 2.238 35.523 10.15 8.792 7.906 11.318 14.03 11.986 29.061.784 17.614-2.228 27.406-11.183 36.361-8.206 8.206-13.431 9.781-36.032 10.863-13.575.65-17.765.486-18.946-.74zm36.096-18.373c6.412-4.365 8.615-8.345 9.986-18.04 1.705-12.06-.207-21.343-5.567-27.026-4.079-4.325-11.828-7.217-17.563-6.554l-3.243.375-.963 25.365c-.53 13.951-.684 26.095-.341 26.987 1.084 2.825 13.01 2.079 17.69-1.107zm59.662 18.254c-.972-.972-1.456-6.333-1.456-16.125v-14.67l-12.186-25.91c-6.702-14.25-11.895-26.666-11.54-27.592.488-1.27 2.81-1.595 9.45-1.326 10.285.416 9.3-.813 18.04 22.527 2.817 7.524 5.715 13.49 6.44 13.258.725-.232 4.32-7.753 7.99-16.713 3.669-8.96 7.112-16.972 7.652-17.806.63-.973 3.997-1.516 9.4-1.516 7.7 0 8.418.214 8.418 2.507 0 1.378-5.116 13.262-11.37 26.408l-11.37 23.902-.503 16.116c-.386 12.408-.91 16.374-2.274 17.237-2.578 1.63-14.985 1.41-16.691-.297zm80.05 0c-1.073-1.074-1.455-12.026-1.455-41.746 0-22.16.331-41.153.736-42.209.622-1.621 3.335-1.918 17.527-1.918 18.885 0 27.36 1.353 34.629 5.529 6.214 3.569 8.7 7.297 10.352 15.525 1.905 9.485-.346 19.026-5.954 25.233-6.477 7.17-12.498 9.47-29.697 11.346l-6.974.76v13.012c0 8.503-.504 13.517-1.455 14.468-.814.814-4.717 1.455-8.854 1.455-4.138 0-8.04-.641-8.854-1.455zm31.43-45.844c7.972-1.474 11.992-5.388 11.992-11.673 0-2.342-.59-5.36-1.31-6.706-1.872-3.497-8.456-5.882-16.238-5.882h-6.71v12.735c0 14.554-.674 13.92 12.267 11.526zm65.735 44.938c-7.44-3.378-15.616-11.489-19.452-19.298-3.153-6.42-3.36-7.82-3.348-22.611.016-14.079.318-16.384 2.857-21.517 1.563-3.162 5.994-8.667 9.847-12.234 8.653-8.01 14.304-9.826 28.2-9.06 16.43.905 25.446 6.92 32.352 21.585 2.857 6.066 3.142 8.045 3.142 21.832 0 14.1-.234 15.638-3.35 21.983-4.535 9.235-13.376 17.333-21.585 19.77-8.954 2.66-22.275 2.45-28.663-.45zm23.876-16.744c2.605-1.303 5.407-4.224 7.27-7.578 2.636-4.746 3.033-6.963 3.039-16.981 0-9.695-.434-12.348-2.771-16.725-3.472-6.5-8.936-9.948-15.78-9.954-7.23-.007-11.706 2.674-15.62 9.353-2.98 5.086-3.344 6.896-3.35 16.67 0 8.933.485 11.893 2.637 15.968 5.674 10.74 14.758 14.159 24.575 9.247zm53.946 15.05c-13.091-6.276-14.021-8.82-6.052-16.544l4.207-4.077 6.232 3.392c8.786 4.782 19.784 5.62 24.52 1.867 2.468-1.956 3.3-3.574 3.032-5.891-.32-2.763-2.574-4.342-16.676-11.685-19.345-10.073-23.218-13.942-24.055-24.034-.906-10.928 6.722-21.59 17.828-24.917 8.149-2.441 21.737-1.734 28.597 1.488 10.851 5.097 12.239 8.656 6.091 15.625-3.312 3.755-5.561 4.131-9.469 1.583-4.357-2.84-12.607-4.224-17.362-2.911-4.515 1.246-7.426 5.481-6.116 8.896.414 1.079 7.104 4.946 14.866 8.593 7.763 3.647 15.695 7.758 17.628 9.134 7.07 5.035 10.363 17.298 7.027 26.173-.705 1.878-3.566 5.752-6.355 8.61-6.2 6.348-13.419 8.753-26.273 8.753-7.953 0-10.372-.555-17.67-4.054zm66.379 2.6c-1.074-1.074-1.455-12.026-1.455-41.746 0-22.16.33-41.153.736-42.209 1.072-2.794 18.074-2.794 19.147 0 .404 1.056.736 20.05.736 42.21 0 29.719-.382 40.671-1.456 41.745-.814.814-4.716 1.455-8.854 1.455-4.137 0-8.04-.641-8.854-1.455zm55.793 0c-1.063-1.064-1.455-10.7-1.455-35.78v-34.325h-9.617c-11.029 0-13.428-1.407-13.428-7.872 0-8.34-1.908-7.896 33.96-7.896 35.869 0 33.962-.444 33.962 7.896 0 6.465-2.4 7.872-13.429 7.872h-9.616v34.324c0 25.08-.392 34.717-1.456 35.78-.838.839-4.851 1.456-9.46 1.456-4.61 0-8.623-.617-9.461-1.455zm56.806-.89c-1.453-2.717-1.57-17.283-.453-56.783l.798-28.2h8.773c6.881 0 8.932.414 9.51 1.918.404 1.056.736 20.05.736 42.21 0 29.719-.382 40.671-1.456 41.745-.822.822-4.761 1.455-9.054 1.455-6.271 0-7.818-.41-8.854-2.346zm54.003.648c-2.574-2.003-26.767-81.058-25.676-83.9.817-2.13 17.11-2.486 18.399-.401.452.73 4.489 15.058 8.971 31.838s8.648 30.409 9.256 30.286c.609-.122 4.666-13.767 9.017-30.322 4.35-16.555 8.34-30.782 8.865-31.616 1.313-2.084 17.316-2.082 18.115.003.684 1.781-23.538 81.651-25.243 83.24-1.818 1.695-19.723 2.415-21.704.873zm57.783.242c-1.074-1.074-1.456-12.026-1.456-41.746 0-22.16.332-41.153.737-42.209.64-1.668 4.182-1.918 27.138-1.918h26.402l.759 3.79c2.21 11.052.775 11.978-18.57 11.978H833.59l-.657 8.186c-.362 4.502-.404 8.596-.094 9.097.31.5 4.76.941 9.89.98 5.131.038 11.507.456 14.168.928 4.716.837 4.861 1.011 5.698 6.857.526 3.678.368 6.589-.409 7.525-.852 1.026-5.891 1.637-15.4 1.866l-14.134.34v18.195l16.9.34c9.93.198 17.557.885 18.496 1.664 2.006 1.665 2.111 12.158.142 14.128-1.04 1.04-8.76 1.455-27.047 1.455-18.288 0-26.008-.415-27.048-1.455zm159.214.302c-2.02-.819-3.505-5.116-8.246-23.877-8.967-35.48-10.71-41.679-11.715-41.679-.513 0-4.353 13.782-8.533 30.626s-8.085 31.58-8.679 32.748c-.809 1.59-2.585 2.122-7.078 2.122-5.225 0-6.08-.352-6.632-2.729-.349-1.5-4.446-20.467-9.106-42.148-7.812-36.348-8.314-39.537-6.435-40.935 2.653-1.975 5.84-1.927 7.885.118.898.898 4.552 16.726 8.12 35.174 3.566 18.447 6.897 33.54 7.402 33.54.505 0 4.606-14.773 9.115-32.828 4.508-18.056 8.98-33.611 9.936-34.568 2.789-2.788 8.692-2.209 10.079.99 1.014 2.34 16.958 64.234 16.958 65.833 0 .315.47.573 1.044.573.574 0 3.97-15.093 7.548-33.539 3.577-18.446 7.24-34.274 8.14-35.173 2.068-2.07 4.04-2.072 6.861-.009 2.132 1.56 1.962 2.884-4.093 31.839-9.977 47.714-10.884 51.212-13.807 53.259-2.862 2.004-5.049 2.17-8.764.664zm60.48-1.847c-7.529-3.822-15.436-12.083-18.981-19.832-2.23-4.872-2.594-7.892-2.585-21.438.016-18.691 1.632-23.457 11.538-33.931 7.324-7.743 13.699-10.345 25.305-10.328 10.194.014 18.206 3.622 25.363 11.417 8.768 9.55 10.475 14.695 10.49 31.629.017 17.822-1.977 24.522-9.94 33.378-7.704 8.569-13.332 11.201-25.22 11.798-8.619.433-10.402.132-15.97-2.693zm25.94-9.093c5.028-3.066 10.885-11.176 12.643-17.506 2.385-8.588 1.673-26.23-1.332-33.026-4.999-11.305-11.831-16.213-22.57-16.213-14.574 0-23.33 9.917-25.45 28.819-.91 8.103 1.1 20.716 4.287 26.908 2.29 4.452 7.296 9.656 11.537 11.996 4.144 2.286 16.48 1.708 20.886-.978zm45.46 10.638c-1.075-1.075-1.455-12.264-1.455-42.815 0-30.552.38-41.74 1.455-42.816 2.908-2.907 37.664-.724 45.171 2.838 2.455 1.165 5.794 4.077 7.421 6.472 2.546 3.746 2.958 5.75 2.958 14.377 0 9.848-.079 10.112-4.465 14.968-2.456 2.718-6.56 6.011-9.12 7.317-5.413 2.761-6.054.6 6.483 21.866 4.573 7.758 8.315 14.99 8.315 16.07 0 2.675-8.776 2.724-10.986.062-.868-1.047-5.711-9.098-10.76-17.89l-9.182-15.987-7.581-.361-7.58-.361v17.402c0 18.673-.49 20.313-6.065 20.313-1.734 0-3.809-.655-4.609-1.455zm32.16-47.216c8.763-1.679 12.474-6.122 12.474-14.935 0-11.373-5.293-14.67-24.864-15.485l-8.49-.353-.342 15.094c-.189 8.301-.104 15.719.19 16.483.599 1.56 10.714 1.174 21.031-.804zm41.826 47.216c-1.075-1.075-1.455-12.264-1.455-42.815 0-44.19.016-44.271 6.064-44.271 5.664 0 6.065 1.498 6.065 22.643 0 15.316.34 19.59 1.516 19.096.834-.35 8.884-9.609 17.89-20.576s17.563-20.265 19.016-20.661c3.338-.911 7.668.415 7.668 2.349 0 .81-5.458 8.206-12.13 16.435-6.67 8.229-12.128 15.108-12.128 15.288 0 .18 5.714 9.935 12.698 21.678 14 23.539 16.411 27.918 16.411 29.803 0 2.177-9.146 1.481-11.169-.85-1.013-1.167-6.883-10.718-13.046-21.225-6.162-10.507-11.855-19.103-12.65-19.103-.796 0-4.289 3.4-7.762 7.557l-6.314 7.558v12.819c0 13.824-.735 15.73-6.065 15.73-1.734 0-3.808-.655-4.609-1.455zm80.19-2.185c-8.98-4.487-12.308-7.829-10.559-10.601 2.728-4.325 4.637-4.354 11.429-.175 5.393 3.319 8.098 4.144 14.824 4.524 13.151.743 20.311-3.893 20.311-13.153 0-6.788-3.27-9.824-18.68-17.348-16.75-8.177-22.968-13.355-24.806-20.654-2.463-9.782 3.395-20.523 13.76-25.232 10.039-4.56 26.478-2.017 34.275 5.302 3.335 3.13 3.425 4.772.412 7.499-2.21 1.999-2.554 1.94-7.419-1.28-9.32-6.168-25.278-5.114-29.04 1.917-1.948 3.639-1.475 9.157 1.06 12.38 1.27 1.615 9.048 6.29 17.284 10.39 8.886 4.424 16.684 9.225 19.18 11.81 3.826 3.961 4.243 5.096 4.597 12.515.323 6.768-.087 8.98-2.406 12.975-5.171 8.908-13.706 12.753-28.339 12.764-7.137.007-9.838-.612-15.884-3.633zm-925.626-31.534c0-1.667.275-2.35.611-1.516.337.834.337 2.199 0 3.032-.336.834-.611.152-.611-1.516zm0-18.193c0-1.668.275-2.35.611-1.516.337.834.337 2.198 0 3.032-.336.834-.611.152-.611-1.516zM395.403 120.8c0-.252.955-1.207 2.122-2.123 1.924-1.509 1.967-1.466.458.458-1.584 2.02-2.58 2.663-2.58 1.665zm7.277-8.412c0-.209 1.774-1.983 3.942-3.942l3.942-3.563-3.562 3.942c-3.321 3.675-4.322 4.5-4.322 3.563zm-19.406-9.782c0-.252.955-1.207 2.122-2.122 1.924-1.51 1.967-1.466.458.458-1.584 2.02-2.58 2.662-2.58 1.664zm41.238-12.277c1.567-1.668 3.122-3.032 3.455-3.032.334 0-.675 1.364-2.242 3.032-1.567 1.667-3.121 3.032-3.455 3.032-.334 0 .675-1.365 2.242-3.032zm-24.258-6.065c3.624-3.669 6.861-6.67 7.195-6.67.333 0-2.358 3.001-5.982 6.67-3.623 3.67-6.86 6.671-7.194 6.671-.334 0 2.358-3.002 5.981-6.67zm31.535.149c0-.252.956-1.207 2.123-2.123 1.924-1.508 1.967-1.466.458.458-1.585 2.02-2.58 2.663-2.58 1.665zm6.065-4.852c0-.252.955-1.207 2.122-2.122 1.924-1.51 1.967-1.466.458.458-1.584 2.02-2.58 2.662-2.58 1.664zm-23.651-8.032c1.207-1.334 2.468-2.426 2.801-2.426.334 0-.381 1.092-1.589 2.426-1.207 1.334-2.468 2.426-2.801 2.426-.334 0 .381-1.092 1.589-2.426zm6.67-5.31c0-.251.956-1.207 2.123-2.122 1.924-1.509 1.967-1.466.458.458-1.585 2.02-2.58 2.663-2.58 1.664zm38.813-26.77c0-.333 1.637-1.453 3.639-2.488 2-1.034 3.638-1.608 3.638-1.275 0 .334-1.637 1.453-3.638 2.488-2.002 1.035-3.639 1.61-3.639 1.276z" fill="#e6a09d"/><path d="M556.11 582.024c-23.28-3.357-54.3-13.22-77.624-24.682-31.553-15.505-57.687-34.464-80.96-58.734-12.193-12.714-13.522-15.385-9.982-20.064.972-1.285 2.106-4.886 2.52-8.003l.75-5.668 15.333 15.72c18.702 19.173 29.279 28.11 48.834 41.262 30.594 20.575 66.086 35.907 96.278 41.59 17.602 3.314 20.686 4.414 20.197 7.204-.232 1.326-.697 4.73-1.032 7.565-.687 5.817-.584 5.79-14.313 3.81zm142.275-10.216c-.938-.938 1.262-11.777 2.677-13.192.661-.662 1.202-2.395 1.202-3.851 0-2.096 1.458-3.227 6.974-5.416 28.949-11.483 60.58-32.556 86.272-57.473 45.579-44.204 72.981-97.263 82.1-158.969 3.162-21.396 2.857-62.696-.61-82.477-9.254-52.808-29.336-95.712-64.34-137.46-6.897-8.226-15.751-17.778-19.675-21.225-9.928-8.723-12.124-12.767-11.205-20.634.402-3.439.95-6.954 1.218-7.812 2.064-6.608 45.48 34.209 64.687 60.815 40.118 55.572 59.693 127.408 53.425 196.058-3.994 43.734-18.848 88.655-42.087 127.274-13.786 22.91-38.499 51.81-59.65 69.754-25.818 21.906-47.828 35.046-81.012 48.365-17.306 6.947-18.804 7.415-19.976 6.243zM532.876 337.115c-9.288-1.862-19.828-8.231-19.817-11.976 0-2.048 6.675-9.819 8.426-9.819.567 0 3.947 1.351 7.51 3.002 12.438 5.763 23.006 4.81 26.278-2.371 2.085-4.577-1.716-8.031-17.024-15.473-19.124-9.295-22.77-13.372-22.77-25.459 0-8.73 4.052-15.218 12.341-19.758 5.82-3.187 7.54-3.531 17.375-3.478 11.4.063 16.362 1.605 22.135 6.885 3.646 3.333 3.44 5.907-.844 10.492l-3.573 3.825-5.072-2.587c-2.79-1.423-7.973-2.887-11.519-3.253-6.024-.622-6.698-.415-10.28 3.168-3.522 3.522-3.696 4.055-2.13 6.53.938 1.484 8.309 5.975 16.38 9.98 20.626 10.238 23.406 13.261 23.406 25.453 0 12.615-8.543 22.764-20.416 24.256-11.595 1.457-15.491 1.568-20.406.583zm508.181-.017c-10.336-2.043-19.632-9.643-24.866-20.331-3.735-7.626-4.713-30.462-1.731-40.432 2.417-8.082 8.845-16.935 15.496-21.338 4.39-2.908 6.501-3.41 15.874-3.781 8.031-.318 12.181.096 16.149 1.61 6.83 2.61 14.963 10.516 18.765 18.243 2.728 5.544 2.975 7.452 2.975 23.026 0 15.293-.279 17.546-2.804 22.672-3.664 7.44-11.315 15.225-17.626 17.936-6.289 2.702-15.603 3.705-22.232 2.395zm20.554-11.619c3.357-2.359 6.344-6.022 8.75-10.73 3.446-6.74 3.654-7.951 3.638-21.18-.018-14.929-.747-17.489-7.566-26.593-10.633-14.196-33.67-9.792-41.064 7.849-6.068 14.48-3.167 37.696 5.951 47.614 7.533 8.194 21.03 9.549 30.29 3.04zM2.426 294.281v-43.244l5.155.033c2.835.018 13.217.527 23.07 1.13 14.898.913 18.618 1.53 22.075 3.667 6.086 3.761 9.131 9.405 9.131 16.922 0 6.73-1.057 9.526-5.73 15.14l-2.943 3.538 5.462 4.668c6.663 5.696 8.619 10.909 7.488 19.959-.625 5.003-1.776 7.715-4.675 11.018-6.745 7.681-11.395 8.912-36.666 9.709l-22.367.705zm38.118 27.553c4.67-1.592 6.147-2.804 7.575-6.222 3.582-8.574-2.66-14.69-16.097-15.768-10.533-.846-11.403.05-11.403 11.743 0 5.626.576 9.889 1.456 10.768 2.07 2.07 11.655 1.8 18.469-.521zm1.464-39.7c4.85-5.638 3.228-11.864-3.86-14.826-5.019-2.096-14.09-2.244-16.073-.26-1.942 1.941-1.895 15.8.06 17.809 1.028 1.056 4.005 1.405 9.26 1.084 6.635-.405 8.154-.95 10.612-3.808zm56.38 51.83c-7.954-3.963-15.211-12.83-17.806-21.754-2.279-7.84-2.6-26.788-.584-34.49 2.892-11.05 11.85-20.746 22.491-24.342 7.846-2.651 23.111-2.033 30.616 1.24 11.48 5.008 18.818 15.728 21.054 30.76 3.452 23.211-7.356 45.854-24.107 50.506-2.485.69-9.186 1.258-14.892 1.261-8.779.007-11.36-.483-16.772-3.18zm23.15-12.628c5.918-1.644 11.124-8.1 13.575-16.833 2.426-8.646 2.44-12.545.073-20.515-4.96-16.7-21.13-22.42-31.362-11.094-4.397 4.867-8.005 14.465-8.005 21.293 0 7.2 4.513 19.123 8.758 23.138 5.836 5.52 8.91 6.247 16.962 4.01zm50.693-27.249V250.66l16.677.764c18.13.83 27.014 2.843 34.537 7.821 4.556 3.015 10.367 10.255 12.396 15.443 1.825 4.665 2.81 20.508 1.783 28.682-1.822 14.51-8.559 24.424-20.273 29.834-5.691 2.628-8.642 3.045-25.774 3.64l-19.346.67zm34.567 26.23c7.76-3.564 10.502-7.805 12.772-19.752 1.355-7.136-.547-19.602-3.792-24.852-4.224-6.836-19.417-12.246-23.348-8.315-1.737 1.737-2.006 5.377-2.006 27.147 0 17.937.417 25.559 1.455 26.597 2.13 2.13 9.354 1.73 14.919-.826zm61.238 1.977l-.016-14.858-12.116-25.897c-6.664-14.244-12.116-26.65-12.116-27.57 0-2.194 4.2-3.173 11.594-2.704l5.975.378 7.214 18.521c3.967 10.187 7.792 18.336 8.499 18.11.707-.226 4.288-7.742 7.956-16.702 3.67-8.96 7.065-16.894 7.545-17.633.976-1.498 13.53-3.117 16.209-2.089.944.363 1.717 1.162 1.717 1.777s-5.317 12.154-11.815 25.644l-11.815 24.527-.344 13.948c-.507 20.494.055 19.406-10.01 19.406h-8.467zm80.064-28.39v-43.247l19.103.761c27.342 1.09 35.65 4.106 40.454 14.685 2.565 5.646 3.003 16.436.92 22.656-3.696 11.04-11.651 16.143-28.457 18.255-5.937.747-11.477 1.896-12.31 2.554-1.047.827-1.517 5.283-1.517 14.39v13.194H348.1zm29.796-1.722c9.325-1.692 12.233-3.676 13.991-9.542 2.844-9.492-2.59-15.39-15.398-16.711-9.438-.974-10.196.03-10.196 13.517 0 7.04.535 11.666 1.456 12.587 1.762 1.762 1.297 1.755 10.147.15zm66.425 42.69c-6.435-3.009-14.012-10.798-17.612-18.105-2.525-5.126-2.803-7.38-2.803-22.672 0-16.559.089-17.143 3.6-23.48 3.918-7.076 10.51-13.373 17.45-16.674 6.646-3.16 24.639-2.785 32.478.677 16.135 7.127 23.432 23.76 21.043 47.967-1.37 13.885-7.585 24.537-17.818 30.535-5.213 3.056-7.124 3.443-18.547 3.76-10.585.294-13.59-.045-17.79-2.009zm22.985-13.944c6.348-2.717 10.284-7.923 12.485-16.513 2.385-9.307 1.777-18.268-1.697-25.024-6.651-12.935-18.418-16.311-28.19-8.089-5.988 5.039-8.356 11.484-8.373 22.793-.03 20.616 11.717 32.847 25.775 26.833zm122.16-26.833v-43.058h18.192v86.115h-18.194zm55.792 8.638c0-26.726-.351-34.71-1.573-35.725-.866-.718-5.914-1.467-11.22-1.664l-9.645-.359-.361-6.204c-.355-6.1-.296-6.218 3.487-6.974 2.117-.424 15.173-.77 29.016-.77 13.842 0 26.899.346 29.015.77 3.783.756 3.842.874 3.487 6.974l-.36 6.204-9.646.359c-5.306.197-10.354.946-11.22 1.664-1.222 1.015-1.573 9-1.573 35.725v34.42h-19.407zm57.294-8.335l.319-42.755 8.793-.356 8.794-.356v86.221h-18.225zm52.106 38.97c-.647-2.254-6.15-20.246-12.23-39.98-6.08-19.734-11.054-37.027-11.054-38.428 0-3.286 2.673-4.01 10.916-2.957l6.67.853 6.946 25.973c9.664 36.137 10.669 39.385 11.803 38.169.55-.59 4.356-14.17 8.46-30.18 4.103-16.01 7.935-30.257 8.515-31.66 1.728-4.179 18.265-5.324 18.243-1.262-.016 2.377-24.043 79.896-25.084 80.918-.542.532-5.716 1.348-11.498 1.812l-10.512.843zm59.192-39.297V250.99l26.38.326 26.381.327v13.342l-14.555.298c-21.148.432-20.012-.164-20.012 10.512 0 7.036.409 9.1 1.918 9.68 1.056.404 7.541.736 14.414.736 13.988 0 13.937-.037 13.974 10.006l.016 4.548h-13.243c-7.283 0-14.106.332-15.161.737-2.805 1.076-2.805 19.283 0 20.36 1.055.404 9.242.736 18.193.736h16.275v14.554h-54.58zm110.05 42.302c-1.42-2.352-17.94-82.193-17.332-83.774.428-1.116 2.042-1.584 4.609-1.336l3.95.38 6.79 34.283c3.736 18.856 7.147 34.639 7.581 35.073.435.435 1.107.473 1.494.085.388-.387 4.457-15.572 9.042-33.744 4.586-18.172 8.839-33.541 9.451-34.153.613-.613 2.957-.938 5.21-.722 4.059.388 4.12.485 6.742 10.7 1.456 5.671 5.49 21.363 8.965 34.871 3.475 13.509 6.777 24.561 7.337 24.561 1.214 0 .693 2.347 8.345-37.586 3.386-17.67 6.618-32.59 7.182-33.154 1.91-1.91 6.746-.336 7.125 2.318.43 3.012-15.1 77.495-16.834 80.735-1.862 3.48-10.497 3.13-12.015-.487-.63-1.5-4.5-15.893-8.599-31.984-7.415-29.109-8.757-33.253-10.273-31.737-.438.438-4.323 14.885-8.633 32.107-4.31 17.22-8.212 31.692-8.67 32.158-1.358 1.38-10.784 2.537-11.467 1.406zm181.044-42.278v-43.058l13.039.037c19.35.056 30.152 1.74 35.028 5.459 5.862 4.47 6.947 7.284 7.038 18.25.075 8.803-.245 10.226-3.141 14.023-1.773 2.324-5.73 5.556-8.794 7.181-3.063 1.625-5.57 3.516-5.57 4.201 0 .685 4.396 8.741 9.768 17.903 5.373 9.16 9.414 17.23 8.982 17.93-.86 1.392-7.516.38-9.852-1.496-.777-.625-5.552-8.417-10.612-17.317-5.06-8.9-10.064-16.514-11.12-16.919-1.055-.405-4.545-.736-7.755-.736-4.202 0-6.041.537-6.571 1.918-.405 1.055-.736 9.515-.736 18.8v16.881h-9.704v-43.057zm32.19-3.69c4.135-1.07 8.527-3.158 10.262-4.88 2.62-2.6 3.032-4.088 3.032-10.97 0-7.155-.333-8.247-3.293-10.793-4.105-3.531-14.097-5.682-24.18-5.206l-7.701.365-.342 15.094c-.189 8.301-.07 15.806.265 16.677.847 2.209 12.92 2.051 21.958-.287zm41.797 3.69v-43.058h9.646l.332 20.621c.198 12.344.813 20.719 1.53 20.863.66.132 8.974-9.01 18.476-20.318 15.728-18.716 17.66-20.593 21.543-20.936 3.286-.29 4.266.077 4.266 1.597 0 1.086-5.185 8.333-11.523 16.105-6.337 7.772-11.522 14.77-11.522 15.55 0 .78 5.714 11.027 12.698 22.77 18.744 31.516 18.364 30.421 10.112 29.082-4.038-.655-4.875-1.747-16.684-21.786-6.838-11.603-12.813-21.097-13.278-21.097-.956 0-7.76 7.066-12.644 13.132-3.079 3.824-3.25 4.728-3.25 17.283v13.25h-9.702zm81.264 40.53c-6.681-3.03-10.916-6.851-10.916-9.851 0-3.974 3.652-3.88 11.811.306 10.522 5.397 19.326 6.096 26.983 2.145 4.04-2.086 5.872-3.965 7.119-7.304 3.53-9.452.016-13.6-19.763-23.287-15.728-7.706-20.466-11.608-22.551-18.567-4.428-14.777 7.297-27.387 25.464-27.387 10.224 0 21.396 4.684 22.598 9.473 1.412 5.625-2.217 7.103-7.81 3.181-10.585-7.422-26.296-5.9-30.323 2.938-3.745 8.221 1.094 13.803 19.95 23.006 7.636 3.727 15.78 8.673 18.1 10.992 4.017 4.018 4.215 4.617 4.215 12.803 0 11.378-2.962 16.856-11.38 21.05-8.158 4.066-25.077 4.32-33.497.502zM458.473 60.815c0-.556.41-1.421.91-1.923s1.043-2.64 1.207-4.75c.272-3.51.999-10.26 1.37-12.731.192-1.274 9.796-7.468 17.739-11.439 27.46-13.73 64.705-24.331 97.031-27.618 21.452-2.181 63.379-.217 80.858 3.788l5.658 1.296.468 7.485c.257 4.116.167 7.848-.2 8.294-.368.446-5.58-.068-11.585-1.142-13.393-2.396-60.797-2.66-78.231-.436-16.07 2.05-36.862 6.853-53.753 12.418-14.01 4.616-46.94 19.113-50.556 22.256-1.89 1.644-9.084 5.513-10.25 5.513-.366 0-.666-.455-.666-1.01z" fill="#faa25c"/><path d="M698.385 571.808c-.938-.938 1.262-11.777 2.677-13.192.661-.662 1.202-2.395 1.202-3.851 0-2.096 1.458-3.227 6.974-5.416 28.949-11.483 60.58-32.556 86.272-57.473 45.579-44.204 72.981-97.263 82.1-158.969 3.162-21.396 2.857-62.696-.61-82.477-9.254-52.808-29.336-95.712-64.34-137.46-6.897-8.226-15.751-17.778-19.675-21.225-9.928-8.723-12.124-12.767-11.205-20.634.402-3.439.95-6.954 1.218-7.812 2.064-6.608 45.48 34.209 64.687 60.815 40.118 55.572 59.693 127.408 53.425 196.058-3.994 43.734-18.848 88.655-42.087 127.274-13.786 22.91-38.499 51.81-59.65 69.754-25.818 21.906-47.828 35.046-81.012 48.365-17.306 6.947-18.804 7.415-19.976 6.243zM532.876 337.115c-9.288-1.862-19.828-8.231-19.817-11.976 0-2.048 6.675-9.819 8.426-9.819.567 0 3.947 1.351 7.51 3.002 12.438 5.763 23.006 4.81 26.278-2.371 2.085-4.577-1.716-8.031-17.024-15.473-19.124-9.295-22.77-13.372-22.77-25.459 0-8.73 4.052-15.218 12.341-19.758 5.82-3.187 7.54-3.531 17.375-3.478 11.4.063 16.362 1.605 22.135 6.885 3.646 3.333 3.44 5.907-.844 10.492l-3.573 3.825-5.072-2.587c-2.79-1.423-7.973-2.887-11.519-3.253-6.024-.622-6.698-.415-10.28 3.168-3.522 3.522-3.696 4.055-2.13 6.53.938 1.484 8.309 5.975 16.38 9.98 20.626 10.238 23.406 13.261 23.406 25.453 0 12.615-8.543 22.764-20.416 24.256-11.595 1.457-15.491 1.568-20.406.583zm508.181-.017c-10.336-2.043-19.632-9.643-24.866-20.331-3.735-7.626-4.713-30.462-1.731-40.432 2.417-8.082 8.845-16.935 15.496-21.338 4.39-2.908 6.501-3.41 15.874-3.781 8.031-.318 12.181.096 16.149 1.61 6.83 2.61 14.963 10.516 18.765 18.243 2.728 5.544 2.975 7.452 2.975 23.026 0 15.293-.279 17.546-2.804 22.672-3.664 7.44-11.315 15.225-17.626 17.936-6.289 2.702-15.603 3.705-22.232 2.395zm20.554-11.619c3.357-2.359 6.344-6.022 8.75-10.73 3.446-6.74 3.654-7.951 3.638-21.18-.018-14.929-.747-17.489-7.566-26.593-10.633-14.196-33.67-9.792-41.064 7.849-6.068 14.48-3.167 37.696 5.951 47.614 7.533 8.194 21.03 9.549 30.29 3.04zM2.426 294.281v-43.244l5.155.033c2.835.018 13.217.527 23.07 1.13 14.898.913 18.618 1.53 22.075 3.667 6.086 3.761 9.131 9.405 9.131 16.922 0 6.73-1.057 9.526-5.73 15.14l-2.943 3.538 5.462 4.668c6.663 5.696 8.619 10.909 7.488 19.959-.625 5.003-1.776 7.715-4.675 11.018-6.745 7.681-11.395 8.912-36.666 9.709l-22.367.705zm38.118 27.553c4.67-1.592 6.147-2.804 7.575-6.222 3.582-8.574-2.66-14.69-16.097-15.768-10.533-.846-11.403.05-11.403 11.743 0 5.626.576 9.889 1.456 10.768 2.07 2.07 11.655 1.8 18.469-.521zm1.464-39.7c4.85-5.638 3.228-11.864-3.86-14.826-5.019-2.096-14.09-2.244-16.073-.26-1.942 1.941-1.895 15.8.06 17.809 1.028 1.056 4.005 1.405 9.26 1.084 6.635-.405 8.154-.95 10.612-3.808zm56.38 51.83c-7.954-3.963-15.211-12.83-17.806-21.754-2.279-7.84-2.6-26.788-.584-34.49 2.892-11.05 11.85-20.746 22.491-24.342 7.846-2.651 23.111-2.033 30.616 1.24 11.48 5.008 18.818 15.728 21.054 30.76 3.452 23.211-7.356 45.854-24.107 50.506-2.485.69-9.186 1.258-14.892 1.261-8.779.007-11.36-.483-16.772-3.18zm23.15-12.628c5.918-1.644 11.124-8.1 13.575-16.833 2.426-8.646 2.44-12.545.073-20.515-4.96-16.7-21.13-22.42-31.362-11.094-4.397 4.867-8.005 14.465-8.005 21.293 0 7.2 4.513 19.123 8.758 23.138 5.836 5.52 8.91 6.247 16.962 4.01zm50.693-27.249V250.66l16.677.764c18.13.83 27.014 2.843 34.537 7.821 4.556 3.015 10.367 10.255 12.396 15.443 1.825 4.665 2.81 20.508 1.783 28.682-1.822 14.51-8.559 24.424-20.273 29.834-5.691 2.628-8.642 3.045-25.774 3.64l-19.346.67zm34.567 26.23c7.76-3.564 10.502-7.805 12.772-19.752 1.355-7.136-.547-19.602-3.792-24.852-4.224-6.836-19.417-12.246-23.348-8.315-1.737 1.737-2.006 5.377-2.006 27.147 0 17.937.417 25.559 1.455 26.597 2.13 2.13 9.354 1.73 14.919-.826zm61.238 1.977l-.016-14.858-12.116-25.897c-6.664-14.244-12.116-26.65-12.116-27.57 0-2.194 4.2-3.173 11.594-2.704l5.975.378 7.214 18.521c3.967 10.187 7.792 18.336 8.499 18.11.707-.226 4.288-7.742 7.956-16.702 3.67-8.96 7.065-16.894 7.545-17.633.976-1.498 13.53-3.117 16.209-2.089.944.363 1.717 1.162 1.717 1.777s-5.317 12.154-11.815 25.644l-11.815 24.527-.344 13.948c-.507 20.494.055 19.406-10.01 19.406h-8.467zm80.064-28.39v-43.247l19.103.761c27.342 1.09 35.65 4.106 40.454 14.685 2.565 5.646 3.003 16.436.92 22.656-3.696 11.04-11.651 16.143-28.457 18.255-5.937.747-11.477 1.896-12.31 2.554-1.047.827-1.517 5.283-1.517 14.39v13.194H348.1zm29.796-1.722c9.325-1.692 12.233-3.676 13.991-9.542 2.844-9.492-2.59-15.39-15.398-16.711-9.438-.974-10.196.03-10.196 13.517 0 7.04.535 11.666 1.456 12.587 1.762 1.762 1.297 1.755 10.147.15zm66.425 42.69c-6.435-3.009-14.012-10.798-17.612-18.105-2.525-5.126-2.803-7.38-2.803-22.672 0-16.559.089-17.143 3.6-23.48 3.918-7.076 10.51-13.373 17.45-16.674 6.646-3.16 24.639-2.785 32.478.677 16.135 7.127 23.432 23.76 21.043 47.967-1.37 13.885-7.585 24.537-17.818 30.535-5.213 3.056-7.124 3.443-18.547 3.76-10.585.294-13.59-.045-17.79-2.009zm22.985-13.944c6.348-2.717 10.284-7.923 12.485-16.513 2.385-9.307 1.777-18.268-1.697-25.024-6.651-12.935-18.418-16.311-28.19-8.089-5.988 5.039-8.356 11.484-8.373 22.793-.03 20.616 11.717 32.847 25.775 26.833zm122.16-26.833v-43.058h18.192v86.115h-18.194zm55.792 8.638c0-26.726-.351-34.71-1.573-35.725-.866-.718-5.914-1.467-11.22-1.664l-9.645-.359-.361-6.204c-.355-6.1-.296-6.218 3.487-6.974 2.117-.424 15.173-.77 29.016-.77 13.842 0 26.899.346 29.015.77 3.783.756 3.842.874 3.487 6.974l-.36 6.204-9.646.359c-5.306.197-10.354.946-11.22 1.664-1.222 1.015-1.573 9-1.573 35.725v34.42h-19.407zm57.294-8.335l.319-42.755 8.793-.356 8.794-.356v86.221h-18.225zm52.106 38.97c-.647-2.254-6.15-20.246-12.23-39.98-6.08-19.734-11.054-37.027-11.054-38.428 0-3.286 2.673-4.01 10.916-2.957l6.67.853 6.946 25.973c9.664 36.137 10.669 39.385 11.803 38.169.55-.59 4.356-14.17 8.46-30.18 4.103-16.01 7.935-30.257 8.515-31.66 1.728-4.179 18.265-5.324 18.243-1.262-.016 2.377-24.043 79.896-25.084 80.918-.542.532-5.716 1.348-11.498 1.812l-10.512.843zm59.192-39.297V250.99l26.38.326 26.381.327v13.342l-14.555.298c-21.148.432-20.012-.164-20.012 10.512 0 7.036.409 9.1 1.918 9.68 1.056.404 7.541.736 14.414.736 13.988 0 13.937-.037 13.974 10.006l.016 4.548h-13.243c-7.283 0-14.106.332-15.161.737-2.805 1.076-2.805 19.283 0 20.36 1.055.404 9.242.736 18.193.736h16.275v14.554h-54.58zm110.05 42.302c-1.42-2.352-17.94-82.193-17.332-83.774.428-1.116 2.042-1.584 4.609-1.336l3.95.38 6.79 34.283c3.736 18.856 7.147 34.639 7.581 35.073.435.435 1.107.473 1.494.085.388-.387 4.457-15.572 9.042-33.744 4.586-18.172 8.839-33.541 9.451-34.153.613-.613 2.957-.938 5.21-.722 4.059.388 4.12.485 6.742 10.7 1.456 5.671 5.49 21.363 8.965 34.871 3.475 13.509 6.777 24.561 7.337 24.561 1.214 0 .693 2.347 8.345-37.586 3.386-17.67 6.618-32.59 7.182-33.154 1.91-1.91 6.746-.336 7.125 2.318.43 3.012-15.1 77.495-16.834 80.735-1.862 3.48-10.497 3.13-12.015-.487-.63-1.5-4.5-15.893-8.599-31.984-7.415-29.109-8.757-33.253-10.273-31.737-.438.438-4.323 14.885-8.633 32.107-4.31 17.22-8.212 31.692-8.67 32.158-1.358 1.38-10.784 2.537-11.467 1.406zm181.044-42.278v-43.058l13.039.037c19.35.056 30.152 1.74 35.028 5.459 5.862 4.47 6.947 7.284 7.038 18.25.075 8.803-.245 10.226-3.141 14.023-1.773 2.324-5.73 5.556-8.794 7.181-3.063 1.625-5.57 3.516-5.57 4.201 0 .685 4.396 8.741 9.768 17.903 5.373 9.16 9.414 17.23 8.982 17.93-.86 1.392-7.516.38-9.852-1.496-.777-.625-5.552-8.417-10.612-17.317-5.06-8.9-10.064-16.514-11.12-16.919-1.055-.405-4.545-.736-7.755-.736-4.202 0-6.041.537-6.571 1.918-.405 1.055-.736 9.515-.736 18.8v16.881h-9.704v-43.057zm32.19-3.69c4.135-1.07 8.527-3.158 10.262-4.88 2.62-2.6 3.032-4.088 3.032-10.97 0-7.155-.333-8.247-3.293-10.793-4.105-3.531-14.097-5.682-24.18-5.206l-7.701.365-.342 15.094c-.189 8.301-.07 15.806.265 16.677.847 2.209 12.92 2.051 21.958-.287zm41.797 3.69v-43.058h9.646l.332 20.621c.198 12.344.813 20.719 1.53 20.863.66.132 8.974-9.01 18.476-20.318 15.728-18.716 17.66-20.593 21.543-20.936 3.286-.29 4.266.077 4.266 1.597 0 1.086-5.185 8.333-11.523 16.105-6.337 7.772-11.522 14.77-11.522 15.55 0 .78 5.714 11.027 12.698 22.77 18.744 31.516 18.364 30.421 10.112 29.082-4.038-.655-4.875-1.747-16.684-21.786-6.838-11.603-12.813-21.097-13.278-21.097-.956 0-7.76 7.066-12.644 13.132-3.079 3.824-3.25 4.728-3.25 17.283v13.25h-9.702zm81.264 40.53c-6.681-3.03-10.916-6.851-10.916-9.851 0-3.974 3.652-3.88 11.811.306 10.522 5.397 19.326 6.096 26.983 2.145 4.04-2.086 5.872-3.965 7.119-7.304 3.53-9.452.016-13.6-19.763-23.287-15.728-7.706-20.466-11.608-22.551-18.567-4.428-14.777 7.297-27.387 25.464-27.387 10.224 0 21.396 4.684 22.598 9.473 1.412 5.625-2.217 7.103-7.81 3.181-10.585-7.422-26.296-5.9-30.323 2.938-3.745 8.221 1.094 13.803 19.95 23.006 7.636 3.727 15.78 8.673 18.1 10.992 4.017 4.018 4.215 4.617 4.215 12.803 0 11.378-2.962 16.856-11.38 21.05-8.158 4.066-25.077 4.32-33.497.502z" fill="#a095ab"/><path d="M731.417 555.776c.144-3.03 3.672-15.491 4.463-15.76.524-.18 6.683-4.117 13.687-8.75 61.225-40.505 104.05-97.568 122.424-163.127 7.598-27.108 9.136-39.577 9.136-74.044 0-33.56-.888-41.73-7.34-67.553-9.356-37.436-33.243-85.056-56.052-111.741-4.18-4.89-5.845-7.794-5.415-9.44.35-1.34-.323-3.42-1.541-4.766-1.887-2.085-1.977-3.006-.71-7.237.8-2.667 1.895-4.849 2.434-4.849 1.398 0 25.257 25.886 31.861 34.568 10.25 13.474 18.211 26.588 26.505 43.664 13.093 26.955 19.851 47.686 25.11 77.019 2.836 15.82 3.163 20.755 3.254 49.122.081 25.016-.356 34.418-2.113 45.483-9.626 60.625-36.29 114.428-78.361 158.121-16.875 17.526-42.056 37.517-57.521 45.666-3.417 1.8-10.972 5.807-16.79 8.903-10.404 5.54-13.117 6.522-13.031 4.721zM451.555 335.903c-2.804-.567-6.263-1.654-7.687-2.417-5.203-2.784-12.346-10.278-15.508-16.27-3.066-5.81-3.241-7.058-3.241-23.121 0-19.207.71-21.498 9.531-30.726 8.092-8.465 12.863-10.38 25.798-10.357 9.582.018 11.985.468 17.865 3.345 13.182 6.45 19.293 18.175 19.351 37.131.052 16.723-2.36 23.868-11.058 32.756-7.35 7.511-10.642 8.937-23.281 10.085-3.67.333-8.966.141-11.77-.426zm17.87-14.822c7.096-3.584 10.348-8.757 12.123-19.282 3.526-20.9-6.59-37.187-22.255-35.837-7.537.649-11.543 3.647-15.678 11.735-2.861 5.595-3.322 7.915-3.243 16.312.131 13.81 3.985 22.614 11.916 27.214 5.652 3.278 10.448 3.238 17.137-.142zm61.822 14.479c-7.455-2.08-16.264-7.105-16.734-9.546-.213-1.104 1.21-3.796 3.163-5.982l3.55-3.973 7.292 3.273c13.564 6.087 23.676 5.021 28.103-2.962 2.892-5.218-.35-8.523-15.374-15.68-20.727-9.872-24.555-13.83-24.555-25.395 0-9.23 3.968-15.32 12.934-19.848 9.2-4.647 25.797-3.534 34.672 2.325 5.363 3.54 5.68 5.898 1.396 10.37l-3.153 3.291-6.247-2.909c-7.559-3.52-14.63-3.729-19.784-.586-4.461 2.72-5.942 6.248-4.082 9.724 1.476 2.759 4.718 4.644 19.04 11.075 17.356 7.794 21.172 11.998 21.275 23.442.087 9.712-5.491 17.9-14.813 21.743-6.264 2.582-20.227 3.44-26.683 1.638zm508.916.287c-6.564-1.61-11.916-5.153-17.684-11.705-7.025-7.98-8.867-15.311-8.27-32.907.418-12.344.878-14.884 3.657-20.185 3.921-7.48 10.918-14.38 17.337-17.097 6.983-2.955 20.345-2.771 27.29.376 6.479 2.936 13.262 9.778 17.18 17.327 2.574 4.96 2.833 7.007 2.829 22.439 0 16.053-.18 17.311-3.23 23.045-3.879 7.289-10.976 14.396-16.779 16.802-5.777 2.396-16.573 3.316-22.33 1.905zm18.085-7.059c10.524-4.872 16.487-15.574 17.333-31.104.959-17.595-3.11-28.347-13.82-36.516-3.926-2.995-5.61-3.46-12.515-3.46-19.044 0-28.893 13.72-27.767 38.684.576 12.776 3.996 21.786 10.767 28.362 6.667 6.475 17.2 8.11 26.002 4.034zM3.638 294.095v-42.17l19.104.858c23.351 1.05 27.948 2.086 33.167 7.47 3.506 3.618 4.077 5.109 4.5 11.762.46 7.215.255 7.92-3.885 13.343-2.403 3.149-4.37 6.161-4.37 6.694 0 .533 2.424 2.678 5.387 4.766 6.385 4.5 8.716 10.417 7.443 18.9-1.12 7.472-5.033 12.827-11.988 16.406-5.401 2.78-7.426 3.042-27.593 3.571l-21.764.571zm39.702 28.071c7.432-3.857 9.49-13.366 3.974-18.358-5.26-4.76-23.012-7.453-26.452-4.013-2.01 2.01-1.96 21.795.06 23.886 2.09 2.164 17.312 1.135 22.418-1.515zm-3.874-36.503c7.304-3.052 8.713-14.213 2.322-18.4-3.942-2.584-18.066-3.743-20.543-1.687-2.301 1.91-2.607 18.169-.383 20.392 2.014 2.014 13.504 1.826 18.604-.305zm60.598 48.007c-5.702-2.604-14.614-11.89-17.084-17.802-3.06-7.325-4.438-21.674-2.983-31.058 3.315-21.362 15.26-31.821 36.44-31.91 8.916-.038 11.256.42 17.304 3.39 8.147 4 14.211 11.152 17.474 20.604 3.243 9.393 2.86 27.076-.794 36.607-3.516 9.172-12.988 19.14-20.035 21.086-7.861 2.17-24.678 1.661-30.322-.917zm26.571-13.263c2.25-1.314 5.14-4.925 7.262-9.073 3.051-5.967 3.523-8.235 3.52-16.917 0-8.41-.515-11.035-3.18-16.287-3.798-7.483-8.925-11.444-15.824-12.221-10.722-1.209-18.352 5.306-22.128 18.891-1.813 6.526-1.93 8.883-.778 15.612 1.66 9.695 6.723 18.36 12.468 21.342 5 2.594 12.887 2.024 18.66-1.347zm46.809-26.138v-42.02l10.006.038c35.57.133 50.251 9.44 53.272 33.77 2.732 22.008-4.926 39.81-19.896 46.25-5.374 2.311-9.24 2.833-24.873 3.359l-18.51.622zm31.742 28.123c5.803-1.738 12.512-8.877 14.26-15.173 1.673-6.025 1.649-20.31-.044-26.41-1.853-6.674-7.765-12.161-15.616-14.493-8.156-2.422-10.273-2.427-12.668-.031-1.616 1.615-1.906 5.919-1.906 28.26 0 18.88.412 26.767 1.455 27.81 1.85 1.85 8.415 1.866 14.52.037zm64.076-.73v-14.393l-11.572-24.676c-6.364-13.571-11.686-25.814-11.826-27.206-.225-2.245.486-2.573 6.287-2.903 3.598-.205 7.08.165 7.738.823.658.658 4.294 9.011 8.08 18.562 4.258 10.743 7.595 17.503 8.75 17.726 1.99.383 4.49-4.565 12.59-24.913 3.092-7.77 5.079-11.223 6.46-11.233 1.098-.008 3.906-.3 6.241-.65 8.532-1.28 8.363-.282-4.345 25.66l-11.819 24.126-.711 16.374-.712 16.374-7.58.361-7.581.361zm80.338-27.264l.32-41.542 10.915-.356c15.006-.49 30.337 1.553 36.993 4.93 13.244 6.72 15.02 28.539 3.308 40.64-4.463 4.61-11.583 7.034-24.19 8.231-4.858.462-9.516 1.382-10.35 2.046-1.045.832-1.516 5.296-1.516 14.399v13.193h-15.799zm33.912-2.273c5.192-1.298 9.08-5.66 10.155-11.392 1.632-8.698-5.2-14.9-17.656-16.03-10.437-.946-10.93-.272-10.93 14.925 0 10.658.316 12.708 2.122 13.743 2.16 1.238 8.23.774 16.309-1.246zm207.166 1.97V252.25h15.768v83.689h-15.768zm55.793 7.52c0-25.08-.392-34.717-1.455-35.78-.9-.9-5.325-1.456-11.59-1.456h-10.133l.37-5.762.37-5.76h61.857l.37 5.76.37 5.762h-10.134c-6.264 0-10.689.555-11.589 1.455-1.063 1.064-1.455 10.7-1.455 35.78v34.325h-16.98zm57.294-7.217l.319-41.542 7.58-.36 7.58-.362v83.805h-15.799zm52.524 40.18c-2.24-6.26-22.615-73.879-23.2-76.997-.608-3.243-.301-4.019 1.862-4.705 4.51-1.432 12.233.543 13.44 3.436.6 1.435 3.88 13.252 7.29 26.26 9.088 34.658 9.635 36.387 11.525 36.387 1.905 0 2.318-1.33 12.03-38.727 3.712-14.295 6.888-26.131 7.059-26.301 1.015-1.016 12.667-1.593 13.998-.694 1.272.86-.92 9.316-10.59 40.86-6.707 21.877-12.477 40.058-12.822 40.403-.345.345-4.985.88-10.31 1.188-7.51.435-9.818.186-10.282-1.11zm58.774-40.508V252.2l25.168.328 25.167.328.37 5.761.37 5.762H850.83c-8.419 0-16.363.565-17.653 1.255-2.017 1.08-2.346 2.606-2.346 10.893 0 11.362-.974 10.742 17.587 11.202l12.129.301.37 5.761.37 5.762h-13.31c-7.32 0-14.172.33-15.228.736-2.821 1.083-2.821 21.702 0 22.785 1.056.405 9.243.736 18.194.736h16.275v12.13h-52.155zm109.815 40.734c-.63-1.019-15.538-68.946-17.253-78.612-.662-3.73-.503-3.942 2.954-3.942h3.654l6.778 34.773c3.728 19.126 7.34 35.336 8.028 36.023.857.857 1.651.848 2.53-.031.705-.705 4.512-14.323 8.46-30.262 10.728-43.3 9.31-39.29 13.888-39.29h3.928l8.129 32.26c4.47 17.744 8.627 33.572 9.236 35.174 1.494 3.928 4.465 3.69 5.253-.422 13.318-69.524 13.012-68.225 16.07-68.225 2.077 0 2.89.68 2.89 2.415 0 4.403-15.942 78.204-17.228 79.753-1.63 1.964-7.607 1.967-9.096.005-.633-.834-4.494-14.646-8.58-30.695-8.433-33.12-9.4-36.097-11.497-35.423-.854.274-5.097 14.64-9.784 33.133-4.551 17.956-8.918 33.057-9.703 33.556-2.026 1.289-7.822 1.161-8.657-.19zm181.28-40.884v-42.018l18.496.643c29.113 1.013 34.259 4.374 34.262 22.38 0 9.709-.095 10.04-4.243 14.357-2.335 2.43-6.292 5.474-8.794 6.763-2.501 1.29-4.548 3.122-4.548 4.072 0 .95 4.094 8.7 9.097 17.222 5.003 8.522 9.097 16.193 9.097 17.048 0 1.985-3.793 2.007-6.372.036-1.09-.834-5.857-8.338-10.592-16.677s-9.738-16.116-11.118-17.284c-3.396-2.873-16.19-3.024-17.272-.204-.405 1.055-.736 9.515-.736 18.8v16.881h-7.278zm29.352-1.786c12.743-2.685 17.508-8.391 16.425-19.667-.47-4.884-1.337-6.793-4.283-9.426-4.552-4.067-13.968-6.187-25.291-5.695l-8.32.362-.34 16.313c-.187 8.972-.068 17.022.265 17.89.764 1.99 12.58 2.112 21.544.223zm44.634 1.96V252.25h7.276v19.307c0 19.893.415 23.144 2.952 23.144.814 0 9.352-9.528 18.974-21.173 14.79-17.903 18.008-21.182 20.828-21.226 1.835-.029 3.336.427 3.336 1.012 0 .586-5.185 7.405-11.523 15.153-6.337 7.749-11.522 14.934-11.522 15.968 0 1.034 6.277 12.441 13.948 25.35 7.672 12.908 13.948 24.073 13.948 24.812 0 1.808-3.902 1.703-6.427-.174-1.121-.834-7.153-10.227-13.403-20.874-6.25-10.646-12.299-19.925-13.442-20.619-1.708-1.036-3.052-.179-7.532 4.803-9.703 10.793-10.127 11.872-10.132 25.774v12.432h-7.277v-41.844zm78.803 38.51c-7.392-3.867-9.78-6.742-7.494-9.027 1.208-1.209 3.032-.666 9.069 2.696 6.789 3.78 8.502 4.208 16.867 4.208 7.494 0 9.98-.488 12.736-2.504 4.91-3.591 8.1-10.584 7.147-15.669-1.056-5.625-5.95-9.429-22.068-17.15-14.817-7.096-20.412-12.067-21.778-19.348-2.831-15.094 13.428-27.34 31.36-23.617 10.4 2.16 17.81 7.87 14.503 11.176-.862.863-2.954.257-6.708-1.943-13.61-7.976-30.038-3.894-31.927 7.934-1.182 7.401 2.986 11.586 19.92 20 21.25 10.561 25.642 15.679 23.829 27.77-1.117 7.446-4.914 12.792-11.424 16.08-4.432 2.24-7.399 2.73-16.529 2.73-9.784 0-11.896-.403-17.503-3.336z" fill="#877597"/><path d="M756.844 534.127c0-9.157 2.403-13.53 10.598-19.286 9.668-6.792 37.662-34.254 48.219-47.303 29.484-36.444 48.656-78.518 57.754-126.747 2.543-13.48 2.86-18.66 2.86-46.696 0-33.56-.887-41.73-7.34-67.553-6.53-26.132-21.812-61.485-36.982-85.559l-6.296-9.99 1.7-10.629 1.701-10.629 5.808 7.277c28.33 35.5 47.744 79.239 56.261 126.748 2.836 15.82 3.163 20.755 3.255 49.122.08 25.016-.356 34.418-2.113 45.483-11.204 70.56-46.62 133.694-100.066 178.383-11.449 9.573-32.114 24.17-34.218 24.17-.627 0-1.14-3.056-1.14-6.79zM100.662 334.885c-9.906-3.27-19.034-12.118-22.443-21.755-1.107-3.131-2.31-10.363-2.671-16.07-1.656-26.12 10.653-41.98 33.612-43.308 16.307-.944 28.37 6.027 35.04 20.25 2.817 6.006 3.165 8.223 3.15 20.093-.016 12.045-.349 14.063-3.434 20.772-3.948 8.584-10.248 15.24-17.147 18.115-5.432 2.263-21.472 3.432-26.107 1.903zm21.83-13.804c6.75-4.62 10.257-13.069 10.701-25.774.349-9.982.089-11.486-3.032-17.585-4.55-8.888-9.514-12.13-18.575-12.13-13.365 0-20.693 8.884-21.6 26.188-.652 12.395 1.795 20.53 8.194 27.258 4.377 4.6 4.824 4.772 12.432 4.772 6.195 0 8.75-.587 11.88-2.729zm320.975 13.158c-15.88-5.932-24.82-22.598-23.501-43.813.808-12.997 4.237-20.774 12.482-28.31 7.858-7.181 14.168-9.188 26.415-8.402 20.184 1.295 31.864 14.207 33.272 36.78 1.277 20.468-6.626 36.53-20.905 42.486-6.705 2.797-21.812 3.482-27.763 1.259zm21.453-11.79c8.94-4.592 12.967-13.575 12.948-28.878-.017-10.816-3.373-19.444-9.612-24.693-3.38-2.844-4.978-3.286-11.884-3.286-6.69 0-8.636.5-12.047 3.102-7.168 5.467-9.425 11.524-9.467 25.4-.034 11.243.23 12.61 3.602 18.699 2 3.613 5.276 7.568 7.277 8.789 4.152 2.532 14.99 3.022 19.183.867zm61.475 12.354c-6.155-1.884-15.768-7.448-15.768-9.126 0-.952 1.292-3.233 2.872-5.07l2.87-3.337 7.288 3.27c14.753 6.621 29.422 3.102 29.422-7.059 0-5.216-2.548-7.21-20.032-15.68-7.747-3.752-14.765-8.025-16.219-9.873-8.947-11.374-4.516-25.865 9.79-32.02 8.92-3.837 22.436-3.111 30.544 1.641 6.191 3.628 6.9 5.917 3.09 9.973l-2.53 2.693-5.657-2.532c-7.676-3.436-17.126-3.502-21.636-.152-3.877 2.88-5.205 9.136-2.604 12.27.878 1.058 8.851 5.412 17.719 9.675 17.112 8.229 19.98 10.825 21.636 19.594 1.99 10.526-7.195 23.043-18.71 25.498-7.186 1.533-17.476 1.642-22.075.235zm506.683-.515c-9.35-3.5-17.387-11.687-21.08-21.477-3-7.948-2.965-28.763.062-37.504 3.368-9.726 13.612-19.703 22.392-21.81 13.32-3.195 25.164.404 33.867 10.292 5.893 6.694 8.651 14.05 9.546 25.454 1.55 19.75-5.864 36.258-19.421 43.244-6.095 3.14-19.284 4.077-25.366 1.8zm21.895-4.916c9.322-4.884 15.613-16.15 16.758-30.007 1.244-15.066-2.095-27.303-9.524-34.901-5.627-5.757-10.185-7.663-18.51-7.74-14.245-.135-24.255 9.14-27.304 25.295-3.598 19.071 1.992 38.487 13.113 45.539 4.75 3.013 6.783 3.53 13.879 3.53 4.814 0 9.691-.722 11.588-1.716zm205.079 4.973c-6.621-2.487-13.2-6.88-13.2-8.814 0-2.466 1.306-2.181 9.278 2.021 6.637 3.5 7.79 3.715 17.804 3.335 10.615-.402 10.742-.444 14.858-4.936 3.554-3.88 4.15-5.392 4.15-10.52 0-8.589-3.486-12.152-19.231-19.65-19.695-9.38-24.432-13.94-24.432-23.518 0-12.267 12.448-21.18 27.438-19.644 6.836.7 15.95 4.776 17.041 7.622 1.203 3.134-.32 3.12-6.3-.06-4.682-2.49-7.494-3.08-14.667-3.08-8.196 0-9.2.288-13.16 3.765-3.795 3.331-4.288 4.437-4.288 9.61 0 8.532 3.377 11.82 20.981 20.43 18.107 8.856 21.689 12.228 22.357 21.052.664 8.758-3.172 16.238-10.336 20.158-6.507 3.56-21.588 4.748-28.293 2.23zM0 294.023v-40.9l19.71.614c21.8.68 26.267 1.816 31.478 8.009 6.15 7.31 4.985 19.525-2.496 26.169-3.754 3.333-3.261 5.003 2.684 9.093 6.557 4.512 8.525 8.995 7.798 17.762-.666 8.03-3.368 12.125-10.766 16.318-5.056 2.865-6.533 3.054-26.88 3.433L0 334.923zm37.278 29.59c5.535-1.68 8.812-6.324 8.812-12.49 0-8.752-6.09-12.491-21.254-13.052-7.083-.261-9.412.073-10.304 1.482-1.35 2.13-1.567 21.818-.262 23.772.49.734 1.71 1.634 2.71 2 2.409.882 15.35-.21 20.298-1.712zm.322-38.544c2.5-1.762 3.094-3.298 3.389-8.752.515-9.554-1.66-11.206-15.473-11.75-12.292-.483-12.128-.655-12.158 12.764-.022 10.455 1.387 11.65 12.562 10.65 5.205-.467 9.854-1.626 11.68-2.912zm132.205 8.994v-40.881l16.07.576c20.588.738 27.14 2.802 35.51 11.185 7.172 7.184 8.966 11.927 9.904 26.186 1.204 18.306-5.212 32.475-17.82 39.352-6.453 3.52-7.275 3.652-25.168 4.051l-18.496.412zm35.715 26.885c6.789-3.682 10.406-11.231 11.245-23.468 1.499-21.868-8.373-34.193-26.341-32.89l-5.458.395-.79 6.671c-.434 3.67-.843 16.32-.91 28.113-.143 25.64-.051 25.85 10.648 24.583 3.75-.445 8.973-1.976 11.606-3.404zm59.803-1.08l-.594-14.857-11.681-24.654c-6.426-13.56-11.683-25.185-11.683-25.835 0-.669 2.964-1.023 6.84-.817l6.838.364 7.22 18.497c9.825 25.164 10.064 25.123 21.53-3.734 4.073-10.25 5.864-13.38 8.158-14.252 3.554-1.35 9.7-1.468 10.483-.2.312.505-4.559 11.558-10.824 24.562l-11.392 23.643-.02 10.443c-.015 5.744-.366 12.976-.79 16.071l-.772 5.627h-12.72zm80.351-25.773v-40.632l13.645.008c29.982.016 40.71 4.936 43.462 19.933 1.39 7.582-.98 16.832-5.736 22.389-4.906 5.732-11.816 8.335-25.89 9.754-5.403.544-10.2 1.367-10.662 1.828-.46.461-1.042 6.804-1.292 14.095l-.453 13.257h-13.074zm36.915-2.005c4.4-2.004 6.75-6.913 6.75-14.098 0-6.116-1.944-9.077-8.005-12.194-3.01-1.547-19.4-2.316-20.743-.973-1.323 1.323-2 17.959-1.002 24.616l.84 5.604 9.434-.727c5.189-.4 10.916-1.403 12.726-2.228zm204.45 2.005v-40.632h13.343v81.263H587.04zm55.544 6.163c-.196-18.957-.811-34.922-1.367-35.477-.555-.555-5.608-1.201-11.227-1.437-9.606-.402-10.261-.602-10.947-3.332-1.653-6.588-1.836-6.55 31.068-6.55s32.721-.038 31.068 6.55c-.686 2.73-1.34 2.93-10.947 3.332-5.62.236-10.672.882-11.227 1.437-.556.555-1.17 16.52-1.367 35.477l-.356 34.468H642.94zm57.256-6.163v-40.632h12.973l.79 12.924c1.012 16.535 1.013 43.004 0 57.237l-.787 11.102h-12.979zm50.046 32.444l-11.71-38.6c-5.075-16.728-9.227-31.328-9.227-32.445 0-3.003 11.57-2.923 13.168.091.619 1.168 4.516 14.929 8.661 30.58 8.804 33.244 9.062 34.007 11.521 34.007 2.636 0 3.279-1.908 11.649-34.568 4.103-16.01 8.004-29.791 8.67-30.625 1.371-1.721 11.336-2.08 12.347-.444.775 1.255-21.999 76.435-23.833 78.675-.785.959-4.465 1.517-10.002 1.517h-8.76l-2.484-8.188zm61.54-32.444v-40.632h48.515v4.7c0 4.293-.327 4.765-3.79 5.458-2.085.417-9.668.758-16.85.758-15.174 0-14.534-.568-14.534 12.864 0 8.575.157 9.087 3.112 10.21 1.71.651 8.533 1.184 15.16 1.184h12.05v9.703h-12.05c-6.627 0-13.45.532-15.16 1.183-3.024 1.149-3.112 1.492-3.112 12.159 0 10.666.088 11.009 3.112 12.158 1.71.651 9.898 1.183 18.193 1.183h15.082v9.703h-49.728zm108.691 38.509c-1.083-3.637-16.512-76.442-16.512-77.915 0-.767 1.208-1.22 2.685-1.007 2.512.362 3.096 2.533 9.075 33.742 6.416 33.484 7.79 38.812 10.004 38.812 2.13 0 3.3-3.743 11.561-36.993 4.475-18.011 8.915-33.558 9.867-34.547 3.935-4.09 5.572-.116 14.38 34.906 4.722 18.778 9.256 34.812 10.075 35.63 1.176 1.177 1.806 1.173 3.004-.017.834-.83 4.536-17.176 8.226-36.327 6.39-33.156 6.843-34.838 9.513-35.221 2.231-.32 2.67.05 2.145 1.82-.362 1.221-4.031 18.322-8.154 38.001-4.122 19.68-7.97 37.043-8.55 38.586-.855 2.272-1.806 2.734-4.998 2.426l-3.943-.38-8.22-32.057c-4.52-17.631-8.818-32.777-9.548-33.658-2.353-2.834-4.547-1.715-5.779 2.948-.66 2.502-4.31 17.102-8.11 32.445-3.799 15.343-7.44 28.579-8.09 29.412-1.811 2.324-7.885 1.897-8.63-.606zm182.403-38.618v-40.741l18.496.412c15.788.352 19.191.776 23.237 2.9 7.041 3.693 9.435 8.935 8.954 19.602-.362 8.015-.732 9.096-4.42 12.902-2.215 2.285-6.163 5.117-8.773 6.294-2.94 1.326-4.746 2.962-4.746 4.299 0 1.187 4.093 9.073 9.096 17.525 5.004 8.452 9.097 15.896 9.097 16.542 0 .646-1.18 1-2.624.787-1.956-.29-5.203-4.87-12.745-17.975l-10.12-17.587-8.784-.754c-4.838-.415-9.33-.253-9.997.36-.668.614-1.39 9.003-1.606 18.645-.367 16.361-.548 17.53-2.729 17.53-2.26 0-2.336-1.33-2.336-40.741zm31.874-1.917c6.985-1.525 12.394-6.48 13.497-12.36 1.205-6.421-.433-13.725-3.842-17.134-3.746-3.746-8.594-5.022-23.028-6.06l-11.215-.808-1.217 3.202c-1.572 4.133-1.583 28.609-.017 32.732 1.19 3.129 1.304 3.155 10.613 2.429 5.176-.404 12.02-1.304 15.208-2zm41.658 22.407c-.456-11.138-.458-29.423 0-40.632.736-18.118 1.059-20.381 2.906-20.381 1.842 0 2.202 2.388 3.15 20.91.913 17.817 1.364 20.967 3.046 21.286 1.299.247 8.056-6.905 19.756-20.91 12.59-15.074 18.517-21.286 20.307-21.286 2.95 0 3.817-1.35-10.28 15.987-5.794 7.126-10.534 13.865-10.534 14.977 0 1.111 5.994 11.996 13.32 24.188 15.848 26.37 15.892 26.465 12.057 25.915-2.256-.323-5.116-4.259-13.523-18.603-12.38-21.126-14.967-24.865-17.2-24.865-2.495 0-15.274 15.179-16.562 19.672-.626 2.18-1.137 8.47-1.137 13.978 0 8.925-.244 10.014-2.238 10.014-2.053 0-2.306-1.675-3.068-20.25z" fill="#6286a0"/><path d="M105.514 334.885c-9.907-3.27-19.035-12.118-22.443-21.755-1.108-3.131-2.31-10.363-2.672-16.07-1.656-26.12 10.654-41.98 33.613-43.308 16.307-.944 28.37 6.027 35.04 20.25 2.816 6.006 3.164 8.223 3.15 20.093-.017 12.045-.35 14.063-3.434 20.772-3.948 8.584-10.248 15.24-17.148 18.115-5.432 2.263-21.471 3.432-26.106 1.903zm21.829-13.804c6.75-4.62 10.258-13.069 10.702-25.774.348-9.982.088-11.486-3.033-17.585-4.549-8.888-9.513-12.13-18.574-12.13-13.365 0-20.693 8.884-21.601 26.188-.65 12.395 1.795 20.53 8.195 27.258 4.376 4.6 4.824 4.772 12.432 4.772 6.195 0 8.75-.587 11.879-2.729zm320.975 13.158c-15.88-5.932-24.82-22.598-23.5-43.813.807-12.997 4.236-20.774 12.482-28.31 7.857-7.181 14.167-9.188 26.415-8.402 20.183 1.295 31.864 14.207 33.272 36.78 1.277 20.468-6.626 36.53-20.905 42.486-6.706 2.797-21.813 3.482-27.764 1.259zm21.454-11.79c8.94-4.592 12.967-13.575 12.947-28.878-.016-10.816-3.372-19.444-9.611-24.693-3.38-2.844-4.978-3.286-11.884-3.286-6.691 0-8.637.5-12.047 3.102-7.168 5.467-9.426 11.524-9.467 25.4-.034 11.243.23 12.61 3.601 18.699 2.001 3.613 5.276 7.568 7.278 8.789 4.152 2.532 14.989 3.022 19.183.867zm61.475 12.354c-6.156-1.884-15.768-7.448-15.768-9.126 0-.952 1.292-3.233 2.871-5.07l2.871-3.337 7.287 3.27c14.754 6.621 29.422 3.102 29.422-7.059 0-5.216-2.548-7.21-20.032-15.68-7.746-3.752-14.764-8.025-16.218-9.873-8.947-11.374-4.517-25.865 9.789-32.02 8.92-3.837 22.436-3.111 30.545 1.641 6.19 3.628 6.9 5.917 3.09 9.973l-2.53 2.693-5.657-2.532c-7.677-3.436-17.126-3.502-21.636-.152-3.878 2.88-5.206 9.136-2.604 12.27.877 1.058 8.85 5.412 17.718 9.675 17.113 8.229 19.98 10.825 21.637 19.594 1.989 10.526-7.195 23.043-18.71 25.498-7.186 1.533-17.476 1.642-22.075.235zm506.683-.515c-9.35-3.5-17.387-11.687-21.081-21.477-3-7.948-2.964-28.763.063-37.504 3.368-9.726 13.611-19.703 22.392-21.81 13.319-3.195 25.163.404 33.867 10.292 5.892 6.694 8.65 14.05 9.545 25.454 1.55 19.75-5.863 36.258-19.42 43.244-6.096 3.14-19.284 4.077-25.366 1.8zm21.895-4.916c9.321-4.884 15.613-16.15 16.757-30.007 1.245-15.066-2.094-27.303-9.523-34.901-5.628-5.757-10.186-7.663-18.51-7.74-14.246-.135-24.256 9.14-27.304 25.295-3.599 19.071 1.992 38.487 13.112 45.539 4.751 3.013 6.783 3.53 13.88 3.53 4.814 0 9.69-.722 11.588-1.716zm205.078 4.973c-6.62-2.487-13.199-6.88-13.199-8.814 0-2.466 1.306-2.181 9.277 2.021 6.638 3.5 7.79 3.715 17.804 3.335 10.616-.402 10.742-.444 14.858-4.936 3.554-3.88 4.151-5.392 4.151-10.52 0-8.589-3.487-12.152-19.231-19.65-19.695-9.38-24.433-13.94-24.433-23.518 0-12.267 12.449-21.18 27.439-19.644 6.835.7 15.949 4.776 17.04 7.622 1.203 3.134-.32 3.12-6.3-.06-4.682-2.49-7.493-3.08-14.666-3.08-8.196 0-9.201.288-13.161 3.765-3.794 3.331-4.287 4.437-4.287 9.61 0 8.532 3.376 11.82 20.98 20.43 18.108 8.856 21.69 12.228 22.358 21.052.663 8.758-3.172 16.238-10.336 20.158-6.508 3.56-21.588 4.748-28.294 2.23zM4.852 294.023v-40.9l19.71.614c21.799.68 26.266 1.816 31.477 8.009 6.15 7.31 4.986 19.525-2.496 26.169-3.753 3.333-3.26 5.003 2.684 9.093 6.557 4.512 8.526 8.995 7.799 17.762-.666 8.03-3.368 12.125-10.766 16.318-5.057 2.865-6.533 3.054-26.88 3.433l-21.528.402zm37.277 29.59c5.536-1.68 8.812-6.324 8.812-12.49 0-8.752-6.09-12.491-21.253-13.052-7.084-.261-9.412.073-10.305 1.482-1.35 2.13-1.567 21.818-.261 23.772.49.734 1.71 1.634 2.71 2 2.409.882 15.35-.21 20.297-1.712zm.322-38.544c2.5-1.762 3.095-3.298 3.39-8.752.514-9.554-1.66-11.206-15.473-11.75-12.292-.483-12.128-.655-12.158 12.764-.023 10.455 1.387 11.65 12.561 10.65 5.205-.467 9.855-1.626 11.68-2.912zm132.205 8.994v-40.881l16.071.576c20.588.738 27.139 2.802 35.51 11.185 7.172 7.184 8.966 11.927 9.904 26.186 1.204 18.306-5.213 32.475-17.82 39.352-6.454 3.52-7.275 3.652-25.168 4.051l-18.497.412zm35.715 26.885c6.79-3.682 10.407-11.231 11.246-23.468 1.498-21.868-8.373-34.193-26.341-32.89l-5.458.395-.79 6.671c-.434 3.67-.844 16.32-.91 28.113-.144 25.64-.052 25.85 10.648 24.583 3.75-.445 8.973-1.976 11.605-3.404zm59.803-1.08l-.593-14.857-11.682-24.654c-6.425-13.56-11.682-25.185-11.682-25.835 0-.669 2.964-1.023 6.839-.817l6.838.364 7.221 18.497c9.825 25.164 10.064 25.123 21.53-3.734 4.073-10.25 5.864-13.38 8.158-14.252 3.553-1.35 9.699-1.468 10.483-.2.312.505-4.56 11.558-10.825 24.562l-11.391 23.643-.02 10.443c-.016 5.744-.367 12.976-.791 16.071l-.771 5.627h-12.72zm80.352-25.773v-40.632l13.645.008c29.982.016 40.71 4.936 43.461 19.933 1.391 7.582-.979 16.832-5.735 22.389-4.907 5.732-11.816 8.335-25.89 9.754-5.403.544-10.201 1.367-10.662 1.828-.461.461-1.042 6.804-1.292 14.095l-.454 13.257h-13.073zm36.915-2.005c4.399-2.004 6.749-6.913 6.749-14.098 0-6.116-1.944-9.077-8.005-12.194-3.01-1.547-19.399-2.316-20.742-.973-1.324 1.323-2.001 17.959-1.003 24.616l.84 5.604 9.435-.727c5.188-.4 10.915-1.403 12.726-2.228zm204.45 2.005v-40.632h13.342v81.263h-13.342zm55.543 6.163c-.196-18.957-.81-34.922-1.366-35.477-.556-.555-5.608-1.201-11.228-1.437-9.606-.402-10.26-.602-10.946-3.332-1.654-6.588-1.836-6.55 31.068-6.55 32.903 0 32.72-.038 31.067 6.55-.685 2.73-1.34 2.93-10.946 3.332-5.62.236-10.672.882-11.228 1.437-.555.555-1.17 16.52-1.366 35.477l-.357 34.468h-14.341zm57.256-6.163v-40.632h12.973l.791 12.924c1.012 16.535 1.013 43.004 0 57.237l-.788 11.102h-12.979zm50.047 32.444l-11.71-38.6c-5.075-16.728-9.227-31.328-9.227-32.445 0-3.003 11.57-2.923 13.168.091.619 1.168 4.516 14.929 8.66 30.58 8.804 33.244 9.063 34.007 11.522 34.007 2.636 0 3.279-1.908 11.649-34.568 4.103-16.01 8.004-29.791 8.669-30.625 1.372-1.721 11.336-2.08 12.347-.444.776 1.255-21.998 76.435-23.833 78.675-.784.959-4.464 1.517-10.001 1.517h-8.76l-2.484-8.188zm61.54-32.444v-40.632h48.515v4.7c0 4.293-.328 4.765-3.79 5.458-2.085.417-9.668.758-16.851.758-15.174 0-14.533-.568-14.533 12.864 0 8.575.157 9.087 3.111 10.21 1.711.651 8.534 1.184 15.161 1.184h12.05v9.703h-12.05c-6.627 0-13.45.532-15.16 1.183-3.024 1.149-3.112 1.492-3.112 12.159 0 10.666.087 11.009 3.111 12.158 1.711.651 9.898 1.183 18.194 1.183h15.082v9.703h-49.729zm108.69 38.509c-1.082-3.637-16.511-76.442-16.511-77.915 0-.767 1.208-1.22 2.684-1.007 2.512.362 3.096 2.533 9.076 33.742 6.416 33.484 7.79 38.812 10.003 38.812 2.131 0 3.301-3.743 11.562-36.993 4.474-18.011 8.915-33.558 9.866-34.547 3.936-4.09 5.573-.116 14.38 34.906 4.723 18.778 9.256 34.812 10.075 35.63 1.176 1.177 1.807 1.173 3.005-.017.834-.83 4.535-17.176 8.226-36.327 6.389-33.156 6.843-34.838 9.513-35.221 2.23-.32 2.669.05 2.145 1.82-.363 1.221-4.032 18.322-8.154 38.001-4.122 19.68-7.97 37.043-8.55 38.586-.855 2.272-1.806 2.734-4.999 2.426l-3.942-.38-8.22-32.057c-4.521-17.631-8.818-32.777-9.549-33.658-2.352-2.834-4.546-1.715-5.778 2.948-.661 2.502-4.31 17.102-8.11 32.445s-7.44 28.579-8.09 29.412c-1.812 2.324-7.886 1.897-8.631-.606zm182.403-38.618v-40.741l18.497.412c15.788.352 19.19.776 23.237 2.9 7.04 3.693 9.435 8.935 8.954 19.602-.362 8.015-.733 9.096-4.421 12.902-2.215 2.285-6.162 5.117-8.773 6.294-2.94 1.326-4.746 2.962-4.746 4.299 0 1.187 4.094 9.073 9.097 17.525 5.003 8.452 9.097 15.896 9.097 16.542 0 .646-1.181 1-2.625.787-1.956-.29-5.203-4.87-12.745-17.975l-10.12-17.587-8.784-.754c-4.838-.415-9.329-.253-9.997.36-.667.614-1.39 9.003-1.605 18.645-.367 16.361-.549 17.53-2.73 17.53-2.26 0-2.336-1.33-2.336-40.741zm31.875-1.917c6.984-1.525 12.394-6.48 13.497-12.36 1.205-6.421-.434-13.725-3.842-17.134-3.747-3.746-8.594-5.022-23.029-6.06l-11.214-.808-1.218 3.202c-1.571 4.133-1.582 28.609-.016 32.732 1.19 3.129 1.304 3.155 10.613 2.429 5.175-.404 12.02-1.304 15.208-2zm41.658 22.407c-.457-11.138-.458-29.423 0-40.632.735-18.118 1.058-20.381 2.906-20.381 1.842 0 2.201 2.388 3.15 20.91.913 17.817 1.363 20.967 3.045 21.286 1.3.247 8.056-6.905 19.757-20.91 12.59-15.074 18.517-21.286 20.307-21.286 2.95 0 3.817-1.35-10.28 15.987-5.794 7.126-10.535 13.865-10.535 14.977 0 1.111 5.995 11.996 13.321 24.188 15.848 26.37 15.891 26.465 12.056 25.915-2.255-.323-5.116-4.259-13.522-18.603-12.381-21.126-14.967-24.865-17.201-24.865-2.494 0-15.273 15.179-16.562 19.672-.625 2.18-1.137 8.47-1.137 13.978 0 8.925-.243 10.014-2.237 10.014-2.053 0-2.307-1.675-3.068-20.25z" fill="#675a8d"/></g></svg>