<svg xmlns="http://www.w3.org/2000/svg" height="13.136" width="29.154" id="svg20" xml:space="preserve" viewBox="0 0 29.154 13.136" y="0" x="0" version="1.1"><style id="style2" type="text/css"/><g id="layer117" transform="translate(-10.16 36.74) scale(.00332)" fill="#fff" stroke="none"><g transform="translate(-136.345 -671.062) scale(1.04634)" id="g2530" stroke-width="7.803"><path id="path1985" d="M6733.057-6164.02c-191.79-20.028-424.94-89.248-612.16-181.746-374.291-184.922-674.455-483.334-854.689-849.696-82.153-166.997-128.522-302.065-170.583-496.879-20.48-94.862-21.058-104.619-21.058-355.057 0-250.586.568-260.137 21.094-355.056 44.68-206.597 101.273-368.403 182.87-522.831 289.765-548.412 812.06-915.587 1426.819-1003.059 92.734-13.195 387.472-15.224 477.396-3.286 477.006 63.325 889.152 283.539 1206.304 644.54 397.407 452.349 549.94 1056.682 419.085 1660.408-114.304 527.362-494.727 1016.612-982.991 1264.19-215.73 109.387-435.493 176.183-656.1 199.417-87.877 9.255-343.615 8.7-435.987-.945zm428.793-140.086c232.18-21.937 503.128-113.08 696.202-234.19 305.738-191.782 523.333-430.963 677.18-744.364 120.804-246.089 173.74-479.095 173.74-764.738 0-283.084-50.206-507.495-169.35-756.934-255.343-534.603-750.53-898.501-1338.753-983.814-115.12-16.697-425.42-11.924-534.118 8.216-468.741 86.848-848.55 319.798-1119.885 686.871-317.413 429.406-423.232 964.485-292.664 1479.865 176.297 695.89 774.73 1221.678 1490.165 1309.264 38.626 4.73 82.52 9.937 97.543 11.572 38.57 4.2 222.718-2.562 319.94-11.748zm-1871.265-1467.83c-6.908-6.907-9.364-77.372-9.364-268.58 0-142.57 2.13-264.772 4.735-271.56 4.004-10.434 21.456-12.344 112.767-12.344 121.499 0 176.02 8.705 222.792 35.57 39.976 22.963 55.97 46.952 66.602 99.887 12.255 61.026-2.23 122.408-38.31 162.345-41.67 46.124-80.407 60.923-191.06 72.992l-44.868 4.895v83.715c0 54.708-3.245 86.96-9.364 93.08-5.236 5.237-30.348 9.364-56.966 9.364-26.619 0-51.729-4.127-56.964-9.364zm202.214-294.943c51.285-9.49 77.149-34.668 77.149-75.108 0-15.065-3.795-34.48-8.432-43.144-12.041-22.499-54.401-37.844-104.468-37.844h-43.169v81.936c0 93.64-4.34 89.564 78.92 74.16zm422.918 289.12c-47.87-21.734-100.472-73.919-125.15-124.16-20.29-41.305-21.622-50.32-21.54-145.479.08-90.578 2.048-105.406 18.378-138.431 10.059-20.343 38.569-55.762 63.355-78.71 55.67-51.54 92.028-63.223 181.436-58.295 105.705 5.825 163.712 44.528 208.145 138.876 18.38 39.03 20.212 51.76 20.212 140.462 0 90.72-1.508 100.614-21.553 141.434-29.178 59.413-86.06 111.514-138.871 127.197-57.611 17.108-143.317 15.763-184.412-2.895zm153.609-107.73c16.76-8.384 34.788-27.178 46.777-48.759 16.96-30.531 19.51-44.792 19.55-109.248.04-62.374-2.79-79.442-17.827-107.603-22.334-41.827-57.49-64.005-101.52-64.044-46.516-.038-75.32 17.206-100.501 60.177-19.178 32.722-21.516 44.367-21.548 107.253-.03 57.469 3.116 76.513 16.966 102.73 36.5 69.102 94.945 91.094 158.103 59.495zm347.075 96.831c-84.223-40.384-90.208-56.743-38.93-106.442l27.063-26.23 40.095 21.823c56.527 30.766 127.285 36.152 157.755 12.008 15.88-12.582 21.236-22.99 19.509-37.9-2.06-17.776-16.56-27.937-107.288-75.178-124.464-64.806-149.38-89.7-154.764-154.63-5.83-70.306 43.248-138.898 114.7-160.306 52.426-15.707 139.85-11.159 183.989 9.572 69.808 32.79 78.735 55.689 39.185 100.524-21.314 24.162-35.78 26.582-60.92 10.19-28.037-18.28-81.114-27.18-111.708-18.733-29.046 8.02-47.774 35.265-39.344 57.235 2.665 6.942 45.704 31.821 95.646 55.287 49.94 23.466 100.975 49.91 113.41 58.765 45.49 32.391 66.675 111.293 45.212 168.394-4.54 12.082-22.942 37.006-40.891 55.387-39.89 40.846-86.33 56.32-169.034 56.32-51.166 0-66.727-3.57-113.685-26.086zm427.069 16.722c-6.907-6.907-9.364-77.372-9.364-268.58 0-142.57 2.13-264.772 4.736-271.56 6.9-17.981 116.286-17.981 123.186 0 2.605 6.788 4.737 128.99 4.737 271.56 0 191.208-2.458 261.673-9.364 268.58-5.238 5.237-30.348 9.364-56.966 9.364-26.618 0-51.728-4.127-56.965-9.364zm358.958 0c-6.84-6.842-9.364-68.844-9.364-230.202v-220.837h-61.87c-70.957 0-86.395-9.05-86.395-50.642 0-53.656-12.27-50.803 218.497-50.803 230.767 0 218.496-2.853 218.496 50.803 0 41.593-15.438 50.642-86.395 50.642h-61.871v220.837c0 161.358-2.521 223.36-9.364 230.202-5.39 5.392-31.214 9.364-60.866 9.364-29.654 0-55.476-3.972-60.868-9.364zm365.477-5.73c-9.352-17.472-10.1-111.189-2.912-365.324l5.13-181.43h56.445c44.27 0 57.466 2.662 61.182 12.344 2.604 6.788 4.734 128.99 4.734 271.56 0 191.208-2.455 261.673-9.362 268.58-5.291 5.29-30.633 9.364-58.253 9.364-40.345 0-50.298-2.637-56.964-15.094zm347.44 4.175c-16.56-12.887-172.213-521.505-165.193-539.798 5.259-13.703 110.088-15.985 118.375-2.576 2.909 4.705 28.88 96.883 57.719 204.84 28.837 107.958 55.634 195.642 59.552 194.855 3.917-.786 30.02-88.575 58.009-195.086 27.99-106.51 53.655-198.045 57.035-203.41 8.448-13.406 111.408-13.395 116.552.016 4.397 11.457-151.437 525.323-162.41 535.548-11.695 10.9-126.891 15.532-139.638 5.614zm371.763 1.555c-6.907-6.907-9.364-77.372-9.364-268.58 0-142.57 2.13-264.772 4.736-271.56 4.119-10.733 26.906-12.344 174.603-12.344h169.866l4.877 24.386c14.22 71.103 4.985 77.059-119.47 77.059h-99.817l-4.228 52.669c-2.325 28.967-2.6 55.304-.608 58.526 1.99 3.22 30.627 6.059 63.638 6.306 33.007.248 74.024 2.935 91.149 5.972 30.342 5.382 31.276 6.506 36.656 44.117 3.383 23.66 2.367 42.392-2.63 48.41-5.478 6.605-37.904 10.535-99.08 12.01l-90.935 2.192v117.051l108.725 2.18c63.892 1.282 112.962 5.698 119.002 10.71 12.909 10.714 13.587 78.222.914 90.896-6.691 6.692-56.36 9.364-174.018 9.364-117.66 0-167.325-2.672-174.016-9.364zm-5220.116.77c-14.563-15.13-14.051-532.228.543-546.844 12.875-12.895 261.415-5.56 297.94 8.794 93.93 36.912 117.715 148.94 47.857 225.416l-16.644 18.222 29.588 23.765c38.292 30.754 54.149 62.387 54.149 108.024 0 74.173-27.997 117.215-95.442 146.73-45.638 19.973-301.744 32.772-317.99 15.893zm266.486-111.13c23.611-15.47 33.155-46.012 23.28-74.507-10.432-30.095-52.126-47.65-113.212-47.664-51.663-.016-51.702.01-56.577 24.374-6.74 33.706-6.123 104.391.976 111.684 10.636 10.924 124.205.087 145.533-13.886zm-14.056-242.867c11.638-15.915 14.499-57.004 4.964-71.283-11.663-17.467-41.051-26.529-86.028-26.529h-46.205l-4.836 51.782c-2.658 28.48-2.735 55.18-.17 59.33 2.606 4.218 30.405 6.249 63.001 4.603 46.298-2.338 60.594-6.032 69.272-17.903zm373.797 344.709c-46.467-22.354-100.254-78.496-123.6-129.012-14.545-31.473-16.862-50.426-16.86-137.932 0-95.352 1.315-104.122 21.891-146.033 26.857-54.7 79.26-102.34 131.756-119.776 61.996-20.592 162.055-13.115 215.709 16.118 81.827 44.583 119.895 115.276 124.771 231.705 4.296 102.546-14.752 167.309-65.964 224.27-52.421 58.305-84.98 72.539-174.553 76.31-66.018 2.779-78.404 1.065-113.15-15.65zm154.434-101.885c17.319-7.236 32.461-23.674 48.521-52.673 21.09-38.085 23.34-48.935 23.288-112.386-.043-58.089-3.135-76.017-17.872-103.701-22.587-42.433-57.319-64.014-103.025-64.014-45.704 0-80.437 21.58-103.025 64.014-26.156 49.139-25.8 157.943.695 211.761 30.268 61.483 88.354 83.349 151.418 57zm311.822 111.168c-7.414-7.698-9.726-72.96-9.635-271.934.061-143.994 3.15-266.589 6.853-272.434 5.364-8.468 30.32-9.884 122.785-6.969 136.615 4.308 171.916 14.396 228.544 65.308 56.568 50.86 72.817 90.254 77.118 186.967 5.041 113.32-14.337 176.325-71.95 233.937-52.794 52.794-86.411 62.929-231.82 69.888-87.336 4.18-114.298 3.126-121.895-4.763zm232.231-118.207c41.256-28.078 55.432-53.685 64.25-116.06 10.97-77.597-1.333-137.319-35.818-173.883-26.242-27.824-76.1-46.429-112.994-42.164l-20.863 2.412-6.2 163.194c-3.409 89.757-4.396 167.89-2.195 173.627 6.976 18.177 83.701 13.373 113.82-7.126zm383.85 117.442c-6.25-6.25-9.364-40.742-9.364-103.744v-94.38l-78.4-166.695c-43.121-91.683-76.53-171.569-74.246-177.524 3.134-8.169 18.073-10.265 60.799-8.534 66.17 2.68 59.836-5.228 116.061 144.934 18.124 48.408 36.771 86.793 41.436 85.299 4.665-1.494 27.797-49.88 51.403-107.524 23.606-57.644 45.76-109.197 49.232-114.562 4.052-6.26 25.714-9.754 60.477-9.754 49.542 0 54.162 1.376 54.162 16.127 0 8.87-32.919 85.328-73.155 169.907l-73.154 153.78-3.231 103.685c-2.488 79.826-5.854 105.345-14.634 110.898-16.582 10.489-96.405 9.067-107.386-1.913zm4535.896 1.948c-13.002-5.271-22.551-32.918-53.056-153.624-57.69-228.265-68.9-268.15-75.368-268.15-3.302 0-28.007 88.667-54.897 197.038-26.89 108.37-52.02 203.182-55.841 210.693-5.204 10.228-16.635 13.656-45.541 13.656-33.615 0-39.12-2.266-42.668-17.558-2.241-9.657-28.603-131.683-58.583-271.17-50.264-233.855-53.488-254.372-41.404-263.366 17.068-12.705 37.575-12.399 50.732.756 5.78 5.781 29.286 107.616 52.237 226.3 22.949 118.684 44.38 215.79 47.628 215.79 3.246 0 29.635-95.044 58.642-211.208 29.006-116.165 57.772-216.244 63.927-222.399 17.942-17.94 55.923-14.21 64.844 6.368 6.527 15.055 109.105 413.268 109.105 423.552 0 2.027 3.022 3.686 6.716 3.686 3.693 0 25.545-97.1 48.56-215.777 23.015-118.678 46.58-220.513 52.369-226.3 13.31-13.31 26-13.326 44.148-.055 13.718 10.03 12.623 18.552-26.334 204.84-64.194 306.98-70.027 329.484-88.833 342.655-18.41 12.896-32.483 13.962-56.383 4.273zm389.119-11.888c-48.446-24.586-99.32-77.736-122.13-127.59-14.34-31.347-16.683-50.776-16.627-137.932.08-120.25 10.5-150.911 74.235-218.3 47.117-49.82 88.132-66.56 162.805-66.45 65.583.099 117.13 23.302 163.179 73.455 56.41 61.439 67.391 94.545 67.495 203.492.109 114.667-12.728 157.768-63.96 214.751-49.564 55.126-85.771 72.064-162.25 75.903-55.456 2.783-66.931.848-102.747-17.33zm166.89-58.501c32.345-19.722 70.028-71.904 81.338-112.63 15.343-55.254 10.763-168.756-8.572-212.48-32.161-72.733-76.118-104.309-145.214-104.309-93.756 0-150.098 63.8-163.734 185.41-5.848 52.137 7.08 133.285 27.58 173.125 14.737 28.638 46.942 62.122 74.227 77.177 26.662 14.709 106.024 10.993 134.375-6.293zm292.475 68.441c-6.918-6.917-9.366-78.901-9.366-275.462 0-196.56 2.448-268.544 9.366-275.461 18.708-18.709 242.322-4.66 290.62 18.258 15.792 7.494 37.278 26.229 47.745 41.634 16.38 24.104 19.031 36.997 19.031 92.503 0 63.355-.506 65.058-28.73 96.297-15.801 17.49-42.207 38.676-58.674 47.078-34.824 17.766-38.949 3.856 41.709 140.678 29.423 49.916 53.501 96.444 53.501 103.396 0 17.207-56.468 17.52-70.682.392-5.591-6.736-36.747-58.531-69.237-115.1l-59.071-102.854-48.772-2.323-48.771-2.323v111.961c0 120.138-3.15 130.69-39.017 130.69-11.158 0-24.502-4.213-29.652-9.364zm206.905-303.77c56.382-10.806 80.261-39.394 80.261-96.093 0-73.172-34.056-94.38-159.971-99.624l-54.625-2.274-2.203 97.11c-1.21 53.41-.662 101.132 1.228 106.048 3.852 10.039 68.931 7.553 135.31-5.168zm269.104 303.77c-6.916-6.917-9.364-78.901-9.364-275.462 0-284.305.08-284.825 39.018-284.825 36.436 0 39.017 9.635 39.017 145.68 0 98.54 2.183 126.035 9.754 122.86 5.365-2.249 57.159-61.82 115.101-132.382 57.941-70.562 112.993-130.38 122.341-132.93 21.482-5.862 49.334 2.67 49.334 15.111 0 5.216-35.116 52.8-78.035 105.741-42.918 52.942-78.034 97.204-78.034 98.36 0 1.157 36.765 63.918 81.699 139.47 90.07 151.443 105.584 179.616 105.584 191.747 0 14.005-58.848 9.529-71.858-5.465-6.516-7.51-44.289-68.963-83.933-136.56-39.648-67.598-76.274-122.905-81.394-122.905-5.12 0-27.59 21.88-49.934 48.623l-40.625 48.622v82.476c0 88.94-4.727 101.203-39.017 101.203-11.16 0-24.504-4.213-29.654-9.364zm515.915-14.055c-57.768-28.866-79.18-50.367-67.927-68.206 17.548-27.822 29.831-28.01 73.528-1.124 34.697 21.35 52.104 26.663 95.372 29.108 84.615 4.781 130.683-25.05 130.683-84.624 0-43.67-21.039-63.208-120.19-111.616-107.756-52.608-147.766-85.922-159.59-132.88-15.846-62.935 21.838-132.04 88.527-162.337 64.588-29.341 170.353-12.98 220.516 34.112 21.453 20.141 22.034 30.702 2.652 48.243-14.214 12.863-16.431 12.48-47.731-8.233-59.965-39.682-162.631-32.903-186.843 12.337-12.527 23.408-9.485 58.911 6.825 79.647 8.172 10.39 58.213 40.471 111.199 66.848 57.175 28.46 107.343 59.35 123.407 75.983 24.611 25.484 27.294 32.788 29.57 80.519 2.078 43.54-.562 57.777-15.479 83.475-33.27 57.316-88.184 82.05-182.326 82.124-45.921.039-63.296-3.938-102.193-23.376z" fill="#fadc55"/><path id="path1983" d="M6733.057-6164.02c-187.678-19.598-421.22-88.203-602.97-177.127-149.447-73.119-330.933-189.848-320.763-206.307 2.718-4.397 1.597-5.928-2.49-3.402-9.655 5.968-30.095-6.738-30.095-18.71 0-5.113-6.604-10.265-14.676-11.45-17.201-2.524-31.997-15.722-32.5-28.987-.194-5.15-4.697-8.448-10.008-7.328-13.227 2.789-176.341-158.12-170.26-167.96 2.682-4.336-1.233-12.672-8.695-18.523-12.535-9.827-12.696-9.448-2.103 4.968 8.47 11.525 5.919 10.66-9.753-3.31-22.074-19.677-30.038-33.227-9.52-16.199 9.79 8.125 11.708 6.96 11.708-7.122 0-9.26 5.009-24.614 11.134-34.12 17.88-27.756 28.513-100.819 16.71-114.827-5.427-6.437-12.414-16.972-15.532-23.41-3.117-6.438 2.494-1.175 12.47 11.694 41.496 53.538 113.903 134.244 177.08 197.374 37.045 37.019 58.577 60.43 47.848 52.024l-19.51-15.283 14.7 17.373c8.084 9.556 17.224 15.814 20.31 13.906 7.63-4.716 35.22 16.133 35.22 26.617 0 4.638 3.513 8.78 7.805 9.203 15.502 1.528 34.92 15.488 33.087 23.788-1.031 4.666 3.394 9.425 9.83 10.575 6.439 1.15 45.066 24.888 85.84 52.752 351.055 239.913 755.219 340.063 1190.026 294.883 242.307-25.178 506.744-114.08 700.102-235.369 305.738-191.781 523.333-430.962 677.18-744.363 120.804-246.089 173.74-479.095 173.74-764.738 0-283.084-50.206-507.495-169.35-756.934-255.343-534.603-750.53-898.501-1338.753-983.814-72.128-10.462-126.495-12.205-277.023-8.882-194.222 4.287-247.881 10.84-399.98 48.842-44.024 11-84.071 17.51-88.995 14.465-5.913-3.654-6.805-2.056-2.63 4.704 4.717 7.628 2.036 9.116-10.51 5.835-9.26-2.421-15.1-1.593-12.977 1.84 5.122 8.287-33.358 17.68-44.42 10.843-5.602-3.461-6.42-1.738-2.322 4.893 4.714 7.627 2.033 9.115-10.51 5.835-9.261-2.422-15.026-1.472-12.811 2.11 5.444 8.809-24.97 17.875-36.356 10.837-5.434-3.358-6.982-2.22-3.857 2.837 6.32 10.227-22.398 20.657-35.16 12.77-6.065-3.748-6.957-2.18-2.692 4.725 4.677 7.567 2.802 8.959-7.001 5.196-9.024-3.462-11.57-2.19-7.805 3.902 3.863 6.249 1.05 7.299-9.11 3.4-8.084-3.102-12-2.943-8.704.355 7.832 7.831-72.004 43.063-82.66 36.477-4.486-2.773-5.971-1.5-3.296 2.827 2.676 4.327-4.03 11.92-14.898 16.872-13.58 6.187-18.116 6.343-14.502.496 2.89-4.679-5.664-2.86-19.012 4.043-13.348 6.902-24.27 14.34-24.27 16.526 0 2.187 7.902-.135 17.558-5.16 33.96-17.668 6.897 2.096-49.89 36.434-31.72 19.18-46.932 25.84-33.998 14.884 12.877-10.906 17.266-17.583 9.756-14.838-13.77 5.031-18.643-4.683-7.805-15.555 3.219-3.23 6.637-16.982 7.594-30.564 5.17-73.331 8.194-86.733 21.32-94.5 17.482-10.343 50.615-38.48 37.416-31.772-5.364 2.726-9.753 3.065-9.753.753 0-8.758 63.357-36.08 71.704-30.922 5.005 3.093 6.58 1.905 3.684-2.78-6.16-9.967 54.718-35.744 66.792-28.282 4.88 3.015 6.273 1.654 3.275-3.197-6.321-10.227 22.398-20.658 35.159-12.77 6.067 3.748 6.958 2.18 2.693-4.725-4.677-7.567-2.802-8.959 7-5.197 7.367 2.826 11.64 2.305 9.5-1.158-5.43-8.785 47.779-26.97 58.866-20.12 6.014 3.717 6.93 2.16 2.727-4.642-4.714-7.627-2.034-9.116 10.51-5.835 10.79 2.821 14.994 1.42 11.706-3.902-3.291-5.32.916-6.723 11.704-3.9 10.789 2.82 14.996 1.42 11.705-3.903-3.288-5.322.916-6.723 11.705-3.902 9.262 2.422 15.19 1.74 13.179-1.518-7.125-11.529 174.849-55.176 311.875-74.802 92.662-13.272 387.117-15.344 477.396-3.359 477.006 63.325 889.152 283.539 1206.304 644.54 397.407 452.349 549.94 1056.682 419.085 1660.408-114.304 527.362-494.727 1016.612-982.991 1264.19-215.73 109.387-435.493 176.183-656.1 199.417-87.877 9.255-343.615 8.7-435.987-.945zm-1069.468-508.287c0-1.219-20.191-21.41-44.87-44.87l-44.87-42.652 42.653 44.87c39.626 41.685 47.087 48.445 47.087 42.652zm-7.802-187.436c0-1.304-13.17-14.472-29.265-29.263l-29.263-26.892 26.892 29.263c25.032 27.238 31.636 32.851 31.636 26.892zm-54.625-62.749c0-1.48-7.535-9.381-16.742-17.557-16.654-14.786-16.694-14.772-7.53 2.692 7.608 14.496 24.272 24.702 24.272 14.865zm-125.851 59.268c-9.706-12.377-9.43-12.653 2.946-2.947 7.51 5.89 13.656 12.036 13.656 13.656 0 6.423-6.407 2.29-16.602-10.71zm-2408.319-907.942c-14.563-15.13-14.051-532.228.543-546.844 12.875-12.895 261.415-5.56 297.94 8.794 93.93 36.912 117.715 148.94 47.857 225.416l-16.644 18.222 29.589 23.765c38.29 30.754 54.148 62.388 54.148 108.025 0 74.172-27.997 117.214-95.442 146.73-45.638 19.972-301.744 32.771-317.99 15.892zm266.486-111.13c23.612-15.47 33.155-46.012 23.28-74.507-10.431-30.095-52.126-47.65-113.212-47.663-51.663-.016-51.702.01-56.576 24.373-6.742 33.706-6.124 104.391.975 111.684 10.636 10.924 124.206.087 145.533-13.886zm-14.056-242.867c11.638-15.915 14.499-57.003 4.964-71.283-11.663-17.466-41.051-26.529-86.028-26.529h-46.205l-4.836 51.783c-2.658 28.48-2.735 55.179-.17 59.33 2.606 4.217 30.405 6.248 63.001 4.602 46.299-2.338 60.594-6.032 69.273-17.903zm373.797 344.709c-46.467-22.354-100.253-78.496-123.6-129.012-14.545-31.473-16.862-50.426-16.86-137.932 0-95.352 1.315-104.122 21.891-146.033 26.857-54.7 79.26-102.34 131.756-119.776 61.996-20.592 162.055-13.115 215.709 16.118 81.827 44.583 119.896 115.276 124.772 231.705 4.295 102.546-14.753 167.309-65.965 224.27-52.421 58.305-84.98 72.539-174.552 76.31-66.019 2.779-78.405 1.065-113.15-15.65zm154.434-101.885c17.319-7.236 32.461-23.674 48.521-52.673 21.09-38.085 23.34-48.935 23.288-112.386-.043-58.089-3.135-76.017-17.871-103.701-22.588-42.433-57.32-64.014-103.026-64.014-45.704 0-80.437 21.58-103.025 64.014-26.156 49.139-25.8 157.943.695 211.761 30.268 61.483 88.354 83.349 151.418 57zm311.822 111.168c-7.414-7.698-9.726-72.96-9.635-271.934.061-143.994 3.15-266.589 6.853-272.434 5.364-8.468 30.32-9.884 122.785-6.969 136.615 4.308 171.916 14.396 228.544 65.308 56.568 50.86 72.817 90.254 77.118 186.967 5.041 113.32-14.337 176.325-71.95 233.937-52.794 52.794-86.411 62.929-231.82 69.888-87.336 4.18-114.297 3.126-121.895-4.763zm232.231-118.207c41.256-28.078 55.432-53.685 64.25-116.06 10.97-77.597-1.333-137.319-35.818-173.883-26.242-27.824-76.1-46.429-112.993-42.164l-20.864 2.412-6.2 163.194c-3.409 89.757-4.396 167.89-2.195 173.627 6.976 18.177 83.701 13.373 113.82-7.126zm383.85 117.442c-6.25-6.25-9.364-40.742-9.364-103.744v-94.38l-78.4-166.695c-43.121-91.682-76.53-171.568-74.246-177.524 3.134-8.168 18.073-10.265 60.799-8.534 66.17 2.68 59.836-5.228 116.061 144.934 18.124 48.408 36.771 86.793 41.436 85.299 4.665-1.494 27.797-49.88 51.403-107.524 23.606-57.644 45.76-109.197 49.232-114.562 4.052-6.26 25.714-9.754 60.477-9.754 49.542 0 54.162 1.376 54.162 16.127 0 8.87-32.919 85.328-73.155 169.907l-73.154 153.78-3.231 103.685c-2.488 79.826-5.854 105.345-14.634 110.898-16.582 10.489-96.405 9.067-107.386-1.913zm515.029 0c-6.908-6.907-9.364-77.372-9.364-268.58 0-142.57 2.13-264.772 4.735-271.56 4.004-10.434 21.456-12.344 112.767-12.344 121.499 0 176.02 8.705 222.792 35.57 39.976 22.963 55.97 46.952 66.602 99.887 12.255 61.026-2.23 122.408-38.31 162.345-41.67 46.124-80.407 60.923-191.06 72.993l-44.868 4.894v83.715c0 54.708-3.245 86.96-9.364 93.08-5.236 5.237-30.348 9.364-56.966 9.364-26.619 0-51.729-4.127-56.964-9.364zm202.214-294.943c51.285-9.49 77.149-34.668 77.149-75.108 0-15.065-3.795-34.48-8.432-43.144-12.041-22.499-54.401-37.844-104.468-37.844h-43.169v81.936c0 93.64-4.34 89.564 78.92 74.16zm422.918 289.12c-47.87-21.734-100.472-73.919-125.15-124.16-20.29-41.305-21.622-50.32-21.54-145.479.08-90.578 2.048-105.406 18.378-138.431 10.059-20.343 38.569-55.762 63.355-78.71 55.67-51.54 92.028-63.223 181.436-58.295 105.705 5.825 163.712 44.528 208.145 138.876 18.38 39.03 20.212 51.76 20.212 140.462 0 90.72-1.508 100.614-21.553 141.434-29.178 59.413-86.06 111.514-138.871 127.197-57.611 17.108-143.317 15.763-184.412-2.895zm153.609-107.73c16.76-8.384 34.788-27.178 46.777-48.758 16.96-30.532 19.51-44.793 19.55-109.249.04-62.374-2.79-79.441-17.827-107.603-22.334-41.827-57.49-64.005-101.52-64.043-46.516-.04-75.32 17.205-100.501 60.175-19.178 32.723-21.516 44.368-21.548 107.254-.03 57.469 3.116 76.513 16.966 102.73 36.5 69.102 94.945 91.094 158.103 59.495zm347.075 96.831c-84.223-40.384-90.208-56.743-38.93-106.442l27.063-26.23 40.095 21.823c56.527 30.766 127.285 36.152 157.755 12.008 15.88-12.582 21.236-22.99 19.509-37.9-2.06-17.776-16.56-27.937-107.288-75.178-124.464-64.806-149.38-89.7-154.764-154.63-5.83-70.306 43.248-138.898 114.7-160.306 52.426-15.707 139.85-11.159 183.989 9.572 69.808 32.79 78.735 55.689 39.185 100.524-21.314 24.162-35.78 26.582-60.92 10.19-28.037-18.28-81.114-27.18-111.708-18.733-29.046 8.02-47.774 35.265-39.344 57.235 2.665 6.942 45.704 31.821 95.646 55.287 49.94 23.466 100.975 49.91 113.41 58.765 45.49 32.391 66.675 111.293 45.212 168.394-4.54 12.082-22.942 37.006-40.891 55.387-39.89 40.846-86.33 56.32-169.034 56.32-51.166 0-66.727-3.57-113.685-26.086zm427.069 16.722c-6.907-6.907-9.364-77.372-9.364-268.58 0-142.57 2.13-264.772 4.736-271.56 6.9-17.981 116.286-17.981 123.186 0 2.605 6.788 4.737 128.99 4.737 271.56 0 191.208-2.458 261.673-9.364 268.58-5.238 5.237-30.348 9.364-56.966 9.364-26.618 0-51.728-4.127-56.965-9.364zm358.958 0c-6.84-6.842-9.364-68.843-9.364-230.202v-220.837h-61.87c-70.957 0-86.395-9.05-86.395-50.642 0-53.656-12.27-50.803 218.497-50.803 230.767 0 218.496-2.853 218.496 50.803 0 41.593-15.438 50.642-86.395 50.642h-61.871v220.837c0 161.359-2.521 223.36-9.364 230.202-5.39 5.392-31.214 9.364-60.866 9.364-29.654 0-55.476-3.972-60.868-9.364zm365.477-5.73c-9.352-17.472-10.1-111.189-2.912-365.324l5.13-181.43h56.445c44.27 0 57.466 2.662 61.182 12.344 2.604 6.788 4.734 128.99 4.734 271.56 0 191.208-2.455 261.673-9.362 268.58-5.291 5.29-30.633 9.364-58.253 9.364-40.345 0-50.298-2.637-56.964-15.094zm347.44 4.175c-16.56-12.887-172.213-521.505-165.193-539.797 5.259-13.704 110.088-15.986 118.375-2.577 2.909 4.705 28.88 96.883 57.719 204.84 28.837 107.958 55.634 195.642 59.552 194.855 3.917-.786 30.02-88.575 58.009-195.086 27.99-106.51 53.655-198.045 57.035-203.41 8.448-13.406 111.408-13.395 116.552.016 4.397 11.457-151.437 525.323-162.41 535.548-11.695 10.9-126.891 15.532-139.638 5.614zm371.763 1.555c-6.907-6.907-9.364-77.372-9.364-268.58 0-142.57 2.13-264.772 4.736-271.56 4.119-10.733 26.906-12.344 174.603-12.344h169.866l4.877 24.386c14.22 71.103 4.985 77.059-119.47 77.059h-99.817l-4.228 52.669c-2.325 28.967-2.6 55.304-.608 58.526 1.99 3.22 30.627 6.059 63.638 6.306 33.007.248 74.024 2.935 91.149 5.972 30.342 5.382 31.276 6.506 36.656 44.117 3.383 23.66 2.367 42.392-2.63 48.41-5.478 6.605-37.904 10.535-99.08 12.01l-90.935 2.192v117.051l108.725 2.18c63.892 1.282 112.962 5.698 119.002 10.71 12.909 10.714 13.587 78.222.914 90.896-6.691 6.692-56.36 9.364-174.018 9.364-117.66 0-167.325-2.672-174.016-9.364zm1024.344 1.948c-13.002-5.271-22.551-32.918-53.056-153.624-57.69-228.265-68.9-268.15-75.368-268.15-3.302 0-28.007 88.667-54.897 197.038-26.89 108.37-52.02 203.182-55.841 210.693-5.204 10.228-16.635 13.656-45.541 13.656-33.615 0-39.12-2.266-42.668-17.558-2.241-9.657-28.603-131.683-58.583-271.17-50.264-233.855-53.488-254.372-41.404-263.366 17.068-12.705 37.575-12.399 50.732.756 5.78 5.781 29.286 107.616 52.237 226.3 22.949 118.684 44.38 215.79 47.628 215.79 3.246 0 29.635-95.044 58.642-211.208 29.006-116.165 57.772-216.244 63.927-222.399 17.942-17.94 55.923-14.21 64.844 6.368 6.527 15.055 109.105 413.268 109.105 423.552 0 2.027 3.022 3.686 6.716 3.686 3.693 0 25.545-97.1 48.56-215.777 23.015-118.678 46.58-220.513 52.369-226.3 13.31-13.31 26-13.326 44.148-.055 13.718 10.03 12.623 18.552-26.334 204.84-64.194 306.98-70.027 329.484-88.833 342.655-18.41 12.896-32.483 13.962-56.383 4.273zm389.119-11.888c-48.446-24.586-99.32-77.736-122.13-127.59-14.34-31.347-16.683-50.776-16.627-137.932.08-120.25 10.5-150.911 74.235-218.3 47.117-49.82 88.132-66.56 162.805-66.45 65.583.099 117.13 23.302 163.179 73.455 56.41 61.439 67.391 94.545 67.495 203.492.109 114.667-12.728 157.768-63.96 214.751-49.564 55.126-85.771 72.064-162.25 75.903-55.456 2.783-66.931.848-102.747-17.33zm166.89-58.501c32.345-19.722 70.028-71.904 81.338-112.63 15.343-55.254 10.763-168.756-8.572-212.48-32.161-72.733-76.118-104.309-145.214-104.309-93.756 0-150.098 63.8-163.734 185.41-5.848 52.137 7.08 133.285 27.58 173.125 14.737 28.638 46.942 62.122 74.227 77.177 26.662 14.709 106.024 10.993 134.375-6.293zm292.475 68.441c-6.918-6.917-9.366-78.901-9.366-275.462 0-196.56 2.448-268.544 9.366-275.461 18.708-18.709 242.322-4.66 290.62 18.258 15.792 7.494 37.278 26.229 47.745 41.634 16.38 24.104 19.031 36.997 19.031 92.503 0 63.355-.506 65.058-28.73 96.297-15.801 17.49-42.207 38.676-58.674 47.078-34.824 17.766-38.949 3.856 41.709 140.678 29.423 49.916 53.501 96.444 53.501 103.396 0 17.207-56.468 17.52-70.682.392-5.591-6.736-36.747-58.531-69.237-115.1l-59.071-102.854-48.772-2.323-48.771-2.323v111.961c0 120.138-3.15 130.69-39.017 130.69-11.158 0-24.502-4.213-29.652-9.364zm206.905-303.77c56.382-10.806 80.261-39.394 80.261-96.093 0-73.172-34.056-94.38-159.971-99.624l-54.625-2.274-2.203 97.11c-1.21 53.41-.662 101.132 1.228 106.048 3.852 10.039 68.931 7.553 135.31-5.168zm269.104 303.77c-6.916-6.917-9.364-78.901-9.364-275.462 0-284.305.08-284.825 39.018-284.825 36.436 0 39.017 9.635 39.017 145.68 0 98.54 2.183 126.035 9.754 122.86 5.365-2.249 57.159-61.82 115.101-132.382 57.941-70.562 112.993-130.38 122.341-132.93 21.482-5.862 49.334 2.67 49.334 15.111 0 5.216-35.116 52.8-78.035 105.741-42.918 52.942-78.034 97.204-78.034 98.36 0 1.157 36.765 63.918 81.699 139.47 90.07 151.443 105.584 179.616 105.584 191.747 0 14.005-58.848 9.529-71.858-5.465-6.516-7.51-44.289-68.963-83.933-136.56-39.648-67.598-76.274-122.905-81.394-122.905-5.12 0-27.59 21.88-49.934 48.623l-40.625 48.622v82.476c0 88.94-4.727 101.203-39.017 101.203-11.16 0-24.504-4.213-29.654-9.364zm515.915-14.055c-57.768-28.866-79.18-50.367-67.927-68.206 17.548-27.822 29.831-28.01 73.528-1.124 34.697 21.35 52.104 26.663 95.372 29.108 84.615 4.781 130.683-25.05 130.683-84.624 0-43.67-21.039-63.208-120.19-111.616-107.756-52.608-147.766-85.922-159.59-132.88-15.846-62.935 21.838-132.04 88.527-162.337 64.588-29.341 170.353-12.98 220.516 34.112 21.453 20.141 22.034 30.702 2.652 48.243-14.214 12.863-16.431 12.48-47.731-8.233-59.965-39.682-162.631-32.903-186.843 12.337-12.527 23.408-9.485 58.911 6.825 79.647 8.172 10.39 58.213 40.471 111.199 66.848 57.175 28.46 107.343 59.35 123.407 75.983 24.611 25.484 27.294 32.788 29.57 80.519 2.078 43.54-.562 57.777-15.479 83.475-33.27 57.316-88.184 82.05-182.326 82.124-45.921.039-63.296-3.938-102.193-23.376zm-5955.246-202.88c0-10.73 1.772-15.12 3.936-9.755 2.166 5.365 2.166 14.144 0 19.509-2.164 5.365-3.936.975-3.936-9.755zm0-117.052c0-10.73 1.772-15.12 3.936-9.755 2.166 5.365 2.166 14.144 0 19.51-2.164 5.364-3.936.974-3.936-9.755zm396.745-1056.412c0-1.62 6.143-7.766 13.656-13.656 12.376-9.707 12.652-9.43 2.947 2.946-10.195 13-16.603 17.133-16.603 10.71zm46.82-54.12c0-1.343 11.413-12.755 25.36-25.36l25.362-22.92-22.92 25.361c-21.364 23.64-27.801 28.948-27.801 22.92zm-124.854-62.931c0-1.62 6.143-7.766 13.655-13.656 12.376-9.707 12.653-9.43 2.947 2.946-10.195 12.998-16.602 17.132-16.602 10.71zm265.317-78.99c10.079-10.73 20.083-19.509 22.229-19.509 2.146 0-4.345 8.779-14.427 19.509-10.08 10.729-20.083 19.508-22.23 19.508-2.145 0 4.346-8.779 14.428-19.508zm-156.07-39.018c23.313-23.605 44.14-42.918 46.287-42.918 2.146 0-15.172 19.313-38.484 42.918-23.312 23.606-44.142 42.919-46.288 42.919-2.146 0 15.174-19.313 38.486-42.919zm202.89.955c0-1.62 6.146-7.765 13.656-13.656 12.376-9.706 12.653-9.43 2.947 2.947-10.195 12.999-16.603 17.132-16.603 10.71zm39.016-31.213c0-1.62 6.146-7.766 13.656-13.656 12.378-9.707 12.653-9.43 2.947 2.947-10.195 12.998-16.603 17.131-16.603 10.709zm-152.166-51.678c7.768-8.584 15.879-15.607 18.025-15.607 2.146 0-2.454 7.023-10.223 15.607-7.766 8.584-15.88 15.607-18.025 15.607-2.145 0 2.454-7.023 10.223-15.607zm42.918-34.16c0-1.62 6.146-7.766 13.656-13.656 12.377-9.706 12.653-9.43 2.947 2.946-10.195 12.999-16.603 17.132-16.603 10.71zm249.71-172.231c0-2.145 10.535-9.349 23.412-16.007 12.875-6.659 23.409-10.35 23.409-8.204 0 2.146-10.534 9.349-23.41 16.008-12.876 6.658-23.41 10.35-23.41 8.203z" fill="#e6a09d"/><path id="path1981" d="M6627.314-6194.93c-149.785-21.6-349.358-85.055-499.42-158.796-203.003-99.756-371.14-221.733-520.88-377.882-78.443-81.8-86.992-98.984-64.217-129.087 6.255-8.267 13.546-31.438 16.207-51.491l4.838-36.462 98.644 101.134c120.32 123.357 188.37 180.854 314.186 265.47 196.83 132.375 425.179 231.019 619.43 267.586 113.244 21.318 133.085 28.394 129.939 46.343-1.496 8.53-4.482 30.435-6.638 48.675-4.423 37.424-3.76 37.247-92.09 24.51zm915.358-65.725c-6.034-6.035 8.117-75.772 17.224-84.88 4.254-4.253 7.733-15.403 7.733-24.776 0-13.48 9.378-20.76 44.872-34.84 186.245-73.88 389.759-209.457 555.05-369.768 293.24-284.4 469.542-625.77 528.213-1022.768 20.343-137.656 18.378-403.371-3.924-530.634-59.54-339.756-188.742-615.79-413.948-884.384-44.381-52.93-101.344-114.382-126.587-136.56-63.874-56.12-78.007-82.142-72.092-132.752 2.587-22.127 6.114-44.744 7.836-50.26 13.28-42.515 292.603 220.088 416.178 391.267 258.11 357.538 384.054 819.713 343.724 1261.387-25.69 281.376-121.257 570.383-270.773 818.853-88.695 147.398-247.692 333.33-383.77 448.78-166.111 140.933-307.72 225.473-521.217 311.169-111.343 44.691-120.98 47.704-128.52 40.166zm-1064.843-1509.96c-59.761-11.977-127.57-52.957-127.501-77.053.04-13.171 42.944-63.17 54.209-63.17 3.649 0 25.393 8.693 48.323 19.316 80.024 37.075 148.014 30.94 169.063-15.258 13.416-29.447-11.037-51.671-109.53-99.546-123.037-59.805-146.494-86.033-146.494-163.798 0-56.17 26.07-97.908 79.402-127.118 37.438-20.505 48.505-22.72 111.783-22.375 73.349.4 105.268 10.326 142.413 44.29 23.457 21.45 22.126 38.008-5.43 67.507l-22.991 24.61-32.63-16.648c-17.947-9.156-51.297-18.573-74.108-20.928-38.762-4-43.094-2.665-66.145 20.387-22.654 22.654-23.773 26.083-13.7 42.014 6.034 9.54 53.457 38.434 105.384 64.208 132.7 65.864 150.587 85.314 150.587 163.755 0 81.16-54.96 146.459-131.352 156.056-74.593 9.372-99.663 10.088-131.283 3.751zm3269.509-.11c-66.5-13.143-126.307-62.043-159.983-130.804-24.03-49.06-30.318-195.985-11.137-260.132 15.55-51.995 56.91-108.951 99.696-137.281 28.25-18.708 41.832-21.942 102.129-24.329 51.673-2.045 78.376.619 103.899 10.367 43.94 16.78 96.27 67.652 120.733 117.364 17.552 35.67 19.14 47.949 19.14 148.142 0 98.392-1.793 112.888-18.039 145.869-23.577 47.864-72.801 97.957-113.401 115.397-40.461 17.381-100.39 23.837-143.037 15.408zm132.238-74.75c21.6-15.18 40.82-38.75 56.302-69.04 22.164-43.363 23.503-51.152 23.4-136.258-.117-96.053-4.803-112.524-48.68-171.1-68.407-91.33-216.622-62.998-264.19 50.5-39.043 93.164-20.377 242.524 38.288 306.338 48.462 52.716 135.304 61.432 194.88 19.56zM3065.04-8046.197v-278.223l33.165.212c18.241.118 85.036 3.39 148.436 7.272 95.846 5.87 119.778 9.845 142.019 23.591 39.153 24.198 58.75 60.513 58.75 108.87 0 43.302-6.807 61.288-36.866 97.41l-18.94 22.76 35.143 30.038c42.868 36.643 55.45 70.183 48.177 128.407-4.022 32.187-11.428 49.64-30.081 70.886-43.392 49.42-73.31 57.343-235.897 62.466l-143.906 4.534zm245.24 177.265c30.054-10.24 39.55-18.04 48.738-40.029 23.05-55.164-17.117-94.509-103.566-101.448-67.762-5.44-73.359.326-73.359 75.556 0 36.193 3.705 63.619 9.364 69.276 13.322 13.323 74.987 11.582 118.823-3.355zm9.424-255.421c31.198-36.27 20.767-76.326-24.84-95.381-32.285-13.49-90.651-14.438-103.407-1.68-12.496 12.494-12.191 101.663.39 114.583 6.618 6.797 25.771 9.04 59.576 6.976 42.692-2.605 52.465-6.112 68.28-24.498zm362.73 333.467c-51.173-25.5-97.862-82.546-114.554-139.964-14.661-50.436-16.728-172.345-3.759-221.894 18.609-71.102 76.242-133.479 144.704-156.614 50.478-17.057 148.69-13.078 196.973 7.98 73.864 32.219 121.068 101.185 135.453 197.905 22.211 149.33-47.324 295.007-155.096 324.938-15.986 4.44-59.101 8.092-95.813 8.116-56.478.04-73.081-3.112-107.909-20.467zm148.951-81.25c38.069-10.572 71.565-52.112 87.33-108.297 15.608-55.625 15.695-80.708.468-131.987-31.907-107.444-135.942-144.244-201.775-71.374-28.285 31.309-51.501 93.063-51.501 136.99 0 46.32 29.035 123.032 56.347 148.865 37.55 35.517 57.323 40.193 109.131 25.804zm326.137-175.31v-279.402l107.297 4.918c116.646 5.345 173.8 18.289 222.202 50.32 29.31 19.396 66.702 65.975 79.758 99.357 11.738 30.01 18.072 131.942 11.47 184.534-11.723 93.35-55.068 157.136-130.43 191.94-36.619 16.91-55.603 19.59-165.825 23.415l-124.472 4.32zm222.4 168.753c49.925-22.926 67.569-50.21 82.168-127.076 8.72-45.909-3.515-126.111-24.393-159.892-27.18-43.979-124.925-78.79-150.217-53.498-11.174 11.175-12.905 34.595-12.905 174.66 0 115.404 2.682 164.437 9.364 171.118 13.701 13.703 60.175 11.131 95.982-5.312zm393.988 12.726l-.084-95.592-77.95-166.62c-42.873-91.641-77.95-171.462-77.95-177.38 0-14.11 27.021-20.412 74.593-17.396l38.443 2.437 46.409 119.159c25.525 65.537 50.133 117.967 54.682 116.512 4.548-1.455 27.584-49.81 51.19-107.454 23.607-57.643 45.45-108.694 48.544-113.446 6.276-9.643 87.047-20.053 104.279-13.44 6.077 2.332 11.049 7.476 11.049 11.43 0 3.955-34.207 78.2-76.014 164.989l-76.016 157.798-2.217 89.74c-3.257 131.853.352 124.855-64.397 124.855h-54.476zm515.112-182.653v-278.245l122.905 4.9c175.91 7.012 229.362 26.414 260.274 94.475 16.497 36.324 19.314 105.745 5.917 145.763-23.783 71.029-74.963 103.863-183.087 117.452-38.197 4.8-73.837 12.195-79.202 16.432-6.734 5.318-9.754 33.99-9.754 92.585v84.883h-117.053zm191.702-11.081c59.992-10.886 78.706-23.65 90.013-61.394 18.298-61.07-16.66-99.008-99.065-107.513-60.725-6.267-65.597.191-65.597 86.964 0 45.297 3.442 75.058 9.365 80.98 11.337 11.338 8.346 11.294 65.284.963zm427.36 274.65c-41.402-19.352-90.15-69.463-113.31-116.478-16.243-32.981-18.036-47.476-18.036-145.869 0-106.531.577-110.288 23.16-151.065 25.213-45.518 67.619-86.035 112.269-107.27 42.764-20.336 158.525-17.924 208.96 4.354 103.808 45.853 150.752 152.86 135.386 308.606-8.814 89.337-48.8 157.864-114.635 196.454-33.541 19.661-45.84 22.155-119.331 24.195-68.1 1.89-87.43-.293-114.462-12.927zm147.878-89.71c40.846-17.477 66.17-50.969 80.33-106.24 15.34-59.879 11.43-117.527-10.92-160.993-42.792-83.223-118.498-104.946-181.368-52.043-38.524 32.416-53.757 73.882-53.87 146.64-.2 132.64 75.389 211.333 165.828 172.636zm785.947-172.637v-277.022h117.051v554.045h-117.05zm358.959 55.58c0-171.948-2.264-223.32-10.126-229.845-5.567-4.621-38.048-9.44-72.181-10.71l-62.058-2.307-2.322-39.919c-2.283-39.244-1.904-40.002 22.435-44.87 13.616-2.723 97.62-4.951 186.679-4.951 89.057 0 173.062 2.228 186.678 4.952 24.34 4.867 24.719 5.625 22.437 44.87l-2.323 39.918-62.058 2.307c-34.132 1.27-66.614 6.089-72.183 10.71-7.861 6.525-10.123 57.897-10.123 229.845v221.443h-124.854zm368.612-53.629l2.05-275.071 56.577-2.293 56.574-2.293v554.729H7567.43zm335.235 250.731c-4.158-14.51-39.567-130.263-78.682-257.228-39.118-126.966-71.12-238.221-71.12-247.234 0-21.146 17.2-25.806 70.23-19.025l42.918 5.488 44.689 167.1c62.175 232.498 68.636 253.394 75.932 245.572 3.537-3.79 28.029-91.17 54.43-194.175 26.4-103.006 51.053-194.664 54.785-203.685 11.118-26.889 117.51-34.253 117.37-8.124-.08 15.296-154.686 514.035-161.383 520.609-3.49 3.424-36.778 8.67-73.974 11.655l-67.633 5.429zm380.832-252.834v-277.174l169.724 2.103 169.725 2.103v85.838l-93.641 1.914c-136.065 2.782-128.757-1.056-128.757 67.63 0 45.273 2.632 58.553 12.344 62.28 6.789 2.605 48.518 4.736 92.73 4.736 90 0 89.67-.236 89.905 64.379l.108 29.262h-85.202c-46.858 0-90.754 2.132-97.543 4.737-18.045 6.925-18.045 124.064 0 130.989 6.789 2.605 59.463 4.736 117.053 4.736h104.708v93.642h-351.154zm708.03 272.163c-9.14-15.133-115.416-528.812-111.511-538.986 2.753-7.175 13.14-10.186 29.654-8.594l25.414 2.449 43.692 220.569c24.029 121.312 45.976 222.855 48.77 225.65 2.794 2.794 7.12 3.04 9.613.548 2.492-2.493 28.67-100.19 58.172-217.103 29.503-116.914 56.866-215.795 60.806-219.736 3.94-3.94 19.022-6.03 33.517-4.644 26.113 2.496 26.509 3.121 43.38 68.848 9.366 36.481 35.322 137.438 57.679 224.35 22.356 86.91 43.598 158.02 47.2 158.02 7.814 0 4.462 15.096 53.69-241.822 21.785-113.688 42.579-209.675 46.208-213.305 12.287-12.287 43.402-2.164 45.84 14.914 2.77 19.38-97.15 498.583-108.306 519.43-11.98 22.386-67.535 20.134-77.301-3.134-4.056-9.657-28.95-102.256-55.321-205.775-47.71-187.281-56.341-213.947-66.1-204.19-2.812 2.814-27.805 95.768-55.54 206.565-27.73 110.797-52.835 203.903-55.784 206.902-8.73 8.882-69.38 16.316-73.772 9.043zm1164.796-272.01v-277.023l83.888.241c124.492.358 193.986 11.187 225.361 35.118 37.713 28.764 44.693 46.867 45.283 117.415.475 56.64-1.578 65.791-20.212 90.223-11.405 14.954-36.865 35.744-56.575 46.2-19.711 10.457-35.839 22.62-35.839 27.029 0 4.409 28.283 56.24 62.847 115.181 34.565 58.941 60.57 110.853 57.784 115.359-5.535 8.955-48.357 2.451-63.383-9.627-4.997-4.016-35.72-54.151-68.277-111.413-32.555-57.26-64.749-106.243-71.539-108.85-6.792-2.605-29.243-4.738-49.893-4.738-27.037 0-38.869 3.455-42.28 12.344-2.605 6.788-4.737 61.218-4.737 120.953v108.61h-62.428v-277.022zm207.104-23.74c26.6-6.882 54.859-20.32 66.018-31.39 16.86-16.732 19.507-26.308 19.507-70.579 0-46.04-2.142-53.064-21.184-69.443-26.416-22.72-90.699-36.56-155.57-33.492l-49.545 2.343-2.203 97.11c-1.212 53.411-.445 101.695 1.707 107.298 5.451 14.213 83.122 13.198 141.27-1.846zm268.907 23.74v-277.023h62.058l2.136 132.674c1.278 79.416 5.232 133.296 9.849 134.224 4.242.852 57.733-57.974 118.867-130.723 101.189-120.413 113.617-132.49 138.602-134.695 21.141-1.866 27.446.495 27.446 10.277 0 6.984-33.361 53.611-74.133 103.615-40.773 50.005-74.133 95.025-74.133 100.045 0 5.02 36.765 70.942 81.699 146.493 120.595 202.766 118.147 195.725 65.06 187.11-25.984-4.217-31.367-11.243-107.346-140.17-43.993-74.65-82.434-135.73-85.429-135.73-6.149 0-49.92 45.461-81.344 84.487-19.811 24.6-20.904 30.422-20.904 111.199v85.239h-62.428zm522.83 260.76c-42.984-19.488-70.23-44.076-70.23-63.378 0-25.565 23.496-24.956 75.994 1.97 67.694 34.721 124.336 39.223 173.599 13.798 25.99-13.416 37.777-25.508 45.799-46.99 22.711-60.811.08-87.494-127.15-149.825-101.185-49.579-131.672-74.678-145.087-119.453-28.484-95.075 46.948-176.2 163.834-176.2 65.773 0 137.652 30.133 145.387 60.949 9.082 36.187-14.264 45.695-50.248 20.464-68.102-47.751-169.18-37.958-195.089 18.902-24.099 52.892 7.042 88.801 128.356 148.014 49.127 23.978 101.526 55.8 116.442 70.717 25.852 25.852 27.121 29.707 27.121 82.374 0 73.202-19.051 108.446-73.214 135.436-52.489 26.156-161.336 27.783-215.514 3.221zM5999.138-9548.26c0-3.577 2.633-9.145 5.85-12.374 3.22-3.228 6.717-16.982 7.77-30.563 1.75-22.575 6.424-66.003 8.814-81.905 1.232-8.197 63.026-48.045 114.126-73.595 176.675-88.336 416.298-156.54 624.275-177.688 138.015-14.034 407.764-1.397 520.22 24.37l36.403 8.341 3.01 48.152c1.657 26.484 1.077 50.498-1.287 53.365-2.367 2.867-35.906-.44-74.532-7.349-86.173-15.412-391.158-17.113-503.323-2.807-103.392 13.187-237.163 44.093-345.833 79.898-90.138 29.7-302.001 122.968-325.263 143.19-12.163 10.573-58.445 35.467-65.942 35.467-2.36 0-4.288-2.926-4.288-6.502z" fill="#faa25c"/><path id="path1979" d="M7542.672-6260.655c-6.034-6.035 8.117-75.772 17.224-84.88 4.254-4.253 7.733-15.403 7.733-24.776 0-13.48 9.378-20.76 44.872-34.84 186.245-73.88 389.759-209.457 555.05-369.768 293.24-284.4 469.542-625.77 528.213-1022.768 20.343-137.656 18.378-403.371-3.924-530.634-59.54-339.756-188.742-615.79-413.948-884.384-44.381-52.93-101.344-114.382-126.587-136.56-63.874-56.12-78.007-82.142-72.092-132.752 2.587-22.127 6.114-44.744 7.836-50.26 13.28-42.515 292.603 220.088 416.178 391.267 258.11 357.538 384.054 819.713 343.724 1261.387-25.69 281.376-121.257 570.383-270.773 818.853-88.695 147.398-247.692 333.33-383.77 448.78-166.111 140.933-307.72 225.473-521.217 311.169-111.343 44.691-120.98 47.704-128.52 40.166zm-1064.843-1509.96c-59.761-11.977-127.57-52.957-127.501-77.053.04-13.171 42.944-63.17 54.209-63.17 3.649 0 25.393 8.693 48.323 19.316 80.024 37.075 148.014 30.94 169.063-15.258 13.416-29.447-11.037-51.671-109.53-99.546-123.037-59.805-146.494-86.033-146.494-163.798 0-56.17 26.07-97.908 79.402-127.118 37.438-20.505 48.505-22.72 111.783-22.375 73.349.4 105.268 10.326 142.413 44.29 23.457 21.45 22.126 38.008-5.43 67.507l-22.991 24.61-32.63-16.648c-17.947-9.156-51.297-18.573-74.108-20.928-38.762-4-43.094-2.665-66.145 20.387-22.654 22.654-23.773 26.083-13.7 42.014 6.034 9.54 53.457 38.434 105.384 64.208 132.7 65.864 150.587 85.314 150.587 163.755 0 81.16-54.96 146.459-131.352 156.056-74.593 9.372-99.663 10.088-131.283 3.751zm3269.509-.11c-66.5-13.143-126.307-62.043-159.983-130.804-24.03-49.06-30.318-195.985-11.137-260.132 15.55-51.995 56.91-108.951 99.696-137.281 28.25-18.708 41.832-21.942 102.129-24.329 51.673-2.045 78.376.619 103.899 10.367 43.94 16.78 96.27 67.652 120.733 117.364 17.552 35.67 19.14 47.949 19.14 148.142 0 98.392-1.793 112.888-18.039 145.869-23.577 47.864-72.801 97.957-113.401 115.397-40.461 17.381-100.39 23.837-143.037 15.408zm132.238-74.75c21.6-15.18 40.82-38.75 56.302-69.04 22.164-43.363 23.503-51.152 23.4-136.258-.117-96.053-4.803-112.524-48.68-171.1-68.407-91.33-216.622-62.998-264.19 50.5-39.043 93.164-20.377 242.524 38.288 306.338 48.462 52.716 135.304 61.432 194.88 19.56zM3065.04-8046.197v-278.223l33.165.212c18.241.118 85.036 3.39 148.436 7.272 95.846 5.87 119.778 9.845 142.019 23.591 39.153 24.198 58.75 60.513 58.75 108.87 0 43.302-6.807 61.288-36.866 97.41l-18.94 22.76 35.143 30.038c42.868 36.643 55.45 70.183 48.177 128.407-4.022 32.187-11.428 49.64-30.081 70.886-43.392 49.42-73.31 57.343-235.897 62.466l-143.906 4.534zm245.24 177.265c30.054-10.24 39.55-18.04 48.738-40.029 23.05-55.164-17.117-94.509-103.566-101.448-67.762-5.44-73.359.326-73.359 75.556 0 36.193 3.705 63.619 9.364 69.276 13.322 13.323 74.987 11.582 118.823-3.355zm9.424-255.421c31.198-36.27 20.767-76.326-24.84-95.381-32.285-13.49-90.651-14.438-103.407-1.68-12.496 12.494-12.191 101.663.39 114.583 6.618 6.797 25.771 9.04 59.576 6.976 42.692-2.605 52.465-6.112 68.28-24.498zm362.73 333.467c-51.173-25.5-97.862-82.546-114.554-139.964-14.661-50.436-16.728-172.345-3.759-221.894 18.609-71.102 76.242-133.479 144.704-156.614 50.478-17.057 148.69-13.078 196.973 7.98 73.864 32.219 121.068 101.185 135.453 197.905 22.211 149.33-47.324 295.007-155.096 324.938-15.986 4.44-59.101 8.092-95.813 8.116-56.478.04-73.081-3.112-107.909-20.467zm148.951-81.25c38.069-10.572 71.565-52.112 87.33-108.297 15.608-55.625 15.695-80.708.468-131.987-31.907-107.444-135.942-144.244-201.775-71.374-28.285 31.309-51.501 93.063-51.501 136.99 0 46.32 29.035 123.032 56.347 148.865 37.55 35.517 57.323 40.193 109.131 25.804zm326.137-175.31v-279.402l107.297 4.918c116.646 5.345 173.8 18.289 222.202 50.32 29.31 19.396 66.702 65.975 79.758 99.357 11.738 30.01 18.072 131.942 11.47 184.534-11.723 93.35-55.068 157.136-130.43 191.94-36.619 16.91-55.603 19.59-165.825 23.415l-124.472 4.32zm222.4 168.753c49.925-22.926 67.569-50.21 82.168-127.076 8.72-45.909-3.515-126.111-24.393-159.892-27.18-43.979-124.925-78.79-150.217-53.498-11.174 11.175-12.905 34.595-12.905 174.66 0 115.404 2.682 164.437 9.364 171.118 13.701 13.703 60.175 11.131 95.982-5.312zm393.988 12.726l-.084-95.592-77.95-166.62c-42.873-91.641-77.95-171.462-77.95-177.38 0-14.11 27.021-20.412 74.593-17.396l38.443 2.437 46.409 119.159c25.525 65.537 50.133 117.967 54.682 116.512 4.548-1.455 27.584-49.81 51.19-107.454 23.607-57.643 45.45-108.694 48.544-113.446 6.276-9.643 87.047-20.053 104.279-13.44 6.077 2.332 11.049 7.476 11.049 11.43 0 3.955-34.207 78.2-76.014 164.989l-76.016 157.798-2.217 89.74c-3.257 131.853.352 124.855-64.397 124.855h-54.476zm515.112-182.653v-278.245l122.905 4.9c175.91 7.012 229.362 26.414 260.274 94.475 16.497 36.324 19.314 105.745 5.917 145.763-23.783 71.029-74.963 103.863-183.087 117.452-38.197 4.8-73.837 12.195-79.202 16.432-6.734 5.318-9.754 33.99-9.754 92.585v84.883h-117.053zm191.702-11.081c59.992-10.886 78.706-23.65 90.013-61.394 18.298-61.07-16.66-99.008-99.065-107.513-60.725-6.267-65.597.191-65.597 86.964 0 45.297 3.442 75.058 9.365 80.98 11.337 11.338 8.346 11.294 65.284.963zm427.36 274.65c-41.402-19.352-90.15-69.463-113.31-116.478-16.243-32.981-18.036-47.476-18.036-145.869 0-106.531.577-110.288 23.16-151.065 25.213-45.518 67.619-86.035 112.269-107.27 42.764-20.336 158.525-17.924 208.96 4.354 103.808 45.853 150.752 152.86 135.386 308.606-8.814 89.337-48.8 157.864-114.635 196.454-33.541 19.661-45.84 22.155-119.331 24.195-68.1 1.89-87.43-.293-114.462-12.927zm147.878-89.71c40.846-17.477 66.17-50.969 80.33-106.24 15.34-59.879 11.43-117.527-10.92-160.993-42.792-83.223-118.498-104.946-181.368-52.043-38.524 32.416-53.757 73.882-53.87 146.64-.2 132.64 75.389 211.333 165.828 172.636zm785.947-172.637v-277.022h117.051v554.045h-117.05zm358.959 55.58c0-171.948-2.264-223.32-10.126-229.845-5.567-4.621-38.048-9.44-72.181-10.71l-62.058-2.307-2.322-39.919c-2.283-39.244-1.904-40.002 22.435-44.87 13.616-2.723 97.62-4.951 186.679-4.951 89.057 0 173.062 2.228 186.678 4.952 24.34 4.867 24.719 5.625 22.437 44.87l-2.323 39.918-62.058 2.307c-34.132 1.27-66.614 6.089-72.183 10.71-7.861 6.525-10.123 57.897-10.123 229.845v221.443h-124.854zm368.612-53.629l2.05-275.071 56.577-2.293 56.574-2.293v554.729H7567.43zm335.235 250.731c-4.158-14.51-39.567-130.263-78.682-257.228-39.118-126.966-71.12-238.221-71.12-247.234 0-21.146 17.2-25.806 70.23-19.025l42.918 5.488 44.689 167.1c62.175 232.498 68.636 253.394 75.932 245.572 3.537-3.79 28.029-91.17 54.43-194.175 26.4-103.006 51.053-194.664 54.785-203.685 11.118-26.889 117.51-34.253 117.37-8.124-.08 15.296-154.686 514.035-161.383 520.609-3.49 3.424-36.778 8.67-73.974 11.655l-67.633 5.429zm380.832-252.834v-277.174l169.724 2.103 169.725 2.103v85.838l-93.641 1.914c-136.065 2.782-128.757-1.056-128.757 67.63 0 45.273 2.632 58.553 12.344 62.28 6.789 2.605 48.518 4.736 92.73 4.736 90 0 89.67-.236 89.905 64.379l.108 29.262h-85.202c-46.858 0-90.754 2.132-97.543 4.737-18.045 6.925-18.045 124.064 0 130.989 6.789 2.605 59.463 4.736 117.053 4.736h104.708v93.642h-351.154zm708.03 272.163c-9.14-15.133-115.416-528.812-111.511-538.986 2.753-7.175 13.14-10.186 29.654-8.594l25.414 2.449 43.692 220.569c24.029 121.312 45.976 222.855 48.77 225.65 2.794 2.794 7.12 3.04 9.613.548 2.492-2.493 28.67-100.19 58.172-217.103 29.503-116.914 56.866-215.795 60.806-219.736 3.94-3.94 19.022-6.03 33.517-4.644 26.113 2.496 26.509 3.121 43.38 68.848 9.366 36.481 35.322 137.438 57.679 224.35 22.356 86.91 43.598 158.02 47.2 158.02 7.814 0 4.462 15.096 53.69-241.822 21.785-113.688 42.579-209.675 46.208-213.305 12.287-12.287 43.402-2.164 45.84 14.914 2.77 19.38-97.15 498.583-108.306 519.43-11.98 22.386-67.535 20.134-77.301-3.134-4.056-9.657-28.95-102.256-55.321-205.775-47.71-187.281-56.341-213.947-66.1-204.19-2.812 2.814-27.805 95.768-55.54 206.565-27.73 110.797-52.835 203.903-55.784 206.902-8.73 8.882-69.38 16.316-73.772 9.043zm1164.796-272.01v-277.023l83.888.241c124.492.358 193.986 11.187 225.361 35.118 37.713 28.764 44.693 46.867 45.283 117.415.475 56.64-1.578 65.791-20.212 90.223-11.405 14.954-36.865 35.744-56.575 46.2-19.711 10.457-35.839 22.62-35.839 27.029 0 4.409 28.283 56.24 62.847 115.181 34.565 58.941 60.57 110.853 57.784 115.359-5.535 8.955-48.357 2.451-63.383-9.627-4.997-4.016-35.72-54.151-68.277-111.413-32.555-57.26-64.749-106.243-71.539-108.85-6.792-2.605-29.243-4.738-49.893-4.738-27.037 0-38.869 3.455-42.28 12.344-2.605 6.788-4.737 61.218-4.737 120.953v108.61h-62.428v-277.022zm207.104-23.74c26.6-6.882 54.859-20.32 66.018-31.39 16.86-16.732 19.507-26.308 19.507-70.579 0-46.04-2.142-53.064-21.184-69.443-26.416-22.72-90.699-36.56-155.57-33.492l-49.545 2.343-2.203 97.11c-1.212 53.411-.445 101.695 1.707 107.298 5.451 14.213 83.122 13.198 141.27-1.846zm268.907 23.74v-277.023h62.058l2.136 132.674c1.278 79.416 5.232 133.296 9.849 134.224 4.242.852 57.733-57.974 118.867-130.723 101.189-120.413 113.617-132.49 138.602-134.695 21.141-1.866 27.446.495 27.446 10.277 0 6.984-33.361 53.611-74.133 103.615-40.773 50.005-74.133 95.025-74.133 100.045 0 5.02 36.765 70.942 81.699 146.493 120.595 202.766 118.147 195.725 65.06 187.11-25.984-4.217-31.367-11.243-107.346-140.17-43.993-74.65-82.434-135.73-85.429-135.73-6.149 0-49.92 45.461-81.344 84.487-19.811 24.6-20.904 30.422-20.904 111.199v85.239h-62.428zm522.83 260.76c-42.984-19.488-70.23-44.076-70.23-63.378 0-25.565 23.496-24.956 75.994 1.97 67.694 34.721 124.336 39.223 173.599 13.798 25.99-13.416 37.777-25.508 45.799-46.99 22.711-60.811.08-87.494-127.15-149.825-101.185-49.579-131.672-74.678-145.087-119.453-28.484-95.075 46.948-176.2 163.834-176.2 65.773 0 137.652 30.133 145.387 60.949 9.082 36.187-14.264 45.695-50.248 20.464-68.102-47.751-169.18-37.958-195.089 18.902-24.099 52.892 7.042 88.801 128.356 148.014 49.127 23.978 101.526 55.8 116.442 70.717 25.852 25.852 27.121 29.707 27.121 82.374 0 73.202-19.051 108.446-73.214 135.436-52.489 26.156-161.336 27.783-215.514 3.221z" fill="#a095ab"/><path id="path1977" d="M7755.19-6363.804c.926-19.498 23.628-99.667 28.714-101.4 3.368-1.149 42.996-26.48 88.06-56.294 393.904-260.593 669.429-627.725 787.645-1049.515 48.883-174.408 58.78-254.63 58.78-476.385 0-215.912-5.711-268.473-47.23-434.616-60.187-240.851-213.87-547.229-360.618-718.915-26.89-31.46-37.61-50.147-34.842-60.733 2.253-8.617-2.072-22.002-9.913-30.663-12.141-13.417-12.721-19.34-4.565-46.564 5.14-17.156 12.187-31.193 15.66-31.193 8.99 0 162.495 166.545 204.986 222.399 65.947 86.686 117.162 171.06 170.525 280.923 84.23 173.421 127.718 306.804 161.548 495.52 18.246 101.782 20.35 133.532 20.94 316.039.52 160.948-2.291 221.44-13.594 292.63-61.933 390.046-233.48 736.2-504.16 1017.312-108.57 112.755-270.577 241.37-370.076 293.8-21.983 11.583-70.591 37.36-108.016 57.284-66.944 35.637-84.394 41.957-83.844 30.371zM5954.63-7778.41c-18.041-3.648-40.298-10.646-49.461-15.55-33.471-17.913-79.43-66.13-99.773-104.676-19.727-37.38-20.854-45.41-20.854-148.76 0-123.569 4.574-138.307 61.327-197.682 52.06-54.464 82.755-66.788 165.97-66.631 61.652.116 77.11 3.01 114.944 21.52 84.807 41.493 124.123 116.931 124.499 238.89.334 107.59-15.188 153.56-71.143 210.745-47.29 48.323-68.47 57.498-149.787 64.88-23.606 2.143-57.681.912-75.722-2.736zm114.973-95.36c45.648-23.06 66.574-56.343 77.995-124.055 22.679-134.467-42.397-239.258-143.19-230.573-48.488 4.179-74.256 23.468-100.862 75.502-18.41 36.001-21.375 50.924-20.866 104.948.836 88.854 25.636 145.493 76.66 175.086 36.367 21.09 67.22 20.836 110.263-.908zm397.74 93.15c-47.958-13.381-104.637-45.713-107.661-61.412-1.37-7.108 7.789-24.427 20.35-38.486l22.842-25.563 46.916 21.055c87.268 39.164 152.326 32.305 180.804-19.058 18.61-33.567-2.243-54.835-98.908-100.875-133.357-63.515-157.983-88.984-157.983-163.39 0-59.383 25.53-98.56 83.215-127.698 59.189-29.897 165.969-22.736 223.07 14.96 34.508 22.78 36.55 37.948 8.983 66.723l-20.282 21.17-40.197-18.716c-48.631-22.643-94.124-23.99-127.287-3.77-28.7 17.5-38.227 40.198-26.258 62.562 9.497 17.746 30.353 29.878 122.49 71.25 111.67 50.144 136.224 77.196 136.886 150.82.56 62.484-35.331 115.168-95.302 139.892-40.302 16.614-130.137 22.127-171.677 10.536zm3274.243 1.846c-42.23-10.357-76.667-33.15-113.772-75.304-45.196-51.345-57.05-98.51-53.213-211.714 2.692-79.422 5.653-95.762 23.533-129.87 25.229-48.125 70.24-92.51 111.543-109.993 44.925-19.016 130.893-17.832 175.576 2.418 41.682 18.89 85.324 62.905 110.533 111.477 16.561 31.911 18.222 45.083 18.2 144.363 0 103.284-1.16 111.38-20.786 148.266-24.954 46.897-70.614 92.626-107.947 108.106-37.165 15.411-106.628 21.334-143.667 12.25zm116.355-45.412c67.707-31.347 106.075-100.198 111.518-200.116 6.166-113.2-20.016-182.382-88.917-234.934-25.262-19.268-36.096-22.264-80.52-22.264-122.522 0-185.885 88.277-178.646 248.887 3.705 82.193 25.714 140.165 69.274 182.472 42.893 41.66 110.663 52.174 167.29 25.955zm-6785.095-223.206v-271.316l122.903 5.526c150.238 6.755 179.813 13.416 213.39 48.06 22.56 23.274 26.23 32.864 28.953 75.668 2.957 46.424 1.636 50.964-24.993 85.85-15.463 20.259-28.116 39.64-28.116 43.068 0 3.428 15.595 17.226 34.657 30.662 41.08 28.956 56.072 67.02 47.888 121.591-7.209 48.08-32.384 82.534-77.128 105.56-34.75 17.883-47.78 19.569-177.53 22.973l-140.024 3.675zm255.43 180.601c47.81-24.817 61.055-85.995 25.567-118.11-33.842-30.628-148.054-47.955-170.19-25.82-12.936 12.936-12.612 140.222.39 153.679 13.453 13.92 111.384 7.301 144.233-9.749zm-24.93-234.852c46.998-19.637 56.06-91.445 14.94-118.387-25.359-16.616-116.232-24.076-132.167-10.85-14.806 12.287-16.77 116.894-2.465 131.2 12.958 12.96 86.88 11.747 119.693-1.963zm389.873 308.865c-36.684-16.756-94.019-76.503-109.91-114.534-19.692-47.13-28.557-139.444-19.191-199.817 21.325-137.439 98.171-204.734 234.447-205.306 57.357-.241 72.415 2.71 111.328 21.818 52.412 25.736 91.43 71.741 112.424 132.554 20.864 60.432 18.394 174.205-5.112 235.522-22.621 59.008-83.562 123.147-128.9 135.66-50.575 13.96-158.774 10.69-195.086-5.897zm170.956-85.332c14.48-8.455 33.07-31.686 46.72-58.374 19.63-38.386 22.666-52.979 22.648-108.835-.018-54.108-3.318-70.998-20.465-104.788-24.43-48.148-57.42-73.626-101.805-78.63-68.98-7.774-118.072 34.138-142.364 121.544-11.669 41.985-12.423 57.15-5.009 100.44 10.684 62.373 43.259 118.128 80.22 137.308 32.165 16.69 82.913 13.027 120.055-8.665zm301.152-168.166v-270.34l64.38.242c228.846.856 323.304 60.735 342.737 217.27 17.578 141.587-31.693 256.12-128.002 297.55-34.58 14.876-59.445 18.235-160.027 21.615l-119.088 4.002zm204.22 180.94c37.337-11.186 80.5-57.112 91.75-97.621 10.762-38.764 10.61-130.67-.287-169.911-11.923-42.945-49.96-78.248-100.472-93.248-52.471-15.583-66.09-15.616-81.504-.202-10.395 10.395-12.263 38.081-12.263 181.82 0 121.474 2.657 172.213 9.364 178.922 11.9 11.898 54.14 12.006 93.413.24zm412.252-4.699v-92.602l-74.45-158.755c-40.948-87.316-75.186-166.083-76.084-175.039-1.448-14.442 3.123-16.554 40.449-18.68 23.145-1.319 45.547 1.066 49.78 5.3 4.233 4.233 27.625 57.973 51.984 119.423 27.395 69.115 48.869 112.61 56.3 114.041 12.8 2.465 28.885-29.369 80.997-160.283 19.896-49.986 32.68-72.208 41.57-72.268 7.059-.047 25.127-1.93 40.148-4.184 54.895-8.239 53.806-1.812-27.955 165.091l-76.038 155.219-4.578 105.346-4.58 105.347-48.771 2.323-48.772 2.323zm516.877-175.41l2.052-267.269 70.233-2.294c96.544-3.153 195.176 9.992 238.005 31.721 85.203 43.228 96.628 183.611 21.275 261.465-28.712 29.667-74.521 45.256-155.623 52.961-31.262 2.97-61.226 8.892-66.593 13.16-6.73 5.353-9.753 34.076-9.753 92.641v84.882h-101.651zm218.18-14.624c33.408-8.353 58.417-36.408 65.337-73.294 10.496-55.958-33.457-95.865-113.594-103.132-67.15-6.088-70.327-1.75-70.327 96.025 0 68.57 2.037 81.76 13.656 88.42 13.894 7.963 52.946 4.98 104.929-8.019zm1332.856 12.672v-269.219h101.446v538.437h-101.446zm358.959 48.382c0-161.358-2.521-223.36-9.364-230.202-5.788-5.789-34.256-9.364-74.56-9.364h-65.195l2.378-37.066 2.379-37.067h397.974l2.378 37.067 2.379 37.066h-65.195c-40.304 0-68.772 3.575-74.562 9.364-6.84 6.842-9.364 68.844-9.364 230.202v220.837H7208.67zm368.61-46.43l2.055-267.269 48.772-2.323 48.772-2.323v539.182h-101.651zm337.93 258.508c-14.415-40.269-145.497-475.316-149.26-495.379-3.914-20.862-1.94-25.856 11.975-30.272 29.018-9.21 78.708 3.493 86.476 22.107 3.853 9.232 24.959 85.26 46.902 168.952 58.462 222.983 61.985 234.103 74.146 234.103 12.258 0 14.914-8.555 77.393-249.16 23.884-91.973 44.322-168.12 45.416-169.216 6.533-6.532 81.5-10.246 90.063-4.461 8.182 5.527-5.921 59.934-68.138 262.881-43.15 140.752-80.27 257.727-82.49 259.946-2.216 2.22-32.07 5.658-66.335 7.641-48.316 2.797-63.164 1.194-66.148-7.142zm378.14-260.618v-269.377l161.92 2.11 161.923 2.108 2.379 37.067 2.378 37.066h-98.485c-54.164 0-105.274 3.635-113.578 8.078-12.978 6.946-15.092 16.767-15.092 70.082 0 73.1-6.266 69.109 113.148 72.071l78.035 1.936 2.38 37.067 2.378 37.066h-85.628c-47.095 0-91.181 2.132-97.971 4.737-18.153 6.966-18.153 139.629 0 146.595 6.79 2.606 59.464 4.737 117.053 4.737h104.708v78.034H8293.35zm706.519 262.072c-4.051-6.555-99.963-443.584-111-505.771-4.256-23.996-3.235-25.362 19.006-25.362h23.507l43.61 223.724c23.983 123.048 47.226 227.342 51.647 231.763 5.515 5.516 10.623 5.452 16.28-.203 4.532-4.533 29.028-92.146 54.433-194.696 69.015-278.576 59.897-252.784 89.347-252.784h25.27l52.3 207.557c28.766 114.156 55.507 215.99 59.427 226.3 9.608 25.272 28.726 23.735 33.793-2.717 85.683-447.302 83.715-438.944 103.393-438.944 13.36 0 18.59 4.372 18.59 15.538 0 28.33-102.568 503.147-110.841 513.116-10.485 12.634-48.942 12.654-58.522.032-4.071-5.365-28.91-94.233-55.2-197.485-54.254-213.086-60.471-232.239-73.966-227.908-5.498 1.765-32.793 94.196-62.948 213.17-29.284 115.53-57.377 212.684-62.428 215.896-13.033 8.29-50.325 7.47-55.698-1.224zm1166.309-263.034v-270.34l119.002 4.142c187.308 6.517 220.411 28.14 220.435 143.98 0 62.47-.618 64.602-27.299 92.375-15.023 15.636-40.481 35.216-56.577 43.511-16.093 8.295-29.263 20.085-29.263 26.2 0 6.115 26.336 55.977 58.526 110.804 32.189 54.828 58.528 104.182 58.528 109.677 0 12.775-24.405 12.916-40.994.236-7.018-5.364-37.683-53.648-68.146-107.297-30.463-53.649-62.652-103.688-71.531-111.199-21.852-18.483-104.162-19.455-111.124-1.313-2.606 6.79-4.737 61.218-4.737 120.954v108.61h-46.82v-270.34zm188.848-11.495c81.98-17.276 112.64-53.987 105.67-126.53-3.02-31.424-8.601-43.709-27.554-60.642-29.284-26.167-89.866-39.81-162.715-36.643l-53.528 2.327-2.188 104.953c-1.204 57.724-.437 109.52 1.707 115.1 4.911 12.802 80.933 13.589 138.608 1.435zm287.161 12.615v-269.219h46.821v124.218c0 127.987 2.668 148.903 18.994 148.903 5.235 0 60.166-61.3 122.07-136.224 95.161-115.182 115.862-136.277 134.006-136.56 11.804-.185 21.46 2.746 21.46 6.512 0 3.767-33.359 47.638-74.132 97.49s-74.132 96.083-74.132 102.735c0 6.652 40.381 80.043 89.739 163.092 49.356 83.048 89.739 154.884 89.739 159.635 0 11.636-25.109 10.958-41.351-1.117-7.216-5.365-46.022-65.798-86.232-134.296-40.211-68.499-79.127-128.195-86.485-132.66-10.987-6.667-19.636-1.151-48.456 30.902-62.429 69.436-65.159 76.38-65.191 165.823v79.985h-46.82v-269.219zm506.998 247.76c-47.558-24.877-62.917-43.376-48.216-58.076 7.778-7.777 19.512-4.289 58.351 17.343 43.68 24.327 54.701 27.077 108.521 27.077 48.212 0 64.204-3.145 81.937-16.11 31.598-23.106 52.117-68.097 45.98-100.81-6.789-36.194-38.279-60.666-141.976-110.336-95.326-45.66-131.324-77.643-140.112-124.485-18.218-97.114 86.393-175.896 201.76-151.946 66.915 13.892 114.584 50.627 93.309 71.904-5.55 5.549-19.009 1.65-43.158-12.503-87.567-51.317-193.259-25.053-205.409 51.044-7.603 47.62 19.209 74.544 128.156 128.683 136.725 67.944 164.978 100.87 153.313 178.663-7.183 47.904-31.617 82.296-73.5 103.454-28.516 14.406-47.604 17.557-106.342 17.557-62.95 0-76.54-2.59-112.614-21.46z" fill="#877597"/><path id="path1975" d="M7949.999-6503.087c0-58.913 15.458-87.045 68.18-124.083 62.202-43.697 242.308-220.38 310.23-304.335 189.693-234.47 313.04-505.164 371.579-815.46 16.36-86.723 18.402-120.049 18.402-300.433 0-215.912-5.712-268.473-47.23-434.616-42.014-168.13-140.33-395.58-237.934-550.464l-40.505-64.274 10.943-68.385 10.94-68.385 37.364 46.821c182.268 228.4 307.177 509.8 361.972 815.46 18.246 101.783 20.35 133.533 20.94 316.04.52 160.948-2.291 221.44-13.594 292.63-72.08 453.958-299.94 860.153-643.8 1147.673-73.658 61.59-206.613 155.502-220.152 155.502-4.035 0-7.335-19.66-7.335-43.69zM3728.284-7784.965c-63.736-21.032-122.464-77.958-144.393-139.961-7.125-20.148-14.86-66.675-17.188-103.393-10.654-168.045 68.541-270.083 216.255-278.633 104.917-6.074 182.522 38.774 225.437 130.278 18.124 38.645 20.361 52.912 20.266 129.276-.098 77.498-2.243 90.483-22.092 133.643-25.4 55.232-65.935 98.054-110.323 116.549-34.946 14.561-138.141 22.082-167.962 12.241zm140.443-88.806c43.427-29.727 65.997-84.083 68.851-165.823 2.244-64.226.577-73.9-19.509-113.142-29.264-57.182-61.207-78.043-119.504-78.043-85.986 0-133.133 57.158-138.976 168.492-4.184 79.743 11.552 132.086 52.726 175.368 28.158 29.6 31.039 30.706 79.986 30.706 39.856 0 56.294-3.777 76.426-17.558zm2065.077 84.652c-102.171-38.165-159.685-145.39-151.2-281.882 5.2-83.62 27.26-133.654 80.308-182.136 50.554-46.204 91.152-59.119 169.949-54.062 129.855 8.334 205.004 91.407 214.064 236.639 8.216 131.684-42.63 235.018-134.5 273.34-43.14 17.995-140.332 22.403-178.621 8.1zm138.028-75.851c57.516-29.549 83.425-87.341 83.297-185.795-.09-69.587-21.694-125.097-61.833-158.873-21.746-18.297-32.03-21.14-76.463-21.14-43.048 0-55.565 3.223-77.508 19.96-46.115 35.173-60.64 74.144-60.908 163.42-.216 72.33 1.479 81.125 23.174 120.302 12.873 23.247 33.943 48.692 46.82 56.546 26.716 16.291 96.437 19.444 123.42 5.58zm395.512 79.479c-39.604-12.123-101.445-47.914-101.445-58.713 0-6.126 8.313-20.802 18.472-32.614l18.472-21.474 46.882 21.04c94.92 42.597 189.296 19.954 189.296-45.418 0-33.558-16.394-46.39-128.883-100.88-49.837-24.143-94.991-51.632-104.344-63.523-57.562-73.177-29.06-166.41 62.979-206.004 57.39-24.69 144.35-20.019 196.52 10.554 39.829 23.342 44.392 38.069 19.879 64.162l-16.277 17.326-36.398-16.289c-49.387-22.103-110.18-22.53-139.198-.978-24.947 18.529-33.491 58.782-16.753 78.947 5.646 6.804 56.944 34.814 113.995 62.245 110.1 52.938 128.547 69.642 139.206 126.057 12.796 67.723-46.294 148.254-120.375 164.054-46.236 9.862-112.437 10.565-142.028 1.508zm3259.875-3.313c-60.161-22.513-111.865-75.188-135.63-138.176-19.296-51.139-19.07-185.052.405-241.294 21.667-62.573 87.57-126.764 144.062-140.316 85.694-20.557 161.899 2.6 217.893 66.213 37.91 43.07 55.658 90.393 61.416 163.766 9.97 127.072-37.727 233.274-124.95 278.218-39.215 20.206-124.068 26.232-163.196 11.589zm140.865-31.628c59.974-31.42 100.45-103.9 107.816-193.059 8.007-96.926-13.477-175.659-61.271-224.543-36.21-37.036-65.534-49.298-119.096-49.802-91.646-.863-156.05 58.805-175.661 162.746-23.153 122.7 12.815 247.614 84.363 292.988 30.565 19.385 43.638 22.71 89.292 22.71 30.975 0 62.35-4.646 74.557-11.04zm1319.427 31.996c-42.598-16-84.919-44.263-84.919-56.708 0-15.863 8.4-14.033 59.683 13.004 42.709 22.514 50.12 23.903 114.547 21.459 68.299-2.59 69.114-2.861 95.593-31.761 22.867-24.957 26.708-34.69 26.708-67.682 0-55.259-22.436-78.183-123.733-126.427-126.71-60.35-157.191-89.69-157.191-151.309 0-78.92 80.093-136.259 176.531-126.38 43.98 4.504 102.613 30.728 109.638 49.035 7.739 20.167-2.059 20.075-40.532-.38-30.125-16.019-48.214-19.818-94.361-19.818-52.731 0-59.2 1.85-84.676 24.22-24.411 21.432-27.584 28.545-27.584 61.828 0 54.897 21.724 76.052 134.988 131.445 116.497 56.974 139.539 78.67 143.84 135.44 4.27 56.348-20.409 104.474-66.501 129.69-41.867 22.905-138.89 30.55-182.031 14.344zm-8106.863-259.423v-263.14l126.806 3.951c140.254 4.371 168.996 11.684 202.522 51.527 39.57 47.028 32.076 125.621-16.058 168.365-24.15 21.447-20.979 32.19 17.27 58.506 42.186 29.024 54.85 57.869 50.173 114.274-4.284 51.66-21.669 78.01-69.267 104.984-32.533 18.437-42.03 19.65-172.935 22.091l-138.511 2.583zm239.834 190.375c35.616-10.813 56.697-40.69 56.697-80.357 0-56.306-39.177-80.365-136.742-83.97-45.573-1.684-60.552.469-66.295 9.53-8.688 13.709-10.083 140.371-1.685 152.947 3.154 4.721 11.002 10.512 17.44 12.867 15.495 5.67 98.755-1.355 130.585-11.017zm2.074-247.985c16.086-11.336 19.91-21.215 21.802-56.303 3.316-61.473-10.68-72.1-99.543-75.594-79.087-3.11-78.032-4.217-78.223 82.114-.148 67.264 8.925 74.955 80.817 68.516 33.488-3 63.405-10.458 75.147-18.733zm850.574 57.868v-263.02l103.397 3.708c132.457 4.75 174.603 18.026 228.459 71.965 46.143 46.215 57.687 76.733 63.72 168.473 7.747 117.771-33.536 208.937-114.652 253.18-41.517 22.647-46.803 23.498-161.92 26.063l-119.004 2.65zm229.782 172.973c43.677-23.688 66.952-72.261 72.348-150.99 9.644-140.688-53.866-219.99-169.47-211.608l-35.116 2.546-5.08 42.919c-2.796 23.605-5.428 104.998-5.854 180.872-.922 164.957-.336 166.31 68.504 158.157 24.13-2.858 57.732-12.712 74.668-21.896zm384.758-6.946l-3.817-95.592-75.16-158.617c-41.338-87.24-75.159-162.035-75.159-166.213 0-4.304 19.067-6.582 43.998-5.256l43.997 2.34 46.461 119.003c63.208 161.903 64.746 161.636 138.513-24.023 26.205-65.95 37.727-86.079 52.487-91.69 22.861-8.693 62.402-9.446 67.445-1.286 2.006 3.248-29.33 74.357-69.64 158.02l-73.292 152.115-.13 67.19c-.068 36.956-2.362 83.484-5.092 103.396l-4.96 36.205h-81.834zm516.96-165.824v-261.415l87.789.047c192.897.099 261.919 31.756 279.622 128.248 8.947 48.777-6.298 108.289-36.902 144.043-31.565 36.876-76.022 53.625-166.568 62.753-34.764 3.505-65.632 8.798-68.598 11.764-2.967 2.966-6.706 43.774-8.311 90.685l-2.92 85.291h-84.112zm237.504-12.896c28.3-12.895 43.42-44.479 43.42-90.702 0-39.352-12.505-58.402-51.5-78.454-19.361-9.957-124.809-14.903-133.452-6.26-8.513 8.513-12.87 115.543-6.449 158.37l5.406 36.058 60.698-4.68c33.383-2.575 70.228-9.024 81.877-14.332zm1315.383 12.896v-261.415h85.837v522.831h-85.837zm357.35 39.656c-1.261-121.968-5.218-224.68-8.791-228.25-3.574-3.57-36.082-7.73-72.235-9.246-61.804-2.588-66.017-3.872-70.426-21.441-10.638-42.382-11.814-42.134 199.88-42.134 211.697 0 210.52-.247 199.883 42.134-4.41 17.57-8.624 18.853-70.427 21.441-36.156 1.515-68.661 5.675-72.235 9.245-3.574 3.57-7.531 106.283-8.792 228.251l-2.293 221.76h-92.27zm368.37-39.656v-261.415h83.467l5.088 83.15c6.509 106.386 6.517 276.68.02 368.251l-5.068 71.43h-83.501zm321.987 208.743c-8.788-28.97-42.691-140.727-75.341-248.347-32.65-107.62-59.362-201.555-59.362-208.742 0-19.323 74.444-18.806 84.72.587 3.982 7.511 29.056 96.046 55.722 196.743 56.64 213.884 58.304 218.79 74.126 218.79 16.956 0 21.093-12.277 74.943-222.398 26.4-103.005 51.497-191.672 55.775-197.037 8.83-11.072 72.938-13.378 79.439-2.857 4.992 8.074-141.53 491.768-153.333 506.18-5.048 6.166-28.722 9.754-64.348 9.754h-56.362l-15.98-52.673zm395.93-208.743v-261.415h312.139v30.238c0 27.625-2.11 30.66-24.388 35.116-13.411 2.682-62.196 4.877-108.413 4.877-97.623 0-93.5-3.65-93.5 82.767 0 55.166 1.005 58.463 20.018 65.692 11.009 4.185 54.902 7.61 97.54 7.61h77.529v62.428h-77.528c-42.64 0-86.532 3.424-97.541 7.61-19.452 7.395-20.018 9.605-20.018 78.228 0 68.622.566 70.832 20.018 78.227 11.009 4.186 63.68 7.61 117.05 7.61h97.035v62.428h-319.941zm699.297 247.76c-6.97-23.4-106.235-491.81-106.235-501.286 0-4.936 7.773-7.852 17.27-6.48 16.16 2.332 19.917 16.3 58.39 217.088 41.28 215.43 50.114 249.71 64.36 249.71 13.71 0 21.237-24.085 74.384-238.005 28.79-115.881 57.355-215.901 63.48-222.266 25.317-26.311 35.85-.748 92.515 224.575 30.384 120.814 59.553 223.972 64.82 229.24 7.568 7.567 11.624 7.543 19.332-.118 5.365-5.332 29.179-110.503 52.92-233.713 41.107-213.322 44.03-224.142 61.206-226.607 14.355-2.06 17.173.33 13.8 11.705-2.33 7.862-25.937 117.885-52.458 244.496-26.523 126.61-51.278 238.325-55.013 248.254-5.497 14.617-11.617 17.587-32.155 15.607l-25.367-2.446-52.884-206.247c-29.09-113.436-56.734-210.882-61.432-216.546-15.136-18.236-29.252-11.036-37.18 18.965-4.251 16.094-27.73 110.029-52.174 208.742-24.443 98.714-47.866 183.869-52.048 189.234-11.66 14.95-50.737 12.204-55.531-3.902zm1173.53-248.46v-262.116l119.002 2.652c101.575 2.262 123.47 4.994 149.502 18.652 45.299 23.766 60.703 57.49 57.605 126.12-2.326 51.566-4.71 58.522-28.443 83.008-14.246 14.698-39.643 32.92-56.437 40.494-18.916 8.53-30.535 19.055-30.535 27.656 0 7.638 26.336 58.378 58.525 112.756 32.19 54.378 58.525 102.268 58.525 106.424 0 4.155-7.597 6.433-16.884 5.062-12.583-1.858-33.477-31.324-81.998-115.644l-65.11-113.15-56.514-4.85c-31.127-2.67-60.022-1.629-64.319 2.32-4.292 3.942-8.941 57.92-10.33 119.95-2.358 105.265-3.528 112.782-17.558 112.782-14.54 0-15.031-8.549-15.031-262.116zm205.075-12.33c44.935-9.815 79.738-41.689 86.837-79.529 7.748-41.306-2.79-88.3-24.721-110.231-24.103-24.102-55.291-32.31-148.159-38.993l-72.154-5.192-7.832 20.6c-10.109 26.592-10.182 184.063-.09 210.592 7.653 20.129 8.388 20.297 68.281 15.625 33.298-2.598 77.328-8.39 97.843-12.871zm268.015 144.157c-2.936-71.658-2.944-189.295 0-261.415 4.733-116.562 6.809-131.127 18.699-131.127 11.848 0 14.162 15.364 20.266 134.535 5.871 114.627 8.77 134.892 19.593 136.948 8.354 1.588 51.83-44.427 127.106-134.534 81.003-96.983 119.134-136.949 130.651-136.949 18.978 0 24.559-8.678-66.14 102.861-37.275 45.844-67.775 89.204-67.775 96.355 0 7.151 38.566 77.18 85.705 155.621 101.957 169.662 102.239 170.266 77.566 166.73-14.513-2.08-32.917-27.398-87.003-119.69-79.654-135.919-96.292-159.97-110.663-159.97-16.049 0-98.267 97.655-106.556 126.56-4.024 14.027-7.314 54.498-7.314 89.934 0 57.423-1.567 64.43-14.397 64.43-13.206 0-14.84-10.782-19.738-130.289z" fill="#6286a0"/><path id="path1973" d="M3728.284-7784.965c-63.736-21.032-122.464-77.958-144.393-139.961-7.125-20.148-14.86-66.675-17.188-103.393-10.654-168.045 68.541-270.083 216.255-278.633 104.917-6.074 182.522 38.774 225.437 130.278 18.124 38.645 20.361 52.912 20.266 129.276-.098 77.498-2.243 90.483-22.093 133.643-25.4 55.232-65.934 98.054-110.322 116.549-34.946 14.561-138.142 22.082-167.963 12.241zm140.443-88.806c43.427-29.727 65.996-84.083 68.851-165.823 2.244-64.226.576-73.9-19.509-113.142-29.265-57.182-61.207-78.043-119.504-78.043-85.986 0-133.133 57.158-138.976 168.492-4.184 79.743 11.552 132.086 52.726 175.368 28.158 29.6 31.039 30.706 79.986 30.706 39.856 0 56.294-3.777 76.426-17.558zm2065.077 84.652c-102.171-38.165-159.685-145.39-151.2-281.882 5.2-83.62 27.26-133.654 80.308-182.136 50.554-46.204 91.152-59.119 169.949-54.062 129.855 8.334 205.004 91.407 214.064 236.639 8.216 131.684-42.63 235.018-134.5 273.34-43.14 17.995-140.332 22.403-178.621 8.1zm138.028-75.851c57.516-29.549 83.425-87.341 83.297-185.795-.09-69.587-21.694-125.097-61.833-158.873-21.746-18.297-32.03-21.14-76.463-21.14-43.048 0-55.565 3.223-77.508 19.96-46.115 35.173-60.64 74.144-60.908 163.42-.216 72.33 1.479 81.125 23.174 120.302 12.873 23.247 33.943 48.692 46.82 56.546 26.716 16.291 96.437 19.444 123.42 5.58zm395.512 79.479c-39.604-12.123-101.445-47.914-101.445-58.713 0-6.126 8.313-20.802 18.472-32.614l18.472-21.474 46.882 21.04c94.92 42.597 189.296 19.954 189.296-45.418 0-33.558-16.394-46.39-128.883-100.88-49.837-24.143-94.991-51.632-104.344-63.523-57.562-73.177-29.06-166.41 62.979-206.004 57.39-24.69 144.35-20.019 196.52 10.554 39.829 23.342 44.392 38.069 19.879 64.162l-16.277 17.326-36.398-16.289c-49.387-22.103-110.18-22.53-139.198-.978-24.947 18.529-33.491 58.782-16.753 78.947 5.646 6.804 56.944 34.814 113.995 62.245 110.1 52.938 128.547 69.642 139.206 126.057 12.796 67.723-46.294 148.254-120.375 164.054-46.236 9.862-112.437 10.565-142.028 1.508zm3259.875-3.313c-60.161-22.513-111.865-75.188-135.63-138.176-19.296-51.139-19.07-185.052.405-241.294 21.667-62.573 87.57-126.764 144.062-140.316 85.694-20.557 161.899 2.6 217.893 66.213 37.91 43.07 55.658 90.393 61.416 163.766 9.97 127.072-37.727 233.274-124.95 278.218-39.215 20.206-124.068 26.232-163.196 11.589zm140.865-31.628c59.974-31.42 100.45-103.9 107.816-193.059 8.007-96.926-13.477-175.659-61.271-224.543-36.21-37.036-65.534-49.298-119.096-49.802-91.646-.863-156.05 58.805-175.661 162.746-23.153 122.7 12.815 247.614 84.363 292.988 30.565 19.385 43.638 22.71 89.292 22.71 30.975 0 62.35-4.646 74.557-11.04zm1319.427 31.996c-42.598-16-84.919-44.263-84.919-56.708 0-15.863 8.4-14.033 59.683 13.004 42.709 22.514 50.12 23.903 114.547 21.459 68.299-2.59 69.114-2.861 95.593-31.761 22.867-24.957 26.708-34.69 26.708-67.682 0-55.259-22.436-78.183-123.733-126.427-126.71-60.35-157.191-89.69-157.191-151.309 0-78.92 80.093-136.259 176.531-126.38 43.98 4.504 102.613 30.728 109.638 49.035 7.739 20.167-2.059 20.075-40.532-.38-30.125-16.019-48.214-19.818-94.361-19.818-52.731 0-59.2 1.85-84.676 24.22-24.411 21.432-27.584 28.545-27.584 61.828 0 54.897 21.724 76.052 134.988 131.445 116.497 56.974 139.539 78.67 143.84 135.44 4.27 56.348-20.409 104.474-66.501 129.69-41.867 22.905-138.89 30.55-182.031 14.344zm-8106.863-259.423v-263.14l126.806 3.951c140.254 4.371 168.996 11.684 202.522 51.527 39.57 47.028 32.076 125.621-16.058 168.365-24.15 21.447-20.979 32.19 17.27 58.506 42.186 29.024 54.85 57.869 50.173 114.274-4.284 51.66-21.669 78.01-69.267 104.984-32.533 18.437-42.03 19.65-172.935 22.091l-138.511 2.583zm239.834 190.375c35.616-10.813 56.697-40.69 56.697-80.357 0-56.306-39.177-80.365-136.742-83.97-45.573-1.684-60.552.469-66.295 9.53-8.688 13.709-10.083 140.371-1.685 152.947 3.154 4.721 11.002 10.512 17.44 12.867 15.495 5.67 98.755-1.355 130.585-11.017zm2.074-247.985c16.086-11.336 19.91-21.215 21.802-56.303 3.316-61.473-10.68-72.1-99.543-75.594-79.087-3.11-78.032-4.217-78.223 82.114-.148 67.264 8.925 74.955 80.817 68.516 33.488-3 63.405-10.458 75.147-18.733zm850.574 57.868v-263.02l103.397 3.708c132.457 4.75 174.603 18.026 228.459 71.965 46.143 46.215 57.687 76.733 63.72 168.473 7.747 117.771-33.536 208.937-114.652 253.18-41.517 22.647-46.803 23.498-161.92 26.063l-119.004 2.65zm229.782 172.973c43.677-23.688 66.952-72.261 72.348-150.99 9.644-140.688-53.866-219.99-169.47-211.608l-35.116 2.546-5.08 42.919c-2.796 23.605-5.428 104.998-5.854 180.872-.922 164.957-.336 166.31 68.504 158.157 24.13-2.858 57.732-12.712 74.668-21.896zm384.758-6.946l-3.817-95.592-75.16-158.617c-41.338-87.24-75.159-162.035-75.159-166.213 0-4.304 19.067-6.582 43.998-5.256l43.997 2.34 46.461 119.003c63.208 161.903 64.746 161.636 138.513-24.023 26.205-65.95 37.727-86.079 52.487-91.69 22.861-8.693 62.402-9.446 67.445-1.286 2.006 3.248-29.33 74.357-69.64 158.02l-73.292 152.115-.13 67.19c-.068 36.956-2.362 83.484-5.092 103.396l-4.96 36.205h-81.834zm516.96-165.824v-261.415l87.789.047c192.897.099 261.919 31.756 279.622 128.248 8.947 48.777-6.298 108.289-36.902 144.043-31.565 36.876-76.022 53.625-166.568 62.753-34.764 3.505-65.632 8.798-68.598 11.764-2.967 2.966-6.706 43.774-8.311 90.685l-2.92 85.291h-84.112zm237.504-12.896c28.3-12.895 43.42-44.479 43.42-90.702 0-39.352-12.505-58.402-51.5-78.454-19.361-9.957-124.809-14.903-133.452-6.26-8.513 8.513-12.87 115.543-6.449 158.37l5.406 36.058 60.698-4.68c33.383-2.575 70.228-9.024 81.877-14.332zm1315.383 12.896v-261.415h85.837v522.831h-85.837zm357.35 39.656c-1.261-121.968-5.218-224.68-8.791-228.25-3.574-3.57-36.082-7.73-72.235-9.246-61.804-2.588-66.017-3.872-70.426-21.441-10.638-42.382-11.814-42.134 199.88-42.134 211.697 0 210.52-.247 199.883 42.134-4.41 17.57-8.624 18.853-70.427 21.441-36.156 1.515-68.661 5.675-72.235 9.245-3.574 3.57-7.531 106.283-8.792 228.251l-2.293 221.76h-92.27zm368.37-39.656v-261.415h83.467l5.088 83.15c6.509 106.386 6.517 276.68.02 368.251l-5.068 71.43h-83.501zm321.987 208.743c-8.788-28.97-42.691-140.727-75.341-248.347-32.65-107.62-59.362-201.555-59.362-208.742 0-19.323 74.444-18.806 84.72.587 3.982 7.511 29.056 96.046 55.722 196.743 56.64 213.884 58.304 218.79 74.126 218.79 16.956 0 21.093-12.277 74.943-222.398 26.4-103.005 51.497-191.672 55.775-197.037 8.83-11.072 72.938-13.378 79.439-2.857 4.992 8.074-141.53 491.768-153.333 506.18-5.048 6.166-28.722 9.754-64.348 9.754h-56.362l-15.98-52.673zm395.93-208.743v-261.415h312.139v30.238c0 27.625-2.11 30.66-24.388 35.116-13.411 2.682-62.196 4.877-108.413 4.877-97.623 0-93.5-3.65-93.5 82.767 0 55.166 1.005 58.463 20.018 65.692 11.009 4.185 54.902 7.61 97.54 7.61h77.529v62.428h-77.528c-42.64 0-86.532 3.424-97.541 7.61-19.452 7.395-20.018 9.605-20.018 78.228 0 68.622.566 70.832 20.018 78.227 11.009 4.186 63.68 7.61 117.05 7.61h97.035v62.428h-319.941zm699.297 247.76c-6.97-23.4-106.235-491.81-106.235-501.286 0-4.936 7.773-7.852 17.27-6.48 16.16 2.332 19.917 16.3 58.39 217.088 41.28 215.43 50.114 249.71 64.36 249.71 13.71 0 21.237-24.085 74.384-238.005 28.79-115.881 57.355-215.901 63.48-222.266 25.317-26.311 35.85-.748 92.515 224.575 30.384 120.814 59.553 223.972 64.82 229.24 7.568 7.567 11.624 7.543 19.332-.118 5.365-5.332 29.179-110.503 52.92-233.713 41.107-213.322 44.03-224.142 61.206-226.607 14.355-2.06 17.173.33 13.8 11.705-2.33 7.862-25.937 117.885-52.458 244.496-26.523 126.61-51.278 238.325-55.013 248.254-5.497 14.617-11.617 17.587-32.155 15.607l-25.367-2.446-52.884-206.247c-29.09-113.436-56.734-210.882-61.432-216.546-15.136-18.236-29.252-11.036-37.18 18.965-4.251 16.094-27.73 110.029-52.174 208.742-24.443 98.714-47.866 183.869-52.048 189.234-11.66 14.95-50.737 12.204-55.531-3.902zm1173.53-248.46v-262.116l119.002 2.652c101.575 2.262 123.47 4.994 149.502 18.652 45.299 23.766 60.703 57.49 57.605 126.12-2.326 51.566-4.71 58.522-28.443 83.008-14.246 14.698-39.643 32.92-56.437 40.494-18.916 8.53-30.535 19.055-30.535 27.656 0 7.638 26.336 58.378 58.525 112.756 32.19 54.378 58.525 102.268 58.525 106.424 0 4.155-7.597 6.433-16.884 5.062-12.583-1.858-33.477-31.324-81.998-115.644l-65.11-113.15-56.514-4.85c-31.127-2.67-60.022-1.629-64.319 2.32-4.292 3.942-8.941 57.92-10.33 119.95-2.358 105.265-3.528 112.782-17.558 112.782-14.54 0-15.031-8.549-15.031-262.116zm205.075-12.33c44.935-9.815 79.738-41.689 86.837-79.529 7.748-41.306-2.79-88.3-24.721-110.231-24.103-24.102-55.291-32.31-148.159-38.993l-72.154-5.192-7.832 20.6c-10.109 26.592-10.182 184.063-.09 210.592 7.653 20.129 8.388 20.297 68.281 15.625 33.298-2.598 77.328-8.39 97.843-12.871zm268.015 144.157c-2.936-71.658-2.944-189.295 0-261.415 4.733-116.562 6.809-131.127 18.699-131.127 11.848 0 14.162 15.364 20.266 134.535 5.871 114.627 8.77 134.892 19.593 136.948 8.354 1.588 51.83-44.427 127.106-134.534 81.003-96.983 119.134-136.949 130.651-136.949 18.978 0 24.559-8.678-66.14 102.861-37.275 45.844-67.775 89.204-67.775 96.355 0 7.151 38.566 77.18 85.705 155.621 101.957 169.662 102.239 170.266 77.566 166.73-14.513-2.08-32.917-27.398-87.003-119.69-79.654-135.919-96.292-159.97-110.663-159.97-16.049 0-98.267 97.655-106.556 126.56-4.024 14.027-7.314 54.498-7.314 89.934 0 57.423-1.567 64.43-14.397 64.43-13.206 0-14.84-10.782-19.738-130.289z" fill="#675a8d"/></g></g></svg>