<?xml version="1.0" encoding="UTF-8" standalone="no"?>
<svg
   xmlns:dc="http://purl.org/dc/elements/1.1/"
   xmlns:cc="http://creativecommons.org/ns#"
   xmlns:rdf="http://www.w3.org/1999/02/22-rdf-syntax-ns#"
   xmlns:svg="http://www.w3.org/2000/svg"
   xmlns="http://www.w3.org/2000/svg"
   viewBox="0 0 1306.0876 588.00531"
   height="588.00531"
   width="1306.0876"
   xml:space="preserve"
   id="svg38"
   version="1.1"><metadata
     id="metadata44"><rdf:RDF><cc:Work
         rdf:about=""><dc:format>image/svg+xml</dc:format><dc:type
           rdf:resource="http://purl.org/dc/dcmitype/StillImage" /><dc:title></dc:title></cc:Work></rdf:RDF></metadata><defs
     id="defs42"><clipPath
   id="clipPath54"
   clipPathUnits="userSpaceOnUse"><path
     id="path52"
     d="M 0,1017.008 H 1017.008 V 0 H 0 Z" /></clipPath><clipPath
   id="clipPath82"
   clipPathUnits="userSpaceOnUse"><path
     id="path80"
     d="M 0,1017.008 H 1017.008 V 0 H 0 Z" /></clipPath>

</defs><g
     transform="matrix(1.3333333,0,0,-1.3333333,-24.962838,972.00932)"
     id="g46"><g
       id="g2557"><g
         transform="matrix(1.2128918,0,0,1.2128918,-1.9199574,41.371997)"
         id="g2566"><path
           style="fill:#fadc55;stroke-width:0.75"
           d="m 371.0569,204.06909 c -18.433,1.92484 -40.8415,8.57774 -58.8355,17.46785 -35.9735,17.77302 -64.8228,46.45383 -82.1452,81.66545 -7.8959,16.05028 -12.3527,29.03185 -16.395,47.75566 -1.9684,9.1174 -2.024,10.05506 -2.024,34.125 0,24.0842 0.054,25.0022 2.0274,34.125 4.2941,19.8563 9.7335,35.40771 17.5758,50.25 27.8498,52.70859 78.0483,87.99832 137.1335,96.40542 8.9129,1.2681 37.2406,1.4631 45.8833,0.3157 45.8457,-6.0863 85.4575,-27.25122 115.9396,-61.94755 38.1952,-43.47591 52.8554,-101.55919 40.2787,-159.58409 -10.9858,-50.68554 -47.5489,-97.708 -94.4766,-121.50307 -20.734,-10.51335 -41.8558,-16.93317 -63.0586,-19.1662 -8.446,-0.88952 -33.0254,-0.83624 -41.9034,0.0908 z m 41.212,13.4638 c 22.315,2.10844 48.3563,10.86831 66.913,22.50841 29.3849,18.43241 50.298,41.42041 65.0845,71.54175 11.6107,23.65194 16.6985,46.04649 16.6985,73.5 0,27.20765 -4.8254,48.77606 -16.2763,72.75 -24.5417,51.38143 -72.1347,86.35623 -128.6697,94.55572 -11.0643,1.6048 -40.8876,1.146 -51.3347,-0.7896 -45.0514,-8.34704 -81.5552,-30.7363 -107.6336,-66.01612 -30.507,-41.27086 -40.6775,-92.698 -28.1285,-142.23191 16.9441,-66.88293 74.4606,-117.41711 143.2218,-125.83519 3.7125,-0.4545 7.9313,-0.95499 9.375,-1.11219 3.7071,-0.40366 21.4058,0.24624 30.75,1.12913 z m -179.85,141.07516 c -0.6639,0.66388 -0.9,7.43637 -0.9,25.81366 0,13.70251 0.2049,25.44751 0.4553,26.1 0.3847,1.00273 2.0621,1.18634 10.838,1.18634 11.6774,0 16.9176,-0.83663 21.4128,-3.41872 3.8422,-2.20696 5.3795,-4.51259 6.4013,-9.6002 1.1779,-5.86534 -0.2142,-11.76485 -3.682,-15.60325 -4.0049,-4.43299 -7.728,-5.85537 -18.3629,-7.01538 l -4.3125,-0.47038 v -8.04604 c 0,-5.25802 -0.3118,-8.35789 -0.9,-8.94603 -0.5033,-0.50328 -2.9166,-0.9 -5.475,-0.9 -2.5583,0 -4.9717,0.39672 -5.475,0.9 z m 19.4352,28.34744 c 4.9291,0.91197 7.4148,3.33195 7.4148,7.21869 0,1.44786 -0.3646,3.31387 -0.8103,4.14667 -1.1573,2.16233 -5.2287,3.6372 -10.0406,3.6372 h -4.1491 v -7.875 c 0,-8.99991 -0.417,-8.60808 7.5852,-7.12756 z m 40.6471,-27.78768 c -4.6008,2.08877 -9.6563,7.10438 -12.0282,11.9331 -1.95,3.9699 -2.0782,4.83629 -2.0703,13.98214 0.01,8.7056 0.1968,10.13079 1.7664,13.30486 0.9668,1.95517 3.7069,5.35939 6.0892,7.56493 5.3505,4.95363 8.8449,6.07639 17.4378,5.60283 10.1596,-0.5599 15.7347,-4.27965 20.0052,-13.34762 1.7666,-3.75114 1.9426,-4.97468 1.9426,-13.5 0,-8.71915 -0.1449,-9.67011 -2.0716,-13.5934 -2.8043,-5.71025 -8.2713,-10.71774 -13.3469,-12.22505 -5.5371,-1.64432 -13.7744,-1.51503 -17.7242,0.27821 z m 14.7637,10.3539 c 1.6108,0.80591 3.3436,2.61218 4.4957,4.68634 1.6301,2.93444 1.8753,4.30507 1.8791,10.5 0,5.99487 -0.2682,7.63526 -1.7135,10.34192 -2.1466,4.02 -5.5255,6.1516 -9.757,6.15528 -4.4709,0.004 -7.2392,-1.65363 -9.6595,-5.78359 -1.8431,-3.14498 -2.0679,-4.26418 -2.071,-10.30832 0,-5.52333 0.2995,-7.35371 1.6305,-9.87345 3.5083,-6.64146 9.1255,-8.75523 15.1957,-5.71818 z m 33.3579,-9.30651 c -8.095,3.88139 -8.67,5.4537 -3.7418,10.23035 l 2.601,2.52098 3.8537,-2.09745 c 5.4329,-2.95696 12.2336,-3.4746 15.1621,-1.15409 1.5262,1.20929 2.0411,2.20958 1.875,3.64258 -0.1979,1.70847 -1.5917,2.68508 -10.3117,7.22548 -11.9622,6.22862 -14.3569,8.62121 -14.8744,14.86173 -0.5603,6.75722 4.1566,13.34969 11.0239,15.4072 5.0388,1.50964 13.4413,1.07251 17.6833,-0.91995 6.7095,-3.15145 7.5675,-5.35233 3.7663,-9.66148 -2.0484,-2.32224 -3.4389,-2.55484 -5.8552,-0.97946 -2.6946,1.7569 -7.7959,2.61237 -10.7363,1.80048 -2.7917,-0.77084 -4.5918,-3.38935 -3.7815,-5.50094 0.2561,-0.66719 4.3927,-3.05835 9.1926,-5.3137 4.8,-2.25535 9.705,-4.79691 10.9001,-5.64791 4.3721,-3.11323 6.4082,-10.69659 4.3455,-16.18464 -0.4365,-1.16124 -2.2051,-3.5567 -3.9302,-5.32327 -3.8337,-3.92584 -8.2973,-5.41306 -16.2461,-5.41306 -4.9176,0 -6.4132,0.34317 -10.9263,2.50715 z m 41.0461,-1.60715 c -0.6639,0.66388 -0.9,7.43637 -0.9,25.81366 0,13.70251 0.2049,25.44751 0.4553,26.1 0.6631,1.72814 11.1763,1.72814 11.8395,0 0.2504,-0.65249 0.4552,-12.39749 0.4552,-26.1 0,-18.37729 -0.2361,-25.14978 -0.9,-25.81366 -0.5033,-0.50328 -2.9166,-0.9 -5.475,-0.9 -2.5583,0 -4.9717,0.39672 -5.475,0.9 z m 34.5,0 c -0.6576,0.6576 -0.9,6.61667 -0.9,22.125 v 21.225 h -5.9464 c -6.8198,0 -8.3036,0.86972 -8.3036,4.86723 0,5.15697 -1.1793,4.88277 21,4.88277 22.1793,0 21,0.2742 21,-4.88277 0,-3.99751 -1.4837,-4.86723 -8.3035,-4.86723 h -5.9465 v -21.225 c 0,-15.50833 -0.2424,-21.4674 -0.9,-22.125 -0.5182,-0.51818 -3,-0.9 -5.85,-0.9 -2.85,0 -5.3318,0.38182 -5.85,0.9 z m 35.1264,0.5507 c -0.8987,1.67928 -0.9705,10.68653 -0.2799,35.1118 l 0.4931,17.4375 h 5.425 c 4.255,0 5.5231,-0.25585 5.8802,-1.18634 0.2504,-0.65249 0.4552,-12.39749 0.4552,-26.1 0,-18.37729 -0.2361,-25.14978 -0.9,-25.81366 -0.5084,-0.50845 -2.9441,-0.9 -5.5986,-0.9 -3.8778,0 -4.8342,0.25343 -5.475,1.4507 z m 33.393,-0.40119 c -1.5917,1.23853 -16.5517,50.1225 -15.877,51.88064 0.5054,1.31707 10.5808,1.53636 11.3773,0.24762 0.2795,-0.45222 2.7758,-9.3116 5.5474,-19.6875 2.7715,-10.3759 5.3472,-18.80339 5.7236,-18.72776 0.3764,0.0756 2.8853,8.51313 5.5754,18.75 2.6901,10.23687 5.1569,19.03437 5.4818,19.54999 0.8118,1.28848 10.7074,1.28741 11.2019,-0.002 0.4225,-1.10115 -14.5549,-50.48948 -15.6094,-51.47218 -1.1242,-1.04772 -12.1958,-1.49287 -13.421,-0.53961 z m 35.7306,-0.14951 c -0.6639,0.66388 -0.9,7.43637 -0.9,25.81366 0,13.70251 0.2049,25.44751 0.4553,26.1 0.3958,1.03151 2.5859,1.18634 16.7812,1.18634 h 16.326 l 0.4688,-2.34375 c 1.3667,-6.83381 0.4793,-7.40625 -11.4822,-7.40625 h -9.5937 l -0.4063,-5.06206 c -0.2235,-2.78414 -0.2498,-5.31539 -0.058,-5.625 0.1913,-0.30962 2.9436,-0.58239 6.1161,-0.60616 3.1725,-0.0238 7.1148,-0.28207 8.7606,-0.57398 2.9162,-0.51725 3.0059,-0.62523 3.523,-4.24007 0.3253,-2.2741 0.2276,-4.07437 -0.2525,-4.65284 -0.5268,-0.63476 -3.6433,-1.01249 -9.523,-1.15421 l -8.7399,-0.21068 v -5.625 -5.625 l 10.4498,-0.20956 c 6.1409,-0.12315 10.857,-0.54758 11.4375,-1.02933 1.2406,-1.02966 1.3058,-7.51802 0.088,-8.73611 -0.6431,-0.64312 -5.4167,-0.9 -16.725,-0.9 -11.3084,0 -16.0819,0.25688 -16.725,0.9 z m -501.712498,-0.074 c -1.3998,1.45421 -1.3505,51.15317 0.052,52.55789 1.2374,1.23935 25.125,0.5343 28.6354,-0.84518 9.0279,-3.54764 11.3139,-14.31484 4.5998,-21.66509 l -1.5998,-1.75134 2.8439,-2.28407 c 3.6802,-2.95578 5.2042,-5.99613 5.2042,-10.38237 0,-7.12882 -2.6909,-11.26563 -9.1731,-14.10245 -4.3863,-1.91956 -29.0009,-3.14971 -30.5625,-1.52739 z m 25.6124,10.68077 c 2.2693,1.48694 3.1864,4.4223 2.2373,7.16102 -1.0024,2.89247 -5.0098,4.57963 -10.8809,4.58101 -4.9654,0.001 -4.9691,-4.5e-4 -5.4375,-2.34258 -0.6479,-3.23952 -0.5886,-10.03317 0.094,-10.73408 1.0221,-1.04994 11.9376,-0.008 13.9874,1.33463 z m -1.351,23.34234 c 1.1184,1.52964 1.3935,5.47869 0.4771,6.85108 -1.1209,1.67873 -3.9454,2.54976 -8.2682,2.54976 h -4.4409 l -0.4647,-4.97689 c -0.2556,-2.73728 -0.263,-5.30333 -0.017,-5.70232 0.2506,-0.40537 2.9222,-0.60052 6.0552,-0.44231 4.4498,0.2247 5.8237,0.57978 6.6579,1.72067 z m 35.9261,-33.13046 c -4.4659,2.14843 -9.6355,7.54436 -11.8793,12.39955 -1.398,3.02491 -1.6207,4.84645 -1.6205,13.25675 1e-4,9.16444 0.1265,10.00737 2.1041,14.03543 2.5812,5.25738 7.6178,9.8361 12.6631,11.51187 5.9586,1.97912 15.5754,1.26056 20.732198,-1.54908 7.8645,-4.28496 11.5232,-11.07936 11.992,-22.26949 0.4128,-9.85587 -1.418,-16.08031 -6.3401,-21.55483 -5.0383,-5.60382 -8.167598,-6.97188 -16.776498,-7.33428 -6.3451,-0.2671 -7.5355,-0.10246 -10.875,1.50408 z m 14.8429,9.7923 c 1.6645,0.69551 3.1198,2.27532 4.6634,5.0625 2.027098,3.66036 2.243198,4.70315 2.238298,10.8015 0,5.58305 -0.3014,7.30615 -1.717698,9.96692 -2.1709,4.07827 -5.5091,6.15247 -9.9019,6.15247 -4.3927,0 -7.731,-2.0742 -9.9019,-6.15247 -2.5139,-4.72282 -2.4796,-15.18015 0.067,-20.3527 2.9091,-5.90921 8.4918,-8.01073 14.553,-5.47822 z M 123.7064,358.53447 c -0.7125,0.73989 -0.9347,7.01228 -0.926,26.13603 0.01,13.83938 0.3027,25.62216 0.6587,26.18397 0.5156,0.81389 2.9139,0.95 11.801,0.66975 13.1303,-0.41405 16.5231,-1.38358 21.9656,-6.27679 5.4369,-4.88829 6.9987,-8.6745 7.4121,-17.96965 0.4843,-10.89136 -1.3781,-16.94681 -6.9153,-22.48404 -5.0742,-5.07413 -8.3052,-6.04819 -22.2807,-6.71701 -8.3939,-0.40169 -10.9853,-0.30044 -11.7154,0.45774 z m 22.3201,11.36103 c 3.9652,2.69865 5.3276,5.15978 6.1751,11.15466 1.0542,7.45802 -0.1281,13.19793 -3.4425,16.7122 -2.5221,2.67424 -7.3139,4.46233 -10.8598,4.05244 l -2.0054,-0.2318 -0.5958,-15.68487 c -0.3277,-8.62668 -0.4226,-16.13605 -0.211,-16.6875 0.6704,-1.74697 8.0447,-1.2853 10.9394,0.68487 z m 36.8924,-11.2875 c -0.6008,0.60078 -0.9,3.91577 -0.9,9.97096 v 9.07096 l -7.5352,16.02134 c -4.1444,8.81173 -7.3555,16.48969 -7.1359,17.06212 0.3013,0.78506 1.737,0.98658 5.8435,0.8202 6.3597,-0.25768 5.751,0.50244 11.1548,-13.92984 1.742,-4.65258 3.5342,-8.34176 3.9826,-8.19816 0.4483,0.14359 2.6715,4.79401 4.9402,10.33425 2.2688,5.54025 4.3981,10.49505 4.7318,11.01067 0.3894,0.60168 2.4715,0.9375 5.8125,0.9375 4.7617,0 5.2057,-0.13221 5.2057,-1.54999 0,-0.85249 -3.1639,-8.201 -7.031,-16.33001 l -7.031,-14.78002 -0.3105,-9.96528 c -0.2391,-7.67223 -0.5627,-10.12479 -1.4065,-10.6585 -1.5938,-1.00814 -9.2657,-0.87152 -10.321,0.1838 z m 435.9512,-0.18716 c -1.2497,0.50658 -2.1674,3.16379 -5.0993,14.76496 -5.5447,21.93884 -6.6221,25.7722 -7.2436,25.7722 -0.3176,0 -2.692,-8.52187 -5.2764,-18.9375 -2.5845,-10.41562 -4.9996,-19.52812 -5.3669,-20.25 -0.5001,-0.98307 -1.5987,-1.3125 -4.377,-1.3125 -3.2307,0 -3.7599,0.21775 -4.101,1.6875 -0.2153,0.92813 -2.749,12.65625 -5.6305,26.0625 -4.8309,22.47614 -5.1409,24.44804 -3.9794,25.3125 1.6406,1.22106 3.6116,1.19168 4.876,-0.0727 0.5556,-0.5556 2.8148,-10.3431 5.0205,-21.75 2.2057,-11.4069 4.2656,-20.73981 4.5777,-20.73981 0.312,0 2.8483,9.13476 5.6361,20.29947 2.7878,11.16471 5.5527,20.78346 6.1442,21.375 1.7244,1.7243 5.3748,1.36584 6.2322,-0.61197 0.6274,-1.44701 10.4862,-39.71975 10.4862,-40.70818 0,-0.19488 0.2905,-0.35432 0.6455,-0.35432 0.355,0 2.4553,9.33242 4.6673,20.7387 2.212,11.4063 4.4769,21.1938 5.0331,21.75 1.2792,1.2792 2.4989,1.28075 4.2431,0.005 1.3185,-0.96408 1.2132,-1.78307 -2.5308,-19.6875 -6.1698,-29.50418 -6.7305,-31.6671 -8.5379,-32.93305 -1.7695,-1.23942 -3.122,-1.34192 -5.4191,-0.41068 z m 37.3987,1.14257 c -4.6561,2.36296 -9.5457,7.47125 -11.7379,12.26284 -1.3784,3.01282 -1.6035,4.88008 -1.5983,13.25675 0.01,11.55743 1.0093,14.50432 7.1349,20.98124 4.5285,4.78818 8.4705,6.39711 15.6475,6.38643 6.3032,-0.009 11.2575,-2.23954 15.6833,-7.05978 5.4217,-5.90497 6.4771,-9.08688 6.4871,-19.55789 0.01,-11.02077 -1.2233,-15.16327 -6.1474,-20.64002 -4.7635,-5.29821 -8.2435,-6.92618 -15.5941,-7.2951 -5.3299,-0.26751 -6.4327,-0.0815 -9.8751,1.66553 z m 16.04,5.62258 c 3.1088,1.89553 6.7306,6.91078 7.8175,10.8251 1.4746,5.31042 1.0346,16.21928 -0.8237,20.42165 -3.0911,6.99047 -7.316,10.02526 -13.9568,10.02526 -9.0111,0 -14.4261,-6.13184 -15.7368,-17.82003 -0.562,-5.01089 0.6806,-12.81013 2.6509,-16.63919 1.4163,-2.75249 4.5114,-5.97065 7.134,-7.41758 2.5625,-1.41375 10.1901,-1.05654 12.9149,0.60479 z m 28.1101,-6.57799 c -0.6648,0.66481 -0.9,7.58333 -0.9,26.475 0,18.89167 0.2352,25.81019 0.9,26.475 1.7982,1.7981 23.2901,0.44788 27.9319,-1.7548 1.5179,-0.72027 3.5829,-2.52093 4.589,-4.00149 1.5742,-2.31672 1.8291,-3.55587 1.8291,-8.89065 0,-6.08913 -0.049,-6.25278 -2.7613,-9.25521 -1.5188,-1.68106 -4.0565,-3.71718 -5.6393,-4.52471 -3.347,-1.70749 -3.7434,-0.37057 4.0086,-13.52077 2.8281,-4.79744 5.142,-9.26931 5.142,-9.9375 0,-1.65381 -5.427,-1.68396 -6.7932,-0.0377 -0.5373,0.64742 -3.5318,5.62555 -6.6543,11.0625 l -5.6775,9.88535 -4.6875,0.22329 -4.6875,0.22328 v -10.76073 c 0,-11.54662 -0.3027,-12.56079 -3.75,-12.56079 -1.0725,0 -2.355,0.405 -2.85,0.9 z m 19.886,29.19583 c 5.419,1.03851 7.714,3.78616 7.714,9.23557 0,7.03266 -3.2731,9.07107 -15.375,9.57499 l -5.25,0.21861 -0.2117,-9.3334 c -0.1165,-5.13336 -0.064,-9.71998 0.1179,-10.19247 0.3702,-0.96481 6.625,-0.72592 13.0048,0.4967 z m 25.864,-29.19583 c -0.6648,0.66481 -0.9,7.58333 -0.9,26.475 0,27.32498 0.01,27.375 3.75,27.375 3.502,0 3.75,-0.92606 3.75,-14.00146 0,-9.4708 0.2098,-12.11349 0.9375,-11.8084 0.5157,0.21619 5.4938,5.94178 11.0625,12.72353 5.5688,6.78176 10.86,12.53101 11.7584,12.77612 2.0646,0.56333 4.7416,-0.25665 4.7416,-1.45241 0,-0.50134 -3.375,-5.07466 -7.5,-10.16293 -4.125,-5.08827 -7.5,-9.34235 -7.5,-9.45351 0,-0.11118 3.5335,-6.14325 7.8522,-13.40463 8.6568,-14.55544 10.1478,-17.26319 10.1478,-18.42906 0,-1.34601 -5.6559,-0.91585 -6.9064,0.52525 -0.6263,0.72188 -4.2565,6.62813 -8.067,13.125 -3.8105,6.49688 -7.3307,11.8125 -7.8228,11.8125 -0.492,0 -2.6516,-2.10293 -4.7992,-4.67318 l -3.9046,-4.67318 v -7.92682 c 0,-8.5481 -0.4544,-9.72682 -3.75,-9.72682 -1.0725,0 -2.355,0.405 -2.85,0.9 z m 49.5853,1.35083 c -5.5522,2.77444 -7.6102,4.84089 -6.5286,6.55545 1.6867,2.67399 2.8672,2.69202 7.0669,0.10794 3.3349,-2.05199 5.0079,-2.5626 9.1665,-2.79758 8.1324,-0.45952 12.5599,2.40759 12.5599,8.13336 0,4.19723 -2.022,6.075 -11.5516,10.72754 -10.3565,5.05629 -14.202,8.25814 -15.3384,12.77133 -1.5231,6.04874 2.099,12.69057 8.5086,15.6024 6.2075,2.82 16.3727,1.24751 21.1939,-3.27855 2.0621,-1.93578 2.1179,-2.9508 0.2549,-4.63672 -1.366,-1.23626 -1.5792,-1.19949 -4.5874,0.79128 -5.7633,3.81395 -15.6307,3.16242 -17.9578,-1.18574 -1.204,-2.24976 -0.9116,-5.66203 0.656,-7.65492 0.7855,-0.99861 5.5949,-3.8898 10.6875,-6.42487 5.4951,-2.73538 10.3169,-5.70428 11.8608,-7.30285 2.3655,-2.44933 2.6232,-3.15125 2.8421,-7.73878 0.1996,-4.18465 -0.054,-5.553 -1.4879,-8.02294 -3.1976,-5.50864 -8.4754,-7.88588 -17.5234,-7.89299 -4.4135,-0.004 -6.0836,0.37851 -9.822,2.24664 z"
           id="path1985" /><path
           style="fill:#e6a09d;stroke-width:0.75"
           d="m 371.0569,204.06909 c -18.0379,1.88358 -40.4838,8.47723 -57.9523,17.02394 -14.3634,7.0275 -31.8065,18.24647 -30.8288,19.82836 0.2612,0.42263 0.1535,0.56979 -0.2393,0.32702 -0.9282,-0.57366 -2.8926,0.64755 -2.8926,1.79829 0,0.49134 -0.6347,0.98651 -1.4105,1.10037 -1.6532,0.24264 -3.0753,1.51105 -3.1236,2.78598 -0.019,0.495 -0.4516,0.81197 -0.9618,0.70438 -1.2714,-0.26807 -16.9485,15.19708 -16.364,16.14277 0.2576,0.41684 -0.1185,1.218 -0.8358,1.78037 -1.2047,0.94443 -1.2201,0.90798 -0.202,-0.47752 0.814,-1.10768 0.5688,-1.02446 -0.9375,0.31823 -2.1215,1.89112 -2.8868,3.1934 -0.9148,1.55677 0.9409,-0.78086 1.125,-0.66883 1.125,0.68455 0,0.89002 0.4816,2.36572 1.0702,3.27933 1.7186,2.66767 2.7404,9.68982 1.606,11.03612 -0.5214,0.61875 -1.1931,1.63125 -1.4927,2.25 -0.2996,0.61875 0.2397,0.11298 1.1984,-1.12394 3.9883,-5.1456 10.9475,-12.9023 17.0194,-18.96984 3.5606,-3.55793 5.63,-5.80797 4.5987,-5.00009 l -1.875,1.46887 1.4128,-1.66982 c 0.777,-0.91839 1.6554,-1.51983 1.952,-1.33652 0.7335,0.45334 3.3852,-1.55056 3.3852,-2.5582 0,-0.44575 0.3375,-0.84375 0.75,-0.88442 1.49,-0.14693 3.3562,-1.48862 3.1801,-2.28631 -0.099,-0.44851 0.3262,-0.90588 0.9449,-1.01637 0.6188,-0.11049 4.3313,-2.39206 8.25,-5.07015 33.7405,-23.05836 72.5851,-32.68386 114.375,-28.34154 23.2885,2.41986 48.7039,10.96431 67.288,22.62158 29.3849,18.43241 50.298,41.42041 65.0845,71.54175 11.6107,23.65194 16.6985,46.04649 16.6985,73.5 0,27.20765 -4.8254,48.77606 -16.2763,72.75 -24.5417,51.38143 -72.1347,86.35623 -128.6697,94.55572 -6.9323,1.0055 -12.1575,1.173 -26.625,0.8537 -18.6669,-0.4121 -23.8242,-1.0419 -38.4427,-4.6944 -4.231,-1.05714 -8.08,-1.68272 -8.5534,-1.39017 -0.5682,0.3512 -0.654,0.19759 -0.2525,-0.45211 0.4531,-0.73309 0.1955,-0.8761 -1.0101,-0.56082 -0.8901,0.23275 -1.4515,0.15317 -1.2475,-0.17686 0.4922,-0.79643 -3.206,-1.69918 -4.2692,-1.04212 -0.5384,0.33276 -0.617,0.16707 -0.2232,-0.4702 0.4531,-0.73309 0.1955,-0.8761 -1.0101,-0.56082 -0.8901,0.23275 -1.4442,0.14147 -1.2314,-0.20286 0.5232,-0.84662 -2.3997,-1.71795 -3.494,-1.04159 -0.5224,0.32281 -0.6712,0.21339 -0.3709,-0.27259 0.6075,-0.98289 -2.1526,-1.98544 -3.3791,-1.22741 -0.583,0.36031 -0.6689,0.20961 -0.2587,-0.45404 0.4495,-0.72728 0.2692,-0.86106 -0.6731,-0.49947 -0.8673,0.33282 -1.1119,0.21053 -0.75,-0.375 0.3712,-0.60058 0.1008,-0.70147 -0.8757,-0.32677 -0.777,0.29815 -1.1534,0.28284 -0.8365,-0.0341 0.7527,-0.75276 -6.9204,-4.13894 -7.9446,-3.50596 -0.4312,0.2665 -0.5737,0.14426 -0.3167,-0.27165 0.2571,-0.41592 -0.3873,-1.14563 -1.4319,-1.62158 -1.3052,-0.59468 -1.7412,-0.60961 -1.3939,-0.0477 0.2779,0.4497 -0.5443,0.27485 -1.8272,-0.38856 -1.2829,-0.66342 -2.3326,-1.37817 -2.3326,-1.58834 0,-0.21017 0.7594,0.013 1.6875,0.49585 3.2639,1.69814 0.6628,-0.20135 -4.795,-3.50164 -3.0485,-1.8434 -4.5106,-2.48355 -3.2675,-1.43056 1.2375,1.0482 1.6594,1.68997 0.9375,1.42616 -1.3234,-0.48362 -1.7918,0.45009 -0.75,1.49503 0.3094,0.31031 0.6378,1.63218 0.7298,2.9375 0.4969,7.04794 0.7875,8.33604 2.049,9.0825 1.6802,0.99415 4.8649,3.69836 3.5962,3.05368 -0.5156,-0.26202 -0.9375,-0.29459 -0.9375,-0.0724 0,0.84171 6.0894,3.46776 6.8916,2.97199 0.4811,-0.29731 0.6324,-0.18312 0.3542,0.26715 -0.5921,0.95793 5.259,3.43536 6.4195,2.71816 0.4689,-0.2897 0.6028,-0.1589 0.3147,0.3073 -0.6074,0.9829 2.1527,1.9854 3.3792,1.2274 0.583,-0.3603 0.6688,-0.2096 0.2587,0.4541 -0.4495,0.7272 -0.2692,0.861 0.673,0.4994 0.7079,-0.2716 1.1187,-0.2215 0.913,0.1113 -0.5218,0.8444 4.5921,2.5923 5.6576,1.9338 0.5781,-0.3573 0.6661,-0.2075 0.2621,0.4461 -0.453,0.7331 -0.1955,0.8761 1.0102,0.5609 1.037,-0.2712 1.4411,-0.1365 1.125,0.375 -0.3161,0.5114 0.088,0.6462 1.125,0.375 1.037,-0.2712 1.4411,-0.1365 1.125,0.375 -0.3161,0.5114 0.088,0.6462 1.125,0.375 0.89,-0.2328 1.46,-0.1672 1.2666,0.1458 -0.6849,1.1082 16.8049,5.3031 29.9746,7.1894 8.906,1.2756 37.2065,1.4747 45.8833,0.3228 45.8457,-6.0863 85.4575,-27.2512 115.9396,-61.94753 38.1952,-43.47591 52.8554,-101.55919 40.2787,-159.58409 -10.9858,-50.68554 -47.5489,-97.708 -94.4766,-121.50307 -20.734,-10.51335 -41.8558,-16.93317 -63.0586,-19.1662 -8.446,-0.88952 -33.0254,-0.83624 -41.9034,0.0908 z m -102.788,48.85208 c 0,0.11722 -1.9406,2.05784 -4.3125,4.3125 l -4.3125,4.09938 4.0994,-4.3125 c 3.8085,-4.00645 4.5256,-4.65607 4.5256,-4.09938 z m -0.75,18.01475 c 0,0.12533 -1.2656,1.39096 -2.8125,2.8125 l -2.8125,2.58463 2.5846,-2.8125 c 2.4058,-2.61782 3.0404,-3.15734 3.0404,-2.58463 z m -5.25,6.03089 c 0,0.14232 -0.7241,0.90169 -1.6091,1.6875 -1.6005,1.42108 -1.6044,1.41969 -0.7236,-0.25876 0.7311,-1.39319 2.3327,-2.37417 2.3327,-1.42874 z m -12.0957,-5.69626 c -0.9329,1.18954 -0.9063,1.21607 0.2832,0.28317 0.7219,-0.56614 1.3125,-1.15676 1.3125,-1.3125 0,-0.61728 -0.6159,-0.21998 -1.5957,1.02933 z M 18.706402,358.53409 c -1.3998,1.45421 -1.3505,51.15317 0.052,52.55789 1.2374,1.23934 25.125,0.5343 28.6354,-0.84518 9.0279,-3.54765 11.3139,-14.31485 4.5998,-21.6651 l -1.5998,-1.75134 2.8439,-2.28407 c 3.6802,-2.95578 5.2042,-5.99613 5.2042,-10.38237 0,-7.12882 -2.6909,-11.26563 -9.1731,-14.10244 -4.3863,-1.91957 -29.0009,-3.14971 -30.5625,-1.52739 z m 25.6124,10.68076 c 2.2693,1.48694 3.1864,4.42231 2.2373,7.16102 -1.0024,2.89248 -5.0098,4.57964 -10.8809,4.58102 -4.9654,0.001 -4.9691,-4.5e-4 -5.4375,-2.34259 -0.6479,-3.23951 -0.5886,-10.03317 0.094,-10.73407 1.0221,-1.04994 11.9376,-0.008 13.9874,1.33462 z m -1.351,23.34235 c 1.1184,1.52963 1.3935,5.47868 0.4771,6.85108 -1.1209,1.67874 -3.9454,2.54977 -8.2682,2.54977 h -4.4409 l -0.4647,-4.97689 c -0.2556,-2.73728 -0.263,-5.30333 -0.017,-5.70232 0.2506,-0.40537 2.9222,-0.60052 6.0552,-0.44231 4.4498,0.2247 5.8237,0.57978 6.6579,1.72067 z m 35.9261,-33.13045 c -4.4659,2.14843 -9.6355,7.54436 -11.8793,12.39955 -1.398,3.02491 -1.6207,4.84645 -1.6205,13.25675 1e-4,9.16444 0.1265,10.00737 2.1041,14.03543 2.5812,5.25738 7.6178,9.8361 12.6631,11.51187 5.9586,1.97912 15.5754,1.26056 20.732198,-1.54908 7.8645,-4.28496 11.5232,-11.07936 11.992,-22.26949 0.4128,-9.85587 -1.418,-16.08031 -6.3401,-21.55483 -5.0383,-5.60382 -8.167598,-6.97188 -16.776498,-7.33428 -6.3451,-0.2671 -7.5355,-0.10246 -10.875,1.50408 z m 14.8429,9.7923 c 1.6645,0.69551 3.1198,2.27532 4.6634,5.0625 2.027098,3.66036 2.243198,4.70315 2.238298,10.8015 0,5.58305 -0.3014,7.30615 -1.717698,9.96692 -2.1709,4.07827 -5.5091,6.15247 -9.9019,6.15247 -4.3927,0 -7.731,-2.0742 -9.9019,-6.15247 -2.5139,-4.72282 -2.4796,-15.18015 0.067,-20.3527 2.9091,-5.90921 8.4918,-8.01073 14.553,-5.47822 z M 123.7064,358.53452 c -0.7125,0.73989 -0.9347,7.01228 -0.926,26.13603 0.01,13.83938 0.3027,25.62216 0.6587,26.18397 0.5156,0.81389 2.9139,0.95 11.801,0.66975 13.1303,-0.41405 16.5231,-1.38358 21.9656,-6.27679 5.4369,-4.88829 6.9987,-8.6745 7.4121,-17.96965 0.4843,-10.89136 -1.3781,-16.94681 -6.9153,-22.48404 -5.0742,-5.07413 -8.3052,-6.04819 -22.2807,-6.71701 -8.3939,-0.40169 -10.9853,-0.30044 -11.7154,0.45774 z m 22.3201,11.36103 c 3.9652,2.69865 5.3276,5.15978 6.1751,11.15466 1.0542,7.45802 -0.1281,13.19793 -3.4425,16.7122 -2.5221,2.67424 -7.3139,4.46233 -10.8598,4.05244 l -2.0054,-0.2318 -0.5958,-15.68487 c -0.3277,-8.62668 -0.4226,-16.13605 -0.211,-16.6875 0.6704,-1.74697 8.0447,-1.2853 10.9394,0.68487 z m 36.8924,-11.2875 c -0.6008,0.60078 -0.9,3.91577 -0.9,9.97096 v 9.07096 l -7.5352,16.02134 c -4.1444,8.81173 -7.3555,16.48969 -7.1359,17.06212 0.3013,0.78506 1.737,0.98658 5.8435,0.8202 6.3597,-0.25768 5.751,0.50244 11.1548,-13.92984 1.742,-4.65258 3.5342,-8.34176 3.9826,-8.19816 0.4483,0.14359 2.6715,4.79401 4.9402,10.33425 2.2688,5.54025 4.3981,10.49505 4.7318,11.01067 0.3894,0.60168 2.4715,0.9375 5.8125,0.9375 4.7617,0 5.2057,-0.13221 5.2057,-1.54999 0,-0.85249 -3.1639,-8.201 -7.031,-16.33001 l -7.031,-14.78002 -0.3105,-9.96528 c -0.2391,-7.67223 -0.5627,-10.12479 -1.4065,-10.6585 -1.5938,-1.00814 -9.2657,-0.87152 -10.321,0.1838 z m 49.5,0 c -0.6639,0.66388 -0.9,7.43637 -0.9,25.81366 0,13.70251 0.2049,25.44751 0.4553,26.1 0.3847,1.00273 2.0621,1.18634 10.838,1.18634 11.6774,0 16.9176,-0.83663 21.4128,-3.41872 3.8422,-2.20696 5.3795,-4.51259 6.4013,-9.6002 1.1779,-5.86534 -0.2142,-11.76485 -3.682,-15.60325 -4.0049,-4.43299 -7.728,-5.85537 -18.3629,-7.01538 l -4.3125,-0.47038 v -8.04604 c 0,-5.25802 -0.3118,-8.35789 -0.9,-8.94603 -0.5033,-0.50328 -2.9166,-0.9 -5.475,-0.9 -2.5583,0 -4.9717,0.39672 -5.475,0.9 z m 19.4352,28.34744 c 4.9291,0.91197 7.4148,3.33195 7.4148,7.21869 0,1.44786 -0.3646,3.31387 -0.8103,4.14667 -1.1573,2.16233 -5.2287,3.6372 -10.0406,3.6372 h -4.1491 v -7.875 c 0,-8.99991 -0.417,-8.60808 7.5852,-7.12756 z m 40.6471,-27.78768 c -4.6008,2.08877 -9.6563,7.10438 -12.0282,11.9331 -1.95,3.9699 -2.0782,4.83629 -2.0703,13.98214 0.01,8.7056 0.1968,10.13079 1.7664,13.30486 0.9668,1.95517 3.7069,5.35939 6.0892,7.56493 5.3505,4.95363 8.8449,6.07639 17.4378,5.60283 10.1596,-0.5599 15.7347,-4.27965 20.0052,-13.34762 1.7666,-3.75114 1.9426,-4.97468 1.9426,-13.5 0,-8.71915 -0.1449,-9.67011 -2.0716,-13.5934 -2.8043,-5.71025 -8.2713,-10.71774 -13.3469,-12.22505 -5.5371,-1.64432 -13.7744,-1.51503 -17.7242,0.27821 z m 14.7637,10.3539 c 1.6108,0.80591 3.3436,2.61218 4.4957,4.68634 1.6301,2.93444 1.8753,4.30507 1.8791,10.5 0,5.99487 -0.2682,7.63526 -1.7135,10.34192 -2.1466,4.02 -5.5255,6.1516 -9.757,6.15528 -4.4709,0.004 -7.2392,-1.65363 -9.6595,-5.78359 -1.8431,-3.14498 -2.0679,-4.26418 -2.071,-10.30832 0,-5.52333 0.2995,-7.35371 1.6305,-9.87345 3.5083,-6.64146 9.1255,-8.75523 15.1957,-5.71818 z m 33.3579,-9.30651 c -8.095,3.88139 -8.67,5.4537 -3.7418,10.23035 l 2.601,2.52098 3.8537,-2.09745 c 5.4329,-2.95696 12.2336,-3.4746 15.1621,-1.15409 1.5262,1.20929 2.0411,2.20958 1.875,3.64258 -0.1979,1.70847 -1.5917,2.68508 -10.3117,7.22548 -11.9622,6.22862 -14.3569,8.62121 -14.8744,14.86173 -0.5603,6.75722 4.1566,13.34969 11.0239,15.4072 5.0388,1.50964 13.4413,1.07251 17.6833,-0.91995 6.7095,-3.15145 7.5675,-5.35233 3.7663,-9.66148 -2.0484,-2.32224 -3.4389,-2.55484 -5.8552,-0.97946 -2.6946,1.7569 -7.7959,2.61237 -10.7363,1.80048 -2.7917,-0.77084 -4.5918,-3.38935 -3.7815,-5.50094 0.2561,-0.66719 4.3927,-3.05835 9.1926,-5.3137 4.8,-2.25535 9.705,-4.79691 10.9001,-5.64791 4.3721,-3.11323 6.4082,-10.69659 4.3455,-16.18464 -0.4365,-1.16124 -2.2051,-3.5567 -3.9302,-5.32327 -3.8337,-3.92584 -8.2973,-5.41306 -16.2461,-5.41306 -4.9176,0 -6.4132,0.34317 -10.9263,2.50715 z m 41.0461,-1.60715 c -0.6639,0.66388 -0.9,7.43637 -0.9,25.81366 0,13.70251 0.2049,25.44751 0.4553,26.1 0.6631,1.72814 11.1763,1.72814 11.8395,0 0.2504,-0.65249 0.4552,-12.39749 0.4552,-26.1 0,-18.37729 -0.2361,-25.14978 -0.9,-25.81366 -0.5033,-0.50328 -2.9166,-0.9 -5.475,-0.9 -2.5583,0 -4.9717,0.39672 -5.475,0.9 z m 34.5,0 c -0.6576,0.6576 -0.9,6.61667 -0.9,22.125 v 21.225 h -5.9464 c -6.8198,0 -8.3036,0.86972 -8.3036,4.86723 0,5.15697 -1.1793,4.88277 21,4.88277 22.1793,0 21,0.2742 21,-4.88277 0,-3.99751 -1.4837,-4.86723 -8.3035,-4.86723 h -5.9465 v -21.225 c 0,-15.50833 -0.2424,-21.4674 -0.9,-22.125 -0.5182,-0.51818 -3,-0.9 -5.85,-0.9 -2.85,0 -5.3318,0.38182 -5.85,0.9 z m 35.1264,0.5507 c -0.8987,1.67928 -0.9705,10.68653 -0.2799,35.1118 l 0.4931,17.4375 h 5.425 c 4.255,0 5.5231,-0.25585 5.8802,-1.18634 0.2504,-0.65249 0.4552,-12.39749 0.4552,-26.1 0,-18.37729 -0.2361,-25.14978 -0.9,-25.81366 -0.5084,-0.50845 -2.9441,-0.9 -5.5986,-0.9 -3.8778,0 -4.8342,0.25343 -5.475,1.4507 z m 33.393,-0.40119 c -1.5917,1.23853 -16.5517,50.1225 -15.877,51.88064 0.5054,1.31707 10.5808,1.53636 11.3773,0.24762 0.2795,-0.45222 2.7758,-9.3116 5.5474,-19.6875 2.7715,-10.3759 5.3472,-18.80339 5.7236,-18.72776 0.3764,0.0756 2.8853,8.51313 5.5754,18.75 2.6901,10.23687 5.1569,19.03437 5.4818,19.54999 0.8118,1.28848 10.7074,1.28741 11.2019,-0.002 0.4225,-1.10115 -14.5549,-50.48948 -15.6094,-51.47218 -1.1242,-1.04772 -12.1958,-1.49287 -13.421,-0.53961 z m 35.7306,-0.14951 c -0.6639,0.66388 -0.9,7.43637 -0.9,25.81366 0,13.70251 0.2049,25.44751 0.4553,26.1 0.3958,1.03151 2.5859,1.18634 16.7812,1.18634 h 16.326 l 0.4688,-2.34375 c 1.3667,-6.83381 0.4793,-7.40625 -11.4822,-7.40625 h -9.5937 l -0.4063,-5.06206 c -0.2235,-2.78414 -0.2498,-5.31539 -0.058,-5.625 0.1913,-0.30962 2.9436,-0.58239 6.1161,-0.60616 3.1725,-0.0238 7.1148,-0.28207 8.7606,-0.57398 2.9162,-0.51725 3.0059,-0.62523 3.523,-4.24007 0.3253,-2.2741 0.2276,-4.07437 -0.2525,-4.65284 -0.5268,-0.63476 -3.6433,-1.01249 -9.523,-1.15421 l -8.7399,-0.21068 v -5.625 -5.625 l 10.4498,-0.20956 c 6.1409,-0.12315 10.857,-0.54758 11.4375,-1.02933 1.2406,-1.02966 1.3058,-7.51802 0.088,-8.73611 -0.6431,-0.64312 -5.4167,-0.9 -16.725,-0.9 -11.3084,0 -16.0819,0.25688 -16.725,0.9 z m 98.4512,-0.18716 c -1.2497,0.50658 -2.1674,3.16379 -5.0993,14.76496 -5.5447,21.93884 -6.6221,25.7722 -7.2436,25.7722 -0.3176,0 -2.692,-8.52187 -5.2764,-18.9375 -2.5845,-10.41562 -4.9996,-19.52812 -5.3669,-20.25 -0.5001,-0.98307 -1.5987,-1.3125 -4.377,-1.3125 -3.2307,0 -3.7599,0.21775 -4.101,1.6875 -0.2153,0.92813 -2.749,12.65625 -5.6305,26.0625 -4.8309,22.47614 -5.1409,24.44804 -3.9794,25.3125 1.6406,1.22106 3.6116,1.19168 4.876,-0.0727 0.5556,-0.5556 2.8148,-10.3431 5.0205,-21.75 2.2057,-11.4069 4.2656,-20.73981 4.5777,-20.73981 0.312,0 2.8483,9.13476 5.6361,20.29947 2.7878,11.16471 5.5527,20.78346 6.1442,21.375 1.7244,1.7243 5.3748,1.36584 6.2322,-0.61197 0.6274,-1.44701 10.4862,-39.71975 10.4862,-40.70818 0,-0.19488 0.2905,-0.35432 0.6455,-0.35432 0.355,0 2.4553,9.33242 4.6673,20.7387 2.212,11.4063 4.4769,21.1938 5.0331,21.75 1.2792,1.2792 2.4989,1.28075 4.2431,0.005 1.3185,-0.96408 1.2132,-1.78307 -2.5308,-19.6875 -6.1698,-29.50418 -6.7305,-31.6671 -8.5379,-32.93305 -1.7695,-1.23942 -3.122,-1.34192 -5.4191,-0.41068 z m 37.3987,1.14257 c -4.6561,2.36296 -9.5457,7.47125 -11.7379,12.26284 -1.3784,3.01282 -1.6035,4.88008 -1.5983,13.25675 0.01,11.55743 1.0093,14.50432 7.1349,20.98124 4.5285,4.78818 8.4705,6.39711 15.6475,6.38643 6.3032,-0.009 11.2575,-2.23954 15.6833,-7.05978 5.4217,-5.90497 6.4771,-9.08688 6.4871,-19.55789 0.01,-11.02077 -1.2233,-15.16327 -6.1474,-20.64002 -4.7635,-5.29821 -8.2435,-6.92618 -15.5941,-7.2951 -5.3299,-0.26751 -6.4327,-0.0815 -9.8751,1.66553 z m 16.04,5.62258 c 3.1088,1.89553 6.7306,6.91078 7.8175,10.8251 1.4746,5.31042 1.0346,16.21928 -0.8237,20.42165 -3.0911,6.99047 -7.316,10.02526 -13.9568,10.02526 -9.0111,0 -14.4261,-6.13184 -15.7368,-17.82003 -0.562,-5.01089 0.6806,-12.81013 2.6509,-16.63919 1.4163,-2.75249 4.5114,-5.97065 7.134,-7.41758 2.5625,-1.41375 10.1901,-1.05654 12.9149,0.60479 z m 28.1101,-6.57799 c -0.6648,0.66481 -0.9,7.58333 -0.9,26.475 0,18.89167 0.2352,25.81019 0.9,26.475 1.7982,1.7981 23.2901,0.44788 27.9319,-1.7548 1.5179,-0.72027 3.5829,-2.52093 4.589,-4.00149 1.5742,-2.31672 1.8291,-3.55587 1.8291,-8.89065 0,-6.08913 -0.049,-6.25278 -2.7613,-9.25521 -1.5188,-1.68106 -4.0565,-3.71718 -5.6393,-4.52471 -3.347,-1.70749 -3.7434,-0.37057 4.0086,-13.52077 2.8281,-4.79744 5.142,-9.26931 5.142,-9.9375 0,-1.65381 -5.427,-1.68396 -6.7932,-0.0377 -0.5373,0.64742 -3.5318,5.62555 -6.6543,11.0625 l -5.6775,9.88535 -4.6875,0.22329 -4.6875,0.22328 v -10.76078 c 0,-11.54662 -0.3027,-12.56079 -3.75,-12.56079 -1.0725,0 -2.355,0.405 -2.85,0.9 z m 19.886,29.19583 c 5.419,1.03851 7.714,3.78616 7.714,9.23557 0,7.03266 -3.2731,9.07107 -15.375,9.57499 l -5.25,0.21861 -0.2117,-9.3334 c -0.1165,-5.13336 -0.064,-9.71998 0.1179,-10.19247 0.3702,-0.96481 6.625,-0.72592 13.0048,0.4967 z m 25.864,-29.19583 c -0.6648,0.66481 -0.9,7.58333 -0.9,26.475 0,27.32498 0.01,27.375 3.75,27.375 3.502,0 3.75,-0.92606 3.75,-14.00146 0,-9.4708 0.2098,-12.11349 0.9375,-11.8084 0.5157,0.21619 5.4938,5.94178 11.0625,12.72353 5.5688,6.78176 10.86,12.53101 11.7584,12.77612 2.0646,0.56333 4.7416,-0.25665 4.7416,-1.45241 0,-0.50134 -3.375,-5.07466 -7.5,-10.16293 -4.125,-5.08827 -7.5,-9.34235 -7.5,-9.45351 0,-0.11118 3.5335,-6.14325 7.8522,-13.40463 8.6568,-14.55544 10.1478,-17.26319 10.1478,-18.42906 0,-1.34601 -5.6559,-0.91585 -6.9064,0.52525 -0.6263,0.72188 -4.2565,6.62813 -8.067,13.125 -3.8105,6.49688 -7.3307,11.8125 -7.8228,11.8125 -0.492,0 -2.6516,-2.10293 -4.7992,-4.67318 l -3.9046,-4.67318 v -7.92682 c 0,-8.5481 -0.4544,-9.72682 -3.75,-9.72682 -1.0725,0 -2.355,0.405 -2.85,0.9 z m 49.5853,1.35083 c -5.5522,2.77444 -7.6102,4.84089 -6.5286,6.55545 1.6867,2.67399 2.8672,2.69202 7.0669,0.10794 3.3349,-2.05199 5.0079,-2.5626 9.1665,-2.79758 8.1324,-0.45952 12.5599,2.40759 12.5599,8.13336 0,4.19723 -2.022,6.075 -11.5516,10.72754 -10.3565,5.05629 -14.202,8.25814 -15.3384,12.77133 -1.5231,6.04874 2.099,12.69057 8.5086,15.6024 6.2075,2.82 16.3727,1.24751 21.1939,-3.27855 2.0621,-1.93578 2.1179,-2.9508 0.2549,-4.63672 -1.366,-1.23626 -1.5792,-1.19949 -4.5874,0.79128 -5.7633,3.81395 -15.6307,3.16242 -17.9578,-1.18574 -1.204,-2.24976 -0.9116,-5.66203 0.656,-7.65492 0.7855,-0.99861 5.5949,-3.8898 10.6875,-6.42487 5.4951,-2.73538 10.3169,-5.70428 11.8608,-7.30285 2.3655,-2.44933 2.6232,-3.15125 2.8421,-7.73878 0.1996,-4.18465 -0.054,-5.553 -1.4879,-8.02294 -3.1976,-5.50864 -8.4754,-7.88588 -17.5234,-7.89299 -4.4135,-0.004 -6.0836,0.37851 -9.822,2.24664 z m -572.3669,19.49917 c 0,1.03125 0.1703,1.45313 0.3783,0.9375 0.2081,-0.51562 0.2081,-1.35937 0,-1.875 -0.208,-0.51562 -0.3783,-0.0937 -0.3783,0.9375 z m 0,11.25 c 0,1.03125 0.1703,1.45313 0.3783,0.9375 0.2081,-0.51562 0.2081,-1.35937 0,-1.875 -0.208,-0.51562 -0.3783,-0.0937 -0.3783,0.9375 z m 38.1316,101.53317 c 0,0.15574 0.5906,0.74637 1.3125,1.3125 1.1896,0.93291 1.2161,0.90638 0.2832,-0.28317 -0.9798,-1.24931 -1.5957,-1.64661 -1.5957,-1.02933 z m 4.5,5.20152 c 0,0.12907 1.0969,1.22595 2.4375,2.4375 l 2.4375,2.20281 -2.2028,-2.4375 c -2.0533,-2.27209 -2.6722,-2.78223 -2.6722,-2.20281 z m -12,6.04848 c 0,0.15574 0.5906,0.74637 1.3125,1.3125 1.1896,0.93291 1.2161,0.90638 0.2832,-0.28317 -0.9798,-1.24931 -1.5957,-1.64661 -1.5957,-1.02933 z m 25.5,7.59183 c 0.9688,1.03125 1.9302,1.875 2.1365,1.875 0.2062,0 -0.4177,-0.84375 -1.3865,-1.875 -0.9688,-1.03125 -1.9302,-1.875 -2.1365,-1.875 -0.2062,0 0.4177,0.84375 1.3865,1.875 z m -15,3.75 c 2.2406,2.26875 4.2425,4.125 4.4488,4.125 0.2062,0 -1.4582,-1.85625 -3.6988,-4.125 -2.2405,-2.26875 -4.2425,-4.125 -4.4487,-4.125 -0.2063,0 1.4582,1.85625 3.6987,4.125 z m 19.5,-0.0918 c 0,0.15574 0.5906,0.74637 1.3125,1.3125 1.1896,0.93291 1.2161,0.90638 0.2832,-0.28317 -0.9798,-1.24931 -1.5957,-1.64661 -1.5957,-1.02933 z m 3.75,3 c 0,0.15574 0.5906,0.74637 1.3125,1.3125 1.1896,0.93291 1.2161,0.90638 0.2832,-0.28317 -0.9798,-1.24931 -1.5957,-1.64661 -1.5957,-1.02933 z m -14.625,4.96683 c 0.7466,0.825 1.5263,1.5 1.7325,1.5 0.2063,0 -0.2359,-0.675 -0.9825,-1.5 -0.7466,-0.825 -1.5262,-1.5 -1.7325,-1.5 -0.2062,0 0.2359,0.675 0.9825,1.5 z m 4.125,3.28317 c 0,0.15574 0.5906,0.74637 1.3125,1.3125 1.1896,0.93291 1.2161,0.90638 0.2832,-0.28317 -0.9798,-1.24931 -1.5957,-1.64661 -1.5957,-1.02933 z m 24,16.55331 c 0,0.20625 1.0125,0.89859 2.25,1.53852 1.2375,0.63994 2.25,0.99477 2.25,0.78852 0,-0.20625 -1.0125,-0.89858 -2.25,-1.53852 -1.2375,-0.63993 -2.25,-0.99477 -2.25,-0.78852 z"
           id="path1983" /><path
           style="fill:#faa25c;stroke-width:0.75"
           d="m 360.8939,207.03986 c -14.396,2.07591 -33.5773,8.17479 -48,15.26206 -19.511,9.5877 -35.6708,21.31109 -50.0625,36.31875 -7.5393,7.86204 -8.3609,9.51354 -6.172,12.40684 0.6011,0.79445 1.3021,3.02143 1.5577,4.94885 l 0.4649,3.50438 9.481,-9.72016 c 11.5642,-11.85597 18.1044,-17.38213 30.1968,-25.51469 18.9176,-12.72278 40.8644,-22.20354 59.5341,-25.71801 10.8842,-2.04888 12.7911,-2.72898 12.4887,-4.45407 -0.1437,-0.81992 -0.4308,-2.92514 -0.638,-4.67826 -0.4251,-3.59685 -0.3613,-3.57986 -8.8507,-2.35569 z m 87.9763,6.31692 c -0.58,0.58002 0.78,7.28256 1.6553,8.15787 0.4089,0.40887 0.7434,1.48045 0.7434,2.38129 0,1.29562 0.9012,1.99538 4.3125,3.34856 17.9003,7.10063 37.4603,20.13116 53.3469,35.53886 28.1837,27.33417 45.1282,60.1436 50.7671,98.29969 1.9552,13.23031 1.7664,38.76852 -0.3771,51 -5.7225,32.65433 -18.1403,59.18448 -39.7852,84.99936 -4.2653,5.08716 -9.7402,10.99341 -12.1664,13.125 -6.1391,5.39376 -7.4972,7.89475 -6.9287,12.75889 0.2485,2.12672 0.5874,4.30043 0.7529,4.83048 1.2764,4.0862 28.1226,-21.15286 39.9996,-37.60512 24.8074,-34.36348 36.9118,-78.7838 33.0358,-121.23361 -2.4693,-27.0435 -11.6544,-54.82034 -26.0244,-78.70115 -8.5246,-14.1666 -23.8061,-32.03679 -36.8847,-43.13287 -15.9652,-13.54522 -29.5753,-21.67049 -50.0949,-29.90679 -10.7012,-4.29537 -11.6277,-4.5849 -12.3521,-3.86046 z M 346.5267,358.48109 c -5.7437,1.15114 -12.261,5.08977 -12.2543,7.4057 0,1.26588 4.1274,6.07126 5.2101,6.07126 0.3506,0 2.4406,-0.83537 4.6443,-1.85639 7.6912,-3.56336 14.2258,-2.97362 16.2488,1.46644 1.2896,2.83019 -1.0607,4.96619 -10.527,9.56754 -11.8252,5.74791 -14.0797,8.26867 -14.0797,15.74284 0,5.39861 2.5057,9.41 7.6314,12.21745 3.5982,1.9708 4.6619,2.18374 10.7436,2.15056 7.0498,-0.0385 10.1175,-0.99255 13.6875,-4.25691 2.2546,-2.06148 2.1265,-3.65294 -0.5219,-6.48813 l -2.2095,-2.36524 -3.1362,1.59999 c -1.725,0.87999 -4.9302,1.78513 -7.1228,2.01142 -3.7254,0.38451 -4.1417,0.2562 -6.3573,-1.95936 -2.1773,-2.17735 -2.2847,-2.50687 -1.3165,-4.03801 0.5799,-0.91696 5.1378,-3.69395 10.1286,-6.17111 12.7541,-6.33033 14.4731,-8.1997 14.4731,-15.73872 0,-7.80044 -5.2824,-14.07642 -12.6244,-14.99881 -7.1694,-0.90071 -9.5789,-0.96956 -12.6178,-0.36052 z m 314.237,0.0105 c -6.3913,1.26326 -12.1395,5.96309 -15.3762,12.57187 -2.3094,4.71529 -2.9139,18.83635 -1.0703,25.00161 1.4944,4.99735 5.4697,10.47145 9.5818,13.1943 2.7153,1.79796 4.0205,2.10887 9.8158,2.33825 4.9664,0.19656 7.5327,-0.0595 9.9859,-0.99638 4.2231,-1.61282 9.2527,-6.50208 11.6038,-11.28004 1.687,-3.42831 1.8394,-4.6084 1.8394,-14.23813 0,-9.4566 -0.1722,-10.84975 -1.7336,-14.01961 -2.266,-4.60033 -6.9971,-9.41477 -10.8991,-11.09101 -3.8888,-1.67054 -9.6486,-2.29099 -13.7475,-1.48086 z m 12.7096,7.18442 c 2.0759,1.45893 3.9232,3.72424 5.4113,6.63553 2.1302,4.16771 2.2587,4.91625 2.2488,13.09595 -0.011,9.23178 -0.4615,10.81484 -4.6785,16.44471 -6.5747,8.77777 -20.82,6.05476 -25.3917,-4.85365 -3.7526,-8.95415 -1.9584,-23.30933 3.6798,-29.44258 4.6578,-5.06666 13.0043,-5.90439 18.7303,-1.87996 z M 18.518902,384.96764 v 26.74041 l 3.1875,-0.0204 c 1.7531,-0.0113 8.173,-0.32575 14.2663,-0.69892 9.212,-0.56415 11.5121,-0.94623 13.6497,-2.26737 3.7631,-2.32569 5.6465,-5.81595 5.6465,-10.46362 0,-4.16183 -0.6542,-5.89049 -3.5432,-9.36215 l -1.8203,-2.18748 3.3776,-2.88705 c 4.1201,-3.52182 5.3296,-6.74535 4.6304,-12.34132 -0.3865,-3.09363 -1.0983,-4.7711 -2.8911,-6.813 -4.1704,-4.74982 -7.0459,-5.51126 -22.6725,-6.00367 l -13.8309,-0.43584 z m 23.5704,-17.03718 c 2.8885,0.98421 3.8013,1.73389 4.6843,3.84726 2.2152,5.30187 -1.6452,9.08339 -9.9539,9.75034 -6.5128,0.52278 -7.0508,-0.0313 -7.0508,-7.26184 0,-3.47857 0.3563,-6.11447 0.9,-6.65817 1.2805,-1.28052 7.2071,-1.1132 11.4204,0.32241 z m 0.9057,24.5489 c 2.9985,3.48595 1.9959,7.33575 -2.3874,9.16719 -3.1029,1.29648 -8.7126,1.38764 -9.9387,0.1615 -1.2008,-1.20082 -1.1716,-9.77105 0.037,-11.01275 0.6361,-0.65324 2.477,-0.86881 5.7261,-0.67052 4.103,0.2504 5.0424,0.58745 6.5625,2.35458 z m 34.8625,-32.04996 c -4.9183,2.45088 -9.4057,7.9336 -11.0099,13.45208 -1.4093,4.84753 -1.6078,16.56433 -0.3614,21.32657 1.7886,6.83368 7.3278,12.8288 13.9077,15.05233 4.8515,1.63945 14.2909,1.25703 18.9312,-0.76697 7.099398,-3.09651 11.636198,-9.72498 13.018798,-19.02086 2.1346,-14.35225 -4.5483,-28.35358 -14.906398,-31.23029 -1.5365,-0.42671 -5.6805,-0.77773 -9.2088,-0.78002 -5.4283,-0.004 -7.0239,0.29909 -10.3712,1.96716 z m 14.3158,7.80896 c 3.6588,1.01615 6.8783,5.00866 8.393498,10.40869 1.5,5.3461 1.5085,7.75686 0.045,12.68544 -3.066698,10.32658 -13.065398,13.86347 -19.392798,6.85986 -2.7185,-3.00916 -4.95,-8.9445 -4.95,-13.16643 0,-4.45175 2.7908,-11.82473 5.4157,-14.30749 3.609,-3.41363 5.5094,-3.863 10.4887,-2.48007 z m 31.345598,16.84935 v 26.85367 l 10.3125,-0.47261 c 11.2109,-0.51378 16.7042,-1.75779 21.3561,-4.83629 2.8171,-1.86427 6.4107,-6.34101 7.6656,-9.54943 1.1281,-2.88422 1.7369,-12.68113 1.1023,-17.73576 -1.1266,-8.972 -5.2925,-15.10255 -12.5359,-18.44757 -3.5193,-1.62526 -5.344,-1.88293 -15.9375,-2.25055 l -11.9631,-0.41514 z m 21.375,-16.21911 c 4.7986,2.2035 6.4942,4.82578 7.8975,12.21347 0.8381,4.41237 -0.3379,12.12071 -2.3445,15.36746 -2.6123,4.22685 -12.0068,7.57257 -14.4376,5.14177 -1.0741,-1.07407 -1.2404,-3.32499 -1.2404,-16.78682 0,-11.09167 0.2579,-15.80432 0.9,-16.44643 1.317,-1.31698 5.7836,-1.06978 9.225,0.51055 z m 37.8669,-1.22305 -0.01,9.1875 -7.4919,16.01405 c -4.1205,8.80773 -7.4919,16.47943 -7.4919,17.04822 0,1.35613 2.597,1.96179 7.1693,1.67195 l 3.6948,-0.23422 4.4604,-11.4525 c 2.4533,-6.29887 4.8183,-11.33805 5.2555,-11.19817 0.4373,0.13989 2.6513,4.78726 4.92,10.3275 2.2688,5.54025 4.3682,10.44681 4.6655,10.90347 0.6033,0.92678 8.3662,1.92732 10.0225,1.29177 0.5841,-0.22416 1.062,-0.71853 1.062,-1.09861 0,-0.38009 -3.2877,-7.51586 -7.3059,-15.85726 l -7.306,-15.1662 -0.213,-8.625 c -0.3131,-12.6726 0.034,-12 -6.1894,-12 h -5.2357 z m 49.5081,17.555 v 26.74249 l 11.8125,-0.47089 c 16.907,-0.67397 22.0443,-2.53872 25.0153,-9.08015 1.5856,-3.49118 1.8564,-10.16327 0.5686,-14.00953 -2.2856,-6.82666 -7.2047,-9.98234 -17.5966,-11.28846 -3.6711,-0.4614 -7.0967,-1.17208 -7.6123,-1.57927 -0.6471,-0.51108 -0.9375,-3.26684 -0.9375,-8.89852 v -8.15817 h -5.625 -5.625 z m 18.4248,1.06503 c 5.7657,1.04623 7.5644,2.27307 8.6513,5.9006 1.7585,5.8695 -1.6013,9.51582 -9.5214,10.33325 -5.8364,0.60237 -6.3047,-0.0184 -6.3047,-8.35821 0,-4.35358 0.3308,-7.21393 0.9,-7.78317 1.0897,-1.0897 0.8024,-1.08547 6.2748,-0.0925 z m 41.0742,-26.39697 c -3.9793,1.85988 -8.6646,6.67615 -10.8903,11.19483 -1.5614,3.16986 -1.7337,4.56301 -1.7337,14.01961 0,10.23891 0.055,10.59994 2.2261,14.5191 2.4232,4.37485 6.4988,8.26897 10.7903,10.30986 4.1099,1.95452 15.2359,1.72269 20.0834,-0.41846 9.9771,-4.40693 14.489,-14.69158 13.0121,-29.6605 -0.8472,-8.58629 -4.6904,-15.17254 -11.0178,-18.88149 -3.2237,-1.88967 -4.4057,-2.12932 -11.4691,-2.3254 -6.545,-0.1817 -8.4029,0.0281 -11.001,1.24245 z m 14.2126,8.62207 c 3.9258,1.67972 6.3597,4.89872 7.7206,10.21085 1.4744,5.75511 1.0986,11.29578 -1.0494,15.47332 -4.1129,7.99863 -11.3891,10.0865 -17.4317,5.00195 -3.7026,-3.11554 -5.1666,-7.10093 -5.1773,-14.09375 -0.019,-12.74819 7.2455,-20.31154 15.9378,-16.59237 z m 75.5384,16.59237 v 26.625 h 5.625 5.625 v -26.625 -26.625 h -5.625 -5.625 z m 34.5,-5.34183 c 0,16.52614 -0.2175,21.46366 -0.973,22.09071 -0.5352,0.44416 -3.6571,0.90736 -6.9375,1.02934 l -5.9645,0.22178 -0.2232,3.83661 c -0.2194,3.77182 -0.183,3.84465 2.1563,4.3125 1.3087,0.26174 9.3825,0.47589 17.9419,0.47589 8.5594,0 16.6333,-0.21415 17.942,-0.47589 2.3392,-0.46785 2.3756,-0.54068 2.1562,-4.3125 l -0.2232,-3.83661 -5.9644,-0.22178 c -3.2805,-0.12198 -6.4024,-0.58518 -6.9375,-1.02934 -0.7556,-0.62705 -0.9731,-5.56457 -0.9731,-22.09071 v -21.28317 h -6 -6 z m 35.4279,5.15433 0.1971,26.4375 5.4375,0.22036 5.4375,0.22036 v -26.65786 -26.65786 h -5.6346 -5.6346 z m 32.22,-24.09808 c -0.3998,1.39457 -3.8028,12.51972 -7.5624,24.72257 -3.7595,12.20284 -6.8355,22.89573 -6.8355,23.76196 0,2.03238 1.6532,2.48022 6.75,1.8285 l 4.125,-0.52745 4.295,-16.06018 c 5.9758,-22.34569 6.5968,-24.35401 7.298,-23.6023 0.3399,0.36436 2.694,8.76248 5.2314,18.66248 2.5374,9.9 4.9068,18.70938 5.2653,19.5764 1.0687,2.58432 11.2942,3.29213 11.2807,0.78086 -0.01,-1.47011 -14.8671,-49.4046 -15.5108,-50.03646 -0.3353,-0.32912 -3.5347,-0.8332 -7.1097,-1.12018 l -6.5002,-0.52178 z m 36.6021,24.30021 v 26.63962 l 16.3125,-0.20212 16.3125,-0.20213 v -4.125 -4.125 l -9,-0.184 c -13.0773,-0.26736 -12.375,0.10155 -12.375,-6.50004 0,-4.3512 0.253,-5.62755 1.1864,-5.98572 0.6525,-0.25038 4.6631,-0.45524 8.9125,-0.45524 8.65,0 8.6183,0.0227 8.6409,-6.1875 l 0.01,-2.8125 H 542.08 c -4.5037,0 -8.7225,-0.20485 -9.375,-0.45524 -1.7344,-0.66557 -1.7344,-11.92395 0,-12.58952 0.6525,-0.25038 5.715,-0.45524 11.25,-0.45524 h 10.0637 v -4.5 -4.5 h -16.875 -16.875 z m 68.0499,-26.15792 c -0.8784,1.45444 -11.0927,50.82485 -10.7175,51.80267 0.2646,0.68961 1.263,0.97896 2.85,0.82602 l 2.4426,-0.2354 4.1992,-21.19916 c 2.3096,-11.65954 4.4189,-21.41891 4.6875,-21.6875 0.2686,-0.26859 0.6843,-0.29233 0.9239,-0.0527 0.2396,0.23956 2.7555,9.6293 5.5911,20.86607 2.8355,11.23678 5.4654,20.74036 5.844,21.11907 0.3788,0.3787 1.8284,0.5796 3.2214,0.44642 2.5099,-0.23993 2.5478,-0.30001 4.1694,-6.61713 0.9001,-3.50625 3.3947,-13.20938 5.5434,-21.5625 2.1488,-8.35313 4.1903,-15.1875 4.5367,-15.1875 0.7509,0 0.4288,-1.45097 5.1602,23.24176 2.0937,10.92672 4.0922,20.15217 4.441,20.501 1.1809,1.18091 4.1714,0.20804 4.4059,-1.43334 0.2662,-1.86262 -9.3372,-47.91955 -10.4095,-49.9231 -1.1515,-2.15158 -6.4909,-1.93513 -7.4296,0.30118 -0.3897,0.92812 -2.7822,9.82791 -5.3169,19.7773 -4.5855,17.99985 -5.4151,20.56275 -6.3528,19.62499 -0.2706,-0.27047 -2.6727,-9.20445 -5.3382,-19.85328 -2.6654,-10.64883 -5.0781,-19.59736 -5.3615,-19.88562 -0.8391,-0.85361 -6.6682,-1.56818 -7.0903,-0.86918 z m 111.9501,26.14329 v 26.625 l 8.0625,-0.0232 c 11.9652,-0.0344 18.6444,-1.07517 21.6599,-3.37525 3.6245,-2.76454 4.2955,-4.50443 4.3521,-11.28486 0.046,-5.44382 -0.1516,-6.32331 -1.9426,-8.67146 -1.0962,-1.43725 -3.5431,-3.43545 -5.4375,-4.44045 -1.8944,-1.00498 -3.4444,-2.17395 -3.4444,-2.5977 0,-0.42374 2.7182,-5.40535 6.0403,-11.07024 3.3221,-5.66489 5.8213,-10.65415 5.5536,-11.08725 -0.532,-0.86072 -4.6476,-0.23561 -6.0919,0.92528 -0.4801,0.38593 -3.433,5.20452 -6.562,10.70797 -3.1289,5.50344 -6.2231,10.2112 -6.8758,10.46169 -0.6528,0.25048 -2.8106,0.45543 -4.7953,0.45543 -2.5985,0 -3.7358,-0.33202 -4.0636,-1.18635 -0.2504,-0.65248 -0.4553,-5.88373 -0.4553,-11.625 v -10.43865 h -3 -3 v 26.625 z m 19.905,2.28156 c 2.5566,0.66147 5.2727,1.95297 6.345,3.01704 1.6206,1.60806 1.875,2.52843 1.875,6.78338 0,4.42491 -0.2059,5.10007 -2.0361,6.67431 -2.5387,2.18367 -8.7171,3.51381 -14.952,3.21893 l -4.7619,-0.22522 -0.2117,-9.3334 c -0.1165,-5.13336 -0.043,-9.77399 0.164,-10.3125 0.5241,-1.36603 7.9892,-1.26846 13.5777,0.17746 z m 25.845,-2.28156 v 26.625 h 2.9823 2.9823 l 0.2052,-12.75145 c 0.1229,-7.6328 0.5028,-12.81125 0.9466,-12.90042 0.4078,-0.0819 5.5488,5.57185 11.4246,12.56395 9.7253,11.57303 10.9198,12.73379 13.3211,12.9457 2.0319,0.17929 2.6379,-0.0476 2.6379,-0.98771 0,-0.67127 -3.2062,-5.15265 -7.125,-9.95865 -3.9187,-4.80599 -7.125,-9.13291 -7.125,-9.61539 0,-0.48247 3.5335,-6.81834 7.8522,-14.07972 11.5905,-19.48811 11.3552,-18.81135 6.2529,-17.98336 -2.4974,0.40528 -3.0146,1.08058 -10.317,13.47186 -4.2282,7.17485 -7.923,13.04519 -8.2107,13.04519 -0.591,0 -4.7979,-4.36924 -7.8182,-8.12005 -1.904,-2.36442 -2.0092,-2.92393 -2.0092,-10.6875 v -8.19245 h -3 -3 z m 50.25,-25.06198 c -4.1312,1.87293 -6.75,4.23612 -6.75,6.09126 0,2.45712 2.2583,2.39859 7.304,-0.18933 6.5063,-3.33708 11.9502,-3.76975 16.6848,-1.32609 2.4981,1.28935 3.6309,2.45159 4.4019,4.51623 2.1826,5.84464 0.01,8.40915 -12.2206,14.39992 -9.7251,4.76503 -12.6552,7.17739 -13.9445,11.4807 -2.7378,9.13779 4.5121,16.93488 15.7463,16.93488 6.3216,0 13.2298,-2.89609 13.9732,-5.85787 0.873,-3.47799 -1.3709,-4.39182 -4.8293,-1.96683 -6.5453,4.58943 -16.2602,3.64815 -18.7502,-1.8167 -2.3162,-5.08357 0.6766,-8.53481 12.3364,-14.22582 4.7217,-2.30458 9.7578,-5.36313 11.1914,-6.79676 2.4847,-2.48462 2.6066,-2.85512 2.6066,-7.91699 0,-7.03559 -1.8311,-10.42299 -7.0367,-13.01703 -5.0447,-2.51388 -15.5062,-2.67023 -20.7133,-0.30957 z m -495.75,169.31198 c 0,0.34376 0.2531,0.87889 0.5625,1.1892 0.3094,0.31031 0.6453,1.63218 0.7466,2.9375 0.1682,2.16971 0.6174,6.34362 0.8472,7.872 0.1184,0.78786 6.0574,4.61768 10.9687,7.07331 16.9805,8.49011 40.011,15.04531 60,17.07781 13.2648,1.3488 39.1908,0.1343 49.9989,-2.3422 l 3.4989,-0.8017 0.2893,-4.628 c 0.1592,-2.5453 0.1034,-4.8534 -0.1238,-5.1289 -0.2273,-0.2755 -3.4508,0.042 -7.1633,0.7063 -8.2821,1.4812 -37.5947,1.6447 -48.375,0.2697 -9.9372,-1.2674 -22.794,-4.23768 -33.2385,-7.67902 -8.6633,-2.85447 -29.0258,-11.81858 -31.2615,-13.76211 -1.1691,-1.01632 -5.6173,-3.40889 -6.3377,-3.40889 -0.2268,0 -0.4123,0.28125 -0.4123,0.625 z"
           id="path1981" /><path
           style="fill:#a095ab;stroke-width:0.75"
           d="m 448.8702,213.35678 c -0.58,0.58002 0.78,7.28256 1.6553,8.15787 0.4089,0.40887 0.7434,1.48045 0.7434,2.38129 0,1.29562 0.9012,1.99538 4.3125,3.34856 17.9003,7.10063 37.4603,20.13116 53.3469,35.53886 28.1837,27.33417 45.1282,60.1436 50.7671,98.29969 1.9552,13.23031 1.7664,38.76852 -0.3771,51 -5.7225,32.65433 -18.1403,59.18448 -39.7852,84.99936 -4.2653,5.08716 -9.7402,10.99341 -12.1664,13.125 -6.1391,5.39376 -7.4972,7.89475 -6.9287,12.75889 0.2485,2.12672 0.5874,4.30043 0.7529,4.83048 1.2764,4.0862 28.1226,-21.15286 39.9996,-37.60512 24.8074,-34.36348 36.9118,-78.7838 33.0358,-121.23361 -2.4693,-27.0435 -11.6544,-54.82034 -26.0244,-78.70115 -8.5246,-14.1666 -23.8061,-32.03679 -36.8847,-43.13287 -15.9652,-13.54522 -29.5753,-21.67049 -50.0949,-29.90679 -10.7012,-4.29537 -11.6277,-4.5849 -12.3521,-3.86046 z M 346.5267,358.48109 c -5.7437,1.15114 -12.261,5.08977 -12.2543,7.4057 0,1.26588 4.1274,6.07126 5.2101,6.07126 0.3506,0 2.4406,-0.83537 4.6443,-1.85639 7.6912,-3.56336 14.2258,-2.97362 16.2488,1.46644 1.2896,2.83019 -1.0607,4.96619 -10.527,9.56754 -11.8252,5.74791 -14.0797,8.26867 -14.0797,15.74284 0,5.39861 2.5057,9.41 7.6314,12.21745 3.5982,1.9708 4.6619,2.18374 10.7436,2.15056 7.0498,-0.0385 10.1175,-0.99255 13.6875,-4.25691 2.2546,-2.06148 2.1265,-3.65294 -0.5219,-6.48813 l -2.2095,-2.36524 -3.1362,1.59999 c -1.725,0.87999 -4.9302,1.78513 -7.1228,2.01142 -3.7254,0.38451 -4.1417,0.2562 -6.3573,-1.95936 -2.1773,-2.17735 -2.2847,-2.50687 -1.3165,-4.03801 0.5799,-0.91696 5.1378,-3.69395 10.1286,-6.17111 12.7541,-6.33033 14.4731,-8.1997 14.4731,-15.73872 0,-7.80044 -5.2824,-14.07642 -12.6244,-14.99881 -7.1694,-0.90071 -9.5789,-0.96956 -12.6178,-0.36052 z m 314.237,0.0105 c -6.3913,1.26326 -12.1395,5.96309 -15.3762,12.57187 -2.3094,4.71529 -2.9139,18.83635 -1.0703,25.00161 1.4944,4.99735 5.4697,10.47145 9.5818,13.1943 2.7153,1.79796 4.0205,2.10887 9.8158,2.33825 4.9664,0.19656 7.5327,-0.0595 9.9859,-0.99638 4.2231,-1.61282 9.2527,-6.50208 11.6038,-11.28004 1.687,-3.42831 1.8394,-4.6084 1.8394,-14.23813 0,-9.4566 -0.1722,-10.84975 -1.7336,-14.01961 -2.266,-4.60033 -6.9971,-9.41477 -10.8991,-11.09101 -3.8888,-1.67054 -9.6486,-2.29099 -13.7475,-1.48086 z m 12.7096,7.18442 c 2.0759,1.45893 3.9232,3.72424 5.4113,6.63553 2.1302,4.16771 2.2587,4.91625 2.2488,13.09595 -0.011,9.23178 -0.4615,10.81484 -4.6785,16.44471 -6.5747,8.77777 -20.82,6.05476 -25.3917,-4.85365 -3.7526,-8.95415 -1.9584,-23.30933 3.6798,-29.44258 4.6578,-5.06666 13.0043,-5.90439 18.7303,-1.87996 z M 18.518902,384.96764 v 26.74041 l 3.1875,-0.0204 c 1.7531,-0.0113 8.173,-0.32575 14.2663,-0.69892 9.212,-0.56415 11.5121,-0.94623 13.6497,-2.26737 3.7631,-2.32569 5.6465,-5.81595 5.6465,-10.46362 0,-4.16183 -0.6542,-5.89049 -3.5432,-9.36215 l -1.8203,-2.18748 3.3776,-2.88705 c 4.1201,-3.52182 5.3296,-6.74535 4.6304,-12.34132 -0.3865,-3.09363 -1.0983,-4.7711 -2.8911,-6.813 -4.1704,-4.74982 -7.0459,-5.51126 -22.6725,-6.00367 l -13.8309,-0.43584 z m 23.5704,-17.03718 c 2.8885,0.98421 3.8013,1.73389 4.6843,3.84726 2.2152,5.30187 -1.6452,9.08339 -9.9539,9.75034 -6.5128,0.52278 -7.0508,-0.0313 -7.0508,-7.26184 0,-3.47857 0.3563,-6.11447 0.9,-6.65817 1.2805,-1.28052 7.2071,-1.1132 11.4204,0.32241 z m 0.9057,24.5489 c 2.9985,3.48595 1.9959,7.33575 -2.3874,9.16719 -3.1029,1.29648 -8.7126,1.38764 -9.9387,0.1615 -1.2008,-1.20082 -1.1716,-9.77105 0.037,-11.01275 0.6361,-0.65324 2.477,-0.86881 5.7261,-0.67052 4.103,0.2504 5.0424,0.58745 6.5625,2.35458 z m 34.8625,-32.04996 c -4.9183,2.45088 -9.4057,7.9336 -11.0099,13.45208 -1.4093,4.84753 -1.6078,16.56433 -0.3614,21.32657 1.7886,6.83368 7.3278,12.8288 13.9077,15.05233 4.8515,1.63945 14.2909,1.25703 18.9312,-0.76697 7.099398,-3.09651 11.636198,-9.72498 13.018798,-19.02086 2.1346,-14.35225 -4.5483,-28.35358 -14.906398,-31.23029 -1.5365,-0.42671 -5.6805,-0.77773 -9.2088,-0.78002 -5.4283,-0.004 -7.0239,0.29909 -10.3712,1.96716 z m 14.3158,7.80896 c 3.6588,1.01615 6.8783,5.00866 8.393498,10.40869 1.5,5.3461 1.5085,7.75686 0.045,12.68544 -3.066698,10.32658 -13.065398,13.86347 -19.392798,6.85986 -2.7185,-3.00916 -4.95,-8.9445 -4.95,-13.16643 0,-4.45175 2.7908,-11.82473 5.4157,-14.30749 3.609,-3.41363 5.5094,-3.863 10.4887,-2.48007 z m 31.345598,16.84935 v 26.85367 l 10.3125,-0.47261 c 11.2109,-0.51378 16.7042,-1.75779 21.3561,-4.83629 2.8171,-1.86427 6.4107,-6.34101 7.6656,-9.54943 1.1281,-2.88422 1.7369,-12.68113 1.1023,-17.73576 -1.1266,-8.972 -5.2925,-15.10255 -12.5359,-18.44757 -3.5193,-1.62526 -5.344,-1.88293 -15.9375,-2.25055 l -11.9631,-0.41514 z m 21.375,-16.21911 c 4.7986,2.2035 6.4942,4.82578 7.8975,12.21347 0.8381,4.41237 -0.3379,12.12071 -2.3445,15.36746 -2.6123,4.22685 -12.0068,7.57257 -14.4376,5.14177 -1.0741,-1.07407 -1.2404,-3.32499 -1.2404,-16.78682 0,-11.09167 0.2579,-15.80432 0.9,-16.44643 1.317,-1.31698 5.7836,-1.06978 9.225,0.51055 z m 37.8669,-1.22305 -0.01,9.1875 -7.4919,16.01405 c -4.1205,8.80773 -7.4919,16.47943 -7.4919,17.04822 0,1.35613 2.597,1.96179 7.1693,1.67195 l 3.6948,-0.23422 4.4604,-11.4525 c 2.4533,-6.29887 4.8183,-11.33805 5.2555,-11.19817 0.4373,0.13989 2.6513,4.78726 4.92,10.3275 2.2688,5.54025 4.3682,10.44681 4.6655,10.90347 0.6033,0.92678 8.3662,1.92732 10.0225,1.29177 0.5841,-0.22416 1.062,-0.71853 1.062,-1.09861 0,-0.38009 -3.2877,-7.51586 -7.3059,-15.85726 l -7.306,-15.1662 -0.213,-8.625 c -0.3131,-12.6726 0.034,-12 -6.1894,-12 h -5.2357 z m 49.5081,17.555 v 26.74249 l 11.8125,-0.47089 c 16.907,-0.67397 22.0443,-2.53872 25.0153,-9.08015 1.5856,-3.49118 1.8564,-10.16327 0.5686,-14.00953 -2.2856,-6.82666 -7.2047,-9.98234 -17.5966,-11.28846 -3.6711,-0.4614 -7.0967,-1.17208 -7.6123,-1.57927 -0.6471,-0.51108 -0.9375,-3.26684 -0.9375,-8.89852 v -8.15817 h -5.625 -5.625 z m 18.4248,1.06503 c 5.7657,1.04623 7.5644,2.27307 8.6513,5.9006 1.7585,5.8695 -1.6013,9.51582 -9.5214,10.33325 -5.8364,0.60237 -6.3047,-0.0184 -6.3047,-8.35821 0,-4.35358 0.3308,-7.21393 0.9,-7.78317 1.0897,-1.0897 0.8024,-1.08547 6.2748,-0.0925 z m 41.0742,-26.39697 c -3.9793,1.85988 -8.6646,6.67615 -10.8903,11.19483 -1.5614,3.16986 -1.7337,4.56301 -1.7337,14.01961 0,10.23891 0.055,10.59994 2.2261,14.5191 2.4232,4.37485 6.4988,8.26897 10.7903,10.30986 4.1099,1.95452 15.2359,1.72269 20.0834,-0.41846 9.9771,-4.40693 14.489,-14.69158 13.0121,-29.6605 -0.8472,-8.58629 -4.6904,-15.17254 -11.0178,-18.88149 -3.2237,-1.88967 -4.4057,-2.12932 -11.4691,-2.3254 -6.545,-0.1817 -8.4029,0.0281 -11.001,1.24245 z m 14.2126,8.62207 c 3.9258,1.67972 6.3597,4.89872 7.7206,10.21085 1.4744,5.75511 1.0986,11.29578 -1.0494,15.47332 -4.1129,7.99863 -11.3891,10.0865 -17.4317,5.00195 -3.7026,-3.11554 -5.1666,-7.10093 -5.1773,-14.09375 -0.019,-12.74819 7.2455,-20.31154 15.9378,-16.59237 z m 75.5384,16.59237 v 26.625 h 5.625 5.625 v -26.625 -26.625 h -5.625 -5.625 z m 34.5,-5.34183 c 0,16.52614 -0.2175,21.46366 -0.973,22.09071 -0.5352,0.44416 -3.6571,0.90736 -6.9375,1.02934 l -5.9645,0.22178 -0.2232,3.83661 c -0.2194,3.77182 -0.183,3.84465 2.1563,4.3125 1.3087,0.26174 9.3825,0.47589 17.9419,0.47589 8.5594,0 16.6333,-0.21415 17.942,-0.47589 2.3392,-0.46785 2.3756,-0.54068 2.1562,-4.3125 l -0.2232,-3.83661 -5.9644,-0.22178 c -3.2805,-0.12198 -6.4024,-0.58518 -6.9375,-1.02934 -0.7556,-0.62705 -0.9731,-5.56457 -0.9731,-22.09071 v -21.28317 h -6 -6 z m 35.4279,5.15433 0.1971,26.4375 5.4375,0.22036 5.4375,0.22036 v -26.65786 -26.65786 h -5.6346 -5.6346 z m 32.22,-24.09808 c -0.3998,1.39457 -3.8028,12.51972 -7.5624,24.72257 -3.7595,12.20284 -6.8355,22.89573 -6.8355,23.76196 0,2.03238 1.6532,2.48022 6.75,1.8285 l 4.125,-0.52745 4.295,-16.06018 c 5.9758,-22.34569 6.5968,-24.35401 7.298,-23.6023 0.3399,0.36436 2.694,8.76248 5.2314,18.66248 2.5374,9.9 4.9068,18.70938 5.2653,19.5764 1.0687,2.58432 11.2942,3.29213 11.2807,0.78086 -0.01,-1.47011 -14.8671,-49.4046 -15.5108,-50.03646 -0.3353,-0.32912 -3.5347,-0.8332 -7.1097,-1.12018 l -6.5002,-0.52178 z m 36.6021,24.30021 v 26.63962 l 16.3125,-0.20212 16.3125,-0.20213 v -4.125 -4.125 l -9,-0.184 c -13.0773,-0.26736 -12.375,0.10155 -12.375,-6.50004 0,-4.3512 0.253,-5.62755 1.1864,-5.98572 0.6525,-0.25038 4.6631,-0.45524 8.9125,-0.45524 8.65,0 8.6183,0.0227 8.6409,-6.1875 l 0.01,-2.8125 H 542.08 c -4.5037,0 -8.7225,-0.20485 -9.375,-0.45524 -1.7344,-0.66557 -1.7344,-11.92395 0,-12.58952 0.6525,-0.25038 5.715,-0.45524 11.25,-0.45524 h 10.0637 v -4.5 -4.5 h -16.875 -16.875 z m 68.0499,-26.15792 c -0.8784,1.45444 -11.0927,50.82485 -10.7175,51.80267 0.2646,0.68961 1.263,0.97896 2.85,0.82602 l 2.4426,-0.2354 4.1992,-21.19916 c 2.3096,-11.65954 4.4189,-21.41891 4.6875,-21.6875 0.2686,-0.26859 0.6843,-0.29233 0.9239,-0.0527 0.2396,0.23956 2.7555,9.6293 5.5911,20.86607 2.8355,11.23678 5.4654,20.74036 5.844,21.11907 0.3788,0.3787 1.8284,0.5796 3.2214,0.44642 2.5099,-0.23993 2.5478,-0.30001 4.1694,-6.61713 0.9001,-3.50625 3.3947,-13.20938 5.5434,-21.5625 2.1488,-8.35313 4.1903,-15.1875 4.5367,-15.1875 0.7509,0 0.4288,-1.45097 5.1602,23.24176 2.0937,10.92672 4.0922,20.15217 4.441,20.501 1.1809,1.18091 4.1714,0.20804 4.4059,-1.43334 0.2662,-1.86262 -9.3372,-47.91955 -10.4095,-49.9231 -1.1515,-2.15158 -6.4909,-1.93513 -7.4296,0.30118 -0.3897,0.92812 -2.7822,9.82791 -5.3169,19.7773 -4.5855,17.99985 -5.4151,20.56275 -6.3528,19.62499 -0.2706,-0.27047 -2.6727,-9.20445 -5.3382,-19.85328 -2.6654,-10.64883 -5.0781,-19.59736 -5.3615,-19.88562 -0.8391,-0.85361 -6.6682,-1.56818 -7.0903,-0.86918 z m 111.9501,26.14329 v 26.625 l 8.0625,-0.0232 c 11.9652,-0.0344 18.6444,-1.07517 21.6599,-3.37525 3.6245,-2.76454 4.2955,-4.50443 4.3521,-11.28486 0.046,-5.44382 -0.1516,-6.32331 -1.9426,-8.67146 -1.0962,-1.43725 -3.5431,-3.43545 -5.4375,-4.44045 -1.8944,-1.00498 -3.4444,-2.17395 -3.4444,-2.5977 0,-0.42374 2.7182,-5.40535 6.0403,-11.07024 3.3221,-5.66489 5.8213,-10.65415 5.5536,-11.08725 -0.532,-0.86072 -4.6476,-0.23561 -6.0919,0.92528 -0.4801,0.38593 -3.433,5.20452 -6.562,10.70797 -3.1289,5.50344 -6.2231,10.2112 -6.8758,10.46169 -0.6528,0.25048 -2.8106,0.45543 -4.7953,0.45543 -2.5985,0 -3.7358,-0.33202 -4.0636,-1.18635 -0.2504,-0.65248 -0.4553,-5.88373 -0.4553,-11.625 v -10.43865 h -3 -3 v 26.625 z m 19.905,2.28156 c 2.5566,0.66147 5.2727,1.95297 6.345,3.01704 1.6206,1.60806 1.875,2.52843 1.875,6.78338 0,4.42491 -0.2059,5.10007 -2.0361,6.67431 -2.5387,2.18367 -8.7171,3.51381 -14.952,3.21893 l -4.7619,-0.22522 -0.2117,-9.3334 c -0.1165,-5.13336 -0.043,-9.77399 0.164,-10.3125 0.5241,-1.36603 7.9892,-1.26846 13.5777,0.17746 z m 25.845,-2.28156 v 26.625 h 2.9823 2.9823 l 0.2052,-12.75145 c 0.1229,-7.6328 0.5028,-12.81125 0.9466,-12.90042 0.4078,-0.0819 5.5488,5.57185 11.4246,12.56395 9.7253,11.57303 10.9198,12.73379 13.3211,12.9457 2.0319,0.17929 2.6379,-0.0476 2.6379,-0.98771 0,-0.67127 -3.2062,-5.15265 -7.125,-9.95865 -3.9187,-4.80599 -7.125,-9.13291 -7.125,-9.61539 0,-0.48247 3.5335,-6.81834 7.8522,-14.07972 11.5905,-19.48811 11.3552,-18.81135 6.2529,-17.98336 -2.4974,0.40528 -3.0146,1.08058 -10.317,13.47186 -4.2282,7.17485 -7.923,13.04519 -8.2107,13.04519 -0.591,0 -4.7979,-4.36924 -7.8182,-8.12005 -1.904,-2.36442 -2.0092,-2.92393 -2.0092,-10.6875 v -8.19245 h -3 -3 z m 50.25,-25.06198 c -4.1312,1.87293 -6.75,4.23612 -6.75,6.09126 0,2.45712 2.2583,2.39859 7.304,-0.18933 6.5063,-3.33708 11.9502,-3.76975 16.6848,-1.32609 2.4981,1.28935 3.6309,2.45159 4.4019,4.51623 2.1826,5.84464 0.01,8.40915 -12.2206,14.39992 -9.7251,4.76503 -12.6552,7.17739 -13.9445,11.4807 -2.7378,9.13779 4.5121,16.93488 15.7463,16.93488 6.3216,0 13.2298,-2.89609 13.9732,-5.85787 0.873,-3.47799 -1.3709,-4.39182 -4.8293,-1.96683 -6.5453,4.58943 -16.2602,3.64815 -18.7502,-1.8167 -2.3162,-5.08357 0.6766,-8.53481 12.3364,-14.22582 4.7217,-2.30458 9.7578,-5.36313 11.1914,-6.79676 2.4847,-2.48462 2.6066,-2.85512 2.6066,-7.91699 0,-7.03559 -1.8311,-10.42299 -7.0367,-13.01703 -5.0447,-2.51388 -15.5062,-2.67023 -20.7133,-0.30957 z"
           id="path1979" /><path
           style="fill:#877597;stroke-width:0.75"
           d="m 469.2956,223.27055 c 0.089,1.87396 2.2709,9.57911 2.7597,9.74574 0.3238,0.11035 4.1324,2.54506 8.4636,5.41047 37.8586,25.04597 64.3398,60.33152 75.7017,100.87031 4.698,16.76261 5.6494,24.4728 5.6494,45.78598 0,20.75162 -0.549,25.80332 -4.5394,41.77157 -5.7846,23.14854 -20.5554,52.59494 -34.6594,69.09592 -2.5844,3.02362 -3.6148,4.81971 -3.3488,5.83716 0.2166,0.82813 -0.1993,2.11459 -0.9527,2.94707 -1.1669,1.28947 -1.2227,1.85872 -0.4388,4.47534 0.494,1.64887 1.1713,2.99794 1.5051,2.99794 0.8641,0 15.6177,-16.0068 19.7015,-21.375 6.3382,-8.3316 11.2606,-16.44081 16.3894,-27 8.0957,-16.66768 12.2751,-29.48731 15.5266,-47.625 1.7537,-9.78247 1.9558,-12.83403 2.0125,-30.375 0.05,-15.46894 -0.2201,-21.28297 -1.3065,-28.125 -5.9524,-37.48797 -22.4399,-70.75721 -48.4554,-97.77535 -10.4349,-10.83698 -26.0057,-23.19845 -35.5686,-28.23739 -2.1129,-1.11333 -6.7846,-3.59091 -10.3816,-5.50575 -6.4341,-3.42508 -8.1112,-4.03259 -8.0583,-2.91901 z M 296.2413,359.23043 c -1.7339,0.35062 -3.8731,1.02312 -4.7538,1.49445 -3.217,1.72167 -7.6341,6.35588 -9.5893,10.06058 -1.8961,3.59258 -2.0043,4.36443 -2.0043,14.29759 0,11.8763 0.4395,13.29287 5.8941,18.99939 5.0036,5.23467 7.9539,6.41911 15.9519,6.40407 5.9252,-0.0112 7.411,-0.28931 11.0472,-2.06834 8.151,-3.98793 11.9297,-11.23844 11.9659,-22.96012 0.032,-10.34048 -1.4597,-14.75887 -6.8379,-20.25491 -4.5448,-4.64444 -6.5806,-5.52623 -14.3962,-6.23573 -2.2687,-0.20595 -5.5437,-0.0876 -7.2776,0.26302 z m 11.0501,9.16512 c 4.3874,2.2164 6.3985,5.41525 7.4962,11.92314 2.1799,12.92382 -4.0747,22.99541 -13.762,22.16062 -4.6604,-0.4016 -7.1371,-2.25552 -9.6942,-7.25655 -1.7692,-3.46013 -2.0544,-4.89437 -2.0054,-10.08669 0.081,-8.53991 2.464,-13.98359 7.3681,-16.82776 3.4951,-2.02702 6.4605,-2.00262 10.5973,0.0872 z m 38.2275,-8.9528 c -4.6093,1.28614 -10.0569,4.3936 -10.3475,5.90246 -0.1316,0.68316 0.7486,2.34769 1.956,3.69896 l 2.1952,2.45684 4.5093,-2.02364 c 8.3873,-3.76402 14.6402,-3.10489 17.3772,1.83176 1.7887,3.22616 -0.2156,5.27022 -9.5062,9.69517 -12.8171,6.10458 -15.184,8.55244 -15.184,15.70375 0,5.7073 2.4538,9.47271 7.9979,12.27313 5.6887,2.87344 15.9515,2.18522 21.4396,-1.43774 3.3166,-2.18946 3.5129,-3.64731 0.8632,-6.41293 l -1.9493,-2.03462 -3.8632,1.79876 c -4.674,2.17626 -9.0465,2.30577 -12.2337,0.36235 -2.7585,-1.68199 -3.6741,-3.86348 -2.5238,-6.01286 0.9128,-1.70566 2.9173,-2.87161 11.7728,-6.84802 10.7328,-4.81937 13.0926,-7.41937 13.1561,-14.49546 0.054,-6.00543 -3.3955,-11.06895 -9.1596,-13.44521 -3.8733,-1.59679 -12.5075,-2.12672 -16.5,-1.0127 z m 314.692,-0.17736 c -4.0588,0.99538 -7.3686,3.1861 -10.9348,7.23754 -4.3439,4.9349 -5.4832,9.46788 -5.1144,20.34812 0.2588,7.63336 0.5433,9.20382 2.2618,12.482 2.4247,4.62536 6.7508,8.89133 10.7204,10.57155 4.318,1.82766 12.5804,1.71387 16.875,-0.23239 4.0062,-1.81554 8.2007,-6.04586 10.6235,-10.71416 1.5917,-3.06706 1.7513,-4.33304 1.7491,-13.875 0,-9.9267 -0.1113,-10.70475 -1.9977,-14.25 -2.3982,-4.50733 -6.7869,-8.90245 -10.3749,-10.39021 -3.5721,-1.48117 -10.2482,-2.05046 -13.808,-1.17745 z m 11.183,4.36456 c 6.5074,3.0128 10.195,9.63023 10.7181,19.23343 0.5927,10.87988 -1.9238,17.52899 -8.5459,22.57989 -2.4279,1.85185 -3.4693,2.13978 -7.7388,2.13978 -11.7758,0 -17.8658,-8.48438 -17.17,-23.92086 0.3561,-7.89968 2.4714,-13.47145 6.6581,-17.53766 4.1225,-4.00393 10.6359,-5.01447 16.0785,-2.49458 z M 19.268902,385.08259 v 26.07657 l 11.8125,-0.53111 c 14.4397,-0.64924 17.2821,-1.28939 20.5093,-4.61911 2.1681,-2.2369 2.5208,-3.15864 2.7828,-7.27255 0.2841,-4.46189 0.1571,-4.89818 -2.4023,-8.25116 -1.4863,-1.94709 -2.7023,-3.80977 -2.7023,-4.13929 0,-0.32953 1.4989,-1.65569 3.331,-2.94702 3.9483,-2.78302 5.3892,-6.44145 4.6026,-11.68628 -0.6929,-4.62108 -3.1124,-7.93242 -7.413,-10.14551 -3.3399,-1.71871 -4.5921,-1.88076 -17.0625,-2.20798 l -13.4581,-0.35314 z m 24.5498,-17.35778 c 4.5952,2.38521 5.8681,8.26514 2.4574,11.35178 -3.2527,2.94363 -14.2298,4.6089 -16.3572,2.48146 -1.2433,-1.24327 -1.2122,-13.4769 0.037,-14.77018 1.2929,-1.33795 10.7053,-0.70177 13.8623,0.93694 z m -2.3959,22.57196 c 4.5169,1.8873 5.3879,8.7889 1.4359,11.37834 -2.4373,1.59697 -11.1712,2.31398 -12.7029,1.04283 -1.423,-1.18098 -1.6119,-11.23491 -0.2369,-12.60989 1.2455,-1.24552 8.3502,-1.12897 11.5039,0.18872 z m 37.4711,-29.68546 c -3.5258,1.61048 -9.0363,7.35284 -10.5635,11.008 -1.8926,4.52968 -2.7447,13.40221 -1.8445,19.20468 2.0496,13.20945 9.4354,19.67727 22.533,19.73229 5.5127,0.0232 6.96,-0.26049 10.6999,-2.09695 5.037298,-2.47355 8.787398,-6.89517 10.805198,-12.73995 2.0052,-5.80826 1.7679,-16.7431 -0.4913,-22.63633 -2.1741,-5.67136 -8.0314,-11.83583 -12.388798,-13.03857 -4.8609,-1.34171 -15.2599,-1.02734 -18.75,0.56683 z m 16.4309,8.2014 c 1.3914,0.81263 3.1784,3.04538 4.4902,5.6104 1.886698,3.6893 2.178598,5.09187 2.176798,10.46026 0,5.20043 -0.3188,6.82371 -1.9668,10.07135 -2.348198,4.6275 -5.518798,7.07631 -9.784698,7.55714 -6.6298,0.74727 -11.3481,-3.28097 -13.6828,-11.68168 -1.1214,-4.03522 -1.1941,-5.49283 -0.4814,-9.65347 1.0268,-5.99476 4.1575,-11.35337 7.7101,-13.19687 3.0912,-1.60408 7.9688,-1.252 11.5386,0.83287 z m 28.944098,16.16266 v 25.98268 l 6.1875,-0.0232 c 21.9948,-0.0823 31.0732,-5.83734 32.941,-20.88219 1.6895,-13.60812 -3.0459,-24.61594 -12.3024,-28.59797 -3.3234,-1.42969 -5.7134,-1.75249 -15.3805,-2.07739 l -11.4456,-0.38464 z m 19.6279,-17.3904 c 3.5885,1.07514 7.7369,5.48912 8.818,9.3825 1.0346,3.7256 1.0197,12.55878 -0.027,16.33039 -1.1459,4.12748 -4.8018,7.52045 -9.6566,8.96218 -5.0431,1.49764 -6.3519,1.50088 -7.8333,0.0194 -0.9991,-0.9991 -1.1786,-3.66006 -1.1786,-17.475 0,-11.675 0.2552,-16.55165 0.9,-17.19642 1.1435,-1.14351 5.2034,-1.15394 8.9779,-0.0231 z m 39.6221,0.45161 v 8.9001 l -7.1555,15.25821 c -3.9356,8.39202 -7.2262,15.96245 -7.3125,16.82319 -0.1392,1.38808 0.3002,1.59102 3.8876,1.79538 2.2245,0.12673 4.3775,-0.10247 4.7843,-0.50933 0.4069,-0.40686 2.6552,-5.57196 4.9962,-11.47799 2.6331,-6.64275 4.6969,-10.82307 5.4112,-10.96063 1.2301,-0.23689 2.7762,2.8227 7.7846,15.40504 1.9124,4.80424 3.1409,6.94004 3.9953,6.94576 0.6786,0.005 2.4151,0.18552 3.8588,0.40219 5.276,0.79178 5.1714,0.17409 -2.6868,-15.86718 l -7.3081,-14.91827 -0.44,-10.125 -0.4401,-10.125 -4.6875,-0.22329 -4.6875,-0.22328 z m 49.6777,16.85897 0.1973,25.6875 6.75,0.22049 c 9.279,0.30309 18.7587,-0.96036 22.875,-3.04876 8.1892,-4.15472 9.2871,-17.64709 2.045,-25.12978 -2.7596,-2.85124 -7.1625,-4.34961 -14.9573,-5.09013 -3.0045,-0.28543 -5.8846,-0.85456 -6.4002,-1.26472 -0.6468,-0.51455 -0.9375,-3.27514 -0.9375,-8.90393 v -8.15817 h -4.8848 -4.8849 z m 20.9696,1.40546 c 3.2108,0.80285 5.6145,3.49927 6.2795,7.04433 1.009,5.37827 -3.2156,9.21377 -10.9176,9.91217 -6.4538,0.58521 -6.7592,0.16828 -6.7592,-9.22902 0,-6.59047 0.1958,-7.85812 1.3125,-8.49818 1.3354,-0.76539 5.0888,-0.47855 10.0848,0.7707 z m 128.1027,-1.21796 v 25.875 h 4.875 4.875 v -25.875 -25.875 h -4.875 -4.875 z m 34.5,-4.65 c 0,15.50834 -0.2424,21.4674 -0.9,22.125 -0.5564,0.55637 -3.2924,0.9 -7.1661,0.9 h -6.2661 l 0.2286,3.5625 0.2286,3.5625 h 19.125 19.125 l 0.2286,-3.5625 0.2286,-3.5625 h -6.2661 c -3.8736,0 -6.6097,-0.34363 -7.1661,-0.9 -0.6576,-0.6576 -0.9,-6.61666 -0.9,-22.125 v -21.225 h -5.25 -5.25 z m 35.4277,4.4625 0.1973,25.6875 4.6875,0.22329 4.6875,0.22328 v -25.91078 -25.91079 h -4.8848 -4.8849 z m 32.4788,-24.8456 c -1.3854,3.87028 -13.9839,45.68326 -14.3457,47.61151 -0.3761,2.00508 -0.1863,2.48503 1.151,2.90946 2.789,0.88519 7.5647,-0.33569 8.3114,-2.12473 0.3703,-0.88723 2.3988,-8.19439 4.5077,-16.23814 5.619,-21.43125 5.9575,-22.5 7.1264,-22.5 1.178,0 1.4334,0.82223 7.4384,23.94709 2.2954,8.83965 4.2597,16.15827 4.365,16.2636 0.6279,0.62785 7.833,0.98479 8.656,0.42881 0.7864,-0.53128 -0.569,-5.7604 -6.5487,-25.26592 -4.1472,-13.5278 -7.7149,-24.77049 -7.9281,-24.98376 -0.2133,-0.21327 -3.0824,-0.54375 -6.3757,-0.73439 -4.6438,-0.26883 -6.0709,-0.11474 -6.3577,0.68647 z m 36.3435,25.04832 v 25.89022 l 15.5625,-0.20272 15.5625,-0.20272 0.2286,-3.5625 0.2286,-3.5625 h -9.4654 c -5.206,0 -10.1182,-0.34937 -10.9161,-0.77638 -1.2474,-0.66759 -1.4507,-1.6115 -1.4507,-6.73572 0,-7.02569 -0.6022,-6.64212 10.875,-6.92684 l 7.5,-0.18606 0.2286,-3.5625 0.2286,-3.5625 h -8.2297 c -4.5264,0 -8.7636,-0.20485 -9.4161,-0.45524 -1.7449,-0.66956 -1.7449,-13.41996 0,-14.08952 0.6525,-0.25038 5.715,-0.45524 11.25,-0.45524 h 10.0636 v -3.75 -3.75 h -16.125 -16.125 z m 67.9047,-25.18811 c -0.3894,0.63001 -9.6078,42.63345 -10.6684,48.61039 -0.4092,2.30627 -0.3109,2.4375 1.8267,2.4375 h 2.2591 l 4.1914,-21.5024 c 2.3052,-11.82632 4.539,-21.85007 4.964,-22.275 0.5301,-0.53013 1.0211,-0.52402 1.5646,0.0195 0.4357,0.43564 2.7899,8.85627 5.2317,18.7125 6.6332,26.77425 5.7569,24.2954 8.5874,24.2954 h 2.4287 l 5.0266,-19.94854 c 2.7646,-10.9717 5.3348,-20.7592 5.7115,-21.75 0.9235,-2.42897 2.7609,-2.28129 3.248,0.26104 8.2351,42.99084 8.0459,42.1875 9.9372,42.1875 1.2842,0 1.7868,-0.42009 1.7868,-1.49329 0,-2.72283 -9.858,-48.3582 -10.6531,-49.31628 -1.0078,-1.2143 -4.7039,-1.21622 -5.6246,-0.003 -0.3912,0.51562 -2.7786,9.05683 -5.3054,18.98046 -5.2146,20.48007 -5.812,22.32081 -7.109,21.90454 -0.5284,-0.16959 -3.1517,-9.05322 -6.0501,-20.48803 -2.8145,-11.10375 -5.5145,-20.44128 -6,-20.75007 -1.2526,-0.79666 -4.8368,-0.71786 -5.3531,0.1177 z m 112.0953,25.28058 v 25.98267 l 11.4375,-0.39798 c 18.0026,-0.62642 21.1842,-2.70459 21.1863,-13.83822 0,-6.00402 -0.059,-6.2089 -2.6238,-8.87823 -1.4437,-1.5028 -3.8906,-3.38466 -5.4375,-4.18189 -1.5468,-0.79724 -2.8125,-1.93038 -2.8125,-2.5181 0,-0.58772 2.5313,-5.38002 5.625,-10.64956 3.0938,-5.26955 5.625,-10.01308 5.625,-10.54118 0,-1.22786 -2.3454,-1.24137 -3.9397,-0.0227 -0.6746,0.51563 -3.6219,5.15625 -6.5497,10.3125 -2.9278,5.15625 -6.0215,9.96563 -6.8749,10.6875 -2.1003,1.77641 -10.0113,1.86986 -10.6804,0.12616 -0.2504,-0.65249 -0.4553,-5.88374 -0.4553,-11.625 v -10.43866 h -2.25 -2.25 z m 18.1506,1.10482 c 7.8793,1.66037 10.826,5.18876 10.1561,12.161 -0.2903,3.02018 -0.8267,4.20085 -2.6482,5.82838 -2.8147,2.51494 -8.6372,3.82612 -15.6389,3.52175 l -5.1446,-0.22364 -0.2103,-10.08716 c -0.1156,-5.54794 -0.042,-10.52606 0.164,-11.0625 0.4721,-1.23035 7.7786,-1.30594 13.3219,-0.13783 z m 27.5994,-1.21251 v 25.875 h 2.25 2.25 v -11.93866 c 0,-12.30108 0.2565,-14.31134 1.8255,-14.31134 0.5033,0 5.7828,5.89173 11.7323,13.09273 9.1462,11.07023 11.1358,13.09771 12.8797,13.125 1.1344,0.0178 2.0625,-0.26395 2.0625,-0.62599 0,-0.36205 -3.2062,-4.57846 -7.125,-9.36982 -3.9187,-4.79136 -7.125,-9.23466 -7.125,-9.874 0,-0.63935 3.8813,-7.6931 8.625,-15.67502 4.7438,-7.98191 8.625,-14.88614 8.625,-15.34273 0,-1.1184 -2.4133,-1.05323 -3.9743,0.10733 -0.6936,0.51563 -4.4231,6.32396 -8.2878,12.90743 -3.8647,6.58345 -7.6051,12.32095 -8.3122,12.75 -1.0561,0.64083 -1.8873,0.11074 -4.6572,-2.96993 -6.0002,-6.67356 -6.2625,-7.34093 -6.2657,-15.9375 v -7.6875 h -2.25 -2.25 v 25.875 z m 48.7283,-23.8125 c -4.5708,2.39096 -6.0469,4.16891 -4.634,5.58178 0.7474,0.74741 1.8752,0.41219 5.6081,-1.66686 4.198,-2.3381 5.2574,-2.60242 10.4301,-2.60242 4.6338,0 6.1708,0.30223 7.875,1.5484 3.0369,2.22069 5.0092,6.54482 4.4193,9.689 -0.6525,3.47863 -3.679,5.8306 -13.6455,10.60447 -9.162,4.38846 -12.6217,7.46239 -13.4664,11.96444 -1.751,9.33377 8.3033,16.90559 19.3916,14.60367 6.4312,-1.33509 11.0127,-4.86577 8.9677,-6.91075 -0.5332,-0.53326 -1.8268,-0.1585 -4.1477,1.20165 -8.4162,4.93223 -18.5745,2.40795 -19.7422,-4.90583 -0.7308,-4.57687 1.8463,-7.16456 12.3172,-12.36794 13.1408,-6.53016 15.8564,-9.69467 14.7351,-17.17155 -0.6904,-4.6041 -3.0388,-7.90953 -7.0641,-9.94306 -2.7408,-1.38463 -4.5752,-1.6875 -10.2208,-1.6875 -6.0501,0 -7.3563,0.24892 -10.8234,2.0625 z"
           id="path1977" /><path
           style="fill:#6286a0;stroke-width:0.75"
           d="m 485.0189,236.6572 c 0,5.66222 1.4857,8.3661 6.553,11.92585 5.9783,4.19975 23.2884,21.181 29.8165,29.25 18.2316,22.53525 30.0867,48.55208 35.7129,78.375 1.5725,8.33507 1.7687,11.53807 1.7687,28.875 0,20.75162 -0.549,25.80332 -4.5394,41.77157 -4.038,16.15922 -13.4871,38.01984 -22.868,52.90588 l -3.893,6.17744 1.0516,6.57256 1.0516,6.57255 3.5911,-4.5 c 17.518,-21.95175 29.5232,-48.99751 34.7896,-78.375 1.7537,-9.78247 1.9558,-12.83403 2.0125,-30.375 0.05,-15.46894 -0.2201,-21.28297 -1.3065,-28.125 -6.9277,-43.63064 -28.8276,-82.67062 -61.8764,-110.30453 -7.0795,-5.91952 -19.858,-14.94547 -21.1592,-14.94547 -0.3877,0 -0.705,1.88961 -0.705,4.19915 z M 79.264102,359.86029 c -6.1258,2.02147 -11.7702,7.49267 -13.8778,13.45186 -0.6849,1.9365 -1.4283,6.40827 -1.652,9.93728 -1.0239,16.15103 6.5876,25.95802 20.7846,26.77981 10.0836,0.58368 17.542398,-3.72668 21.666998,-12.52125 1.7419,-3.7142 1.9569,-5.08539 1.9477,-12.42494 -0.01,-7.44842 -0.2156,-8.69641 -2.1232,-12.84458 -2.4412,-5.30837 -6.336998,-9.42405 -10.603198,-11.20166 -3.3588,-1.3995 -13.277,-2.12234 -16.1431,-1.17652 z m 13.4982,8.53526 c 4.1738,2.85712 6.343,8.08135 6.6174,15.9375 0.2156,6.17288 0.055,7.10262 -1.875,10.87422 -2.8128,5.49584 -5.8829,7.50078 -11.4858,7.50078 -8.2643,0 -12.7955,-5.49349 -13.3571,-16.19396 -0.4023,-7.66417 1.1103,-12.69497 5.0675,-16.85487 2.7063,-2.8449 2.9831,-2.95117 7.6876,-2.95117 3.8305,0 5.4104,0.36296 7.3454,1.6875 z M 291.2395,360.25958 c -9.8197,3.66803 -15.3475,13.97356 -14.5319,27.092 0.4997,8.0369 2.62,12.84567 7.7186,17.50543 4.8588,4.44072 8.7607,5.68192 16.334,5.1959 12.4805,-0.80096 19.7031,-8.78522 20.5739,-22.74366 0.7896,-12.65634 -4.0973,-22.5879 -12.9269,-26.27105 -4.1463,-1.72955 -13.4877,-2.15322 -17.1677,-0.77862 z m 13.2662,7.29011 c 5.5278,2.83997 8.0181,8.3945 8.0059,17.85699 -0.01,6.68811 -2.0852,12.02331 -5.9431,15.26952 -2.0899,1.75854 -3.0784,2.03185 -7.3488,2.03185 -4.1374,0 -5.3404,-0.3098 -7.4494,-1.91845 -4.4322,-3.38055 -5.8281,-7.12609 -5.8539,-15.70655 -0.021,-6.9517 0.142,-7.79698 2.2272,-11.56233 1.2373,-2.23428 3.2623,-4.67989 4.5,-5.43469 2.5675,-1.56582 9.2686,-1.86881 11.8621,-0.53634 z m 38.0132,-7.63879 c -3.8063,1.16508 -9.75,4.60505 -9.75,5.64296 0,0.5888 0.7989,1.99933 1.7754,3.13451 l 1.7753,2.06397 4.506,-2.02215 c 9.1229,-4.09413 18.1933,-1.91788 18.1933,4.36509 0,3.22539 -1.5755,4.45861 -12.3869,9.69585 -4.79,2.32032 -9.1298,4.96228 -10.0289,6.10521 -5.5323,7.03316 -2.7927,15.99389 6.0532,19.79931 5.516,2.3729 13.8737,1.92402 18.8877,-1.0144 3.8281,-2.24342 4.2666,-3.65879 1.9106,-6.16671 l -1.5644,-1.6652 -3.4981,1.56555 c -4.7468,2.12434 -10.5897,2.1654 -13.3787,0.094 -2.3977,-1.78079 -3.2187,-5.64956 -1.6101,-7.58772 0.5426,-0.65388 5.473,-3.34599 10.9563,-5.98246 10.5818,-5.08792 12.3547,-6.69335 13.3792,-12.11551 1.2298,-6.50888 -4.4493,-14.24883 -11.5693,-15.76745 -4.4439,-0.94784 -10.8066,-1.01536 -13.6506,-0.14486 z m 313.311,0.31837 c -5.7819,2.16373 -10.7514,7.22645 -13.0356,13.28028 -1.8544,4.91502 -1.8328,17.78562 0.039,23.19109 2.0826,6.01403 8.4168,12.18344 13.8462,13.48592 8.2361,1.97582 15.5601,-0.2498 20.9418,-6.36375 3.6438,-4.1395 5.3495,-8.68781 5.9028,-15.73976 0.9583,-12.21307 -3.6259,-22.42033 -12.0092,-26.73994 -3.769,-1.94203 -11.9242,-2.52116 -15.6849,-1.11384 z m 13.5388,3.03979 c 5.7641,3.01979 9.6545,9.98598 10.3624,18.55514 0.7695,9.31574 -1.2953,16.88283 -5.8889,21.58116 -3.48,3.55956 -6.2985,4.73818 -11.4463,4.78661 -8.8084,0.0829 -14.9982,-5.65187 -16.8832,-15.64182 -2.2252,-11.7929 1.2317,-23.79851 8.1083,-28.15945 2.9378,-1.86313 4.1941,-2.18265 8.582,-2.18265 2.9771,0 5.9928,0.44653 7.1657,1.06101 z m 126.8119,-3.07517 c -4.0941,1.53787 -8.1617,4.25418 -8.1617,5.45033 0,1.52458 0.8074,1.34867 5.7364,-1.24981 4.1046,-2.16393 4.817,-2.2974 11.0093,-2.0625 6.5643,0.249 6.6425,0.27498 9.1875,3.05262 2.1977,2.39859 2.5668,3.33413 2.5668,6.50496 0,5.31103 -2.1562,7.51428 -11.892,12.15111 -12.1784,5.80022 -15.108,8.62011 -15.108,14.54245 0,7.58507 7.6979,13.09605 16.9668,12.14665 4.2269,-0.43296 9.8622,-2.95335 10.5374,-4.71288 0.7438,-1.93828 -0.1979,-1.92943 -3.8955,0.0366 -2.8955,1.53953 -4.6339,1.90462 -9.0693,1.90462 -5.0681,0 -5.6897,-0.17778 -8.1383,-2.3277 -2.3461,-2.05992 -2.6511,-2.74353 -2.6511,-5.94246 0,-5.27625 2.088,-7.30946 12.9739,-12.63335 11.1967,-5.47587 13.4111,-7.56107 13.8246,-13.0174 0.4103,-5.41557 -1.9615,-10.04103 -6.3914,-12.46461 -4.0239,-2.20137 -13.3489,-2.93619 -17.4954,-1.37865 z M 17.018902,385.12737 v 25.29079 l 12.1875,-0.37978 c 13.48,-0.42007 16.2425,-1.1229 19.4647,-4.95232 3.8033,-4.5199 3.0828,-12.0736 -1.5433,-16.18175 -2.3212,-2.06128 -2.0164,-3.09381 1.6597,-5.62307 4.0546,-2.7896 5.2718,-5.56187 4.8222,-10.98308 -0.4118,-4.9651 -2.0827,-7.49767 -6.6572,-10.09011 -3.1269,-1.77203 -4.0396,-1.88863 -16.6211,-2.12323 l -13.3125,-0.24825 z m 23.0508,-18.29711 c 3.4232,1.03917 5.4492,3.91065 5.4492,7.7232 0,5.41164 -3.7655,7.72392 -13.1425,8.07047 -4.3801,0.16187 -5.8197,-0.0451 -6.3716,-0.91588 -0.835,-1.3177 -0.9692,-13.49134 -0.1619,-14.70004 0.3031,-0.45378 1.0573,-1.01028 1.676,-1.23667 1.4893,-0.54492 9.4915,0.13024 12.5508,1.05892 z m 0.1992,23.83412 c 1.546,1.08955 1.9137,2.03902 2.0956,5.41137 0.3186,5.9082 -1.0265,6.92968 -9.5673,7.26547 -7.6011,0.29885 -7.4997,0.40525 -7.5181,-7.8921 -0.014,-6.46485 0.8577,-7.20408 7.7674,-6.58514 3.2186,0.28831 6.0938,1.00504 7.2224,1.8004 z m 81.749998,-5.56177 v 25.27919 l 9.9375,-0.35636 c 12.7306,-0.45652 16.7814,-1.73249 21.9575,-6.9166 4.435,-4.44187 5.5444,-7.375 6.1244,-16.19217 0.7445,-11.31918 -3.2233,-20.08123 -11.0194,-24.33362 -3.9903,-2.17654 -4.4984,-2.25832 -15.5625,-2.50481 l -11.4375,-0.25481 z m 22.0846,-16.62463 c 4.198,2.27667 6.4349,6.94511 6.9535,14.51176 0.9268,13.52183 -5.1772,21.14358 -16.2881,20.33801 l -3.375,-0.2447 -0.4883,-4.125 c -0.2686,-2.26875 -0.5217,-10.09152 -0.5625,-17.38393 -0.089,-15.85416 -0.032,-15.9843 6.5839,-15.20066 2.3193,0.2747 5.5487,1.22174 7.1765,2.10452 z m 36.9796,0.66757 -0.3669,9.1875 -7.2236,15.24488 c -3.973,8.38468 -7.2237,15.5734 -7.2237,15.97493 0,0.41367 1.8326,0.63257 4.2287,0.50512 l 4.2287,-0.22493 4.4653,-11.4375 c 6.075,-15.56065 6.2228,-15.53503 13.3128,2.30894 2.5185,6.33845 3.6259,8.27315 5.0445,8.8125 2.1973,0.83538 5.9975,0.9078 6.4823,0.12351 0.1929,-0.31215 -2.8191,-7.14652 -6.6933,-15.1875 l -7.0441,-14.61995 -0.012,-6.45782 c -0.01,-3.5518 -0.2271,-8.02367 -0.4894,-9.9375 l -0.4769,-3.47968 h -3.9325 -3.9326 z m 49.6858,15.9375 v 25.125 l 8.4375,-0.005 c 18.5397,-0.01 25.1734,-3.05209 26.8748,-12.32611 0.86,-4.68798 -0.6053,-10.40775 -3.5467,-13.84411 -3.0338,-3.54425 -7.3066,-5.15402 -16.009,-6.03131 -3.3412,-0.33684 -6.3081,-0.84563 -6.5931,-1.13066 -0.285,-0.28502 -0.6445,-4.20716 -0.7988,-8.71585 l -0.2806,-8.19746 h -4.042 -4.0421 z m 22.8268,1.23948 c 2.72,1.23935 4.1732,4.27491 4.1732,8.71754 0,3.78213 -1.2019,5.61309 -4.9497,7.54029 -1.861,0.95695 -11.9956,1.43238 -12.8263,0.60169 -0.8182,-0.81823 -1.2371,-11.10499 -0.6198,-15.22126 l 0.5196,-3.46551 5.8336,0.44985 c 3.2085,0.24741 6.7497,0.86725 7.8694,1.3774 z m 126.4232,-1.23948 v 25.125 h 4.125 4.125 v -25.125 -25.125 h -4.125 -4.125 z m 34.3455,-3.81136 c -0.1213,11.7225 -0.5015,21.59437 -0.845,21.9375 -0.3436,0.34312 -3.4677,0.74296 -6.9426,0.88853 -5.94,0.24883 -6.345,0.37215 -6.7688,2.06083 -1.0224,4.07331 -1.1353,4.0495 19.2109,4.0495 20.3463,0 20.2333,0.0238 19.211,-4.0495 -0.4238,-1.68868 -0.8289,-1.812 -6.7688,-2.06083 -3.4749,-0.14557 -6.5991,-0.54541 -6.9426,-0.88853 -0.3435,-0.34313 -0.7238,-10.215 -0.845,-21.9375 l -0.2204,-21.31364 h -4.4342 -4.4341 z m 35.4045,3.81136 v 25.125 h 4.011 4.0111 l 0.4889,-7.99167 c 0.6257,-10.22489 0.6264,-26.59202 0,-35.39311 l -0.4871,-6.86522 h -4.0127 -4.0127 z m 30.9467,-20.0625 c -0.8446,2.78438 -4.1031,13.52541 -7.2412,23.86896 -3.138,10.34355 -5.7055,19.37168 -5.7055,20.0625 0,1.85707 7.155,1.80746 8.1428,-0.0565 0.3825,-0.72188 2.7925,-9.23105 5.3555,-18.90927 5.4438,-20.55668 5.6036,-21.02823 7.1242,-21.02823 1.6297,0 2.0273,1.18 7.203,21.375 2.5372,9.9 4.9495,18.42187 5.3607,18.9375 0.8485,1.06421 7.01,1.28583 7.635,0.27462 0.4796,-0.77601 -13.6029,-47.26448 -14.7371,-48.64962 -0.4853,-0.59261 -2.7606,-0.9375 -6.1847,-0.9375 h -5.417 l -1.5357,5.0625 z m 38.0533,20.0625 v 25.125 h 15 15 v -2.90625 c 0,-2.655 -0.2026,-2.94677 -2.3437,-3.375 -1.2891,-0.25781 -5.978,-0.46875 -10.4198,-0.46875 -9.3828,0 -8.9865,0.35079 -8.9865,-7.9549 0,-5.30205 0.097,-5.61894 1.9239,-6.31366 1.0581,-0.40229 5.2768,-0.73144 9.375,-0.73144 h 7.4511 v -3 -3 h -7.4511 c -4.0982,0 -8.3169,-0.32914 -9.375,-0.73144 -1.8695,-0.71077 -1.9239,-0.92313 -1.9239,-7.51856 0,-6.59543 0.054,-6.80779 1.9239,-7.51856 1.0581,-0.40229 6.1206,-0.73144 11.25,-0.73144 h 9.3261 v -3 -3 h -15.375 -15.375 z m 67.2103,-23.8125 c -0.6696,2.24894 -10.2103,47.26852 -10.2103,48.1793 0,0.47439 0.747,0.75468 1.6599,0.62286 1.5532,-0.22424 1.9143,-1.56679 5.612,-20.86466 3.9673,-20.7053 4.8165,-24 6.1857,-24 1.3177,0 2.0411,2.31478 7.1491,22.875 2.7669,11.1375 5.5125,20.75053 6.1011,21.36229 2.4334,2.52876 3.4455,0.0719 8.8918,-21.58424 2.9201,-11.61159 5.7236,-21.52622 6.2299,-22.03251 0.7274,-0.72738 1.1173,-0.72502 1.858,0.0112 0.5157,0.51249 2.8045,10.62062 5.0864,22.4625 3.9508,20.50265 4.2316,21.54258 5.8825,21.77953 1.3797,0.19804 1.6505,-0.0316 1.3263,-1.125 -0.2239,-0.75561 -2.4928,-11.33008 -5.0418,-23.49883 -2.5491,-12.16875 -4.9284,-22.90578 -5.2873,-23.86006 -0.5284,-1.40488 -1.1165,-1.69032 -3.0906,-1.5 l -2.438,0.23507 -5.0829,19.82274 c -2.7956,10.9025 -5.4525,20.26813 -5.9043,20.8125 -1.4546,1.75271 -2.8112,1.06068 -3.5731,-1.82274 -0.4087,-1.54687 -2.6653,-10.575 -5.0147,-20.0625 -2.3493,-9.4875 -4.6005,-17.67187 -5.0025,-18.1875 -1.1205,-1.43685 -4.8762,-1.17296 -5.3372,0.375 z m 112.7897,23.87981 v 25.19232 l 11.4375,-0.25482 c 9.7625,-0.21749 11.8668,-0.48003 14.3688,-1.79268 4.3538,-2.28417 5.8343,-5.52552 5.5366,-12.12155 -0.2237,-4.95615 -0.4528,-5.62464 -2.7337,-7.97801 -1.3693,-1.41272 -3.8103,-3.16412 -5.4244,-3.89198 -1.8179,-0.81974 -2.9348,-1.83136 -2.9348,-2.65809 0,-0.73408 2.5313,-5.61078 5.625,-10.8371 3.0938,-5.22631 5.625,-9.82917 5.625,-10.22856 0,-0.39939 -0.7302,-0.61831 -1.6228,-0.4865 -1.2094,0.1786 -3.2174,3.01057 -7.8809,11.11466 l -6.2578,10.875 -5.4317,0.46612 c -2.9916,0.25671 -5.7687,0.15658 -6.1818,-0.22287 -0.4125,-0.37894 -0.8592,-5.56682 -0.9928,-11.52861 -0.2267,-10.11721 -0.3391,-10.83964 -1.6875,-10.83964 -1.3976,0 -1.4447,0.82162 -1.4447,25.19231 z m 19.71,1.185 c 4.3188,0.94338 7.6638,4.00686 8.346,7.64367 0.7448,3.97002 -0.2682,8.48664 -2.376,10.59451 -2.3165,2.31649 -5.314,3.10539 -14.2397,3.74767 l -6.9347,0.49902 -0.7528,-1.97991 c -0.9717,-2.55584 -0.9786,-17.69059 -0.01,-20.2403 0.7355,-1.93461 0.8063,-1.9508 6.5625,-1.50173 3.2004,0.24968 7.4322,0.80636 9.404,1.23707 z m 25.7594,-13.85508 c -0.2823,6.88722 -0.2831,18.19347 0,25.125 0.4548,11.20294 0.6544,12.60277 1.7971,12.60277 1.1388,0 1.3612,-1.47667 1.9479,-12.93033 0.5643,-11.01699 0.8429,-12.96466 1.8829,-13.1623 0.8032,-0.15263 4.9816,4.26998 12.2165,12.93033 7.7852,9.32112 11.4502,13.1623 12.557,13.1623 1.824,0 2.3604,0.83404 -6.3567,-9.88614 -3.5827,-4.40612 -6.5141,-8.57347 -6.5141,-9.26078 0,-0.68732 3.7068,-7.41795 8.2373,-14.95697 9.7992,-16.30641 9.8262,-16.36443 7.4549,-16.02461 -1.3948,0.19988 -3.1636,2.63325 -8.3619,11.5035 -7.6557,13.0634 -9.2548,15.375 -10.6361,15.375 -1.5422,0 -9.4444,-9.3858 -10.2411,-12.16383 -0.3867,-1.34819 -0.7031,-5.23787 -0.7031,-8.64372 0,-5.51896 -0.1505,-6.19245 -1.3836,-6.19245 -1.2693,0 -1.4262,1.03629 -1.897,12.52223 z"
           id="path1975" /><path
           style="fill:#675a8d;stroke-width:0.75"
           d="m 82.264102,359.86029 c -6.1258,2.02147 -11.7702,7.49267 -13.8778,13.45186 -0.6849,1.9365 -1.4283,6.40827 -1.652,9.93728 -1.0239,16.15103 6.5876,25.95802 20.7846,26.77981 10.0836,0.58368 17.542398,-3.72668 21.666998,-12.52125 1.7419,-3.7142 1.9569,-5.08539 1.9477,-12.42494 -0.01,-7.44842 -0.2156,-8.69641 -2.1232,-12.84458 -2.4412,-5.30837 -6.337,-9.42405 -10.603198,-11.20166 -3.3588,-1.3995 -13.277,-2.12234 -16.1431,-1.17652 z m 13.4982,8.53526 c 4.1738,2.85712 6.342998,8.08135 6.617398,15.9375 0.2156,6.17288 0.055,7.10262 -1.875,10.87422 -2.812798,5.49584 -5.882898,7.50078 -11.485798,7.50078 -8.2643,0 -12.7955,-5.49349 -13.3571,-16.19396 -0.4023,-7.66417 1.1103,-12.69497 5.0675,-16.85487 2.7063,-2.8449 2.9831,-2.95117 7.6876,-2.95117 3.8305,0 5.4104,0.36296 7.3454,1.6875 z M 294.2395,360.25958 c -9.8197,3.66803 -15.3475,13.97356 -14.5319,27.092 0.4997,8.0369 2.62,12.84567 7.7186,17.50543 4.8588,4.44072 8.7607,5.68192 16.334,5.1959 12.4805,-0.80096 19.7031,-8.78522 20.5739,-22.74366 0.7896,-12.65634 -4.0973,-22.5879 -12.9269,-26.27105 -4.1463,-1.72955 -13.4877,-2.15322 -17.1677,-0.77862 z m 13.2662,7.29011 c 5.5278,2.83997 8.0181,8.3945 8.0059,17.85699 -0.01,6.68811 -2.0852,12.02331 -5.9431,15.26952 -2.0899,1.75854 -3.0784,2.03185 -7.3488,2.03185 -4.1374,0 -5.3404,-0.3098 -7.4494,-1.91845 -4.4322,-3.38055 -5.8281,-7.12609 -5.8539,-15.70655 -0.021,-6.9517 0.142,-7.79698 2.2272,-11.56233 1.2373,-2.23428 3.2623,-4.67989 4.5,-5.43469 2.5675,-1.56582 9.2686,-1.86881 11.8621,-0.53634 z m 38.0132,-7.63879 c -3.8063,1.16508 -9.75,4.60505 -9.75,5.64296 0,0.5888 0.7989,1.99933 1.7754,3.13451 l 1.7753,2.06397 4.506,-2.02215 c 9.1229,-4.09413 18.1933,-1.91788 18.1933,4.36509 0,3.22539 -1.5755,4.45861 -12.3869,9.69585 -4.79,2.32032 -9.1298,4.96228 -10.0289,6.10521 -5.5323,7.03316 -2.7927,15.99389 6.0532,19.79931 5.516,2.3729 13.8737,1.92402 18.8877,-1.0144 3.8281,-2.24342 4.2666,-3.65879 1.9106,-6.16671 l -1.5644,-1.6652 -3.4981,1.56555 c -4.7468,2.12434 -10.5897,2.1654 -13.3787,0.094 -2.3977,-1.78079 -3.2187,-5.64956 -1.6101,-7.58772 0.5426,-0.65388 5.473,-3.34599 10.9563,-5.98246 10.5818,-5.08792 12.3547,-6.69335 13.3792,-12.11551 1.2298,-6.50888 -4.4493,-14.24883 -11.5693,-15.76745 -4.4439,-0.94784 -10.8066,-1.01536 -13.6506,-0.14486 z m 313.311,0.31837 c -5.7819,2.16373 -10.7514,7.22645 -13.0356,13.28028 -1.8544,4.91502 -1.8328,17.78562 0.039,23.19109 2.0826,6.01403 8.4168,12.18344 13.8462,13.48592 8.2361,1.97582 15.5601,-0.2498 20.9418,-6.36375 3.6438,-4.1395 5.3495,-8.68781 5.9028,-15.73976 0.9583,-12.21307 -3.6259,-22.42033 -12.0092,-26.73994 -3.769,-1.94203 -11.9242,-2.52116 -15.6849,-1.11384 z m 13.5388,3.03979 c 5.7641,3.01979 9.6545,9.98598 10.3624,18.55514 0.7695,9.31574 -1.2953,16.88283 -5.8889,21.58116 -3.48,3.55956 -6.2985,4.73818 -11.4463,4.78661 -8.8084,0.0829 -14.9982,-5.65187 -16.8832,-15.64182 -2.2252,-11.7929 1.2317,-23.79851 8.1083,-28.15945 2.9378,-1.86313 4.1941,-2.18265 8.582,-2.18265 2.9771,0 5.9928,0.44653 7.1657,1.06101 z m 126.8119,-3.07517 c -4.0941,1.53787 -8.1617,4.25418 -8.1617,5.45033 0,1.52458 0.8074,1.34867 5.7364,-1.24981 4.1046,-2.16393 4.817,-2.2974 11.0093,-2.0625 6.5643,0.249 6.6425,0.27498 9.1875,3.05262 2.1977,2.39859 2.5668,3.33413 2.5668,6.50496 0,5.31103 -2.1562,7.51428 -11.892,12.15111 -12.1784,5.80022 -15.108,8.62011 -15.108,14.54245 0,7.58507 7.6979,13.09605 16.9668,12.14665 4.2269,-0.43296 9.8622,-2.95335 10.5374,-4.71288 0.7438,-1.93828 -0.1979,-1.92943 -3.8955,0.0366 -2.8955,1.53953 -4.6339,1.90462 -9.0693,1.90462 -5.0681,0 -5.6897,-0.17778 -8.1383,-2.3277 -2.3461,-2.05992 -2.6511,-2.74353 -2.6511,-5.94246 0,-5.27625 2.088,-7.30946 12.9739,-12.63335 11.1967,-5.47587 13.4111,-7.56107 13.8246,-13.0174 0.4103,-5.41557 -1.9615,-10.04103 -6.3914,-12.46461 -4.0239,-2.20137 -13.3489,-2.93619 -17.4954,-1.37865 z M 20.018902,385.12737 v 25.29079 l 12.1875,-0.37978 c 13.48,-0.42007 16.2425,-1.1229 19.4647,-4.95232 3.8033,-4.5199 3.0828,-12.0736 -1.5433,-16.18175 -2.3212,-2.06128 -2.0164,-3.09381 1.6597,-5.62307 4.0546,-2.7896 5.2718,-5.56187 4.8222,-10.98308 -0.4118,-4.9651 -2.0827,-7.49767 -6.6572,-10.09011 -3.1269,-1.77203 -4.0396,-1.88863 -16.6211,-2.12323 l -13.3125,-0.24825 z m 23.0508,-18.29711 c 3.4232,1.03917 5.4492,3.91065 5.4492,7.7232 0,5.41164 -3.7655,7.72392 -13.1425,8.07047 -4.3801,0.16187 -5.8197,-0.0451 -6.3716,-0.91588 -0.835,-1.3177 -0.9692,-13.49134 -0.1619,-14.70004 0.3031,-0.45378 1.0573,-1.01028 1.676,-1.23667 1.4893,-0.54492 9.4915,0.13024 12.5508,1.05892 z m 0.1992,23.83412 c 1.546,1.08955 1.9137,2.03902 2.0956,5.41137 0.3186,5.9082 -1.0265,6.92968 -9.5673,7.26547 -7.6011,0.29885 -7.4997,0.40525 -7.5181,-7.8921 -0.014,-6.46485 0.8577,-7.20408 7.7674,-6.58514 3.2186,0.28831 6.0938,1.00504 7.2224,1.8004 z m 81.749998,-5.56177 v 25.27919 l 9.9375,-0.35636 c 12.7306,-0.45652 16.7814,-1.73249 21.9575,-6.9166 4.435,-4.44187 5.5444,-7.375 6.1244,-16.19217 0.7445,-11.31918 -3.2233,-20.08123 -11.0194,-24.33362 -3.9903,-2.17654 -4.4984,-2.25832 -15.5625,-2.50481 l -11.4375,-0.25481 z m 22.0846,-16.62463 c 4.198,2.27667 6.4349,6.94511 6.9535,14.51176 0.9268,13.52183 -5.1772,21.14358 -16.2881,20.33801 l -3.375,-0.2447 -0.4883,-4.125 c -0.2686,-2.26875 -0.5217,-10.09152 -0.5625,-17.38393 -0.089,-15.85416 -0.032,-15.9843 6.5839,-15.20066 2.3193,0.2747 5.5487,1.22174 7.1765,2.10452 z m 36.9796,0.66757 -0.3669,9.1875 -7.2236,15.24488 c -3.973,8.38468 -7.2237,15.5734 -7.2237,15.97493 0,0.41367 1.8326,0.63257 4.2287,0.50512 l 4.2287,-0.22493 4.4653,-11.4375 c 6.075,-15.56065 6.2228,-15.53503 13.3128,2.30894 2.5185,6.33845 3.6259,8.27315 5.0445,8.8125 2.1973,0.83538 5.9975,0.9078 6.4823,0.12351 0.1929,-0.31215 -2.8191,-7.14652 -6.6933,-15.1875 l -7.0441,-14.61995 -0.012,-6.45782 c -0.01,-3.5518 -0.2271,-8.02367 -0.4894,-9.9375 l -0.4769,-3.47968 h -3.9325 -3.9326 z m 49.6858,15.9375 v 25.125 l 8.4375,-0.005 c 18.5397,-0.01 25.1734,-3.05209 26.8748,-12.32611 0.86,-4.68798 -0.6053,-10.40775 -3.5467,-13.84411 -3.0338,-3.54425 -7.3066,-5.15402 -16.009,-6.03131 -3.3412,-0.33684 -6.3081,-0.84563 -6.5931,-1.13066 -0.285,-0.28502 -0.6445,-4.20716 -0.7988,-8.71585 l -0.2806,-8.19746 h -4.042 -4.0421 z m 22.8268,1.23948 c 2.72,1.23935 4.1732,4.27491 4.1732,8.71754 0,3.78213 -1.2019,5.61309 -4.9497,7.54029 -1.861,0.95695 -11.9956,1.43238 -12.8263,0.60169 -0.8182,-0.81823 -1.2371,-11.10499 -0.6198,-15.22126 l 0.5196,-3.46551 5.8336,0.44985 c 3.2085,0.24741 6.7497,0.86725 7.8694,1.3774 z m 126.4232,-1.23948 v 25.125 h 4.125 4.125 v -25.125 -25.125 h -4.125 -4.125 z m 34.3455,-3.81136 c -0.1213,11.7225 -0.5015,21.59437 -0.845,21.9375 -0.3436,0.34312 -3.4677,0.74296 -6.9426,0.88853 -5.94,0.24883 -6.345,0.37215 -6.7688,2.06083 -1.0224,4.07331 -1.1353,4.0495 19.2109,4.0495 20.3463,0 20.2333,0.0238 19.211,-4.0495 -0.4238,-1.68868 -0.8289,-1.812 -6.7688,-2.06083 -3.4749,-0.14557 -6.5991,-0.54541 -6.9426,-0.88853 -0.3435,-0.34313 -0.7238,-10.215 -0.845,-21.9375 l -0.2204,-21.31364 h -4.4342 -4.4341 z m 35.4045,3.81136 v 25.125 h 4.011 4.0111 l 0.4889,-7.99167 c 0.6257,-10.22489 0.6264,-26.59202 0,-35.39311 l -0.4871,-6.86522 h -4.0127 -4.0127 z m 30.9467,-20.0625 c -0.8446,2.78438 -4.1031,13.52541 -7.2412,23.86896 -3.138,10.34355 -5.7055,19.37168 -5.7055,20.0625 0,1.85707 7.155,1.80746 8.1428,-0.0565 0.3825,-0.72188 2.7925,-9.23105 5.3555,-18.90927 5.4438,-20.55668 5.6036,-21.02823 7.1242,-21.02823 1.6297,0 2.0273,1.18 7.203,21.375 2.5372,9.9 4.9495,18.42187 5.3607,18.9375 0.8485,1.06421 7.01,1.28583 7.635,0.27462 0.4796,-0.77601 -13.6029,-47.26448 -14.7371,-48.64962 -0.4853,-0.59261 -2.7606,-0.9375 -6.1847,-0.9375 h -5.417 l -1.5357,5.0625 z m 38.0533,20.0625 v 25.125 h 15 15 v -2.90625 c 0,-2.655 -0.2026,-2.94677 -2.3437,-3.375 -1.2891,-0.25781 -5.978,-0.46875 -10.4198,-0.46875 -9.3828,0 -8.9865,0.35079 -8.9865,-7.9549 0,-5.30205 0.097,-5.61894 1.9239,-6.31366 1.0581,-0.40229 5.2768,-0.73144 9.375,-0.73144 h 7.4511 v -3 -3 h -7.4511 c -4.0982,0 -8.3169,-0.32914 -9.375,-0.73144 -1.8695,-0.71077 -1.9239,-0.92313 -1.9239,-7.51856 0,-6.59543 0.054,-6.80779 1.9239,-7.51856 1.0581,-0.40229 6.1206,-0.73144 11.25,-0.73144 h 9.3261 v -3 -3 h -15.375 -15.375 z m 67.2103,-23.8125 c -0.6696,2.24894 -10.2103,47.26852 -10.2103,48.1793 0,0.47439 0.747,0.75468 1.6599,0.62286 1.5532,-0.22424 1.9143,-1.56679 5.612,-20.86466 3.9673,-20.7053 4.8165,-24 6.1857,-24 1.3177,0 2.0411,2.31478 7.1491,22.875 2.7669,11.1375 5.5125,20.75053 6.1011,21.36229 2.4334,2.52876 3.4455,0.0719 8.8918,-21.58424 2.9201,-11.61159 5.7236,-21.52622 6.2299,-22.03251 0.7274,-0.72738 1.1173,-0.72502 1.858,0.0112 0.5157,0.51249 2.8045,10.62062 5.0864,22.4625 3.9508,20.50265 4.2316,21.54258 5.8825,21.77953 1.3797,0.19804 1.6505,-0.0316 1.3263,-1.125 -0.2239,-0.75561 -2.4928,-11.33008 -5.0418,-23.49883 -2.5491,-12.16875 -4.9284,-22.90578 -5.2873,-23.86006 -0.5284,-1.40488 -1.1165,-1.69032 -3.0906,-1.5 l -2.438,0.23507 -5.0829,19.82274 c -2.7956,10.9025 -5.4525,20.26813 -5.9043,20.8125 -1.4546,1.75271 -2.8112,1.06068 -3.5731,-1.82274 -0.4087,-1.54687 -2.6653,-10.575 -5.0147,-20.0625 -2.3493,-9.4875 -4.6005,-17.67187 -5.0025,-18.1875 -1.1205,-1.43685 -4.8762,-1.17296 -5.3372,0.375 z m 112.7897,23.87981 v 25.19232 l 11.4375,-0.25482 c 9.7625,-0.21749 11.8668,-0.48003 14.3688,-1.79268 4.3538,-2.28417 5.8343,-5.52552 5.5366,-12.12155 -0.2237,-4.95615 -0.4528,-5.62464 -2.7337,-7.97801 -1.3693,-1.41272 -3.8103,-3.16412 -5.4244,-3.89198 -1.8179,-0.81974 -2.9348,-1.83136 -2.9348,-2.65809 0,-0.73408 2.5313,-5.61078 5.625,-10.8371 3.0938,-5.22631 5.625,-9.82917 5.625,-10.22856 0,-0.39939 -0.7302,-0.61831 -1.6228,-0.4865 -1.2094,0.1786 -3.2174,3.01057 -7.8809,11.11466 l -6.2578,10.875 -5.4317,0.46612 c -2.9916,0.25671 -5.7687,0.15658 -6.1818,-0.22287 -0.4125,-0.37894 -0.8592,-5.56682 -0.9928,-11.52861 -0.2267,-10.11721 -0.3391,-10.83964 -1.6875,-10.83964 -1.3976,0 -1.4447,0.82162 -1.4447,25.19231 z m 19.71,1.185 c 4.3188,0.94338 7.6638,4.00686 8.346,7.64367 0.7448,3.97002 -0.2682,8.48664 -2.376,10.59451 -2.3165,2.31649 -5.314,3.10539 -14.2397,3.74767 l -6.9347,0.49902 -0.7528,-1.97991 c -0.9717,-2.55584 -0.9786,-17.69059 -0.01,-20.2403 0.7355,-1.93461 0.8063,-1.9508 6.5625,-1.50173 3.2004,0.24968 7.4322,0.80636 9.404,1.23707 z m 25.7594,-13.85508 c -0.2823,6.88722 -0.2831,18.19347 0,25.125 0.4548,11.20294 0.6544,12.60277 1.7971,12.60277 1.1388,0 1.3612,-1.47667 1.9479,-12.93033 0.5643,-11.01699 0.8429,-12.96466 1.8829,-13.1623 0.8032,-0.15263 4.9816,4.26998 12.2165,12.93033 7.7852,9.32112 11.4502,13.1623 12.557,13.1623 1.824,0 2.3604,0.83404 -6.3567,-9.88614 -3.5827,-4.40612 -6.5141,-8.57347 -6.5141,-9.26078 0,-0.68732 3.7068,-7.41795 8.2373,-14.95697 9.7992,-16.30641 9.8262,-16.36443 7.4549,-16.02461 -1.3948,0.19988 -3.1636,2.63325 -8.3619,11.5035 -7.6557,13.0634 -9.2548,15.375 -10.6361,15.375 -1.5422,0 -9.4444,-9.3858 -10.2411,-12.16383 -0.3867,-1.34819 -0.7031,-5.23787 -0.7031,-8.64372 0,-5.51896 -0.1505,-6.19245 -1.3836,-6.19245 -1.2693,0 -1.4262,1.03629 -1.897,12.52223 z"
           id="path1973" /></g></g></g></svg>