<?xml version="1.0" encoding="UTF-8" standalone="no"?>
<svg
   xmlns:dc="http://purl.org/dc/elements/1.1/"
   xmlns:cc="http://creativecommons.org/ns#"
   xmlns:rdf="http://www.w3.org/1999/02/22-rdf-syntax-ns#"
   xmlns:svg="http://www.w3.org/2000/svg"
   xmlns="http://www.w3.org/2000/svg"
   height="13.135983"
   width="29.153938"
   id="svg20"
   xml:space="preserve"
   viewBox="0 0 29.153938 13.135983"
   y="0px"
   x="0px"
   version="1.1"><metadata
   id="metadata26"><rdf:RDF><cc:Work
       rdf:about=""><dc:format>image/svg+xml</dc:format><dc:type
         rdf:resource="http://purl.org/dc/dcmitype/StillImage" /><dc:title></dc:title></cc:Work></rdf:RDF></metadata><defs
   id="defs24">
	
	
	
	
	
	
</defs>
<style
   id="style2"
   type="text/css">
	.st0{fill:#D32455;}
	.st1{fill:none;}
	.st2{font-family:'Europa-Bold';}
	.st3{font-size:120px;}
</style>


<g
   id="layer117"
   style="fill:#ffffff;stroke:none"
   transform="matrix(0.00331853,0,0,0.00331853,-10.160004,36.739938)"><g
     transform="matrix(1.0463358,0,0,1.0463358,-136.34545,-671.06169)"
     id="g2530"><path
       id="path1985"
       d="m 6733.0569,-6164.0204 c -191.789,-20.0273 -424.94,-89.2479 -612.16,-181.746 -374.291,-184.9211 -674.455,-483.3333 -854.6884,-849.696 -82.1533,-166.9967 -128.5228,-302.0645 -170.5833,-496.8782 -20.4805,-94.8628 -21.0585,-104.619 -21.0585,-355.057 0,-250.5862 0.5683,-260.1377 21.0943,-355.0568 44.6792,-206.5966 101.2731,-368.4027 182.8702,-522.831 289.7647,-548.4117 812.0607,-915.5863 1426.8187,-1003.0583 92.734,-13.195 387.472,-15.224 477.396,-3.286 477.006,63.325 889.152,283.5385 1206.304,644.5396 397.407,452.349 549.94,1056.6822 419.085,1660.4077 -114.304,527.3626 -494.727,1016.6124 -982.991,1264.1907 -215.729,109.3871 -435.493,176.1826 -656.099,199.4163 -87.878,9.2552 -343.616,8.7007 -435.988,-0.945 z m 428.793,-140.0852 c 232.18,-21.9377 503.128,-113.0806 696.202,-234.1912 305.738,-191.7815 523.333,-430.9625 677.181,-744.3629 120.803,-246.0889 173.739,-479.0951 173.739,-764.7379 0,-283.0845 -50.206,-507.495 -169.349,-756.9343 -255.344,-534.6028 -750.531,-898.5014 -1338.754,-983.8145 -115.12,-16.6963 -425.42,-11.9233 -534.118,8.2161 -468.741,86.848 -848.549,319.7985 -1119.885,686.8713 -317.4127,429.406 -423.2315,964.485 -292.6639,1479.8651 176.2969,695.89 774.7309,1221.6776 1490.1649,1309.2643 38.626,4.7291 82.52,9.9363 97.543,11.572 38.571,4.2 222.718,-2.5619 319.94,-11.748 z M 5290.585,-7771.9359 c -6.9082,-6.9074 -9.3641,-77.3724 -9.3641,-268.5805 0,-142.5693 2.1305,-264.7713 4.7352,-271.5601 4.0036,-10.4331 21.4562,-12.3435 112.7666,-12.3435 121.4992,0 176.0212,8.705 222.7922,35.5705 39.976,22.9626 55.97,46.9517 66.602,99.8862 12.255,61.0266 -2.229,122.4085 -38.309,162.3455 -41.671,46.1236 -80.408,60.9229 -191.06,72.9923 l -44.8689,4.8941 v 83.7157 c 0,54.7078 -3.2446,86.9604 -9.3641,93.0798 -5.2355,5.2366 -30.348,9.3643 -56.9661,9.3643 -26.6183,0 -51.7283,-4.1277 -56.9638,-9.3643 z m 202.2139,-294.9435 c 51.285,-9.4887 77.149,-34.6677 77.149,-75.1076 0,-15.0645 -3.795,-34.4795 -8.432,-43.1444 -12.041,-22.4982 -54.401,-37.8436 -104.468,-37.8436 h -43.1689 v 81.9361 c 0,93.6405 -4.3393,89.5637 78.9199,74.1595 z m 422.918,289.1196 c -47.869,-21.7328 -100.472,-73.9182 -125.149,-124.1591 -20.29,-41.3053 -21.623,-50.3198 -21.541,-145.4787 0.08,-90.5782 2.048,-105.4068 18.378,-138.4316 10.059,-20.3428 38.569,-55.7622 63.355,-78.71 55.671,-51.5407 92.028,-63.2225 181.436,-58.2952 105.705,5.8255 163.712,44.528 208.145,138.8766 18.38,39.029 20.212,51.7595 20.212,140.462 0,90.7193 -1.508,100.6137 -21.553,141.4338 -29.178,59.4129 -86.06,111.5139 -138.871,127.1969 -57.611,17.1083 -143.317,15.7632 -184.412,-2.8947 z m 153.609,-107.7283 c 16.76,-8.3849 34.788,-27.1786 46.777,-48.7594 16.961,-30.5317 19.511,-44.7925 19.551,-109.2483 0.04,-62.3743 -2.791,-79.4417 -17.828,-107.6035 -22.334,-41.8264 -57.49,-64.0049 -101.519,-64.0432 -46.517,-0.039 -75.321,17.2053 -100.502,60.176 -19.178,32.7222 -21.516,44.3671 -21.548,107.2538 -0.03,57.4682 3.116,76.5125 16.966,102.7293 36.501,69.1019 94.945,91.0948 158.103,59.4953 z m 347.075,96.8305 c -84.223,-40.3842 -90.208,-56.7435 -38.93,-106.4426 l 27.063,-26.2298 40.095,21.8232 c 56.527,30.7659 127.285,36.1517 157.755,12.0078 15.88,-12.5823 21.236,-22.9899 19.509,-37.8996 -2.06,-17.776 -16.56,-27.9372 -107.288,-75.1781 -124.464,-64.8065 -149.379,-89.7004 -154.764,-154.6304 -5.83,-70.3061 43.248,-138.8981 114.7,-160.3057 52.426,-15.7072 139.85,-11.159 183.989,9.5718 69.808,32.7896 78.735,55.6888 39.185,100.5236 -21.314,24.162 -35.78,26.5822 -60.92,10.1909 -28.037,-18.2796 -81.114,-27.1806 -111.708,-18.7332 -29.046,8.0202 -47.774,35.2648 -39.344,57.235 2.665,6.942 45.704,31.821 95.646,55.287 49.94,23.4659 100.975,49.91 113.411,58.7643 45.49,32.3919 66.674,111.2935 45.211,168.3947 -4.54,12.0822 -22.942,37.0058 -40.891,55.3865 -39.889,40.8467 -86.33,56.3206 -169.034,56.3206 -51.166,0 -66.727,-3.5706 -113.685,-26.086 z m 427.069,16.7217 c -6.907,-6.9074 -9.364,-77.3724 -9.364,-268.5805 0,-142.5693 2.131,-264.7713 4.736,-271.5601 6.901,-17.9806 116.286,-17.9806 123.186,0 2.605,6.7888 4.737,128.9908 4.737,271.5601 0,191.2081 -2.458,261.6731 -9.364,268.5805 -5.238,5.2366 -30.348,9.3643 -56.966,9.3643 -26.618,0 -51.728,-4.1277 -56.965,-9.3643 z m 358.958,0 c -6.84,-6.842 -9.364,-68.8436 -9.364,-230.2017 v -220.8374 h -61.869 c -70.958,0 -86.396,-9.0492 -86.396,-50.6416 0,-53.6562 -12.27,-50.8034 218.497,-50.8034 230.767,0 218.496,-2.8528 218.496,50.8034 0,41.5924 -15.438,50.6416 -86.395,50.6416 h -61.871 v 220.8374 c 0,161.3581 -2.521,223.3597 -9.364,230.2017 -5.39,5.3916 -31.214,9.3643 -60.866,9.3643 -29.654,0 -55.476,-3.9727 -60.868,-9.3643 z m 365.477,-5.7298 c -9.352,-17.4721 -10.099,-111.1889 -2.912,-365.3241 l 5.13,-181.4302 h 56.445 c 44.271,0 57.466,2.6623 61.182,12.3435 2.604,6.7888 4.734,128.9908 4.734,271.5601 0,191.2081 -2.455,261.6731 -9.362,268.5805 -5.291,5.2905 -30.633,9.3643 -58.253,9.3643 -40.345,0 -50.298,-2.637 -56.964,-15.0941 z m 347.441,4.1743 c -16.561,-12.8865 -172.214,-521.5043 -165.194,-539.7971 5.259,-13.7037 110.088,-15.9852 118.375,-2.5764 2.909,4.7052 28.881,96.8834 57.719,204.8405 28.837,107.957 55.634,195.6417 59.552,194.8549 3.917,-0.787 30.02,-88.5758 58.009,-195.0864 27.991,-106.5104 53.655,-198.0447 57.035,-203.4096 8.448,-13.4061 111.408,-13.3952 116.552,0.016 4.397,11.4568 -151.437,525.3226 -162.409,535.5473 -11.696,10.901 -126.892,15.5326 -139.639,5.6143 z m 371.762,1.5555 c -6.907,-6.9074 -9.364,-77.3724 -9.364,-268.5805 0,-142.5693 2.131,-264.7713 4.736,-271.5601 4.119,-10.7325 26.906,-12.3435 174.603,-12.3435 h 169.866 l 4.877,24.386 c 14.22,71.103 4.985,77.059 -119.469,77.059 h -99.818 l -4.228,52.6686 c -2.325,28.9679 -2.599,55.3045 -0.608,58.526 1.991,3.2213 30.627,6.0594 63.638,6.3067 33.007,0.2474 74.024,2.9348 91.149,5.9722 30.342,5.3816 31.276,6.5052 36.656,44.1161 3.383,23.6611 2.367,42.3921 -2.629,48.4109 -5.479,6.6044 -37.905,10.5345 -99.081,12.0091 l -90.935,2.1921 v 58.5258 58.5259 l 108.725,2.1804 c 63.892,1.2814 112.962,5.6974 119.002,10.7098 12.909,10.7131 13.587,78.2218 0.914,90.8955 -6.691,6.6916 -56.36,9.3643 -174.018,9.3643 -117.659,0 -167.325,-2.6727 -174.016,-9.3643 z m -5220.1155,0.7695 c -14.5638,-15.1304 -14.0514,-532.228 0.5422,-546.8437 12.8753,-12.8948 261.4152,-5.5591 297.9397,8.7939 93.9315,36.9118 117.7161,148.9402 47.8577,225.4165 l -16.6439,18.222 29.5884,23.7648 c 38.2913,30.7537 54.1483,62.3873 54.1483,108.0243 0,74.1726 -27.997,117.2145 -95.4414,146.7304 -45.6385,19.9723 -301.7442,32.7713 -317.991,15.8918 z m 266.4856,-111.129 c 23.6115,-15.4712 33.1548,-46.0123 23.28,-74.5075 -10.4315,-30.0952 -52.1259,-47.6494 -113.2122,-47.6637 -51.6626,-0.016 -51.7021,0.01 -56.5763,24.3738 -6.7412,33.7057 -6.1232,104.3911 0.9757,111.6837 10.6355,10.924 124.2053,0.087 145.5328,-13.8863 z m -14.0556,-242.8678 c 11.6373,-15.9152 14.4982,-57.0034 4.9634,-71.2827 -11.6628,-17.4666 -41.0508,-26.5291 -86.0275,-26.5291 h -46.2049 l -4.836,51.7825 c -2.6587,28.4802 -2.7358,55.179 -0.1706,59.3304 2.6065,4.2175 30.405,6.2481 63.0012,4.602 46.2985,-2.3379 60.5939,-6.0323 69.2725,-17.9029 z m 373.7968,344.7092 c -46.4672,-22.3536 -100.2537,-78.496 -123.6,-129.0123 -14.5455,-31.473 -16.8624,-50.4254 -16.86,-137.9313 0,-95.3522 1.3151,-104.1225 21.8909,-146.033 26.8568,-54.7007 79.2608,-102.3404 131.7559,-119.7762 61.9964,-20.592 162.0552,-13.1156 215.7087,16.1175 81.8273,44.5832 119.8958,115.2762 124.7718,231.7052 4.2957,102.5463 -14.7526,167.309 -65.9641,224.2692 -52.4216,58.3055 -84.9808,72.5396 -174.5529,76.3103 -66.0182,2.7791 -78.4041,1.0659 -113.1503,-15.6494 z m 154.4336,-101.8849 c 17.3191,-7.2365 32.4615,-23.6738 48.5213,-52.6734 21.0907,-38.0845 23.3396,-48.9343 23.288,-112.3853 -0.043,-58.0894 -3.1354,-76.0173 -17.8716,-103.7017 -22.5873,-42.4328 -57.3195,-64.014 -103.0254,-64.014 -45.704,0 -80.4368,21.5812 -103.0253,64.014 -26.1556,49.139 -25.7998,157.9433 0.6951,211.7616 30.2685,61.483 88.3542,83.3485 151.4179,56.9988 z m 311.8218,111.1681 c -7.4134,-7.6983 -9.726,-72.9599 -9.6343,-271.9347 0.061,-143.9933 3.1493,-266.5883 6.8523,-272.4337 5.3648,-8.4682 30.32,-9.8843 122.7852,-6.9686 136.6155,4.3082 171.916,14.3957 228.5439,65.3076 56.5685,50.8607 72.8171,90.2546 77.1182,186.9669 5.0412,113.3203 -14.3373,176.3248 -71.9507,233.9374 -52.7931,52.7943 -86.4106,62.9288 -231.8201,69.8877 -87.3348,4.1796 -114.2966,3.126 -121.8945,-4.7626 z m 232.2318,-118.207 c 41.2554,-28.0782 55.4312,-53.6853 64.2496,-116.0596 10.9693,-77.5978 -1.3334,-137.3192 -35.8179,-173.8838 -26.2423,-27.8243 -76.0993,-46.4286 -112.9936,-42.164 l -20.8636,2.4119 -6.199,163.1947 c -3.4098,89.757 -4.397,167.8893 -2.1955,173.6268 6.9756,18.1765 83.701,13.373 113.82,-7.126 z m 383.8495,117.4419 c -6.2507,-6.2507 -9.3642,-40.7418 -9.3642,-103.7438 v -94.3796 l -78.3998,-166.6955 c -43.1212,-91.6827 -76.5304,-171.5687 -74.2457,-177.5246 3.1335,-8.1681 18.0731,-10.2649 60.7984,-8.5337 66.1713,2.681 59.8368,-5.2279 116.0616,144.9342 18.1242,48.4083 36.771,86.7927 41.4358,85.2986 4.6654,-1.4941 27.7967,-49.8798 51.4028,-107.5238 23.6061,-57.644 45.7593,-109.1965 49.2323,-114.5614 4.0515,-6.2603 25.7141,-9.7545 60.4766,-9.7545 49.5425,0 54.1623,1.3758 54.1623,16.1271 0,8.8698 -32.9186,85.328 -73.1546,169.9073 l -73.1547,153.78 -3.2307,103.6847 c -2.4875,79.8264 -5.8535,105.3445 -14.6335,110.8976 -16.5826,10.4891 -96.405,9.0677 -107.3866,-1.9126 z m 4535.896,1.9475 c -13.002,-5.2707 -22.551,-32.918 -53.056,-153.6234 -57.69,-228.2649 -68.9,-268.1494 -75.368,-268.1494 -3.302,0 -28.007,88.6666 -54.897,197.0371 -26.89,108.3703 -52.019,203.1822 -55.841,210.6929 -5.204,10.2284 -16.635,13.6562 -45.541,13.6562 -33.615,0 -39.119,-2.2656 -42.668,-17.5578 -2.241,-9.6568 -28.603,-131.6832 -58.583,-271.1699 -50.264,-233.8551 -53.488,-254.3719 -41.404,-263.3663 17.068,-12.7047 37.575,-12.3989 50.732,0.7562 5.78,5.7808 29.286,107.6158 52.237,226.2998 22.949,118.6841 44.381,215.7894 47.628,215.7894 3.246,0 29.635,-95.0435 58.642,-211.2078 29.006,-116.1644 57.772,-216.2436 63.927,-222.3983 17.942,-17.9407 55.923,-14.2111 64.844,6.3674 6.527,15.0555 109.105,413.268 109.105,423.5522 0,2.0276 3.022,3.6865 6.716,3.6865 3.693,0 25.545,-97.1001 48.561,-215.7778 23.014,-118.6779 46.58,-220.513 52.368,-226.2999 13.311,-13.3097 26.001,-13.3257 44.148,-0.055 13.718,10.031 12.623,18.5521 -26.334,204.8405 -64.194,306.9791 -70.027,329.4834 -88.833,342.6552 -18.41,12.8956 -32.483,13.9621 -56.383,4.273 z m 389.119,-11.888 c -48.446,-24.5856 -99.32,-77.7354 -122.129,-127.5899 -14.341,-31.3472 -16.684,-50.7753 -16.628,-137.9313 0.08,-120.2503 10.5,-150.9116 74.235,-218.3013 47.117,-49.819 88.132,-66.5592 162.805,-66.4482 65.583,0.098 117.13,23.3014 163.179,73.4542 56.4101,61.4388 67.3911,94.5453 67.4951,203.4919 0.109,114.6668 -12.728,157.7678 -63.9601,214.7512 -49.564,55.1258 -85.771,72.0641 -162.25,75.9025 -55.456,2.7834 -66.931,0.8482 -102.747,-17.3291 z m 166.89,-58.5007 c 32.345,-19.7221 70.028,-71.9037 81.338,-112.6308 15.343,-55.2528 10.763,-168.7552 -8.572,-212.4791 -32.161,-72.733 -76.118,-104.3088 -145.214,-104.3088 -93.756,0 -150.098,63.7995 -163.734,185.4102 -5.848,52.1363 7.081,133.2843 27.58,173.1243 14.737,28.6383 46.942,62.1221 74.227,77.1768 26.662,14.7094 106.024,10.993 134.375,-6.2926 z m 292.4751,68.4412 c -6.918,-6.9169 -9.366,-78.9015 -9.366,-275.4617 0,-196.5601 2.448,-268.5445 9.366,-275.4616 18.708,-18.7085 242.322,-4.66 290.62,18.2579 15.792,7.4941 37.278,26.2293 47.745,41.634 16.38,24.1045 19.031,36.9974 19.031,92.5036 0,63.3548 -0.506,65.0578 -28.73,96.2968 -15.801,17.4906 -42.207,38.6756 -58.674,47.0777 -34.824,17.7659 -38.949,3.8558 41.709,140.6783 29.423,49.9154 53.501,96.4434 53.501,103.3956 0,17.2073 -56.468,17.5209 -70.682,0.3924 -5.591,-6.7361 -36.747,-58.5315 -69.237,-115.1007 l -59.071,-102.8531 -48.772,-2.3233 -48.771,-2.3232 v 111.9615 c 0,120.1381 -3.15,130.6901 -39.017,130.6901 -11.158,0 -24.502,-4.2139 -29.652,-9.3643 z m 206.905,-303.7707 c 56.382,-10.8054 80.261,-39.3935 80.261,-96.0925 0,-73.1719 -34.056,-94.3808 -159.971,-99.6238 l -54.625,-2.2746 -2.203,97.1103 c -1.21,53.4105 -0.662,101.1324 1.228,106.0485 3.852,10.0385 68.931,7.5529 135.31,-5.1679 z m 269.104,303.7707 c -6.916,-6.9169 -9.364,-78.9015 -9.364,-275.4617 0,-284.3054 0.08,-284.8258 39.018,-284.8258 36.436,0 39.017,9.6353 39.017,145.6797 0,98.5398 2.183,126.0359 9.754,122.8615 5.365,-2.2494 57.159,-61.8217 115.101,-132.3831 57.941,-70.5614 112.993,-130.3801 122.341,-132.9304 21.482,-5.8613 49.334,2.6704 49.334,15.1118 0,5.2163 -35.116,52.7997 -78.035,105.7412 -42.918,52.9414 -78.034,97.2033 -78.034,98.3599 0,1.1567 36.765,63.9181 81.699,139.4698 90.07,151.4434 105.584,179.6164 105.584,191.7469 0,14.0047 -58.848,9.5291 -71.858,-5.4651 -6.516,-7.5107 -44.289,-68.9629 -83.933,-136.5603 -39.648,-67.5972 -76.274,-122.9043 -81.394,-122.9043 -5.12,0 -27.59,21.8801 -49.934,48.6226 l -40.625,48.6226 v 82.4753 c 0,88.9396 -4.727,101.2037 -39.017,101.2037 -11.16,0 -24.504,-4.2139 -29.654,-9.3643 z m 515.915,-14.0547 c -57.768,-28.8669 -79.18,-50.3674 -67.927,-68.2068 17.548,-27.8218 29.831,-28.0093 73.528,-1.1232 34.697,21.3502 52.104,26.6628 95.372,29.1077 84.615,4.7812 130.683,-25.0499 130.683,-84.6243 0,-43.6705 -21.039,-63.2078 -120.19,-111.6158 -107.756,-52.6084 -147.766,-85.9225 -159.59,-132.8805 -15.846,-62.9345 21.838,-132.0402 88.527,-162.3366 64.588,-29.341 170.353,-12.9798 220.516,34.112 21.453,20.1411 22.034,30.7019 2.652,48.2433 -14.214,12.8625 -16.431,12.4801 -47.731,-8.233 -59.965,-39.6827 -162.631,-32.9037 -186.843,12.3371 -12.527,23.4079 -9.485,58.9111 6.825,79.6463 8.172,10.3902 58.213,40.4718 111.199,66.8482 57.175,28.4605 107.343,59.3506 123.407,75.9832 24.611,25.4842 27.294,32.7876 29.57,80.5188 2.078,43.5398 -0.562,57.7769 -15.479,83.4755 -33.27,57.3153 -88.184,82.0495 -182.326,82.1234 -45.921,0.039 -63.296,-3.9382 -102.193,-23.3753 z"
       style="fill:#fadc55;stroke-width:7.80344677" /><path
       id="path1983"
       d="m 6733.0569,-6164.0204 c -187.678,-19.5979 -421.219,-88.2022 -602.97,-177.1271 -149.447,-73.1183 -330.933,-189.8474 -320.763,-206.3062 2.718,-4.3972 1.597,-5.9284 -2.489,-3.4025 -9.656,5.9687 -30.096,-6.7375 -30.096,-18.7104 0,-5.1125 -6.604,-10.2644 -14.676,-11.4492 -17.201,-2.5243 -31.997,-15.7217 -32.5,-28.9868 -0.194,-5.1502 -4.697,-8.4481 -10.008,-7.3288 -13.227,2.7892 -176.341,-158.1193 -170.259,-167.9589 2.681,-4.3372 -1.234,-12.6729 -8.696,-18.5241 -12.535,-9.8264 -12.696,-9.4472 -2.103,4.9684 8.471,11.5251 5.919,10.6592 -9.753,-3.3109 -22.074,-19.6764 -30.038,-33.2263 -9.519,-16.1978 9.789,8.1245 11.707,6.9591 11.707,-7.1224 0,-9.2604 5.009,-24.6143 11.134,-34.1201 17.88,-27.756 28.513,-100.8187 16.71,-114.8264 -5.427,-6.4378 -12.414,-16.9724 -15.532,-23.4102 -3.117,-6.4379 2.494,-1.1755 12.47,11.6943 41.496,53.5378 113.903,134.243 177.08,197.3733 37.045,37.0188 58.577,60.4296 47.848,52.0239 l -19.51,-15.283 14.7,17.3736 c 8.084,9.5556 17.224,15.8135 20.31,13.9061 7.631,-4.7168 35.22,16.1331 35.22,26.6169 0,4.638 3.513,8.7791 7.805,9.2023 15.502,1.5287 34.92,15.4882 33.087,23.788 -1.031,4.6668 3.394,9.4253 9.831,10.5751 6.438,1.1496 45.065,24.8884 85.84,52.7527 351.054,239.913 755.218,340.0623 1190.025,294.8824 242.307,-25.1779 506.744,-114.0794 700.102,-235.3686 305.738,-191.7815 523.333,-430.9625 677.181,-744.3629 120.803,-246.0889 173.739,-479.0951 173.739,-764.7379 0,-283.0845 -50.206,-507.495 -169.349,-756.9343 -255.344,-534.6028 -750.531,-898.5014 -1338.754,-983.8145 -72.128,-10.4613 -126.495,-12.2043 -277.023,-8.8813 -194.222,4.287 -247.881,10.8396 -399.98,48.8422 -44.024,11 -84.071,17.5088 -88.995,14.4643 -5.913,-3.6536 -6.805,-2.0559 -2.629,4.7043 4.716,7.6276 2.035,9.1156 -10.51,5.8354 -9.261,-2.4218 -15.1,-1.5939 -12.978,1.8402 5.122,8.2867 -33.358,17.6791 -44.419,10.8424 -5.603,-3.4615 -6.421,-1.7379 -2.323,4.8927 4.714,7.627 2.033,9.115 -10.51,5.8348 -9.261,-2.4212 -15.026,-1.4716 -12.811,2.1107 5.444,8.8087 -24.969,17.8748 -36.356,10.8372 -5.434,-3.3588 -6.982,-2.2199 -3.857,2.8367 6.321,10.2266 -22.398,20.6572 -35.159,12.7702 -6.066,-3.7484 -6.958,-2.1808 -2.693,4.7244 4.677,7.567 2.802,8.959 -7.001,5.1963 -9.024,-3.4621 -11.57,-2.1903 -7.805,3.9024 3.863,6.2483 1.05,7.2981 -9.109,3.3994 -8.085,-3.102 -12.001,-2.9428 -8.705,0.3548 7.832,7.8317 -72.004,43.0634 -82.66,36.4777 -4.486,-2.773 -5.971,-1.5012 -3.296,2.8267 2.676,4.3274 -4.03,11.9197 -14.898,16.8719 -13.58,6.1871 -18.116,6.3426 -14.502,0.4956 2.891,-4.6785 -5.664,-2.8594 -19.012,4.0432 -13.348,6.9026 -24.27,14.3393 -24.27,16.526 0,2.1871 7.902,-0.135 17.558,-5.1589 33.96,-17.6686 6.897,2.0948 -49.89,36.4328 -31.719,19.1803 -46.932,25.8409 -33.998,14.8845 12.877,-10.9057 17.266,-17.5831 9.756,-14.8381 -13.769,5.0313 -18.643,-4.6833 -7.805,-15.5552 3.219,-3.2291 6.637,-16.9821 7.594,-30.5637 5.17,-73.3313 8.194,-86.7331 21.32,-94.4999 17.482,-10.3437 50.615,-38.4798 37.416,-31.7722 -5.364,2.726 -9.753,3.065 -9.753,0.7529 0,-8.7576 63.357,-36.0806 71.704,-30.9222 5.005,3.0935 6.58,1.905 3.684,-2.7798 -6.16,-9.9667 54.718,-35.7442 66.792,-28.2817 4.88,3.0145 6.273,1.6536 3.275,-3.1974 -6.321,-10.2266 22.398,-20.6576 35.159,-12.7706 6.067,3.749 6.958,2.181 2.693,-4.724 -4.677,-7.567 -2.802,-8.959 7.001,-5.197 7.366,2.826 11.639,2.305 9.5,-1.158 -5.431,-8.785 47.778,-26.971 58.865,-20.12 6.014,3.717 6.93,2.159 2.727,-4.642 -4.714,-7.627 -2.034,-9.116 10.511,-5.835 10.789,2.821 14.993,1.42 11.705,-3.902 -3.291,-5.321 0.916,-6.723 11.704,-3.901 10.789,2.821 14.996,1.42 11.705,-3.902 -3.288,-5.322 0.916,-6.723 11.705,-3.902 9.262,2.422 15.191,1.739 13.179,-1.518 -7.125,-11.529 174.849,-55.176 311.875,-74.802 92.662,-13.272 387.117,-15.344 477.396,-3.359 477.006,63.325 889.152,283.5385 1206.304,644.5396 397.407,452.349 549.94,1056.6822 419.085,1660.4077 -114.304,527.3626 -494.727,1016.6124 -982.991,1264.1907 -215.729,109.3871 -435.493,176.1826 -656.099,199.4163 -87.878,9.2552 -343.616,8.7007 -435.988,-0.945 z m -1069.468,-508.2862 c 0,-1.2193 -20.191,-21.4109 -44.87,-44.8696 l -44.869,-42.6526 42.652,44.87 c 39.626,41.6852 47.087,48.4444 47.087,42.6522 z m -7.802,-187.436 c 0,-1.3042 -13.17,-14.4727 -29.265,-29.2631 l -29.263,-26.8919 26.892,29.2628 c 25.032,27.2373 31.636,32.8508 31.636,26.8922 z m -54.625,-62.7491 c 0,-1.4808 -7.535,-9.3818 -16.742,-17.5577 -16.654,-14.7858 -16.694,-14.7712 -7.53,2.6923 7.608,14.4957 24.272,24.7023 24.272,14.8654 z m -125.851,59.2673 c -9.706,-12.3767 -9.43,-12.6526 2.946,-2.9462 7.511,5.8903 13.656,12.0355 13.656,13.656 0,6.4226 -6.407,2.2887 -16.602,-10.7098 z m -2408.3185,-907.9418 c -14.5638,-15.1306 -14.0514,-532.2282 0.5422,-546.8437 12.8753,-12.895 261.4152,-5.5593 297.9397,8.7937 93.9315,36.9119 117.7161,148.9402 47.8577,225.4165 l -16.6439,18.222 29.5884,23.765 c 38.2913,30.7537 54.1483,62.3873 54.1483,108.0244 0,74.1726 -27.997,117.2143 -95.4414,146.7301 -45.6385,19.9724 -301.7442,32.7715 -317.991,15.892 z m 266.4856,-111.1292 c 23.6115,-15.4709 33.1548,-46.0122 23.28,-74.5075 -10.4315,-30.095 -52.1259,-47.6492 -113.2122,-47.6635 -51.6626,-0.016 -51.7021,0.01 -56.5763,24.3736 -6.7412,33.7059 -6.1232,104.3911 0.9757,111.6837 10.6355,10.9242 124.2053,0.087 145.5328,-13.8863 z m -14.0556,-242.8676 c 11.6373,-15.9152 14.4982,-57.0034 4.9634,-71.2826 -11.6628,-17.4669 -41.0508,-26.5294 -86.0275,-26.5294 h -46.2049 l -4.836,51.7825 c -2.6587,28.4802 -2.7358,55.179 -0.1706,59.3304 2.6065,4.2175 30.405,6.2481 63.0012,4.602 46.2985,-2.3379 60.5939,-6.0323 69.2725,-17.9029 z m 373.7968,344.709 c -46.4672,-22.3536 -100.2537,-78.496 -123.6,-129.0123 -14.5455,-31.473 -16.8624,-50.4254 -16.86,-137.9313 0,-95.3522 1.3151,-104.1225 21.8909,-146.033 26.8568,-54.7007 79.2608,-102.3404 131.7559,-119.7762 61.9964,-20.592 162.0552,-13.1156 215.7087,16.1175 81.8273,44.5832 119.8958,115.2762 124.7718,231.7052 4.2957,102.5463 -14.7526,167.309 -65.9641,224.2692 -52.4216,58.3055 -84.9808,72.5396 -174.5529,76.3103 -66.0182,2.7791 -78.4041,1.0659 -113.1503,-15.6494 z m 154.4336,-101.8849 c 17.3191,-7.2365 32.4615,-23.6738 48.5213,-52.6734 21.0907,-38.0845 23.3396,-48.9343 23.288,-112.3853 -0.043,-58.0894 -3.1354,-76.0173 -17.8716,-103.7017 -22.5873,-42.4328 -57.3195,-64.014 -103.0254,-64.014 -45.704,0 -80.4368,21.5812 -103.0253,64.014 -26.1556,49.139 -25.7998,157.9433 0.6951,211.7616 30.2685,61.483 88.3542,83.3485 151.4179,56.9988 z m 311.8218,111.1681 c -7.4134,-7.6983 -9.726,-72.9599 -9.6343,-271.9347 0.061,-143.9933 3.1493,-266.5883 6.8523,-272.4337 5.3648,-8.4682 30.32,-9.8843 122.7852,-6.9686 136.6155,4.3082 171.916,14.3957 228.5439,65.3076 56.5685,50.8607 72.8171,90.2546 77.1182,186.9669 5.0412,113.3203 -14.3373,176.3248 -71.9507,233.9374 -52.7931,52.7943 -86.4106,62.9288 -231.8201,69.8877 -87.3348,4.1796 -114.2966,3.126 -121.8945,-4.7626 z m 232.2318,-118.207 c 41.2554,-28.0782 55.4312,-53.6853 64.2496,-116.0596 10.9693,-77.5978 -1.3334,-137.3192 -35.8179,-173.8838 -26.2423,-27.8243 -76.0993,-46.4286 -112.9936,-42.164 l -20.8636,2.4119 -6.199,163.1947 c -3.4098,89.757 -4.397,167.8893 -2.1955,173.6268 6.9756,18.1765 83.701,13.373 113.82,-7.126 z m 383.8495,117.4419 c -6.2507,-6.2507 -9.3642,-40.7418 -9.3642,-103.7438 v -94.3796 l -78.3998,-166.6955 c -43.1212,-91.6827 -76.5304,-171.5687 -74.2457,-177.5246 3.1335,-8.1681 18.0731,-10.2649 60.7984,-8.5337 66.1713,2.681 59.8368,-5.2279 116.0616,144.9342 18.1242,48.4083 36.771,86.7927 41.4358,85.2986 4.6654,-1.4941 27.7967,-49.8798 51.4028,-107.5238 23.6061,-57.644 45.7593,-109.1965 49.2323,-114.5614 4.0515,-6.2603 25.7141,-9.7545 60.4766,-9.7545 49.5425,0 54.1623,1.3758 54.1623,16.1271 0,8.8698 -32.9186,85.328 -73.1546,169.9073 l -73.1547,153.78 -3.2307,103.6847 c -2.4875,79.8264 -5.8535,105.3445 -14.6335,110.8976 -16.5826,10.4891 -96.405,9.0677 -107.3866,-1.9126 z m 515.0291,0 c -6.9082,-6.9074 -9.3641,-77.3724 -9.3641,-268.5805 0,-142.5693 2.1305,-264.7713 4.7352,-271.5601 4.0036,-10.4331 21.4562,-12.3435 112.7666,-12.3435 121.4992,0 176.0212,8.705 222.7922,35.5705 39.976,22.9626 55.97,46.9517 66.602,99.8862 12.255,61.0266 -2.229,122.4085 -38.309,162.3455 -41.671,46.1236 -80.408,60.9229 -191.06,72.9923 l -44.8689,4.8941 v 83.7157 c 0,54.7078 -3.2446,86.9604 -9.3641,93.0798 -5.2355,5.2366 -30.348,9.3643 -56.9661,9.3643 -26.6183,0 -51.7283,-4.1277 -56.9638,-9.3643 z m 202.2139,-294.9435 c 51.285,-9.4887 77.149,-34.6677 77.149,-75.1076 0,-15.0645 -3.795,-34.4795 -8.432,-43.1444 -12.041,-22.4982 -54.401,-37.8436 -104.468,-37.8436 h -43.1689 v 81.9361 c 0,93.6405 -4.3393,89.5637 78.9199,74.1595 z m 422.918,289.1196 c -47.869,-21.7328 -100.472,-73.9182 -125.149,-124.1591 -20.29,-41.3053 -21.623,-50.3198 -21.541,-145.4787 0.08,-90.5782 2.048,-105.4068 18.378,-138.4316 10.059,-20.3428 38.569,-55.7622 63.355,-78.71 55.671,-51.5407 92.028,-63.2225 181.436,-58.2952 105.705,5.8255 163.712,44.528 208.145,138.8766 18.38,39.029 20.212,51.7595 20.212,140.462 0,90.7193 -1.508,100.6137 -21.553,141.4338 -29.178,59.4129 -86.06,111.5139 -138.871,127.1969 -57.611,17.1083 -143.317,15.7632 -184.412,-2.8947 z m 153.609,-107.7283 c 16.76,-8.3849 34.788,-27.1786 46.777,-48.7594 16.961,-30.5317 19.511,-44.7925 19.551,-109.2483 0.04,-62.3743 -2.791,-79.4417 -17.828,-107.6035 -22.334,-41.8264 -57.49,-64.0049 -101.519,-64.0432 -46.517,-0.039 -75.321,17.2053 -100.502,60.176 -19.178,32.7222 -21.516,44.3671 -21.548,107.2538 -0.03,57.4682 3.116,76.5125 16.966,102.7293 36.501,69.1019 94.945,91.0948 158.103,59.4953 z m 347.075,96.8305 c -84.223,-40.3842 -90.208,-56.7435 -38.93,-106.4426 l 27.063,-26.2298 40.095,21.8232 c 56.527,30.7659 127.285,36.1517 157.755,12.0078 15.88,-12.5823 21.236,-22.9899 19.509,-37.8996 -2.06,-17.776 -16.56,-27.9372 -107.288,-75.1781 -124.464,-64.8065 -149.379,-89.7004 -154.764,-154.6304 -5.83,-70.3061 43.248,-138.8981 114.7,-160.3057 52.426,-15.7072 139.85,-11.159 183.989,9.5718 69.808,32.7896 78.735,55.6888 39.185,100.5236 -21.314,24.162 -35.78,26.5822 -60.92,10.1909 -28.037,-18.2796 -81.114,-27.1806 -111.708,-18.7332 -29.046,8.0202 -47.774,35.2648 -39.344,57.235 2.665,6.942 45.704,31.821 95.646,55.287 49.94,23.4659 100.975,49.91 113.411,58.7643 45.49,32.3919 66.674,111.2935 45.211,168.3947 -4.54,12.0822 -22.942,37.0058 -40.891,55.3865 -39.889,40.8467 -86.33,56.3206 -169.034,56.3206 -51.166,0 -66.727,-3.5706 -113.685,-26.086 z m 427.069,16.7217 c -6.907,-6.9074 -9.364,-77.3724 -9.364,-268.5805 0,-142.5693 2.131,-264.7713 4.736,-271.5601 6.901,-17.9806 116.286,-17.9806 123.186,0 2.605,6.7888 4.737,128.9908 4.737,271.5601 0,191.2081 -2.458,261.6731 -9.364,268.5805 -5.238,5.2366 -30.348,9.3643 -56.966,9.3643 -26.618,0 -51.728,-4.1277 -56.965,-9.3643 z m 358.958,0 c -6.84,-6.842 -9.364,-68.8436 -9.364,-230.2017 v -220.8374 h -61.869 c -70.958,0 -86.396,-9.0492 -86.396,-50.6416 0,-53.6562 -12.27,-50.8034 218.497,-50.8034 230.767,0 218.496,-2.8528 218.496,50.8034 0,41.5924 -15.438,50.6416 -86.395,50.6416 h -61.871 v 220.8374 c 0,161.3581 -2.521,223.3597 -9.364,230.2017 -5.39,5.3916 -31.214,9.3643 -60.866,9.3643 -29.654,0 -55.476,-3.9727 -60.868,-9.3643 z m 365.477,-5.7298 c -9.352,-17.4721 -10.099,-111.1889 -2.912,-365.3241 l 5.13,-181.4302 h 56.445 c 44.271,0 57.466,2.6623 61.182,12.3435 2.604,6.7888 4.734,128.9908 4.734,271.5601 0,191.2081 -2.455,261.6731 -9.362,268.5805 -5.291,5.2905 -30.633,9.3643 -58.253,9.3643 -40.345,0 -50.298,-2.637 -56.964,-15.0941 z m 347.441,4.1743 c -16.561,-12.8865 -172.214,-521.5043 -165.194,-539.7971 5.259,-13.7037 110.088,-15.9852 118.375,-2.5764 2.909,4.7052 28.881,96.8834 57.719,204.8405 28.837,107.957 55.634,195.6417 59.552,194.8549 3.917,-0.787 30.02,-88.5758 58.009,-195.0864 27.991,-106.5104 53.655,-198.0447 57.035,-203.4096 8.448,-13.4061 111.408,-13.3952 116.552,0.016 4.397,11.4568 -151.437,525.3226 -162.409,535.5473 -11.696,10.901 -126.892,15.5326 -139.639,5.6143 z m 371.762,1.5555 c -6.907,-6.9074 -9.364,-77.3724 -9.364,-268.5805 0,-142.5693 2.131,-264.7713 4.736,-271.5601 4.119,-10.7325 26.906,-12.3435 174.603,-12.3435 h 169.866 l 4.877,24.386 c 14.22,71.103 4.985,77.059 -119.469,77.059 h -99.818 l -4.228,52.6686 c -2.325,28.9679 -2.599,55.3045 -0.608,58.526 1.991,3.2213 30.627,6.0594 63.638,6.3067 33.007,0.2474 74.024,2.9348 91.149,5.9722 30.342,5.3816 31.276,6.5052 36.656,44.1161 3.383,23.6611 2.367,42.3921 -2.629,48.4109 -5.479,6.6044 -37.905,10.5345 -99.081,12.0091 l -90.935,2.1921 v 58.5258 58.5259 l 108.725,2.1804 c 63.892,1.2814 112.962,5.6974 119.002,10.7098 12.909,10.7131 13.587,78.2218 0.914,90.8955 -6.691,6.6916 -56.36,9.3643 -174.018,9.3643 -117.659,0 -167.325,-2.6727 -174.016,-9.3643 z m 1024.344,1.9475 c -13.002,-5.2707 -22.551,-32.918 -53.056,-153.6234 -57.69,-228.2649 -68.9,-268.1494 -75.368,-268.1494 -3.302,0 -28.007,88.6666 -54.897,197.0371 -26.89,108.3703 -52.019,203.1822 -55.841,210.6929 -5.204,10.2284 -16.635,13.6562 -45.541,13.6562 -33.615,0 -39.119,-2.2656 -42.668,-17.5578 -2.241,-9.6568 -28.603,-131.6832 -58.583,-271.1699 -50.264,-233.8551 -53.488,-254.3719 -41.404,-263.3663 17.068,-12.7047 37.575,-12.3989 50.732,0.7562 5.78,5.7808 29.286,107.6158 52.237,226.2998 22.949,118.6841 44.381,215.7894 47.628,215.7894 3.246,0 29.635,-95.0435 58.642,-211.2078 29.006,-116.1644 57.772,-216.2436 63.927,-222.3983 17.942,-17.9407 55.923,-14.2111 64.844,6.3674 6.527,15.0555 109.105,413.268 109.105,423.5522 0,2.0276 3.022,3.6865 6.716,3.6865 3.693,0 25.545,-97.1001 48.561,-215.7778 23.014,-118.6779 46.58,-220.513 52.368,-226.2999 13.311,-13.3097 26.001,-13.3257 44.148,-0.055 13.718,10.031 12.623,18.5521 -26.334,204.8405 -64.194,306.9791 -70.027,329.4834 -88.833,342.6552 -18.41,12.8956 -32.483,13.9621 -56.383,4.273 z m 389.119,-11.888 c -48.446,-24.5856 -99.32,-77.7354 -122.129,-127.5899 -14.341,-31.3472 -16.684,-50.7753 -16.628,-137.9313 0.08,-120.2503 10.5,-150.9116 74.235,-218.3013 47.117,-49.819 88.132,-66.5592 162.805,-66.4482 65.583,0.098 117.13,23.3014 163.179,73.4542 56.4101,61.4388 67.3911,94.5453 67.4951,203.4919 0.109,114.6668 -12.728,157.7678 -63.9601,214.7512 -49.564,55.1258 -85.771,72.0641 -162.25,75.9025 -55.456,2.7834 -66.931,0.8482 -102.747,-17.3291 z m 166.89,-58.5007 c 32.345,-19.7221 70.028,-71.9037 81.338,-112.6308 15.343,-55.2528 10.763,-168.7552 -8.572,-212.4791 -32.161,-72.733 -76.118,-104.3088 -145.214,-104.3088 -93.756,0 -150.098,63.7995 -163.734,185.4102 -5.848,52.1363 7.081,133.2843 27.58,173.1243 14.737,28.6383 46.942,62.1221 74.227,77.1768 26.662,14.7094 106.024,10.993 134.375,-6.2926 z m 292.4751,68.4412 c -6.918,-6.9169 -9.366,-78.9015 -9.366,-275.4617 0,-196.5601 2.448,-268.5445 9.366,-275.4616 18.708,-18.7085 242.322,-4.66 290.62,18.2579 15.792,7.4941 37.278,26.2293 47.745,41.634 16.38,24.1045 19.031,36.9974 19.031,92.5036 0,63.3548 -0.506,65.0578 -28.73,96.2968 -15.801,17.4906 -42.207,38.6756 -58.674,47.0777 -34.824,17.7659 -38.949,3.8558 41.709,140.6783 29.423,49.9154 53.501,96.4434 53.501,103.3956 0,17.2073 -56.468,17.5209 -70.682,0.3924 -5.591,-6.7361 -36.747,-58.5315 -69.237,-115.1007 l -59.071,-102.8531 -48.772,-2.3233 -48.771,-2.3232 v 111.9615 c 0,120.1381 -3.15,130.6901 -39.017,130.6901 -11.158,0 -24.502,-4.2139 -29.652,-9.3643 z m 206.905,-303.7707 c 56.382,-10.8054 80.261,-39.3935 80.261,-96.0925 0,-73.1719 -34.056,-94.3808 -159.971,-99.6238 l -54.625,-2.2746 -2.203,97.1103 c -1.21,53.4105 -0.662,101.1324 1.228,106.0485 3.852,10.0385 68.931,7.5529 135.31,-5.1679 z m 269.104,303.7707 c -6.916,-6.9169 -9.364,-78.9015 -9.364,-275.4617 0,-284.3054 0.08,-284.8258 39.018,-284.8258 36.436,0 39.017,9.6353 39.017,145.6797 0,98.5398 2.183,126.0359 9.754,122.8615 5.365,-2.2494 57.159,-61.8217 115.101,-132.3831 57.941,-70.5614 112.993,-130.3801 122.341,-132.9304 21.482,-5.8613 49.334,2.6704 49.334,15.1118 0,5.2163 -35.116,52.7997 -78.035,105.7412 -42.918,52.9414 -78.034,97.2033 -78.034,98.3599 0,1.1567 36.765,63.9181 81.699,139.4698 90.07,151.4434 105.584,179.6164 105.584,191.7469 0,14.0047 -58.848,9.5291 -71.858,-5.4651 -6.516,-7.5107 -44.289,-68.9629 -83.933,-136.5603 -39.648,-67.5972 -76.274,-122.9043 -81.394,-122.9043 -5.12,0 -27.59,21.8801 -49.934,48.6226 l -40.625,48.6226 v 82.4753 c 0,88.9396 -4.727,101.2037 -39.017,101.2037 -11.16,0 -24.504,-4.2139 -29.654,-9.3643 z m 515.915,-14.0547 c -57.768,-28.8669 -79.18,-50.3674 -67.927,-68.2068 17.548,-27.8218 29.831,-28.0093 73.528,-1.1232 34.697,21.3502 52.104,26.6628 95.372,29.1077 84.615,4.7812 130.683,-25.0499 130.683,-84.6243 0,-43.6705 -21.039,-63.2078 -120.19,-111.6158 -107.756,-52.6084 -147.766,-85.9225 -159.59,-132.8805 -15.846,-62.9345 21.838,-132.0402 88.527,-162.3366 64.588,-29.341 170.353,-12.9798 220.516,34.112 21.453,20.1411 22.034,30.7019 2.652,48.2433 -14.214,12.8625 -16.431,12.4801 -47.731,-8.233 -59.965,-39.6827 -162.631,-32.9037 -186.843,12.3371 -12.527,23.4079 -9.485,58.9111 6.825,79.6463 8.172,10.3902 58.213,40.4718 111.199,66.8482 57.175,28.4605 107.343,59.3506 123.407,75.9832 24.611,25.4842 27.294,32.7876 29.57,80.5188 2.078,43.5398 -0.562,57.7769 -15.479,83.4755 -33.27,57.3153 -88.184,82.0495 -182.326,82.1234 -45.921,0.039 -63.296,-3.9382 -102.193,-23.3753 z m -5955.2458,-202.881 c 0,-10.7298 1.7722,-15.1191 3.9361,-9.7543 2.1657,5.3649 2.1657,14.1437 0,19.5086 -2.1639,5.3648 -3.9361,0.9754 -3.9361,-9.7543 z m 0,-117.0518 c 0,-10.7296 1.7722,-15.1192 3.9361,-9.7543 2.1657,5.365 2.1657,14.1438 0,19.5088 -2.1639,5.3647 -3.9361,0.9753 -3.9361,-9.7545 z m 396.7447,-1056.4116 c 0,-1.6203 6.143,-7.7657 13.656,-13.6559 12.376,-9.7067 12.652,-9.4304 2.947,2.9459 -10.195,12.9995 -16.603,17.1328 -16.603,10.71 z m 46.821,-54.1193 c 0,-1.3435 11.412,-12.7559 25.36,-25.3615 l 25.361,-22.9198 -22.919,25.3616 c -21.365,23.64 -27.802,28.9481 -27.802,22.9197 z m -124.855,-62.9322 c 0,-1.6204 6.143,-7.7658 13.655,-13.656 12.376,-9.7067 12.653,-9.4304 2.947,2.9464 -10.195,12.9985 -16.602,17.1318 -16.602,10.7096 z m 265.317,-78.99 c 10.079,-10.7296 20.083,-19.5083 22.229,-19.5083 2.146,0 -4.345,8.7787 -14.427,19.5083 -10.079,10.7295 -20.083,19.5082 -22.229,19.5082 -2.146,0 4.345,-8.7787 14.427,-19.5082 z m -156.069,-39.0171 c 23.312,-23.6052 44.14,-42.9188 46.286,-42.9188 2.146,0 -15.172,19.3136 -38.484,42.9188 -23.312,23.6052 -44.142,42.9184 -46.288,42.9184 -2.146,0 15.174,-19.3132 38.486,-42.9184 z m 202.889,0.9549 c 0,-1.6203 6.146,-7.7652 13.656,-13.6559 12.376,-9.7067 12.653,-9.4304 2.947,2.9464 -10.195,12.999 -16.603,17.1323 -16.603,10.7095 z m 39.016,-31.2133 c 0,-1.6208 6.146,-7.7657 13.656,-13.6565 12.378,-9.7061 12.653,-9.4298 2.947,2.947 -10.195,12.9985 -16.603,17.1318 -16.603,10.7095 z m -152.166,-51.678 c 7.768,-8.5841 15.879,-15.6069 18.025,-15.6069 2.146,0 -2.454,7.0228 -10.223,15.6069 -7.766,8.5841 -15.879,15.6069 -18.025,15.6069 -2.145,0 2.454,-7.0228 10.223,-15.6069 z m 42.918,-34.1602 c 0,-1.6198 6.146,-7.7658 13.656,-13.6555 12.377,-9.7067 12.653,-9.4309 2.947,2.9459 -10.195,12.9985 -16.603,17.1318 -16.603,10.7096 z m 249.711,-172.2308 c 0,-2.1455 10.534,-9.3486 23.411,-16.0071 12.875,-6.6585 23.409,-10.3505 23.409,-8.2039 0,2.1455 -10.534,9.3486 -23.409,16.0076 -12.877,6.658 -23.411,10.35 -23.411,8.2034 z"
       style="fill:#e6a09d;stroke-width:7.80344677" /><path
       id="path1981"
       d="m 6627.3139,-6194.9301 c -149.785,-21.599 -349.358,-85.0553 -499.42,-158.7957 -203.003,-99.7559 -371.14,-221.7333 -520.879,-377.8818 -78.444,-81.8012 -86.993,-98.9844 -64.218,-129.0879 6.255,-8.2661 13.546,-31.4372 16.207,-51.4909 l 4.838,-36.4619 98.644,101.1344 c 120.321,123.3567 188.37,180.8542 314.186,265.4701 196.83,132.3752 425.179,231.0187 619.43,267.5854 113.244,21.3179 133.085,28.3941 129.939,46.343 -1.496,8.5308 -4.482,30.4349 -6.638,48.6754 -4.423,37.4237 -3.759,37.2469 -92.089,24.5099 z m 915.358,-65.725 c -6.034,-6.0348 8.117,-75.7722 17.224,-84.8793 4.254,-4.254 7.733,-15.4033 7.733,-24.7764 0,-13.4804 9.378,-20.7611 44.872,-34.8402 186.245,-73.8794 389.759,-209.4568 555.051,-369.7677 293.24,-284.401 469.541,-625.7698 528.212,-1022.7684 20.343,-137.656 18.378,-403.3709 -3.924,-530.6344 -59.539,-339.7553 -188.742,-615.7903 -413.948,-884.3838 -44.381,-52.9298 -101.344,-114.382 -126.587,-136.5604 -63.874,-56.1198 -78.007,-82.1415 -72.092,-132.7513 2.587,-22.1272 6.114,-44.7443 7.836,-50.2591 13.28,-42.5155 292.603,220.087 416.178,391.2664 258.111,357.538 384.054,819.7131 343.724,1261.3863 -25.69,281.3768 -121.257,570.3835 -270.773,818.8537 -88.695,147.3977 -247.692,333.3297 -383.769,448.78 -166.112,140.9327 -307.72,225.4727 -521.218,311.1682 -111.343,44.6915 -120.98,47.704 -128.519,40.1664 z m -1064.843,-1509.9597 c -59.761,-11.9771 -127.57,-52.9569 -127.501,-77.0533 0.04,-13.171 42.944,-63.1691 54.209,-63.1691 3.649,0 25.393,8.6918 48.323,19.315 80.024,37.0754 148.014,30.9394 169.063,-15.2576 13.416,-29.447 -11.037,-51.6712 -109.53,-99.5465 -123.037,-59.8047 -146.494,-86.0322 -146.494,-163.7978 0,-56.1703 26.07,-97.9074 79.402,-127.1178 37.438,-20.5053 48.505,-22.7209 111.783,-22.3755 73.349,0.4003 105.268,10.3269 142.413,44.2913 23.457,21.4489 22.126,38.0073 -5.43,67.5065 l -22.991,24.6093 -32.63,-16.6472 c -17.947,-9.1561 -51.297,-18.5737 -74.108,-20.9281 -38.762,-4.0006 -43.094,-2.6656 -66.145,20.3862 -22.654,22.6546 -23.773,26.0832 -13.7,42.0141 6.034,9.5405 53.457,38.4341 105.384,64.2078 132.701,65.8646 150.587,85.3145 150.587,163.7551 0,81.1604 -54.96,146.4593 -131.352,156.0566 -74.593,9.3714 -99.663,10.0877 -131.283,3.751 z m 3269.509,-0.1093 c -66.499,-13.1437 -126.307,-62.0435 -159.983,-130.8052 -24.03,-49.0606 -30.318,-195.9845 -11.137,-260.1316 15.55,-51.9955 56.911,-108.9513 99.696,-137.2814 28.251,-18.7072 41.832,-21.942 102.129,-24.3286 51.673,-2.0451 78.376,0.6189 103.899,10.3669 43.94,16.7807 96.271,67.6516 120.7331,117.3644 17.552,35.6701 19.14,47.9484 19.14,148.142 0,98.392 -1.793,112.8872 -18.039,145.8683 -23.5771,47.8646 -72.8011,97.957 -113.4011,115.3974 -40.461,17.3814 -100.389,23.8369 -143.037,15.4078 z m 132.238,-74.7509 c 21.6,-15.1795 40.821,-38.7493 56.302,-69.0401 22.164,-43.3633 23.503,-51.1516 23.4,-136.258 -0.117,-96.053 -4.803,-112.5242 -48.679,-171.1008 -68.408,-91.329 -216.623,-62.9971 -264.19,50.5004 -39.044,93.1645 -20.378,242.5243 38.287,306.3383 48.462,52.7165 135.304,61.4327 194.88,19.5602 z M 3065.041,-8046.1967 V -8324.42 l 33.1651,0.2125 c 18.2413,0.117 85.0361,3.3892 148.4356,7.2719 95.8464,5.8698 119.7786,9.845 142.0192,23.5911 39.1535,24.1977 58.75,60.5125 58.75,108.8697 0,43.3021 -6.8068,61.2881 -36.8664,97.4095 l -18.9389,22.7598 35.142,30.0385 c 42.8687,36.6432 55.4513,70.1828 48.1776,128.4066 -4.0218,32.1879 -11.4284,49.6413 -30.0814,70.8864 -43.3914,49.4199 -73.3095,57.3426 -235.8972,62.4657 l -143.9056,4.5348 z m 245.2401,177.265 c 30.0534,-10.2403 39.5505,-18.0404 48.738,-40.0293 23.0493,-55.1638 -17.1169,-94.5089 -103.5658,-101.4481 -67.7625,-5.4395 -73.3593,0.326 -73.3593,75.5564 0,36.193 3.7055,63.6187 9.3642,69.2755 13.3215,13.3234 74.9864,11.5824 118.8229,-3.3545 z m 9.4236,-255.4215 c 31.1979,-36.2697 20.7671,-76.3255 -24.8399,-95.3808 -32.2847,-13.4894 -90.651,-14.4378 -103.4066,-1.6805 -12.4958,12.4941 -12.1917,101.6639 0.3892,114.5834 6.6185,6.7967 25.7718,9.0395 59.5762,6.9765 42.692,-2.6054 52.4654,-6.1122 68.2811,-24.4986 z m 362.7297,333.4671 c -51.1721,-25.5005 -97.8616,-82.546 -114.5535,-139.9635 -14.6609,-50.4365 -16.7276,-172.3451 -3.7588,-221.8943 18.6086,-71.1017 76.242,-133.4786 144.704,-156.6136 50.4781,-17.0576 148.6894,-13.0787 196.9726,7.9799 73.8638,32.2182 121.0682,101.1847 135.4528,197.9045 22.2115,149.3294 -47.3233,295.0076 -155.0954,324.9386 -15.9864,4.4399 -59.1015,8.0919 -95.813,8.1158 -56.4786,0.039 -73.0812,-3.1119 -107.9087,-20.4674 z m 148.9516,-81.2492 c 38.0685,-10.5725 71.5652,-52.1131 87.3293,-108.2981 15.6087,-55.6241 15.6961,-80.7072 0.4687,-131.987 -31.9071,-107.4439 -135.9416,-144.2438 -201.7746,-71.374 -28.2854,31.3091 -51.5018,93.0639 -51.5018,136.9912 0,46.3187 29.0359,123.0317 56.3475,148.8638 37.55,35.5175 57.3232,40.1929 109.1309,25.8041 z m 326.1372,-175.3106 v -279.4016 l 107.2973,4.9171 c 116.645,5.3457 173.7994,18.2891 222.2016,50.3198 29.3103,19.397 66.7019,65.9757 79.7575,99.3579 11.7381,30.0091 18.0725,131.9421 11.4704,184.5335 -11.723,93.35 -55.0683,157.136 -130.4305,191.9395 -36.618,16.9102 -55.6025,19.5911 -165.8244,23.416 l -124.4719,4.3193 z m 222.3989,168.7533 c 49.9262,-22.9265 67.5695,-50.2102 82.1691,-127.0764 8.7206,-45.9089 -3.5148,-126.1111 -24.3929,-159.8923 -27.1805,-43.9784 -124.9248,-78.7894 -150.2177,-53.4978 -11.174,11.1751 -12.9044,34.5952 -12.9044,174.66 0,115.4044 2.6818,164.4376 9.3641,171.1184 13.7011,13.7027 60.1744,11.1307 95.9818,-5.3119 z m 393.989,12.7252 -0.084,-95.592 -77.9506,-166.6199 c -42.8729,-91.6409 -77.9493,-171.4618 -77.9493,-177.3798 0,-14.11 27.0213,-20.4118 74.593,-17.3959 l 38.4425,2.4369 46.409,119.1586 c 25.5253,65.5373 50.1332,117.9677 54.6826,116.5123 4.5482,-1.4553 27.5842,-49.8095 51.1903,-107.4534 23.6061,-57.6439 45.4497,-108.6947 48.5431,-113.4461 6.2768,-9.6429 87.047,-20.0529 104.2792,-13.4404 6.0776,2.3322 11.0489,7.476 11.0489,11.4307 0,3.9544 -34.2064,78.1993 -76.0137,164.9884 l -76.0162,157.7982 -2.2173,89.7395 c -3.2562,131.8533 0.3521,124.8553 -64.3965,124.8553 h -54.4762 z m 515.1123,-182.6525 v -278.2449 l 122.9043,4.8992 c 175.9112,7.0125 229.3622,26.4146 260.2742,94.4755 16.497,36.3244 19.314,105.7447 5.917,145.7635 -23.783,71.0286 -74.963,103.8622 -183.087,117.4519 -38.197,4.8006 -73.8373,12.195 -79.2021,16.4316 -6.7333,5.3177 -9.7533,33.9902 -9.7533,92.5855 v 84.8826 h -58.5277 -58.5254 z m 191.7015,-11.0814 c 59.992,-10.8855 78.706,-23.6503 90.013,-61.3934 18.298,-61.0697 -16.659,-99.0082 -99.065,-107.5132 -60.7246,-6.2674 -65.5964,0.1911 -65.5964,86.9638 0,45.2973 3.4413,75.0579 9.3641,80.9807 11.3373,11.3379 8.3463,11.2938 65.2843,0.9621 z m 427.361,274.6499 c -41.403,-19.3512 -90.151,-69.4627 -113.31,-116.4777 -16.244,-32.9811 -18.037,-47.4763 -18.037,-145.8685 0,-106.5315 0.577,-110.2879 23.161,-151.0653 25.212,-45.5185 67.618,-86.0352 112.268,-107.2699 42.764,-20.336 158.525,-17.924 208.96,4.3538 103.808,45.8525 150.752,152.8601 135.386,308.6057 -8.814,89.3368 -48.8,157.864 -114.635,196.4543 -33.541,19.6611 -45.839,22.1546 -119.331,24.1948 -68.099,1.8905 -87.429,-0.2925 -114.462,-12.9272 z m 147.877,-89.7092 c 40.846,-17.4769 66.171,-50.9692 80.331,-106.2399 15.339,-59.8795 11.43,-117.5279 -10.92,-160.9935 -42.793,-83.2226 -118.499,-104.9461 -181.369,-52.0432 -38.524,32.4159 -53.757,73.8823 -53.869,146.6396 -0.2,132.6399 75.388,211.3334 165.827,172.637 z m 785.947,-172.637 V -8324.42 h 58.525 58.526 v 277.0224 277.0226 h -58.526 -58.525 z m 358.959,55.5797 c 0,-171.9478 -2.264,-223.3206 -10.126,-229.8449 -5.567,-4.6213 -38.048,-9.4406 -72.181,-10.7099 l -62.058,-2.3076 -2.322,-39.9184 c -2.283,-39.2441 -1.904,-40.0019 22.435,-44.8697 13.616,-2.7234 97.621,-4.9516 186.679,-4.9516 89.057,0 173.062,2.2282 186.678,4.9516 24.34,4.8678 24.719,5.6256 22.437,44.8697 l -2.323,39.9184 -62.058,2.3076 c -34.132,1.2693 -66.614,6.0886 -72.183,10.7099 -7.861,6.5243 -10.123,57.8971 -10.123,229.8449 v 221.4429 h -62.428 -62.427 z m 368.612,-53.6288 2.05,-275.0714 56.577,-2.2928 56.574,-2.2927 v 277.3643 277.3643 h -58.627 -58.624 z m 335.235,250.7309 c -4.158,-14.5099 -39.567,-130.2627 -78.682,-257.2283 -39.118,-126.9658 -71.12,-238.2209 -71.12,-247.2338 0,-21.1461 17.2,-25.8057 70.23,-19.0247 l 42.918,5.4879 44.689,167.0996 c 62.175,232.498 68.636,253.3938 75.932,245.5726 3.537,-3.7911 28.029,-91.1702 54.431,-194.1757 26.399,-103.0055 51.052,-194.6635 54.784,-203.6845 11.118,-26.8888 117.511,-34.2533 117.37,-8.1245 -0.08,15.2959 -154.686,514.0348 -161.383,520.6092 -3.49,3.4242 -36.778,8.6691 -73.974,11.6549 l -67.633,5.429 z m 380.832,-252.8338 v -277.1747 l 169.724,2.1031 169.725,2.1031 v 42.9188 42.919 l -93.641,1.9144 c -136.065,2.7818 -128.757,-1.0564 -128.757,67.6304 0,45.2725 2.632,58.5524 12.344,62.279 6.789,2.6051 48.518,4.7367 92.731,4.7367 90,0 89.669,-0.2365 89.904,64.3784 l 0.108,29.2629 h -85.202 c -46.858,0 -90.754,2.1315 -97.543,4.7367 -18.045,6.9248 -18.045,124.0637 0,130.9888 6.789,2.6052 59.463,4.7365 117.053,4.7365 h 104.708 v 46.8206 46.8209 h -175.578 -175.576 z m 708.03,272.1626 c -9.139,-15.1329 -115.416,-528.8122 -111.511,-538.9861 2.753,-7.175 13.141,-10.1856 29.654,-8.5942 l 25.414,2.4492 43.692,220.5687 c 24.029,121.3127 45.976,222.8551 48.771,225.6496 2.793,2.7946 7.119,3.0417 9.612,0.5486 2.492,-2.4924 28.671,-100.1889 58.172,-217.1031 29.503,-116.9141 56.866,-215.795 60.806,-219.7352 3.94,-3.9404 19.022,-6.0306 33.517,-4.6449 26.113,2.4965 26.509,3.1216 43.381,68.8487 9.365,36.481 35.321,137.4382 57.678,224.349 22.356,86.911 43.598,158.0198 47.201,158.0198 7.813,0 4.461,15.0968 53.69,-241.8212 21.784,-113.688 42.578,-209.6751 46.207,-213.3045 12.287,-12.287 43.402,-2.1647 45.841,14.9133 2.769,19.3798 -97.151,498.5836 -108.307,519.4296 -11.98,22.3865 -67.535,20.1343 -77.301,-3.1335 -4.056,-9.6568 -28.949,-102.2554 -55.321,-205.7749 -47.71,-187.281 -56.341,-213.9471 -66.099,-204.1901 -2.813,2.8142 -27.806,95.7686 -55.541,206.5654 -27.73,110.7969 -52.835,203.9027 -55.784,206.9019 -8.73,8.8815 -69.379,16.3161 -73.772,9.0434 z m 1164.7961,-272.0106 V -8324.42 l 83.888,0.2412 c 124.492,0.3575 193.986,11.1868 225.361,35.1181 37.713,28.7639 44.693,46.8669 45.283,117.4144 0.475,56.6408 -1.578,65.7915 -20.212,90.2231 -11.405,14.954 -36.865,35.7445 -56.575,46.201 -19.711,10.4565 -35.839,22.6192 -35.839,27.028 0,4.4089 28.283,56.2406 62.847,115.1814 34.565,58.9411 60.57,110.8523 57.784,115.3585 -5.535,8.9554 -48.357,2.4514 -63.383,-9.6272 -4.997,-4.0155 -35.72,-54.1508 -68.277,-111.4121 -32.555,-57.2611 -64.749,-106.2435 -71.539,-108.8497 -6.792,-2.6061 -29.243,-4.7385 -49.893,-4.7385 -27.037,0 -38.869,3.4544 -42.28,12.3435 -2.605,6.7887 -4.737,61.2178 -4.737,120.9532 v 108.6101 h -31.214 -31.214 v -277.0224 z m 207.104,-23.7385 c 26.6,-6.8824 54.859,-20.32 66.018,-31.3913 16.86,-16.7312 19.507,-26.3072 19.507,-70.5782 0,-46.0395 -2.142,-53.0642 -21.184,-69.4437 -26.416,-22.7201 -90.699,-36.5596 -155.57,-33.4915 l -49.545,2.3433 -2.203,97.1103 c -1.212,53.4105 -0.445,101.6945 1.707,107.2975 5.451,14.2128 83.122,13.1978 141.27,-1.8464 z m 268.907,23.7385 V -8324.42 h 31.03 31.028 l 2.136,132.6737 c 1.278,79.4164 5.232,133.296 9.849,134.2238 4.242,0.8524 57.733,-57.973 118.867,-130.7229 101.189,-120.4127 113.617,-132.4899 138.602,-134.6947 21.141,-1.8655 27.446,0.4955 27.446,10.2767 0,6.9843 -33.361,53.6114 -74.133,103.6157 -40.773,50.0044 -74.133,95.0243 -74.133,100.0444 0,5.0197 36.765,70.942 81.699,146.4937 120.595,202.766 118.147,195.7245 65.06,187.1096 -25.984,-4.2168 -31.367,-11.2431 -107.346,-140.1693 -43.993,-74.6514 -82.434,-135.7299 -85.429,-135.7299 -6.149,0 -49.92,45.4602 -81.344,84.4859 -19.811,24.6008 -20.904,30.4223 -20.904,111.1991 v 85.2392 h -31.214 -31.214 z m 522.83,260.7599 c -42.984,-19.4871 -70.23,-44.075 -70.23,-63.3772 0,-25.5653 23.496,-24.9563 75.994,1.9701 67.694,34.7208 124.336,39.2226 173.599,13.7974 25.99,-13.4152 37.777,-25.5079 45.799,-46.9896 22.711,-60.8112 0.08,-87.4939 -127.15,-149.8253 -101.185,-49.5783 -131.672,-74.6778 -145.087,-119.4522 -28.484,-95.075 46.948,-176.2005 163.834,-176.2005 65.773,0 137.652,30.1328 145.387,60.9488 9.082,36.1871 -14.264,45.695 -50.248,20.4639 -68.102,-47.7511 -169.18,-37.9573 -195.089,18.9022 -24.099,52.8925 7.042,88.8013 128.356,148.0138 49.127,23.9785 101.526,55.8012 116.442,70.7177 25.852,25.8513 27.121,29.7063 27.121,82.3732 0,73.2023 -19.051,108.4468 -73.214,135.4367 -52.489,26.156 -161.336,27.7827 -215.514,3.221 z M 5999.1379,-9548.26 c 0,-3.5766 2.633,-9.1452 5.851,-12.3737 3.219,-3.2285 6.716,-16.982 7.769,-30.5637 1.75,-22.5743 6.424,-66.0026 8.814,-81.9042 1.232,-8.1976 63.026,-48.0451 114.126,-73.5954 176.675,-88.3357 416.298,-156.5397 624.275,-177.6877 138.015,-14.034 407.764,-1.397 520.22,24.37 l 36.403,8.341 3.01,48.152 c 1.657,26.484 1.077,50.498 -1.287,53.3643 -2.367,2.8673 -35.906,-0.4393 -74.532,-7.3483 -86.173,-15.412 -391.158,-17.113 -503.323,-2.807 -103.392,13.1871 -237.163,44.0925 -345.833,79.8979 -90.138,29.6994 -302.001,122.9676 -325.263,143.1893 -12.163,10.574 -58.445,35.4679 -65.942,35.4679 -2.359,0 -4.288,-2.9264 -4.288,-6.5024 z"
       style="fill:#faa25c;stroke-width:7.80344677" /><path
       id="path1979"
       d="m 7542.6719,-6260.6551 c -6.034,-6.0348 8.117,-75.7722 17.224,-84.8793 4.254,-4.254 7.733,-15.4033 7.733,-24.7764 0,-13.4804 9.378,-20.7611 44.872,-34.8402 186.245,-73.8794 389.759,-209.4568 555.051,-369.7677 293.24,-284.401 469.541,-625.7698 528.212,-1022.7684 20.343,-137.656 18.378,-403.3709 -3.924,-530.6344 -59.539,-339.7553 -188.742,-615.7903 -413.948,-884.3838 -44.381,-52.9298 -101.344,-114.382 -126.587,-136.5604 -63.874,-56.1198 -78.007,-82.1415 -72.092,-132.7513 2.587,-22.1272 6.114,-44.7443 7.836,-50.2591 13.28,-42.5155 292.603,220.087 416.178,391.2664 258.111,357.538 384.054,819.7131 343.724,1261.3863 -25.69,281.3768 -121.257,570.3835 -270.773,818.8537 -88.695,147.3977 -247.692,333.3297 -383.769,448.78 -166.112,140.9327 -307.72,225.4727 -521.218,311.1682 -111.343,44.6915 -120.98,47.704 -128.519,40.1664 z m -1064.843,-1509.9597 c -59.761,-11.9771 -127.57,-52.9569 -127.501,-77.0533 0.04,-13.171 42.944,-63.1691 54.209,-63.1691 3.649,0 25.393,8.6918 48.323,19.315 80.024,37.0754 148.014,30.9394 169.063,-15.2576 13.416,-29.447 -11.037,-51.6712 -109.53,-99.5465 -123.037,-59.8047 -146.494,-86.0322 -146.494,-163.7978 0,-56.1703 26.07,-97.9074 79.402,-127.1178 37.438,-20.5053 48.505,-22.7209 111.783,-22.3755 73.349,0.4003 105.268,10.3269 142.413,44.2913 23.457,21.4489 22.126,38.0073 -5.43,67.5065 l -22.991,24.6093 -32.63,-16.6472 c -17.947,-9.1561 -51.297,-18.5737 -74.108,-20.9281 -38.762,-4.0006 -43.094,-2.6656 -66.145,20.3862 -22.654,22.6546 -23.773,26.0832 -13.7,42.0141 6.034,9.5405 53.457,38.4341 105.384,64.2078 132.701,65.8646 150.587,85.3145 150.587,163.7551 0,81.1604 -54.96,146.4593 -131.352,156.0566 -74.593,9.3714 -99.663,10.0877 -131.283,3.751 z m 3269.509,-0.1093 c -66.499,-13.1437 -126.307,-62.0435 -159.983,-130.8052 -24.03,-49.0606 -30.318,-195.9845 -11.137,-260.1316 15.55,-51.9955 56.911,-108.9513 99.696,-137.2814 28.251,-18.7072 41.832,-21.942 102.129,-24.3286 51.673,-2.0451 78.376,0.6189 103.899,10.3669 43.94,16.7807 96.271,67.6516 120.7331,117.3644 17.552,35.6701 19.14,47.9484 19.14,148.142 0,98.392 -1.793,112.8872 -18.039,145.8683 -23.5771,47.8646 -72.8011,97.957 -113.4011,115.3974 -40.461,17.3814 -100.389,23.8369 -143.037,15.4078 z m 132.238,-74.7509 c 21.6,-15.1795 40.821,-38.7493 56.302,-69.0401 22.164,-43.3633 23.503,-51.1516 23.4,-136.258 -0.117,-96.053 -4.803,-112.5242 -48.679,-171.1008 -68.408,-91.329 -216.623,-62.9971 -264.19,50.5004 -39.044,93.1645 -20.378,242.5243 38.287,306.3383 48.462,52.7165 135.304,61.4327 194.88,19.5602 z M 3065.041,-8046.1967 V -8324.42 l 33.1651,0.2125 c 18.2413,0.117 85.0361,3.3892 148.4356,7.2719 95.8464,5.8698 119.7786,9.845 142.0192,23.5911 39.1535,24.1977 58.75,60.5125 58.75,108.8697 0,43.3021 -6.8068,61.2881 -36.8664,97.4095 l -18.9389,22.7598 35.142,30.0385 c 42.8687,36.6432 55.4513,70.1828 48.1776,128.4066 -4.0218,32.1879 -11.4284,49.6413 -30.0814,70.8864 -43.3914,49.4199 -73.3095,57.3426 -235.8972,62.4657 l -143.9056,4.5348 z m 245.2401,177.265 c 30.0534,-10.2403 39.5505,-18.0404 48.738,-40.0293 23.0493,-55.1638 -17.1169,-94.5089 -103.5658,-101.4481 -67.7625,-5.4395 -73.3593,0.326 -73.3593,75.5564 0,36.193 3.7055,63.6187 9.3642,69.2755 13.3215,13.3234 74.9864,11.5824 118.8229,-3.3545 z m 9.4236,-255.4215 c 31.1979,-36.2697 20.7671,-76.3255 -24.8399,-95.3808 -32.2847,-13.4894 -90.651,-14.4378 -103.4066,-1.6805 -12.4958,12.4941 -12.1917,101.6639 0.3892,114.5834 6.6185,6.7967 25.7718,9.0395 59.5762,6.9765 42.692,-2.6054 52.4654,-6.1122 68.2811,-24.4986 z m 362.7297,333.4671 c -51.1721,-25.5005 -97.8616,-82.546 -114.5535,-139.9635 -14.6609,-50.4365 -16.7276,-172.3451 -3.7588,-221.8943 18.6086,-71.1017 76.242,-133.4786 144.704,-156.6136 50.4781,-17.0576 148.6894,-13.0787 196.9726,7.9799 73.8638,32.2182 121.0682,101.1847 135.4528,197.9045 22.2115,149.3294 -47.3233,295.0076 -155.0954,324.9386 -15.9864,4.4399 -59.1015,8.0919 -95.813,8.1158 -56.4786,0.039 -73.0812,-3.1119 -107.9087,-20.4674 z m 148.9516,-81.2492 c 38.0685,-10.5725 71.5652,-52.1131 87.3293,-108.2981 15.6087,-55.6241 15.6961,-80.7072 0.4687,-131.987 -31.9071,-107.4439 -135.9416,-144.2438 -201.7746,-71.374 -28.2854,31.3091 -51.5018,93.0639 -51.5018,136.9912 0,46.3187 29.0359,123.0317 56.3475,148.8638 37.55,35.5175 57.3232,40.1929 109.1309,25.8041 z m 326.1372,-175.3106 v -279.4016 l 107.2973,4.9171 c 116.645,5.3457 173.7994,18.2891 222.2016,50.3198 29.3103,19.397 66.7019,65.9757 79.7575,99.3579 11.7381,30.0091 18.0725,131.9421 11.4704,184.5335 -11.723,93.35 -55.0683,157.136 -130.4305,191.9395 -36.618,16.9102 -55.6025,19.5911 -165.8244,23.416 l -124.4719,4.3193 z m 222.3989,168.7533 c 49.9262,-22.9265 67.5695,-50.2102 82.1691,-127.0764 8.7206,-45.9089 -3.5148,-126.1111 -24.3929,-159.8923 -27.1805,-43.9784 -124.9248,-78.7894 -150.2177,-53.4978 -11.174,11.1751 -12.9044,34.5952 -12.9044,174.66 0,115.4044 2.6818,164.4376 9.3641,171.1184 13.7011,13.7027 60.1744,11.1307 95.9818,-5.3119 z m 393.989,12.7252 -0.084,-95.592 -77.9506,-166.6199 c -42.8729,-91.6409 -77.9493,-171.4618 -77.9493,-177.3798 0,-14.11 27.0213,-20.4118 74.593,-17.3959 l 38.4425,2.4369 46.409,119.1586 c 25.5253,65.5373 50.1332,117.9677 54.6826,116.5123 4.5482,-1.4553 27.5842,-49.8095 51.1903,-107.4534 23.6061,-57.6439 45.4497,-108.6947 48.5431,-113.4461 6.2768,-9.6429 87.047,-20.0529 104.2792,-13.4404 6.0776,2.3322 11.0489,7.476 11.0489,11.4307 0,3.9544 -34.2064,78.1993 -76.0137,164.9884 l -76.0162,157.7982 -2.2173,89.7395 c -3.2562,131.8533 0.3521,124.8553 -64.3965,124.8553 h -54.4762 z m 515.1123,-182.6525 v -278.2449 l 122.9043,4.8992 c 175.9112,7.0125 229.3622,26.4146 260.2742,94.4755 16.497,36.3244 19.314,105.7447 5.917,145.7635 -23.783,71.0286 -74.963,103.8622 -183.087,117.4519 -38.197,4.8006 -73.8373,12.195 -79.2021,16.4316 -6.7333,5.3177 -9.7533,33.9902 -9.7533,92.5855 v 84.8826 h -58.5277 -58.5254 z m 191.7015,-11.0814 c 59.992,-10.8855 78.706,-23.6503 90.013,-61.3934 18.298,-61.0697 -16.659,-99.0082 -99.065,-107.5132 -60.7246,-6.2674 -65.5964,0.1911 -65.5964,86.9638 0,45.2973 3.4413,75.0579 9.3641,80.9807 11.3373,11.3379 8.3463,11.2938 65.2843,0.9621 z m 427.361,274.6499 c -41.403,-19.3512 -90.151,-69.4627 -113.31,-116.4777 -16.244,-32.9811 -18.037,-47.4763 -18.037,-145.8685 0,-106.5315 0.577,-110.2879 23.161,-151.0653 25.212,-45.5185 67.618,-86.0352 112.268,-107.2699 42.764,-20.336 158.525,-17.924 208.96,4.3538 103.808,45.8525 150.752,152.8601 135.386,308.6057 -8.814,89.3368 -48.8,157.864 -114.635,196.4543 -33.541,19.6611 -45.839,22.1546 -119.331,24.1948 -68.099,1.8905 -87.429,-0.2925 -114.462,-12.9272 z m 147.877,-89.7092 c 40.846,-17.4769 66.171,-50.9692 80.331,-106.2399 15.339,-59.8795 11.43,-117.5279 -10.92,-160.9935 -42.793,-83.2226 -118.499,-104.9461 -181.369,-52.0432 -38.524,32.4159 -53.757,73.8823 -53.869,146.6396 -0.2,132.6399 75.388,211.3334 165.827,172.637 z m 785.947,-172.637 V -8324.42 h 58.525 58.526 v 277.0224 277.0226 h -58.526 -58.525 z m 358.959,55.5797 c 0,-171.9478 -2.264,-223.3206 -10.126,-229.8449 -5.567,-4.6213 -38.048,-9.4406 -72.181,-10.7099 l -62.058,-2.3076 -2.322,-39.9184 c -2.283,-39.2441 -1.904,-40.0019 22.435,-44.8697 13.616,-2.7234 97.621,-4.9516 186.679,-4.9516 89.057,0 173.062,2.2282 186.678,4.9516 24.34,4.8678 24.719,5.6256 22.437,44.8697 l -2.323,39.9184 -62.058,2.3076 c -34.132,1.2693 -66.614,6.0886 -72.183,10.7099 -7.861,6.5243 -10.123,57.8971 -10.123,229.8449 v 221.4429 h -62.428 -62.427 z m 368.612,-53.6288 2.05,-275.0714 56.577,-2.2928 56.574,-2.2927 v 277.3643 277.3643 h -58.627 -58.624 z m 335.235,250.7309 c -4.158,-14.5099 -39.567,-130.2627 -78.682,-257.2283 -39.118,-126.9658 -71.12,-238.2209 -71.12,-247.2338 0,-21.1461 17.2,-25.8057 70.23,-19.0247 l 42.918,5.4879 44.689,167.0996 c 62.175,232.498 68.636,253.3938 75.932,245.5726 3.537,-3.7911 28.029,-91.1702 54.431,-194.1757 26.399,-103.0055 51.052,-194.6635 54.784,-203.6845 11.118,-26.8888 117.511,-34.2533 117.37,-8.1245 -0.08,15.2959 -154.686,514.0348 -161.383,520.6092 -3.49,3.4242 -36.778,8.6691 -73.974,11.6549 l -67.633,5.429 z m 380.832,-252.8338 v -277.1747 l 169.724,2.1031 169.725,2.1031 v 42.9188 42.919 l -93.641,1.9144 c -136.065,2.7818 -128.757,-1.0564 -128.757,67.6304 0,45.2725 2.632,58.5524 12.344,62.279 6.789,2.6051 48.518,4.7367 92.731,4.7367 90,0 89.669,-0.2365 89.904,64.3784 l 0.108,29.2629 h -85.202 c -46.858,0 -90.754,2.1315 -97.543,4.7367 -18.045,6.9248 -18.045,124.0637 0,130.9888 6.789,2.6052 59.463,4.7365 117.053,4.7365 h 104.708 v 46.8206 46.8209 h -175.578 -175.576 z m 708.03,272.1626 c -9.139,-15.1329 -115.416,-528.8122 -111.511,-538.9861 2.753,-7.175 13.141,-10.1856 29.654,-8.5942 l 25.414,2.4492 43.692,220.5687 c 24.029,121.3127 45.976,222.8551 48.771,225.6496 2.793,2.7946 7.119,3.0417 9.612,0.5486 2.492,-2.4924 28.671,-100.1889 58.172,-217.1031 29.503,-116.9141 56.866,-215.795 60.806,-219.7352 3.94,-3.9404 19.022,-6.0306 33.517,-4.6449 26.113,2.4965 26.509,3.1216 43.381,68.8487 9.365,36.481 35.321,137.4382 57.678,224.349 22.356,86.911 43.598,158.0198 47.201,158.0198 7.813,0 4.461,15.0968 53.69,-241.8212 21.784,-113.688 42.578,-209.6751 46.207,-213.3045 12.287,-12.287 43.402,-2.1647 45.841,14.9133 2.769,19.3798 -97.151,498.5836 -108.307,519.4296 -11.98,22.3865 -67.535,20.1343 -77.301,-3.1335 -4.056,-9.6568 -28.949,-102.2554 -55.321,-205.7749 -47.71,-187.281 -56.341,-213.9471 -66.099,-204.1901 -2.813,2.8142 -27.806,95.7686 -55.541,206.5654 -27.73,110.7969 -52.835,203.9027 -55.784,206.9019 -8.73,8.8815 -69.379,16.3161 -73.772,9.0434 z m 1164.7961,-272.0106 V -8324.42 l 83.888,0.2412 c 124.492,0.3575 193.986,11.1868 225.361,35.1181 37.713,28.7639 44.693,46.8669 45.283,117.4144 0.475,56.6408 -1.578,65.7915 -20.212,90.2231 -11.405,14.954 -36.865,35.7445 -56.575,46.201 -19.711,10.4565 -35.839,22.6192 -35.839,27.028 0,4.4089 28.283,56.2406 62.847,115.1814 34.565,58.9411 60.57,110.8523 57.784,115.3585 -5.535,8.9554 -48.357,2.4514 -63.383,-9.6272 -4.997,-4.0155 -35.72,-54.1508 -68.277,-111.4121 -32.555,-57.2611 -64.749,-106.2435 -71.539,-108.8497 -6.792,-2.6061 -29.243,-4.7385 -49.893,-4.7385 -27.037,0 -38.869,3.4544 -42.28,12.3435 -2.605,6.7887 -4.737,61.2178 -4.737,120.9532 v 108.6101 h -31.214 -31.214 v -277.0224 z m 207.104,-23.7385 c 26.6,-6.8824 54.859,-20.32 66.018,-31.3913 16.86,-16.7312 19.507,-26.3072 19.507,-70.5782 0,-46.0395 -2.142,-53.0642 -21.184,-69.4437 -26.416,-22.7201 -90.699,-36.5596 -155.57,-33.4915 l -49.545,2.3433 -2.203,97.1103 c -1.212,53.4105 -0.445,101.6945 1.707,107.2975 5.451,14.2128 83.122,13.1978 141.27,-1.8464 z m 268.907,23.7385 V -8324.42 h 31.03 31.028 l 2.136,132.6737 c 1.278,79.4164 5.232,133.296 9.849,134.2238 4.242,0.8524 57.733,-57.973 118.867,-130.7229 101.189,-120.4127 113.617,-132.4899 138.602,-134.6947 21.141,-1.8655 27.446,0.4955 27.446,10.2767 0,6.9843 -33.361,53.6114 -74.133,103.6157 -40.773,50.0044 -74.133,95.0243 -74.133,100.0444 0,5.0197 36.765,70.942 81.699,146.4937 120.595,202.766 118.147,195.7245 65.06,187.1096 -25.984,-4.2168 -31.367,-11.2431 -107.346,-140.1693 -43.993,-74.6514 -82.434,-135.7299 -85.429,-135.7299 -6.149,0 -49.92,45.4602 -81.344,84.4859 -19.811,24.6008 -20.904,30.4223 -20.904,111.1991 v 85.2392 h -31.214 -31.214 z m 522.83,260.7599 c -42.984,-19.4871 -70.23,-44.075 -70.23,-63.3772 0,-25.5653 23.496,-24.9563 75.994,1.9701 67.694,34.7208 124.336,39.2226 173.599,13.7974 25.99,-13.4152 37.777,-25.5079 45.799,-46.9896 22.711,-60.8112 0.08,-87.4939 -127.15,-149.8253 -101.185,-49.5783 -131.672,-74.6778 -145.087,-119.4522 -28.484,-95.075 46.948,-176.2005 163.834,-176.2005 65.773,0 137.652,30.1328 145.387,60.9488 9.082,36.1871 -14.264,45.695 -50.248,20.4639 -68.102,-47.7511 -169.18,-37.9573 -195.089,18.9022 -24.099,52.8925 7.042,88.8013 128.356,148.0138 49.127,23.9785 101.526,55.8012 116.442,70.7177 25.852,25.8513 27.121,29.7063 27.121,82.3732 0,73.2023 -19.051,108.4468 -73.214,135.4367 -52.489,26.156 -161.336,27.7827 -215.514,3.221 z"
       style="fill:#a095ab;stroke-width:7.80344677" /><path
       id="path1977"
       d="m 7755.1899,-6363.8037 c 0.926,-19.4979 23.628,-99.6669 28.714,-101.4006 3.368,-1.1483 42.996,-26.4805 88.06,-56.2937 393.904,-260.5933 669.429,-627.7251 787.645,-1049.5149 48.883,-174.4082 58.781,-254.6296 58.781,-476.3847 0,-215.9121 -5.712,-268.473 -47.23,-434.6163 -60.188,-240.8514 -213.871,-547.2286 -360.619,-718.9152 -26.889,-31.4595 -37.61,-50.1473 -34.842,-60.733 2.253,-8.6168 -2.072,-22.0017 -9.913,-30.6628 -12.141,-13.4171 -12.721,-19.3395 -4.565,-46.5645 5.14,-17.1555 12.187,-31.1927 15.66,-31.1927 8.991,0 162.495,166.5446 204.986,222.3986 65.947,86.6867 117.162,171.0602 170.525,280.9239 84.231,173.4208 127.718,306.8036 161.548,495.519 18.246,101.7827 20.351,133.533 20.941,316.0396 0.52,160.9481 -2.292,221.4408 -13.595,292.6294 -61.933,390.047 -233.479,736.2001 -504.159,1017.313 -108.57,112.7544 -270.578,241.3705 -370.077,293.7987 -21.983,11.5837 -70.591,37.3617 -108.016,57.285 -66.944,35.6366 -84.394,41.9573 -83.844,30.3712 z m -1800.56,-1414.6076 c -18.041,-3.6481 -40.298,-10.6453 -49.461,-15.5493 -33.471,-17.9132 -79.429,-66.1303 -99.773,-104.6762 -19.727,-37.3794 -20.854,-45.4102 -20.854,-148.7608 0,-123.568 4.574,-138.3068 61.327,-197.6809 52.06,-54.4646 82.755,-66.7881 165.971,-66.6318 61.651,0.1162 77.109,3.0103 114.943,21.5204 84.807,41.4927 124.123,116.9313 124.499,238.8907 0.334,107.5886 -15.188,153.5601 -71.143,210.7442 -47.289,48.3234 -68.47,57.4982 -149.787,64.8802 -23.606,2.1428 -57.681,0.9114 -75.722,-2.7365 z m 114.973,-95.3594 c 45.648,-23.0608 66.574,-56.3435 77.995,-124.0556 22.679,-134.4671 -42.397,-239.2578 -143.189,-230.5722 -48.489,4.1783 -74.257,23.4677 -100.863,75.5015 -18.409,36.0012 -21.375,50.924 -20.866,104.9478 0.836,88.8544 25.636,145.4936 76.661,175.0862 36.366,21.0902 67.22,20.8365 110.262,-0.9077 z m 397.741,93.1502 c -47.959,-13.3818 -104.638,-45.7135 -107.662,-61.4127 -1.369,-7.108 7.789,-24.4268 20.351,-38.4861 l 22.841,-25.5625 46.916,21.0551 c 87.268,39.1633 152.326,32.3052 180.804,-19.0587 18.611,-33.5668 -2.243,-54.8345 -98.908,-100.8743 -133.357,-63.5157 -157.983,-88.9847 -157.983,-163.3912 0,-59.3823 25.53,-98.5598 83.215,-127.6969 59.189,-29.897 165.969,-22.7364 223.07,14.959 34.508,22.7805 36.55,37.9487 8.983,66.7239 l -20.282,21.1694 -40.197,-18.7154 c -48.631,-22.643 -94.124,-23.9904 -127.287,-3.77 -28.7,17.5005 -38.227,40.198 -26.258,62.5614 9.497,17.7465 30.353,29.8781 122.49,71.2508 111.67,50.1436 136.224,77.1957 136.886,150.8195 0.56,62.4841 -35.331,115.1681 -95.302,139.8919 -40.302,16.6141 -130.137,22.1278 -171.677,10.5368 z m 3274.242,1.8454 c -42.229,-10.3566 -76.667,-33.1502 -113.772,-75.3037 -45.196,-51.3455 -57.05,-98.5095 -53.213,-211.714 2.692,-79.4221 5.653,-95.762 23.533,-129.8702 25.229,-48.1251 70.24,-92.5108 111.543,-109.9927 44.925,-19.0162 130.893,-17.8322 175.576,2.418 41.682,18.8899 85.324,62.9046 110.533,111.4765 16.5611,31.9114 18.2221,45.0835 18.2001,144.3636 0,103.2835 -1.16,111.3788 -20.7861,148.2657 -24.954,46.8969 -70.614,92.6262 -107.947,108.1059 -37.165,15.411 -106.628,21.3341 -143.667,12.2509 z m 116.355,-45.4116 c 67.707,-31.3469 106.075,-100.1986 111.518,-200.116 6.166,-113.2007 -20.016,-182.3821 -88.917,-234.9347 -25.262,-19.2677 -36.096,-22.2635 -80.52,-22.2635 -122.522,0 -185.885,88.2766 -178.646,248.8868 3.705,82.193 25.714,140.165 69.274,182.4723 42.893,41.6593 110.663,52.1737 167.291,25.9551 z M 3072.846,-8047.3926 v -271.3162 l 122.9035,5.5259 c 150.2376,6.7551 179.8121,13.4155 213.3901,48.06 22.5593,23.274 26.229,32.8643 28.9527,75.6678 2.9568,46.4244 1.6356,50.9638 -24.9929,85.85 -15.4636,20.2588 -28.116,39.6392 -28.116,43.0677 0,3.4286 15.5947,17.2268 34.6569,30.6627 41.0806,28.956 56.0718,67.0206 47.888,121.5909 -7.2088,48.0805 -32.3844,82.5336 -77.1285,105.5599 -34.7504,17.8825 -47.7805,19.5686 -177.5292,22.9732 l -140.0246,3.6744 z m 255.4299,180.6006 c 47.8102,-24.8172 61.0547,-85.9954 25.5672,-118.1107 -33.8421,-30.6272 -148.0537,-47.9538 -170.1893,-25.8185 -12.9366,12.9357 -12.613,140.2217 0.3892,153.6778 13.4533,13.9208 111.3841,7.3016 144.2329,-9.7486 z m -24.9291,-234.8522 c 46.9973,-19.6365 56.0596,-91.4448 14.939,-118.387 -25.3584,-16.6159 -116.2316,-24.076 -132.1663,-10.8503 -14.8067,12.2878 -16.7714,116.8947 -2.4657,131.201 12.9579,12.9591 86.88,11.7463 119.693,-1.9637 z m 389.8724,308.8654 c -36.6842,-16.7565 -94.0189,-76.5033 -109.9099,-114.5339 -19.6924,-47.1296 -28.5574,-139.4445 -19.1915,-199.8171 21.325,-137.4389 98.1712,-204.7339 234.4473,-205.3063 57.3572,-0.2412 72.4152,2.7101 111.3283,21.8179 52.4118,25.7363 91.4299,71.7414 112.4235,132.554 20.8642,60.4325 18.3943,174.2053 -5.1123,235.5219 -22.6207,59.0082 -83.5619,123.147 -128.9004,135.661 -50.574,13.9599 -158.773,10.6892 -195.085,-5.8975 z m 170.9561,-85.3324 c 14.4788,-8.455 33.0698,-31.6858 46.7193,-58.3739 19.6304,-38.3856 22.6662,-52.9788 22.6486,-108.8348 -0.018,-54.1083 -3.3181,-70.998 -20.4647,-104.7883 -24.4307,-48.1473 -57.4209,-73.6262 -101.8056,-78.6291 -68.9799,-7.775 -118.0719,34.1373 -142.3635,121.5432 -11.6689,41.9848 -12.4235,57.1506 -5.009,100.4404 10.6835,62.3732 43.2584,118.1274 80.2201,137.3082 32.164,16.6897 82.9122,13.0266 120.0548,-8.6657 z m 301.1522,-168.166 v -270.3393 l 64.3789,0.2412 c 228.8463,0.8564 323.3042,60.7351 342.7373,217.2707 17.5783,141.587 -31.6922,256.1189 -128.0018,297.5504 -34.5798,14.8753 -59.4452,18.2339 -160.0267,21.6144 l -119.0877,4.0019 z m 204.219,180.9402 c 37.3375,-11.1863 80.5,-57.1121 91.7499,-97.621 10.7631,-38.7635 10.61,-130.6692 -0.2859,-169.9113 -11.9233,-42.9448 -49.9602,-78.2472 -100.4723,-93.2479 -52.4714,-15.5823 -66.0893,-15.616 -81.5037,-0.2021 -10.395,10.3953 -12.2632,38.0817 -12.2632,181.8203 0,121.4738 2.6569,172.2133 9.3641,178.922 11.8996,11.8978 54.1404,12.0063 93.4129,0.2404 z m 412.2521,-4.6987 v -92.6021 l -74.4497,-158.7555 c -40.9476,-87.3155 -75.1856,-166.0829 -76.0836,-175.0385 -1.4486,-14.4425 3.1232,-16.5539 40.4486,-18.6802 23.1453,-1.3185 45.5474,1.0661 49.7792,5.2994 4.2344,4.2332 27.6255,57.9739 51.9845,119.4238 27.3954,69.1151 48.8691,112.6097 56.3001,114.0409 12.7994,2.4647 28.8853,-29.3689 80.9973,-160.2832 19.8963,-49.9862 32.68,-72.2083 41.5693,-72.2678 7.0594,-0.047 25.1276,-1.9302 40.1486,-4.1845 54.8951,-8.2382 53.8065,-1.8115 -27.9552,165.0915 l -76.038,155.2186 -4.5773,105.3465 -4.5798,105.3465 -48.772,2.3232 -48.772,2.3232 z m 516.8774,-175.411 2.0521,-267.268 70.2325,-2.294 c 96.5443,-3.1536 195.1763,9.992 238.0053,31.721 85.203,43.2282 96.628,183.611 21.275,261.4652 -28.712,29.6662 -74.521,45.256 -155.623,52.9609 -31.262,2.9697 -61.2258,8.8913 -66.5924,13.1588 -6.7297,5.3536 -9.7533,34.0765 -9.7533,92.6418 v 84.8824 h -50.8248 -50.826 z m 218.1809,-14.6232 c 33.407,-8.3534 58.416,-36.4084 65.336,-73.2936 10.496,-55.9584 -33.457,-95.8653 -113.594,-103.132 -67.1501,-6.0887 -70.3267,-1.7508 -70.3267,96.0242 0,68.5712 2.0364,81.7607 13.6555,88.4202 13.8942,7.9636 52.9462,4.9792 104.9292,-8.0188 z m 1332.855,12.6723 v -269.2189 h 50.723 50.723 v 269.2189 269.219 h -50.723 -50.723 z m 358.959,48.3814 c 0,-161.358 -2.521,-223.3595 -9.364,-230.2017 -5.788,-5.7887 -34.256,-9.3642 -74.56,-9.3642 h -65.195 l 2.378,-37.0663 2.379,-37.0663 h 198.987 198.987 l 2.378,37.0663 2.379,37.0663 h -65.195 c -40.304,0 -68.772,3.5755 -74.562,9.3642 -6.84,6.8422 -9.364,68.8437 -9.364,230.2017 v 220.8376 h -54.623 -54.625 z m 368.611,-46.4305 2.054,-267.268 48.772,-2.3232 48.772,-2.3233 v 269.5913 269.5913 h -50.827 -50.824 z m 337.929,258.5086 c -14.415,-40.2688 -145.497,-475.3159 -149.26,-495.3786 -3.914,-20.8622 -1.939,-25.8558 11.975,-30.2718 29.018,-9.21 78.708,3.4927 86.476,22.1069 3.853,9.2313 24.959,85.2593 46.902,168.9514 58.462,222.9834 61.985,234.1034 74.146,234.1034 12.258,0 14.914,-8.555 77.393,-249.1597 23.884,-91.9732 44.322,-168.1205 45.416,-169.2162 6.533,-6.5326 81.5,-10.2466 90.063,-4.4617 8.182,5.5278 -5.921,59.9346 -68.138,262.8818 -43.149,140.7512 -80.27,257.7268 -82.489,259.9457 -2.217,2.2192 -32.07,5.6577 -66.336,7.6411 -48.316,2.7972 -63.164,1.194 -66.148,-7.1423 z m 378.14,-260.6176 v -269.3775 l 161.921,2.1093 161.922,2.1092 2.379,37.0663 2.378,37.0663 h -98.485 c -54.164,0 -105.274,3.6352 -113.578,8.0781 -12.978,6.9461 -15.092,16.767 -15.092,70.0824 0,73.0994 -6.266,69.1085 113.148,72.071 l 78.035,1.9358 2.38,37.0665 2.378,37.0664 h -85.628 c -47.095,0 -91.181,2.1314 -97.971,4.7364 -18.153,6.9666 -18.153,139.6293 0,146.5959 6.79,2.6052 59.464,4.7365 117.053,4.7365 h 104.708 v 39.0172 39.0173 h -167.775 -167.773 z m 706.519,262.0721 c -4.051,-6.555 -99.963,-443.5839 -111,-505.7716 -4.256,-23.9957 -3.235,-25.3613 19.006,-25.3613 h 23.507 l 43.61,223.7239 c 23.983,123.048 47.226,227.3412 51.647,231.7624 5.515,5.5158 10.623,5.4522 16.28,-0.2028 4.532,-4.5327 29.028,-92.1461 54.433,-194.6961 69.015,-278.5754 59.897,-252.7839 89.347,-252.7839 h 25.271 l 52.299,207.5567 c 28.766,114.156 55.507,215.991 59.427,226.2998 9.608,25.2725 28.726,23.736 33.793,-2.716 85.683,-447.3023 83.715,-438.944 103.393,-438.944 13.361,0 18.591,4.371 18.591,15.5371 0,28.3298 -102.569,503.1476 -110.842,513.116 -10.485,12.6343 -48.942,12.6544 -58.522,0.032 -4.071,-5.365 -28.91,-94.2328 -55.199,-197.4843 -54.255,-213.0867 -60.472,-232.239 -73.967,-227.9079 -5.498,1.7646 -32.793,94.1952 -62.948,213.1699 -29.284,115.53 -57.377,212.6832 -62.428,215.896 -13.033,8.289 -50.325,7.4691 -55.698,-1.2247 z m 1166.3091,-263.0344 v -270.3393 l 119.002,4.1409 c 187.308,6.5177 220.411,28.1402 220.435,143.9811 0,62.4695 -0.618,64.6011 -27.299,92.3745 -15.023,15.6361 -40.481,35.2159 -56.577,43.5109 -16.093,8.295 -29.263,20.0848 -29.263,26.1998 0,6.115 26.336,55.9769 58.526,110.8042 32.189,54.8276 58.528,104.1821 58.528,109.6768 0,12.7755 -24.405,12.9161 -40.994,0.2365 -7.018,-5.3648 -37.683,-53.6487 -68.146,-107.2973 -30.463,-53.6488 -62.652,-103.6884 -71.531,-111.1991 -21.852,-18.4829 -104.162,-19.4553 -111.124,-1.3127 -2.606,6.7889 -4.737,61.2179 -4.737,120.9534 v 108.61 h -23.411 -23.409 v -270.3393 z m 188.848,-11.4952 c 81.98,-17.2755 112.64,-53.987 105.67,-126.5302 -3.02,-31.4239 -8.601,-43.7082 -27.554,-60.642 -29.284,-26.1669 -89.866,-39.8092 -162.715,-36.6423 l -53.528,2.3268 -2.188,104.9528 c -1.204,57.724 -0.437,109.5194 1.707,115.1009 4.911,12.8013 80.933,13.5877 138.608,1.434 z m 287.161,12.6156 v -269.2189 h 23.411 23.41 v 124.217 c 0,127.9877 2.668,148.9037 18.994,148.9037 5.235,0 60.166,-61.3011 122.07,-136.2245 95.161,-115.1813 115.862,-136.2765 134.006,-136.5604 11.804,-0.1848 21.46,2.7463 21.46,6.5131 0,3.767 -33.359,47.6371 -74.132,97.4893 -40.773,49.8521 -74.132,96.0828 -74.132,102.7349 0,6.6523 40.381,80.0438 89.739,163.0923 49.356,83.0485 89.739,154.8843 89.739,159.6349 0,11.6365 -25.109,10.9584 -41.351,-1.1166 -7.216,-5.365 -46.022,-65.7983 -86.232,-134.2966 -40.211,-68.4982 -79.127,-128.1946 -86.485,-132.6587 -10.987,-6.6675 -19.636,-1.1522 -48.456,30.9009 -62.429,69.4358 -65.159,76.3796 -65.191,165.8232 v 79.9854 h -23.411 -23.409 v -269.219 z m 506.998,247.7595 c -47.558,-24.8768 -62.917,-43.3758 -48.216,-58.0761 7.778,-7.7766 19.512,-4.2886 58.351,17.3431 43.68,24.327 54.701,27.077 108.521,27.077 48.212,0 64.204,-3.1446 81.937,-16.1105 31.598,-23.1053 52.117,-68.096 45.98,-100.8101 -6.789,-36.1937 -38.279,-60.665 -141.976,-110.3352 -95.326,-45.6603 -131.324,-77.6432 -140.112,-124.4853 -18.218,-97.1139 86.393,-175.8959 201.76,-151.9453 66.915,13.8912 114.584,50.6265 93.309,71.9037 -5.55,5.5484 -19.009,1.6492 -43.158,-12.5028 -87.567,-51.3177 -193.259,-25.0536 -205.409,51.0432 -7.603,47.6206 19.209,74.5445 128.156,128.6834 136.725,67.9438 164.978,100.8692 153.313,178.6633 -7.183,47.9036 -31.617,82.2955 -73.5,103.4535 -28.516,14.4064 -47.604,17.5576 -106.342,17.5576 -62.95,0 -76.54,-2.5899 -112.614,-21.4595 z"
       style="fill:#877597;stroke-width:7.80344677" /><path
       id="path1975"
       d="m 7949.9989,-6503.0865 c 0,-58.9131 15.458,-87.046 68.181,-124.0837 62.201,-43.6965 242.307,-220.3796 310.229,-304.3343 189.693,-234.4703 313.04,-505.1649 371.579,-815.4604 16.36,-86.7228 18.402,-120.0488 18.402,-300.4327 0,-215.9121 -5.712,-268.473 -47.23,-434.6163 -42.014,-168.1302 -140.329,-395.5807 -237.934,-550.464 l -40.505,-64.2742 10.943,-68.3848 10.941,-68.3849 37.363,46.8208 c 182.268,228.3996 307.177,509.7996 361.972,815.4604 18.246,101.7827 20.351,133.533 20.941,316.0396 0.52,160.9481 -2.292,221.4408 -13.595,292.6294 -72.08,453.959 -299.94,860.1541 -643.8,1147.6739 -73.658,61.5904 -206.613,155.5016 -220.152,155.5016 -4.035,0 -7.335,-19.6607 -7.335,-43.6904 z M 3728.2835,-7784.9648 c -63.7352,-21.0327 -122.4634,-77.9584 -144.3925,-139.9613 -7.1249,-20.1483 -14.8595,-66.6754 -17.1879,-103.3934 -10.6537,-168.0449 68.5409,-270.0826 216.2552,-278.633 104.9167,-6.0732 182.5218,38.7746 225.4365,130.2787 18.1242,38.6446 20.3615,52.9113 20.2662,129.2762 -0.098,77.498 -2.2434,90.4829 -22.0925,133.6429 -25.4002,55.2315 -65.9344,98.0533 -110.3227,116.5487 -34.9454,14.5611 -138.1413,22.082 -167.9623,12.2412 z m 140.4437,-88.8059 c 43.4272,-29.7272 65.9963,-84.0832 68.8511,-165.8235 2.2434,-64.2262 0.5762,-73.8997 -19.509,-113.1418 -29.2648,-57.1821 -61.2077,-78.0426 -119.5042,-78.0426 -85.9862,0 -133.1329,57.1578 -138.9761,168.4918 -4.1845,79.7426 11.5517,132.086 52.7258,175.3679 28.158,29.6001 31.0389,30.7058 79.9857,30.7058 39.8566,0 56.2941,-3.7764 76.4267,-17.5576 z m 2065.0767,84.6513 c -102.171,-38.1642 -159.685,-145.3892 -151.2,-281.8812 5.2,-83.6208 27.26,-133.6541 80.308,-182.1369 50.554,-46.204 91.152,-59.1182 169.949,-54.0612 129.855,8.3335 205.004,91.4065 214.064,236.6386 8.216,131.6842 -42.63,235.0178 -134.499,273.3396 -43.141,17.9954 -140.333,22.4035 -178.622,8.1011 z m 138.028,-75.8506 c 57.516,-29.5486 83.425,-87.3413 83.297,-185.7948 -0.09,-69.587 -21.694,-125.0976 -61.833,-158.8731 -21.746,-18.2969 -32.03,-21.1407 -76.463,-21.1407 -43.048,0 -55.565,3.2235 -77.508,19.9607 -46.115,35.1734 -60.639,74.1441 -60.908,163.4203 -0.216,72.3298 1.479,81.1247 23.174,120.3014 12.873,23.2469 33.943,48.6926 46.82,56.5459 26.716,16.2917 96.437,19.4441 123.421,5.5803 z m 395.512,79.4787 c -39.604,-12.1224 -101.445,-47.9139 -101.445,-58.7129 0,-6.1261 8.313,-20.8022 18.472,-32.6134 l 18.472,-21.4745 46.882,21.0394 c 94.921,42.5978 189.296,19.955 189.296,-45.4169 0,-33.5588 -16.394,-46.3899 -128.883,-100.8813 -49.837,-24.1422 -94.991,-51.6307 -104.344,-63.5224 -57.562,-73.1771 -29.059,-166.4099 62.979,-206.0037 57.391,-24.6891 144.351,-20.0188 196.52,10.5545 39.829,23.3418 44.392,38.0681 19.879,64.162 l -16.277,17.3258 -36.398,-16.289 c -49.387,-22.103 -110.18,-22.5302 -139.198,-0.9781 -24.947,18.5284 -33.491,58.7814 -16.753,78.9471 5.646,6.8033 56.944,34.8137 113.995,62.245 110.1,52.9379 128.547,69.6418 139.206,126.0572 12.796,67.7222 -46.294,148.2532 -120.375,164.054 -46.236,9.8617 -112.437,10.5643 -142.028,1.5072 z m 3259.875,-3.3128 c -60.161,-22.5126 -111.865,-75.1882 -135.63,-138.1758 -19.296,-51.1387 -19.07,-185.0521 0.405,-241.2939 21.667,-62.5736 87.571,-126.7639 144.062,-140.3158 85.694,-20.5573 161.899,2.5993 217.893,66.2124 37.911,43.0699 55.6581,90.3932 61.4161,163.7659 9.97,127.072 -37.7271,233.2746 -124.9501,278.2184 -39.215,20.2059 -124.068,26.2315 -163.196,11.5888 z m 140.865,-31.6276 c 59.974,-31.4198 100.451,-103.9001 107.816,-193.0589 8.007,-96.9264 -13.477,-175.6591 -61.271,-224.543 -36.209,-37.036 -65.534,-49.2989 -119.096,-49.8028 -91.646,-0.8623 -156.049,58.8052 -175.661,162.7467 -23.153,122.7006 12.815,247.6141 84.363,292.9878 30.565,19.3851 43.638,22.7095 89.292,22.7095 30.975,0 62.351,-4.6459 74.557,-11.0393 z m 1319.4271,31.9958 c -42.598,-16.0009 -84.919,-44.263 -84.919,-56.7083 0,-15.8628 8.4,-14.0325 59.683,13.0037 42.709,22.5148 50.12,23.9034 114.547,21.4594 68.299,-2.5907 69.114,-2.8611 95.593,-31.7611 22.867,-24.9564 26.708,-34.6905 26.708,-67.6817 0,-55.2591 -22.436,-78.1828 -123.733,-126.4273 -126.71,-60.3489 -157.191,-89.6889 -157.191,-151.3084 0,-78.9195 80.093,-136.2591 176.531,-126.381 43.98,4.5049 102.613,30.7286 109.638,49.0356 7.739,20.167 -2.059,20.075 -40.532,-0.3807 -30.125,-16.0183 -48.214,-19.8168 -94.361,-19.8168 -52.731,0 -59.2,1.8496 -84.676,24.2187 -24.411,21.4327 -27.584,28.5453 -27.584,61.829 0,54.8973 21.724,76.0519 134.988,131.4448 116.497,56.9744 139.539,78.67 143.84,135.4409 4.27,56.3468 -20.409,104.4728 -66.501,129.6892 -41.867,22.9045 -138.89,30.55 -182.031,14.3442 z m -8106.8631,-259.4227 v -263.1406 l 126.8063,3.9517 c 140.2536,4.3705 168.9956,11.6832 202.522,51.5268 39.5706,47.0277 32.0759,125.621 -16.058,168.3646 -24.1501,21.4467 -20.9789,32.1897 17.2699,58.5057 42.1856,29.0246 54.8496,57.8691 50.1727,114.2746 -4.2835,51.6597 -21.6687,78.0102 -69.2665,104.9834 -32.533,18.4374 -42.0301,19.6505 -172.9354,22.0914 l -138.511,2.583 z m 239.8339,190.3741 c 35.6163,-10.8121 56.6972,-40.6888 56.6972,-80.3569 0,-56.306 -39.1771,-80.3642 -136.7424,-83.97 -45.5729,-1.6841 -60.552,0.4691 -66.2944,9.5295 -8.6884,13.7099 -10.083,140.372 -1.6849,152.948 3.1536,4.7212 11.0016,10.5114 17.4393,12.867 15.4951,5.6698 98.7552,-1.3551 130.5852,-11.0176 z m 2.0741,-247.9844 c 16.0859,-11.3365 19.9104,-21.2153 21.8016,-56.3033 3.3163,-61.4724 -10.6792,-72.1003 -99.5421,-75.5941 -79.0872,-3.1094 -78.0325,-4.2166 -78.2232,82.1141 -0.1487,67.264 8.9252,74.9556 80.8163,68.5158 33.4888,-2.9999 63.405,-10.4572 75.1474,-18.7325 z m 850.5741,57.8679 v -263.0197 l 103.397,3.7077 c 132.4571,4.7498 174.6027,18.0259 228.459,71.9645 46.143,46.2159 57.6868,76.7338 63.7207,168.473 7.7467,117.7715 -33.5367,208.937 -114.6524,253.1814 -41.5177,22.646 -46.8029,23.497 -161.9204,26.0617 l -119.0039,2.6511 z m 229.782,172.9726 c 43.6774,-23.6879 66.952,-72.261 72.3484,-150.989 9.644,-140.6891 -53.8666,-219.9904 -169.4704,-211.6088 l -35.1159,2.5459 -5.0807,42.9191 c -2.7953,23.6054 -5.4279,104.9981 -5.8536,180.8726 -0.9216,164.9562 -0.3357,166.3103 68.5039,158.1569 24.1301,-2.8583 57.7324,-12.7118 74.6683,-21.8967 z m 384.7578,-6.9458 -3.8165,-95.5922 -75.1596,-158.6168 c -41.3386,-87.2393 -75.1595,-162.0351 -75.1595,-166.2127 0,-4.3041 19.0665,-6.5817 43.9974,-5.2556 l 43.9973,2.3403 46.4612,119.0026 c 63.2083,161.9023 64.7462,161.6357 138.5129,-24.0235 26.2047,-65.9491 37.7267,-86.0789 52.4872,-91.6906 22.8612,-8.6918 62.402,-9.4452 67.4444,-1.2852 2.0066,3.2477 -29.3303,74.3567 -69.6399,158.0198 l -73.2918,152.1148 -0.1294,67.191 c -0.069,36.955 -2.3624,83.483 -5.0922,103.3956 l -4.961,36.2046 h -40.9179 -40.9154 z m 516.9605,-165.8234 v -261.4154 l 87.7883,0.047 c 192.8973,0.099 261.9193,31.7558 279.6223,128.2481 8.947,48.7768 -6.298,108.2886 -36.902,144.0426 -31.565,36.8766 -76.022,53.6255 -166.568,62.7534 -34.764,3.5047 -65.6322,8.7982 -68.5981,11.7638 -2.9665,2.9657 -6.706,43.7741 -8.3113,90.685 l -2.9186,85.2912 h -42.0563 -42.0563 z m 237.5036,-12.8962 c 28.301,-12.8947 43.421,-44.4787 43.421,-90.7025 0,-39.3516 -12.506,-58.4018 -51.5,-78.4537 -19.362,-9.9566 -124.8097,-14.9033 -133.4525,-6.2602 -8.5135,8.5133 -12.871,115.5428 -6.4492,158.371 l 5.4061,36.0572 60.6976,-4.6805 c 33.383,-2.5742 70.228,-9.0233 81.877,-14.3313 z m 1315.383,12.8962 v -261.4154 h 42.918 42.919 v 261.4154 261.4155 h -42.919 -42.918 z m 357.351,39.6559 c -1.262,-121.9681 -5.219,-224.6809 -8.792,-228.2509 -3.574,-3.5702 -36.082,-7.7303 -72.235,-9.2449 -61.804,-2.5889 -66.017,-3.872 -70.426,-21.4419 -10.638,-42.3814 -11.814,-42.1336 199.881,-42.1336 211.696,0 210.519,-0.2474 199.882,42.1336 -4.41,17.5699 -8.624,18.853 -70.427,21.4419 -36.156,1.5146 -68.661,5.6747 -72.235,9.2449 -3.574,3.57 -7.531,106.2828 -8.792,228.2509 l -2.293,221.7596 h -46.135 -46.135 z m 368.37,-39.6559 v -261.4154 h 41.733 41.732 l 5.088,83.1502 c 6.509,106.3857 6.517,276.6793 0.02,368.2511 l -5.068,71.4296 h -41.751 -41.75 z m 321.986,208.7423 c -8.788,-28.9702 -42.691,-140.7264 -75.341,-248.3468 -32.649,-107.6206 -59.362,-201.5546 -59.362,-208.7423 0,-19.3221 74.444,-18.8059 84.72,0.5875 3.982,7.511 29.056,96.0455 55.722,196.7434 56.641,213.884 58.304,218.7903 74.126,218.7903 16.956,0 21.093,-12.2775 74.943,-222.3983 26.4,-103.0055 51.497,-191.6723 55.775,-197.037 8.83,-11.0727 72.938,-13.3786 79.439,-2.8573 4.992,8.074 -141.53,491.7678 -153.333,506.1796 -5.048,6.1658 -28.722,9.7543 -64.348,9.7543 h -56.362 l -15.979,-52.6732 z m 395.931,-208.7423 v -261.4154 h 156.068 156.07 v 30.2384 c 0,27.6242 -2.109,30.66 -24.388,35.1156 -13.411,2.6823 -62.196,4.8769 -108.413,4.8769 -97.623,0 -93.5,-3.6497 -93.5,82.7676 0,55.1657 1.005,58.4628 20.018,65.6912 11.009,4.1857 54.902,7.6103 97.541,7.6103 h 77.528 v 31.2138 31.2138 h -77.528 c -42.639,0 -86.532,3.4246 -97.541,7.6103 -19.452,7.3953 -20.018,9.6048 -20.018,78.2276 0,68.6228 0.566,70.8322 20.018,78.2275 11.009,4.1858 63.681,7.6104 117.05,7.6104 h 97.035 v 31.2137 31.2138 h -159.971 -159.969 z m 699.296,247.7595 c -6.969,-23.3993 -106.235,-491.8098 -106.235,-501.286 0,-4.9361 7.773,-7.8522 17.27,-6.4808 16.161,2.3331 19.917,16.3018 58.391,217.0885 41.279,215.4303 50.113,249.7103 64.36,249.7103 13.71,0 21.236,-24.0844 74.383,-238.0052 28.79,-115.8812 57.355,-215.9008 63.48,-222.266 25.317,-26.3107 35.85,-0.7474 92.515,224.5753 30.384,120.814 59.553,223.9717 64.82,229.2395 7.568,7.568 11.624,7.5435 19.332,-0.1171 5.365,-5.3323 29.179,-110.5033 52.92,-233.7133 41.107,-213.3218 44.03,-224.1419 61.206,-226.6072 14.355,-2.0606 17.173,0.3292 13.801,11.7051 -2.331,7.8618 -25.938,117.8851 -52.459,244.496 -26.523,126.6109 -51.278,238.3252 -55.013,248.2542 -5.497,14.6172 -11.617,17.5871 -32.155,15.6069 l -25.367,-2.4458 -52.884,-206.2475 c -29.089,-113.4362 -56.734,-210.8818 -61.432,-216.5458 -15.136,-18.2363 -29.252,-11.0359 -37.179,18.9649 -4.252,16.0946 -27.73,110.0287 -52.175,208.7423 -24.443,98.7136 -47.866,183.8686 -52.048,189.2336 -11.659,14.9498 -50.737,12.2041 -55.531,-3.9019 z m 1173.5301,-248.4598 v -262.1159 l 119.002,2.6513 c 101.575,2.2628 123.47,4.9946 149.502,18.6521 45.299,23.766 60.703,57.4908 57.605,126.1198 -2.326,51.5669 -4.71,58.5222 -28.443,83.0082 -14.246,14.6987 -39.643,32.9213 -56.437,40.4944 -18.916,8.5291 -30.535,19.0546 -30.535,27.6563 0,7.6378 26.336,58.378 58.525,112.7557 32.19,54.3777 58.525,102.2685 58.525,106.4241 0,4.1553 -7.597,6.4332 -16.884,5.0617 -12.583,-1.8581 -33.477,-31.3236 -81.998,-115.6435 l -65.11,-113.15 -56.514,-4.8498 c -31.127,-2.671 -60.022,-1.6291 -64.319,2.3188 -4.292,3.9427 -8.941,57.9206 -10.33,119.9507 -2.358,105.2654 -3.528,112.7819 -17.558,112.7819 -14.54,0 -15.031,-8.5485 -15.031,-262.1158 z m 205.075,-12.3294 c 44.935,-9.8156 79.738,-41.6897 86.837,-79.5293 7.748,-41.3064 -2.79,-88.3001 -24.721,-110.2316 -24.103,-24.1021 -55.291,-32.3103 -148.159,-38.993 l -72.154,-5.192 -7.832,20.6001 c -10.109,26.5925 -10.182,184.0635 -0.09,210.5922 7.653,20.1288 8.388,20.2973 68.281,15.6248 33.298,-2.5979 77.328,-8.3898 97.843,-12.8712 z m 268.015,144.1566 c -2.936,-71.6587 -2.944,-189.2957 0,-261.4155 4.733,-116.5621 6.809,-131.1268 18.699,-131.1268 11.848,0 14.162,15.364 20.266,134.5349 5.871,114.6273 8.77,134.892 19.593,136.9484 8.354,1.5881 51.83,-44.4275 127.106,-134.5347 81.003,-96.9827 119.134,-136.9486 130.651,-136.9486 18.978,0 24.559,-8.6777 -66.14,102.8613 -37.275,45.8439 -67.775,89.2035 -67.775,96.3546 0,7.1514 38.566,77.1809 85.705,155.6213 101.957,169.6617 102.239,170.2653 77.566,166.7296 -14.513,-2.0796 -32.917,-27.3979 -87.003,-119.6891 -79.654,-135.9196 -96.292,-159.9708 -110.663,-159.9708 -16.049,0 -98.267,97.6555 -106.556,126.5597 -4.024,14.0275 -7.314,54.4979 -7.314,89.9344 0,57.4226 -1.567,64.4299 -14.397,64.4299 -13.206,0 -14.84,-10.7822 -19.738,-130.2886 z"
       style="fill:#6286a0;stroke-width:7.80344677" /><path
       id="path1973"
       d="m 3728.2835,-7784.9648 c -63.7352,-21.0327 -122.4634,-77.9584 -144.3925,-139.9613 -7.1249,-20.1483 -14.8595,-66.6754 -17.1879,-103.3934 -10.6537,-168.0449 68.5409,-270.0826 216.2552,-278.633 104.9167,-6.0732 182.5218,38.7746 225.4365,130.2787 18.1242,38.6446 20.3615,52.9113 20.2662,129.2762 -0.098,77.498 -2.2434,90.4829 -22.0925,133.6429 -25.4002,55.2315 -65.9344,98.0533 -110.3227,116.5487 -34.9454,14.5611 -138.1413,22.082 -167.9623,12.2412 z m 140.4437,-88.8059 c 43.4272,-29.7272 65.9963,-84.0832 68.8511,-165.8235 2.2434,-64.2262 0.5762,-73.8997 -19.509,-113.1418 -29.2648,-57.1821 -61.2077,-78.0426 -119.5042,-78.0426 -85.9862,0 -133.1329,57.1578 -138.9761,168.4918 -4.1845,79.7426 11.5517,132.086 52.7258,175.3679 28.158,29.6001 31.0389,30.7058 79.9857,30.7058 39.8566,0 56.2941,-3.7764 76.4267,-17.5576 z m 2065.0767,84.6513 c -102.171,-38.1642 -159.685,-145.3892 -151.2,-281.8812 5.2,-83.6208 27.26,-133.6541 80.308,-182.1369 50.554,-46.204 91.152,-59.1182 169.949,-54.0612 129.855,8.3335 205.004,91.4065 214.064,236.6386 8.216,131.6842 -42.63,235.0178 -134.499,273.3396 -43.141,17.9954 -140.333,22.4035 -178.622,8.1011 z m 138.028,-75.8506 c 57.516,-29.5486 83.425,-87.3413 83.297,-185.7948 -0.09,-69.587 -21.694,-125.0976 -61.833,-158.8731 -21.746,-18.2969 -32.03,-21.1407 -76.463,-21.1407 -43.048,0 -55.565,3.2235 -77.508,19.9607 -46.115,35.1734 -60.639,74.1441 -60.908,163.4203 -0.216,72.3298 1.479,81.1247 23.174,120.3014 12.873,23.2469 33.943,48.6926 46.82,56.5459 26.716,16.2917 96.437,19.4441 123.421,5.5803 z m 395.512,79.4787 c -39.604,-12.1224 -101.445,-47.9139 -101.445,-58.7129 0,-6.1261 8.313,-20.8022 18.472,-32.6134 l 18.472,-21.4745 46.882,21.0394 c 94.921,42.5978 189.296,19.955 189.296,-45.4169 0,-33.5588 -16.394,-46.3899 -128.883,-100.8813 -49.837,-24.1422 -94.991,-51.6307 -104.344,-63.5224 -57.562,-73.1771 -29.059,-166.4099 62.979,-206.0037 57.391,-24.6891 144.351,-20.0188 196.52,10.5545 39.829,23.3418 44.392,38.0681 19.879,64.162 l -16.277,17.3258 -36.398,-16.289 c -49.387,-22.103 -110.18,-22.5302 -139.198,-0.9781 -24.947,18.5284 -33.491,58.7814 -16.753,78.9471 5.646,6.8033 56.944,34.8137 113.995,62.245 110.1,52.9379 128.547,69.6418 139.206,126.0572 12.796,67.7222 -46.294,148.2532 -120.375,164.054 -46.236,9.8617 -112.437,10.5643 -142.028,1.5072 z m 3259.875,-3.3128 c -60.161,-22.5126 -111.865,-75.1882 -135.63,-138.1758 -19.296,-51.1387 -19.07,-185.0521 0.405,-241.2939 21.667,-62.5736 87.571,-126.7639 144.062,-140.3158 85.694,-20.5573 161.899,2.5993 217.893,66.2124 37.911,43.0699 55.6581,90.3932 61.4161,163.7659 9.97,127.072 -37.7271,233.2746 -124.9501,278.2184 -39.215,20.2059 -124.068,26.2315 -163.196,11.5888 z m 140.865,-31.6276 c 59.974,-31.4198 100.451,-103.9001 107.816,-193.0589 8.007,-96.9264 -13.477,-175.6591 -61.271,-224.543 -36.209,-37.036 -65.534,-49.2989 -119.096,-49.8028 -91.646,-0.8623 -156.049,58.8052 -175.661,162.7467 -23.153,122.7006 12.815,247.6141 84.363,292.9878 30.565,19.3851 43.638,22.7095 89.292,22.7095 30.975,0 62.351,-4.6459 74.557,-11.0393 z m 1319.4271,31.9958 c -42.598,-16.0009 -84.919,-44.263 -84.919,-56.7083 0,-15.8628 8.4,-14.0325 59.683,13.0037 42.709,22.5148 50.12,23.9034 114.547,21.4594 68.299,-2.5907 69.114,-2.8611 95.593,-31.7611 22.867,-24.9564 26.708,-34.6905 26.708,-67.6817 0,-55.2591 -22.436,-78.1828 -123.733,-126.4273 -126.71,-60.3489 -157.191,-89.6889 -157.191,-151.3084 0,-78.9195 80.093,-136.2591 176.531,-126.381 43.98,4.5049 102.613,30.7286 109.638,49.0356 7.739,20.167 -2.059,20.075 -40.532,-0.3807 -30.125,-16.0183 -48.214,-19.8168 -94.361,-19.8168 -52.731,0 -59.2,1.8496 -84.676,24.2187 -24.411,21.4327 -27.584,28.5453 -27.584,61.829 0,54.8973 21.724,76.0519 134.988,131.4448 116.497,56.9744 139.539,78.67 143.84,135.4409 4.27,56.3468 -20.409,104.4728 -66.501,129.6892 -41.867,22.9045 -138.89,30.55 -182.031,14.3442 z m -8106.8631,-259.4227 v -263.1406 l 126.8063,3.9517 c 140.2536,4.3705 168.9956,11.6832 202.522,51.5268 39.5706,47.0277 32.0759,125.621 -16.058,168.3646 -24.1501,21.4467 -20.9789,32.1897 17.2699,58.5057 42.1856,29.0246 54.8496,57.8691 50.1727,114.2746 -4.2835,51.6597 -21.6687,78.0102 -69.2665,104.9834 -32.533,18.4374 -42.0301,19.6505 -172.9354,22.0914 l -138.511,2.583 z m 239.8339,190.3741 c 35.6163,-10.8121 56.6972,-40.6888 56.6972,-80.3569 0,-56.306 -39.1771,-80.3642 -136.7424,-83.97 -45.5729,-1.6841 -60.552,0.4691 -66.2944,9.5295 -8.6884,13.7099 -10.083,140.372 -1.6849,152.948 3.1536,4.7212 11.0016,10.5114 17.4393,12.867 15.4951,5.6698 98.7552,-1.3551 130.5852,-11.0176 z m 2.0741,-247.9844 c 16.0859,-11.3365 19.9104,-21.2153 21.8016,-56.3033 3.3163,-61.4724 -10.6792,-72.1003 -99.5421,-75.5941 -79.0872,-3.1094 -78.0325,-4.2166 -78.2232,82.1141 -0.1487,67.264 8.9252,74.9556 80.8163,68.5158 33.4888,-2.9999 63.405,-10.4572 75.1474,-18.7325 z m 850.5741,57.8679 v -263.0197 l 103.397,3.7077 c 132.4571,4.7498 174.6027,18.0259 228.459,71.9645 46.143,46.2159 57.6868,76.7338 63.7207,168.473 7.7467,117.7715 -33.5367,208.937 -114.6524,253.1814 -41.5177,22.646 -46.8029,23.497 -161.9204,26.0617 l -119.0039,2.6511 z m 229.782,172.9726 c 43.6774,-23.6879 66.952,-72.261 72.3484,-150.989 9.644,-140.6891 -53.8666,-219.9904 -169.4704,-211.6088 l -35.1159,2.5459 -5.0807,42.9191 c -2.7953,23.6054 -5.4279,104.9981 -5.8536,180.8726 -0.9216,164.9562 -0.3357,166.3103 68.5039,158.1569 24.1301,-2.8583 57.7324,-12.7118 74.6683,-21.8967 z m 384.7578,-6.9458 -3.8165,-95.5922 -75.1596,-158.6168 c -41.3386,-87.2393 -75.1595,-162.0351 -75.1595,-166.2127 0,-4.3041 19.0665,-6.5817 43.9974,-5.2556 l 43.9973,2.3403 46.4612,119.0026 c 63.2083,161.9023 64.7462,161.6357 138.5129,-24.0235 26.2047,-65.9491 37.7267,-86.0789 52.4872,-91.6906 22.8612,-8.6918 62.402,-9.4452 67.4444,-1.2852 2.0066,3.2477 -29.3303,74.3567 -69.6399,158.0198 l -73.2918,152.1148 -0.1294,67.191 c -0.069,36.955 -2.3624,83.483 -5.0922,103.3956 l -4.961,36.2046 h -40.9179 -40.9154 z m 516.9605,-165.8234 v -261.4154 l 87.7883,0.047 c 192.8973,0.099 261.9193,31.7558 279.6223,128.2481 8.947,48.7768 -6.298,108.2886 -36.902,144.0426 -31.565,36.8766 -76.022,53.6255 -166.568,62.7534 -34.764,3.5047 -65.6322,8.7982 -68.5981,11.7638 -2.9665,2.9657 -6.706,43.7741 -8.3113,90.685 l -2.9186,85.2912 h -42.0563 -42.0563 z m 237.5036,-12.8962 c 28.301,-12.8947 43.421,-44.4787 43.421,-90.7025 0,-39.3516 -12.506,-58.4018 -51.5,-78.4537 -19.362,-9.9566 -124.8097,-14.9033 -133.4525,-6.2602 -8.5135,8.5133 -12.871,115.5428 -6.4492,158.371 l 5.4061,36.0572 60.6976,-4.6805 c 33.383,-2.5742 70.228,-9.0233 81.877,-14.3313 z m 1315.383,12.8962 v -261.4154 h 42.918 42.919 v 261.4154 261.4155 h -42.919 -42.918 z m 357.351,39.6559 c -1.262,-121.9681 -5.219,-224.6809 -8.792,-228.2509 -3.574,-3.5702 -36.082,-7.7303 -72.235,-9.2449 -61.804,-2.5889 -66.017,-3.872 -70.426,-21.4419 -10.638,-42.3814 -11.814,-42.1336 199.881,-42.1336 211.696,0 210.519,-0.2474 199.882,42.1336 -4.41,17.5699 -8.624,18.853 -70.427,21.4419 -36.156,1.5146 -68.661,5.6747 -72.235,9.2449 -3.574,3.57 -7.531,106.2828 -8.792,228.2509 l -2.293,221.7596 h -46.135 -46.135 z m 368.37,-39.6559 v -261.4154 h 41.733 41.732 l 5.088,83.1502 c 6.509,106.3857 6.517,276.6793 0.02,368.2511 l -5.068,71.4296 h -41.751 -41.75 z m 321.986,208.7423 c -8.788,-28.9702 -42.691,-140.7264 -75.341,-248.3468 -32.649,-107.6206 -59.362,-201.5546 -59.362,-208.7423 0,-19.3221 74.444,-18.8059 84.72,0.5875 3.982,7.511 29.056,96.0455 55.722,196.7434 56.641,213.884 58.304,218.7903 74.126,218.7903 16.956,0 21.093,-12.2775 74.943,-222.3983 26.4,-103.0055 51.497,-191.6723 55.775,-197.037 8.83,-11.0727 72.938,-13.3786 79.439,-2.8573 4.992,8.074 -141.53,491.7678 -153.333,506.1796 -5.048,6.1658 -28.722,9.7543 -64.348,9.7543 h -56.362 l -15.979,-52.6732 z m 395.931,-208.7423 v -261.4154 h 156.068 156.07 v 30.2384 c 0,27.6242 -2.109,30.66 -24.388,35.1156 -13.411,2.6823 -62.196,4.8769 -108.413,4.8769 -97.623,0 -93.5,-3.6497 -93.5,82.7676 0,55.1657 1.005,58.4628 20.018,65.6912 11.009,4.1857 54.902,7.6103 97.541,7.6103 h 77.528 v 31.2138 31.2138 h -77.528 c -42.639,0 -86.532,3.4246 -97.541,7.6103 -19.452,7.3953 -20.018,9.6048 -20.018,78.2276 0,68.6228 0.566,70.8322 20.018,78.2275 11.009,4.1858 63.681,7.6104 117.05,7.6104 h 97.035 v 31.2137 31.2138 h -159.971 -159.969 z m 699.296,247.7595 c -6.969,-23.3993 -106.235,-491.8098 -106.235,-501.286 0,-4.9361 7.773,-7.8522 17.27,-6.4808 16.161,2.3331 19.917,16.3018 58.391,217.0885 41.279,215.4303 50.113,249.7103 64.36,249.7103 13.71,0 21.236,-24.0844 74.383,-238.0052 28.79,-115.8812 57.355,-215.9008 63.48,-222.266 25.317,-26.3107 35.85,-0.7474 92.515,224.5753 30.384,120.814 59.553,223.9717 64.82,229.2395 7.568,7.568 11.624,7.5435 19.332,-0.1171 5.365,-5.3323 29.179,-110.5033 52.92,-233.7133 41.107,-213.3218 44.03,-224.1419 61.206,-226.6072 14.355,-2.0606 17.173,0.3292 13.801,11.7051 -2.331,7.8618 -25.938,117.8851 -52.459,244.496 -26.523,126.6109 -51.278,238.3252 -55.013,248.2542 -5.497,14.6172 -11.617,17.5871 -32.155,15.6069 l -25.367,-2.4458 -52.884,-206.2475 c -29.089,-113.4362 -56.734,-210.8818 -61.432,-216.5458 -15.136,-18.2363 -29.252,-11.0359 -37.179,18.9649 -4.252,16.0946 -27.73,110.0287 -52.175,208.7423 -24.443,98.7136 -47.866,183.8686 -52.048,189.2336 -11.659,14.9498 -50.737,12.2041 -55.531,-3.9019 z m 1173.5301,-248.4598 v -262.1159 l 119.002,2.6513 c 101.575,2.2628 123.47,4.9946 149.502,18.6521 45.299,23.766 60.703,57.4908 57.605,126.1198 -2.326,51.5669 -4.71,58.5222 -28.443,83.0082 -14.246,14.6987 -39.643,32.9213 -56.437,40.4944 -18.916,8.5291 -30.535,19.0546 -30.535,27.6563 0,7.6378 26.336,58.378 58.525,112.7557 32.19,54.3777 58.525,102.2685 58.525,106.4241 0,4.1553 -7.597,6.4332 -16.884,5.0617 -12.583,-1.8581 -33.477,-31.3236 -81.998,-115.6435 l -65.11,-113.15 -56.514,-4.8498 c -31.127,-2.671 -60.022,-1.6291 -64.319,2.3188 -4.292,3.9427 -8.941,57.9206 -10.33,119.9507 -2.358,105.2654 -3.528,112.7819 -17.558,112.7819 -14.54,0 -15.031,-8.5485 -15.031,-262.1158 z m 205.075,-12.3294 c 44.935,-9.8156 79.738,-41.6897 86.837,-79.5293 7.748,-41.3064 -2.79,-88.3001 -24.721,-110.2316 -24.103,-24.1021 -55.291,-32.3103 -148.159,-38.993 l -72.154,-5.192 -7.832,20.6001 c -10.109,26.5925 -10.182,184.0635 -0.09,210.5922 7.653,20.1288 8.388,20.2973 68.281,15.6248 33.298,-2.5979 77.328,-8.3898 97.843,-12.8712 z m 268.015,144.1566 c -2.936,-71.6587 -2.944,-189.2957 0,-261.4155 4.733,-116.5621 6.809,-131.1268 18.699,-131.1268 11.848,0 14.162,15.364 20.266,134.5349 5.871,114.6273 8.77,134.892 19.593,136.9484 8.354,1.5881 51.83,-44.4275 127.106,-134.5347 81.003,-96.9827 119.134,-136.9486 130.651,-136.9486 18.978,0 24.559,-8.6777 -66.14,102.8613 -37.275,45.8439 -67.775,89.2035 -67.775,96.3546 0,7.1514 38.566,77.1809 85.705,155.6213 101.957,169.6617 102.239,170.2653 77.566,166.7296 -14.513,-2.0796 -32.917,-27.3979 -87.003,-119.6891 -79.654,-135.9196 -96.292,-159.9708 -110.663,-159.9708 -16.049,0 -98.267,97.6555 -106.556,126.5597 -4.024,14.0275 -7.314,54.4979 -7.314,89.9344 0,57.4226 -1.567,64.4299 -14.397,64.4299 -13.206,0 -14.84,-10.7822 -19.738,-130.2886 z"
       style="fill:#675a8d;stroke-width:7.80344677" /></g></g></svg>